<!-- Generated by IcoMoon.io -->
<svg version="1.1" xmlns="http://www.w3.org/2000/svg" width="64" height="64" viewBox="0 0 64 64">
<title>address-book</title>
<path d="M62 18.096v-4.192h-4.904v-8.654c-0.017-1.713-1.41-3.096-3.125-3.096-0.008 0-0.015 0-0.023 0h-43.896c-0.007-0-0.014-0-0.022-0-1.716 0-3.109 1.383-3.125 3.094v53.752c0.017 1.714 1.41 3.096 3.125 3.096 0.008 0 0.015 0 0.023-0h43.896c0.007 0 0.014 0 0.022 0 1.716 0 3.109-1.383 3.125-3.094v-8.906h4.904v-4.192h-4.904v-11.808h4.904v-4.192h-4.904v-11.808zM52.904 29.904h-5.904v4.192h5.904v11.808h-5.904v4.192h5.904v7.808h-41.808v-51.558h41.808v7.558h-5.904v4.192h5.904z"></path>
<path d="M39.205 38.366h0l-3.593-2.336 1.728-4.207v-6.609c0-4.537-3.678-8.214-8.214-8.214s-8.214 3.678-8.214 8.214v0 6.569l1.59 4.336-3.456 2.246c-1.693 1.108-2.795 2.995-2.795 5.139 0 0.004 0 0.008 0 0.012v-0.001 6.484h25.75v-6.484c0-0.003 0-0.008 0-0.012 0-2.144-1.103-4.031-2.772-5.125l-0.023-0.014zM38 46h-17.75v-2.484c0-0.001 0-0.003 0-0.004 0-0.748 0.385-1.406 0.967-1.788l0.008-0.005 6.129-3.984-2.444-6.662v-5.859c0-2.328 1.887-4.214 4.214-4.214s4.214 1.887 4.214 4.214v0 5.82l-2.687 6.543 6.373 4.142c0.59 0.386 0.975 1.045 0.975 1.793 0 0.001 0 0.003 0 0.004v-0z"></path>
</svg>
