<!-- Generated by IcoMoon.io -->
<svg version="1.1" xmlns="http://www.w3.org/2000/svg" width="64" height="64" viewBox="0 0 64 64">
<title>address-card</title>
<path d="M35.75 41.516c0-0.003 0-0.008 0-0.012 0-2.144-1.103-4.031-2.772-5.125l-0.023-0.014h0l-3.593-2.336 1.728-4.207v-6.609c0-4.537-3.678-8.214-8.214-8.214s-8.214 3.678-8.214 8.214v0 6.569l1.59 4.336-3.456 2.246c-1.693 1.108-2.795 2.995-2.795 5.139 0 0.004 0 0.008 0 0.012v-0.001 6.484h25.75zM31.75 44h-17.75v-2.484c0-0.001 0-0.003 0-0.004 0-0.748 0.385-1.406 0.967-1.788l0.008-0.005 6.129-3.984-2.444-6.662v-5.859c0-2.328 1.887-4.214 4.214-4.214s4.214 1.887 4.214 4.214v0 5.82l-2.687 6.543 6.373 4.142c0.59 0.386 0.975 1.045 0.975 1.793 0 0.001 0 0.003 0 0.004v-0z"></path>
<path d="M59 8h-54c-1.656 0.002-2.998 1.344-3 3v42c0.002 1.656 1.344 2.998 3 3h54c1.656-0.002 2.998-1.344 3-3v-42c-0.002-1.656-1.344-2.998-3-3h-0zM58 52h-52v-40h52z"></path>
<path d="M37 17h17v4h-17v-4z"></path>
<path d="M37 25h17v4h-17v-4z"></path>
</svg>
