<!-- Generated by IcoMoon.io -->
<svg version="1.1" xmlns="http://www.w3.org/2000/svg" width="64" height="64" viewBox="0 0 64 64">
<title>alarm-add</title>
<path d="M32 10c-14.359 0-26 11.641-26 26s11.641 26 26 26 26-11.641 26-26-11.641-26-26-26zM47.556 51.556c-3.981 3.981-9.481 6.444-15.556 6.444-12.15 0-22-9.85-22-22s9.85-22 22-22c12.15 0 22 9.85 22 22v0c0 0.018 0 0.039 0 0.060 0 6.056-2.463 11.537-6.443 15.496l-0.001 0.001z"></path>
<path d="M2.871 14.349l19-13 2.259 3.301-19 13-2.259-3.301z"></path>
<path d="M39.871 4.651l2.259-3.301 19 13-2.259 3.301-19-13z"></path>
<path d="M34 25h-4v9h-9v4h9v9h4v-9h9v-4h-9v-9z"></path>
</svg>
