<!-- Generated by IcoMoon.io -->
<svg version="1.1" xmlns="http://www.w3.org/2000/svg" width="64" height="64" viewBox="0 0 64 64">
<title>arrow-thick-circle-right</title>
<path d="M32.908 14.001l-4.908-0.002 0 10.001h-10v16h10.001l0 10h4.878l18.027-17.978zM32.002 45.227l-0.001-9.227h-10.001v-8h10.001l-0.001-9.247 13.248 13.264z"></path>
<path d="M53.213 10.787c-5.429-5.429-12.929-8.787-21.213-8.787-16.569 0-30 13.431-30 30 0 8.284 3.358 15.784 8.787 21.213v0c5.429 5.429 12.929 8.787 21.213 8.787 16.569 0 30-13.431 30-30 0-8.284-3.358-15.784-8.787-21.213v0zM32 58c-14.336 0-26-11.664-26-26s11.664-26 26-26 26 11.664 26 26-11.664 26-26 26z"></path>
</svg>
