<!-- Generated by IcoMoon.io -->
<svg version="1.1" xmlns="http://www.w3.org/2000/svg" width="64" height="64" viewBox="0 0 64 64">
<title>arrow-thick-square-up</title>
<path d="M24 48h16v-12.001l10-0.001v-4.8l-17.978-18.027-18.020 17.999-0.002 4.831 10.001-0.001zM18.83 32l13.186-13.17 13.133 13.169-9.149 0v12.001h-8v-12.001z"></path>
<path d="M59 2h-54c-1.656 0.002-2.998 1.344-3 3v54c0.002 1.656 1.344 2.998 3 3h54c1.656-0.002 2.998-1.344 3-3v-54c-0.002-1.656-1.344-2.998-3-3h-0zM58 58h-52v-52h52z"></path>
</svg>
