<!-- Generated by IcoMoon.io -->
<svg version="1.1" xmlns="http://www.w3.org/2000/svg" width="64" height="64" viewBox="0 0 64 64">
<title>assistive-listening-system</title>
<path d="M34.642 10.677l-1.054 3.878c7.839 1.347 13.993 7.266 15.671 14.866l0.024 0.128 3.99-0.451c-1.897-9.379-9.219-16.63-18.485-18.398l-0.146-0.023z"></path>
<path d="M52.758 11.242c-4.223-4.244-9.651-7.284-15.728-8.563l-0.204-0.036-1.053 3.876c11.057 2.175 19.763 10.984 21.783 22.096l3.988-0.45c-1.171-6.672-4.309-12.469-8.785-16.921l-0.001-0.001z"></path>
<path d="M29.138 18.594q-0.197-0.003-0.393-0c-8.504 0.081-15.367 6.994-15.367 15.51 0 0 0 0 0 0v0h4.030c0-6.312 5.081-11.438 11.376-11.511l0.007-0c0.087-0.001 0.175-0.001 0.263 0.001 6.216 0.086 11.306 5.215 11.347 11.433 0 0.036 0.001 0.079 0.001 0.121 0 3.266-1.373 6.211-3.573 8.29l-0.005 0.005c-0.571 0.547-0.925 1.315-0.926 2.166v6.336c-0.005 3.894-3.16 7.050-7.054 7.054h-1.079v4h1.109c6.102-0.007 11.047-4.952 11.054-11.054v-5.915c2.784-2.813 4.504-6.683 4.504-10.955 0-0.026-0-0.053-0-0.079v0.004c-0.081-8.435-6.865-15.26-15.277-15.407l-0.014-0z"></path>
<path d="M35.393 34.104c0-0.008 0-0.018 0-0.027 0-3.592-2.912-6.504-6.504-6.504s-6.504 2.912-6.504 6.504c0 0.010 0 0.019 0 0.029v-0.001h4c-0-0.005-0-0.011-0-0.017 0-1.383 1.121-2.504 2.504-2.504s2.504 1.121 2.504 2.504c0 0.006 0 0.012-0 0.018v-0.001z"></path>
<path d="M27 38h4v4h-4v-4z"></path>
<path d="M14 51h4v4h-4v-4z"></path>
<path d="M15.456 42.544l2.828-2.828 11 11-2.828 2.828-11-11z"></path>
</svg>
