<!-- Generated by IcoMoon.io -->
<svg version="1.1" xmlns="http://www.w3.org/2000/svg" width="64" height="64" viewBox="0 0 64 64">
<title>at</title>
<path d="M61.978 29c-0.147-3.583-1.002-6.932-2.427-9.959l0.067 0.158c-1.625-3.477-3.795-6.433-6.434-8.892l-0.017-0.016c-5.703-5.346-13.22-8.291-21.167-8.291-16.569 0-30 13.431-30 30 0 8.284 3.358 15.784 8.787 21.213v0c5.429 5.429 12.929 8.787 21.213 8.787 8.177 0 15.589-3.271 21.001-8.576l-0.005 0.005-2.8-2.857c-4.664 4.593-11.069 7.429-18.136 7.429-0.021 0-0.042 0-0.063-0h0.003c-14.336 0-26-11.664-26-26s11.664-26 26-26c14.093 0 26 10.991 26 24v4.5c0 3.584-3.14 6.5-7 6.5s-7-2.916-7-6.5v-14.5h-4v3.344c-2.224-2.070-5.217-3.341-8.506-3.341-6.903 0-12.498 5.596-12.498 12.498s5.596 12.498 12.498 12.498c4.12 0 7.774-1.993 10.051-5.068l0.024-0.034c1.926 3.054 5.432 5.102 9.431 5.102 6.065 0 11-4.71 11-10.5v-5.5zM31.5 41c-4.694 0-8.5-3.806-8.5-8.5s3.806-8.5 8.5-8.5c4.694 0 8.5 3.806 8.5 8.5v0c-0.005 4.692-3.808 8.495-8.499 8.5h-0z"></path>
</svg>
