<!-- Generated by IcoMoon.io -->
<svg version="1.1" xmlns="http://www.w3.org/2000/svg" width="64" height="64" viewBox="0 0 64 64">
<title>audio</title>
<path d="M32.053 25.124c-3.866 0-7 3.134-7 7s3.134 7 7 7c3.866 0 7-3.134 7-7v0c-0.005-3.864-3.136-6.995-7-7h-0zM32.053 35.124c-1.657 0-3-1.343-3-3s1.343-3 3-3c1.657 0 3 1.343 3 3v0c0 1.657-1.343 3-3 3v0z"></path>
<path d="M41.972 21.903c2.672 2.589 4.331 6.211 4.331 10.221 0 3.917-1.583 7.464-4.144 10.036l0.001-0.001 2.827 2.827c3.285-3.295 5.316-7.841 5.316-12.862 0-5.114-2.107-9.736-5.5-13.045l-0.004-0.004z"></path>
<path d="M19.19 19.19c-3.328 3.302-5.387 7.877-5.387 12.933 0 4.995 2.010 9.52 5.265 12.811l-0.002-0.002 2.827-2.827c-2.529-2.566-4.091-6.092-4.091-9.982 0-3.952 1.612-7.527 4.213-10.105l0.001-0.001z"></path>
<path d="M13.845 13.845l-2.837-2.837c-0.012 0.012-0.024 0.023-0.036 0.035-5.395 5.395-8.732 12.847-8.732 21.080 0 8.189 3.302 15.606 8.646 20.994l-0.002-0.002 2.837-2.837c-4.624-4.656-7.481-11.072-7.481-18.155 0-7.144 2.907-13.609 7.604-18.277l0.001-0.001z"></path>
<path d="M53.134 11.043c-0.050-0.050-0.102-0.099-0.153-0.149l-2.837 2.837c4.767 4.68 7.722 11.192 7.722 18.393 0 7.109-2.879 13.545-7.534 18.207l0-0 2.837 2.837c5.374-5.391 8.697-12.83 8.697-21.045 0-8.232-3.337-15.685-8.732-21.080v0z"></path>
</svg>
