<!-- Generated by IcoMoon.io -->
<svg version="1.1" xmlns="http://www.w3.org/2000/svg" width="64" height="64" viewBox="0 0 64 64">
<title>balance-scale</title>
<path d="M25.406 48.302l0.594-0.654v-3.223l-9.734-20.55h-4.531l-9.734 20.55v3.38l0.529 0.574c2.845 3.074 6.899 4.993 11.402 4.998h0.001c0.018 0 0.035 0 0.053-0 4.521-0.021 8.583-1.969 11.41-5.064l0.011-0.012zM22 46.076c-2.054 2.040-4.884 3.301-8.009 3.301-0.007 0-0.014 0-0.021 0h0.001c-0.014 0-0.027 0-0.041 0-0.017 0-0.037 0-0.057 0-3.058 0-5.834-1.208-7.877-3.173l0.004 0.004v-0.884l8-16.889 8 16.889z"></path>
<path d="M52.266 23.875h-4.531l-9.734 20.55v3.38l0.529 0.574c2.845 3.074 6.899 4.993 11.402 4.998h0.001c0.017 0 0.035 0 0.053-0 4.521-0.021 8.583-1.969 11.41-5.064l0.011-0.012 0.594-0.654v-3.223zM58 46.076c-2.054 2.040-4.884 3.301-8.009 3.301-0.007 0-0.014 0-0.021 0h0.001c-0.014 0-0.027 0-0.041 0-0.017 0-0.037 0-0.057 0-3.058 0-5.834-1.208-7.877-3.173l0.004 0.004v-0.884l8-16.889 8 16.889z"></path>
<path d="M34 24.582c2.264-0.696 4.012-2.443 4.694-4.658l0.013-0.050h13.293v-4h-13.293c-0.889-2.915-3.555-5-6.707-5s-5.818 2.085-6.694 4.95l-0.013 0.050h-13.293v4h13.293c0.696 2.264 2.443 4.012 4.658 4.694l0.050 0.013v33.293h-13v4h30v-4h-13zM29 17.875c0-1.657 1.343-3 3-3s3 1.343 3 3c0 1.657-1.343 3-3 3v0c-1.657 0-3-1.343-3-3v0z"></path>
</svg>
