<!-- Generated by IcoMoon.io -->
<svg version="1.1" xmlns="http://www.w3.org/2000/svg" width="64" height="64" viewBox="0 0 64 64">
<title>bar-chart</title>
<path d="M17 52h11c1.656-0.002 2.998-1.344 3-3v-26c-0.002-1.656-1.344-2.998-3-3h-11c-1.656 0.002-2.998 1.344-3 3v26c0.002 1.656 1.344 2.998 3 3h0zM18 24h9v24h-9z"></path>
<path d="M53 2h-11c-1.656 0.002-2.998 1.344-3 3v44c0.002 1.656 1.344 2.998 3 3h11c1.656-0.002 2.998-1.344 3-3v-44c-0.002-1.656-1.344-2.998-3-3h-0zM52 48h-9v-42h9z"></path>
<path d="M6 2h-4v60h60v-4h-56v-56z"></path>
</svg>
