<!-- Generated by IcoMoon.io -->
<svg version="1.1" xmlns="http://www.w3.org/2000/svg" width="64" height="64" viewBox="0 0 64 64">
<title>barcode</title>
<path d="M2 7v51h60v-51zM58 54h-52v-43h52z"></path>
<path d="M10 16h4v32h-4v-32z"></path>
<path d="M18 16h4v24h-4v-24z"></path>
<path d="M26 16h4v32h-4v-32z"></path>
<path d="M34 16h4v24h-4v-24z"></path>
<path d="M42 16h4v24h-4v-24z"></path>
<path d="M50 16h4v32h-4v-32z"></path>
<path d="M18 44h4v4h-4v-4z"></path>
<path d="M34 44h4v4h-4v-4z"></path>
<path d="M42 44h4v4h-4v-4z"></path>
</svg>
