<!-- Generated by IcoMoon.io -->
<svg version="1.1" xmlns="http://www.w3.org/2000/svg" width="64" height="64" viewBox="0 0 64 64">
<title>basket</title>
<path d="M15 38h4v16h-4v-16z"></path>
<path d="M25 38h4v16h-4v-16z"></path>
<path d="M35 38h4v16h-4v-16z"></path>
<path d="M45 38h4v16h-4v-16z"></path>
<path d="M59.21 21l-9.952-19h-4.516l9.952 19h-45.389l9.952-19h-4.515l-9.952 19h-2.79v13.934l5.357 27.066h49.283l5.36-26.802v-14.198zM58 34.802l-4.64 23.198h-42.717l-4.643-23.459v-0.541h52zM58 30h-52v-5h52z"></path>
</svg>
