<!-- Generated by IcoMoon.io -->
<svg version="1.1" xmlns="http://www.w3.org/2000/svg" width="64" height="64" viewBox="0 0 64 64">
<title>battery-full</title>
<path d="M58 23h4v19h-4v-19z"></path>
<path d="M50.875 13h-45.877c-1.656 0.002-2.998 1.344-3 3v33c0.002 1.656 1.344 2.998 3 3h45.877c1.656-0.002 2.998-1.344 3-3v-33c-0.002-1.656-1.344-2.998-3-3h-0zM49.875 48h-43.877v-31h43.877z"></path>
<path d="M13.75 21h4v23h-4v-23z"></path>
<path d="M25.875 21h4v23h-4v-23z"></path>
<path d="M37.458 21h4v23h-4v-23z"></path>
</svg>
