<!-- Generated by IcoMoon.io -->
<svg version="1.1" xmlns="http://www.w3.org/2000/svg" width="64" height="64" viewBox="0 0 64 64">
<title>bell-ring</title>
<path d="M51 33.493v-10.493c0-10.477-8.523-19-19-19s-19 8.523-19 19v10.493l-5.459 10.078c-0.228 0.413-0.362 0.905-0.362 1.429 0 1.657 1.343 3 3 3h10.868c-0.030 0.33-0.047 0.663-0.047 1 0 6.075 4.925 11 11 11s11-4.925 11-11v0c0-0.337-0.017-0.67-0.047-1h10.868c1.657 0 3-1.343 3-3 0-0.524-0.134-1.016-0.37-1.444l0.008 0.016zM39 49c0 0.002 0 0.004 0 0.007 0 3.866-3.134 7-7 7s-7-3.134-7-7c0-0.355 0.026-0.704 0.078-1.045l-0.005 0.038h13.855c0.046 0.3 0.072 0.647 0.073 1v0zM11.858 44l5.142-9.493v-11.507c0-8.284 6.716-15 15-15s15 6.716 15 15v0 11.507l5.142 9.493z"></path>
<path d="M55.5 23.5h4c0-0.006 0-0.013 0-0.020 0-8.411-3.782-15.939-9.737-20.976l-0.040-0.033-2.579 3.058c5.125 4.333 8.357 10.767 8.357 17.955 0 0.006 0 0.011 0 0.017v-0.001z"></path>
<path d="M16.857 5.529l-2.579-3.058c-5.996 5.070-9.778 12.598-9.778 21.009 0 0.007 0 0.014 0 0.021v-0.001h4c0-0.005 0-0.011 0-0.016 0-7.188 3.232-13.622 8.322-17.927l0.035-0.029z"></path>
</svg>
