<!-- Generated by IcoMoon.io -->
<svg version="1.1" xmlns="http://www.w3.org/2000/svg" width="64" height="64" viewBox="0 0 64 64">
<title>blind</title>
<path d="M46.863 31.735l1.42-1.291-13.739-15.113h-8.562l-5.535 3.594c-2.088 1.365-3.448 3.692-3.448 6.336 0 0.005 0 0.010 0 0.015v-0.001 8.974h4v-8.974c0-0.002 0-0.004 0-0.007 0-1.247 0.642-2.345 1.613-2.981l0.014-0.008 3.373-2.191v11.729l13.213 27.548h4.118l-9.241-19.904v-18.686l9.328 10.261 10.301 28.328h3.192z"></path>
<path d="M26.837 12.108c0.758 0.707 1.779 1.141 2.901 1.141 2.353 0 4.26-1.907 4.26-4.26s-1.907-4.26-4.26-4.26c-2.353 0-4.26 1.907-4.26 4.26 0 0 0 0.001 0 0.001v-0c0 0.002 0 0.004 0 0.006 0 1.229 0.522 2.335 1.356 3.11l0.003 0.002z"></path>
<path d="M16.599 59.366h4.308l7.189-17.973-2.349-4.898-9.148 22.871z"></path>
</svg>
