<!-- Generated by IcoMoon.io -->
<svg version="1.1" xmlns="http://www.w3.org/2000/svg" width="64" height="64" viewBox="0 0 64 64">
<title>blur-linear</title>
<path d="M2 2h60v4h-60v-4z"></path>
<path d="M2 58h60v4h-60v-4z"></path>
<path d="M10.921 28.933c4.927-0 8.921-3.994 8.921-8.921s-3.994-8.921-8.921-8.921c-4.927 0-8.921 3.994-8.921 8.921v0c0.006 4.925 3.997 8.916 8.921 8.921h0.001zM10.921 15.091c2.718 0 4.921 2.203 4.921 4.921s-2.203 4.921-4.921 4.921c-2.718 0-4.921-2.203-4.921-4.921v0c0.003-2.717 2.205-4.918 4.921-4.921h0z"></path>
<path d="M34.289 28.933c4.105 0 7.433-3.328 7.433-7.433s-3.328-7.433-7.433-7.433c-4.105 0-7.433 3.328-7.433 7.433v0c0.005 4.103 3.33 7.429 7.433 7.433h0zM34.289 18.067c1.896 0 3.433 1.537 3.433 3.433s-1.537 3.433-3.433 3.433c-1.896 0-3.433-1.537-3.433-3.433v0c0.002-1.895 1.538-3.431 3.433-3.433h0z"></path>
<path d="M54.44 26.933c2.046 0 3.705-1.659 3.705-3.705s-1.659-3.705-3.705-3.705c-2.046 0-3.705 1.659-3.705 3.705 0 0 0 0 0 0v0c0 2.046 1.659 3.705 3.705 3.705 0 0 0 0 0 0v0z"></path>
<path d="M10.921 53.419c4.927 0 8.921-3.994 8.921-8.921s-3.994-8.921-8.921-8.921c-4.927 0-8.921 3.994-8.921 8.921v0c0.006 4.925 3.997 8.916 8.921 8.921h0.001zM10.921 39.576c2.718 0 4.921 2.203 4.921 4.921s-2.203 4.921-4.921 4.921c-2.718 0-4.921-2.203-4.921-4.921 0 0 0 0 0 0v0c0.003-2.717 2.205-4.918 4.921-4.921h0z"></path>
<path d="M34.289 50.443c4.105 0 7.433-3.328 7.433-7.433s-3.328-7.433-7.433-7.433c-4.105 0-7.433 3.328-7.433 7.433 0 0 0 0 0 0v0c0.005 4.103 3.33 7.429 7.433 7.433h0zM34.289 39.576c1.896 0 3.433 1.537 3.433 3.433s-1.537 3.433-3.433 3.433c-1.896 0-3.433-1.537-3.433-3.433v0c0.002-1.895 1.538-3.431 3.433-3.434h0z"></path>
<path d="M54.44 44.985c2.046 0 3.705-1.659 3.705-3.705s-1.659-3.705-3.705-3.705c-2.046 0-3.705 1.659-3.705 3.705 0 0 0 0 0 0v0c0 2.046 1.659 3.705 3.705 3.705 0 0 0 0 0 0v0z"></path>
</svg>
