<!-- Generated by IcoMoon.io -->
<svg version="1.1" xmlns="http://www.w3.org/2000/svg" width="64" height="64" viewBox="0 0 64 64">
<title>blur</title>
<path d="M10.921 2.285c0 0-0 0-0 0-4.927 0-8.921 3.994-8.921 8.921s3.994 8.921 8.921 8.921c4.927 0 8.921-3.994 8.921-8.921v0c-0.006-4.925-3.997-8.916-8.921-8.921h-0.001zM10.921 16.128c0 0-0 0-0 0-2.718 0-4.921-2.203-4.921-4.921s2.203-4.921 4.921-4.921c2.718 0 4.921 2.203 4.921 4.921v0c-0.003 2.717-2.205 4.918-4.921 4.921h-0z"></path>
<path d="M34.289 5.755c0 0-0 0-0 0-4.105 0-7.433 3.328-7.433 7.433s3.328 7.433 7.433 7.433c4.105 0 7.433-3.328 7.433-7.433v0c-0.005-4.103-3.33-7.429-7.433-7.433h-0zM34.289 16.622c0 0-0 0-0 0-1.896 0-3.433-1.537-3.433-3.433s1.537-3.433 3.433-3.433c1.896 0 3.433 1.537 3.433 3.433 0 0 0 0 0 0v0c-0.002 1.895-1.538 3.431-3.433 3.433h-0z"></path>
<path d="M58.144 14.423c0 2.046-1.659 3.705-3.705 3.705s-3.705-1.659-3.705-3.705c0-2.046 1.659-3.705 3.705-3.705s3.705 1.659 3.705 3.705z"></path>
<path d="M10.921 23.221c0 0-0 0-0 0-4.927 0-8.921 3.994-8.921 8.921s3.994 8.921 8.921 8.921c4.927 0 8.921-3.994 8.921-8.921v0c-0.006-4.925-3.997-8.916-8.921-8.921h-0.001zM10.921 37.064c0 0-0 0-0 0-2.718 0-4.921-2.203-4.921-4.921s2.203-4.921 4.921-4.921c2.718 0 4.921 2.203 4.921 4.921v0c-0.003 2.717-2.205 4.918-4.921 4.921h-0z"></path>
<path d="M34.289 24.709c0 0-0 0-0 0-4.105 0-7.433 3.328-7.433 7.433s3.328 7.433 7.433 7.433c4.105 0 7.433-3.328 7.433-7.433v0c-0.005-4.103-3.33-7.429-7.433-7.433h-0zM34.289 35.576c0 0-0 0-0 0-1.896 0-3.433-1.537-3.433-3.433s1.537-3.433 3.433-3.433c1.896 0 3.433 1.537 3.433 3.433 0 0 0 0 0 0v0c-0.002 1.895-1.538 3.431-3.433 3.433h-0z"></path>
<path d="M58.144 32.143c0 2.046-1.659 3.705-3.705 3.705s-3.705-1.659-3.705-3.705c0-2.046 1.659-3.705 3.705-3.705s3.705 1.659 3.705 3.705z"></path>
<path d="M10.921 44.157c-0 0-0 0-0 0-4.927 0-8.921 3.994-8.921 8.921s3.994 8.921 8.921 8.921c4.927 0 8.921-3.994 8.921-8.921v0c-0.006-4.925-3.997-8.916-8.921-8.921h-0.001zM10.921 58c-0 0-0 0-0 0-2.718 0-4.921-2.203-4.921-4.921s2.203-4.921 4.921-4.921c2.718 0 4.921 2.203 4.921 4.921 0 0 0 0 0 0v0c-0.003 2.717-2.205 4.918-4.921 4.921h-0z"></path>
<path d="M34.289 43.663c0 0-0 0-0 0-4.105 0-7.433 3.328-7.433 7.433s3.328 7.433 7.433 7.433c4.105 0 7.433-3.328 7.433-7.433v0c-0.005-4.103-3.33-7.429-7.433-7.433h-0.001zM34.289 54.53c0 0-0 0-0 0-1.896 0-3.433-1.537-3.433-3.433s1.537-3.433 3.433-3.433c1.896 0 3.433 1.537 3.433 3.433v0c-0.002 1.895-1.538 3.431-3.433 3.433h-0z"></path>
<path d="M58.144 49.862c0 2.046-1.659 3.705-3.705 3.705s-3.705-1.659-3.705-3.705c0-2.046 1.659-3.705 3.705-3.705s3.705 1.659 3.705 3.705z"></path>
</svg>
