<!-- Generated by IcoMoon.io -->
<svg version="1.1" xmlns="http://www.w3.org/2000/svg" width="64" height="64" viewBox="0 0 64 64">
<title>blur-circular</title>
<path d="M32 2c-16.569 0-30 13.431-30 30 0 8.284 3.358 15.784 8.787 21.213v0c5.432 5.446 12.943 8.815 21.242 8.815 16.569 0 30-13.431 30-30 0-8.298-3.369-15.81-8.815-21.241l-0.001-0.001c-5.399-5.428-12.873-8.787-21.132-8.787-0.029 0-0.057 0-0.086 0h0.004zM50.385 50.385v0c-10.138 10.138-26.632 10.138-36.77 0s-10.137-26.632 0-36.77c4.708-4.698 11.207-7.603 18.385-7.603s13.676 2.905 18.385 7.603l-0.001-0.001c10.137 10.137 10.137 26.632 0 36.77z"></path>
<path d="M24.685 30.298c3.197-0.002 5.788-2.594 5.788-5.791 0-3.199-2.593-5.791-5.791-5.791s-5.791 2.593-5.791 5.791c0 1.6 0.649 3.049 1.698 4.097l0 0c1.046 1.047 2.491 1.694 4.087 1.694 0.003 0 0.007 0 0.011 0h-0.001zM23.417 23.238c0.325-0.325 0.773-0.526 1.269-0.526 0.991 0 1.794 0.803 1.794 1.794s-0.803 1.794-1.794 1.794c-0.495 0-0.944-0.201-1.269-0.526v0c-0.326-0.324-0.528-0.773-0.528-1.269s0.202-0.945 0.528-1.269l0-0z"></path>
<path d="M39.315 30.298c3.199 0 5.793-2.594 5.793-5.793s-2.594-5.793-5.793-5.793c-1.6 0-3.049 0.649-4.097 1.698v0c-1.049 1.048-1.698 2.497-1.698 4.097 0 3.199 2.593 5.791 5.791 5.791 0.001 0 0.003 0 0.004 0h-0zM38.046 23.238c0.325-0.325 0.773-0.526 1.269-0.526 0.991 0 1.794 0.803 1.794 1.794s-0.803 1.794-1.794 1.794c-0.495 0-0.944-0.201-1.269-0.526v0c-0.324-0.325-0.525-0.773-0.525-1.269s0.2-0.944 0.525-1.269v0z"></path>
<path d="M20.588 35.397c-1.049 1.048-1.697 2.497-1.697 4.097 0 3.2 2.594 5.794 5.794 5.794s5.794-2.594 5.794-5.794c0-1.6-0.648-3.048-1.697-4.097v0c-1.044-1.058-2.494-1.713-4.097-1.713s-3.053 0.655-4.096 1.712l-0.001 0.001zM25.954 40.762c-0.325 0.324-0.773 0.525-1.268 0.525-0.99 0-1.793-0.803-1.793-1.793s0.803-1.793 1.793-1.793c0.495 0 0.943 0.2 1.267 0.525v0c0.324 0.325 0.525 0.773 0.525 1.269s-0.2 0.944-0.525 1.269l0-0z"></path>
<path d="M35.218 35.397c-1.049 1.049-1.697 2.497-1.697 4.097 0 3.2 2.594 5.794 5.794 5.794s5.794-2.594 5.794-5.794c0-1.6-0.649-3.049-1.697-4.097v0c-1.049-1.047-2.498-1.694-4.097-1.694s-3.048 0.647-4.097 1.694l0-0zM40.583 40.762c-0.325 0.325-0.773 0.526-1.269 0.526-0.991 0-1.794-0.803-1.794-1.794s0.803-1.794 1.794-1.794c0.991 0 1.794 0.803 1.794 1.794v0c-0 0.495-0.201 0.944-0.526 1.269v0z"></path>
<path d="M42.92 11.461c0.47 1.991-0.763 3.987-2.754 4.457s-3.987-0.763-4.457-2.754c-0.47-1.991 0.763-3.987 2.754-4.457s3.987 0.763 4.457 2.754z"></path>
<path d="M28.291 11.461c0.47 1.991-0.763 3.987-2.754 4.457s-3.987-0.763-4.457-2.754c-0.47-1.991 0.763-3.987 2.754-4.457s3.987 0.763 4.457 2.754z"></path>
<path d="M42.92 50.836c0.47 1.991-0.763 3.987-2.754 4.457s-3.987-0.763-4.457-2.754c-0.47-1.991 0.763-3.987 2.754-4.457s3.987 0.763 4.457 2.754z"></path>
<path d="M28.291 50.836c0.47 1.991-0.763 3.987-2.754 4.457s-3.987-0.763-4.457-2.754c-0.47-1.991 0.763-3.987 2.754-4.457s3.987 0.763 4.457 2.754z"></path>
<path d="M55.293 38.464c0.47 1.991-0.763 3.987-2.754 4.457s-3.987-0.763-4.457-2.754c-0.47-1.991 0.763-3.987 2.754-4.457s3.987 0.763 4.457 2.754z"></path>
<path d="M54.307 22.066c1.447 1.447 1.447 3.792 0 5.239s-3.792 1.447-5.239 0c-1.447-1.447-1.447-3.792 0-5.239s3.792-1.447 5.239 0z"></path>
<path d="M16.017 39.315c0 2.046-1.659 3.705-3.705 3.705s-3.705-1.659-3.705-3.705c0-2.046 1.659-3.705 3.705-3.705s3.705 1.659 3.705 3.705z"></path>
<path d="M16.017 24.685c0 2.046-1.659 3.705-3.705 3.705s-3.705-1.659-3.705-3.705c0-2.046 1.659-3.705 3.705-3.705s3.705 1.659 3.705 3.705z"></path>
</svg>
