<!-- Generated by IcoMoon.io -->
<svg version="1.1" xmlns="http://www.w3.org/2000/svg" width="64" height="64" viewBox="0 0 64 64">
<title>blur-slash</title>
<path d="M34.289 20.622c4.105 0 7.433-3.328 7.433-7.433s-3.328-7.433-7.433-7.433c-4.105 0-7.433 3.328-7.433 7.433 0 0 0 0 0 0v0c0.005 4.103 3.33 7.429 7.433 7.433h0zM34.289 9.755c1.896 0 3.433 1.537 3.433 3.433s-1.537 3.433-3.433 3.433c-1.896 0-3.433-1.537-3.433-3.433v0c0.002-1.895 1.538-3.431 3.433-3.433h0z"></path>
<path d="M58.144 14.423c0 2.046-1.659 3.705-3.705 3.705s-3.705-1.659-3.705-3.705c0-2.046 1.659-3.705 3.705-3.705s3.705 1.659 3.705 3.705z"></path>
<path d="M10.921 23.221c0 0-0 0-0 0-4.927 0-8.921 3.994-8.921 8.921s3.994 8.921 8.921 8.921c4.927 0 8.921-3.994 8.921-8.921v0c-0.006-4.925-3.997-8.916-8.921-8.921h-0.001zM10.921 37.064c0 0-0 0-0 0-2.718 0-4.921-2.203-4.921-4.921s2.203-4.921 4.921-4.921c2.718 0 4.921 2.203 4.921 4.921v0c-0.003 2.717-2.205 4.918-4.921 4.921h-0z"></path>
<path d="M58.144 32.143c0 2.046-1.659 3.705-3.705 3.705s-3.705-1.659-3.705-3.705c0-2.046 1.659-3.705 3.705-3.705s3.705 1.659 3.705 3.705z"></path>
<path d="M10.921 44.157c-0 0-0 0-0 0-4.927 0-8.921 3.994-8.921 8.921s3.994 8.921 8.921 8.921c4.927 0 8.921-3.994 8.921-8.921v0c-0.006-4.925-3.997-8.916-8.921-8.921h-0.001zM10.921 58c-0 0-0 0-0 0-2.718 0-4.921-2.203-4.921-4.921s2.203-4.921 4.921-4.921c2.718 0 4.921 2.203 4.921 4.921 0 0 0 0 0 0v0c-0.003 2.717-2.205 4.918-4.921 4.921h-0z"></path>
<path d="M34.289 43.663c0 0-0 0-0 0-4.105 0-7.433 3.328-7.433 7.433s3.328 7.433 7.433 7.433c4.105 0 7.433-3.328 7.433-7.433v0c-0.005-4.103-3.33-7.429-7.433-7.433h-0.001zM34.289 54.53c0 0-0 0-0 0-1.896 0-3.433-1.537-3.433-3.433s1.537-3.433 3.433-3.433c1.896 0 3.433 1.537 3.433 3.433v0c-0.002 1.895-1.538 3.431-3.433 3.433h-0z"></path>
<path d="M4.828 2.083h-2.828v2.828l1.442 1.441c-0.904 1.371-1.442 3.053-1.442 4.86 0 4.923 3.991 8.914 8.914 8.914 1.807 0 3.489-0.538 4.894-1.462l-0.034 0.021 11.378 11.378c-0.189 0.623-0.298 1.34-0.298 2.082 0 4.103 3.326 7.429 7.429 7.429 0.742 0 1.459-0.109 2.135-0.311l-0.053 0.014 22.805 22.805h2.828v-2.828zM10.921 16.128c-0 0-0 0-0 0-2.718 0-4.921-2.203-4.921-4.921 0-0.689 0.142-1.346 0.398-1.941l-0.012 0.032 6.445 6.445c-0.562 0.244-1.216 0.386-1.904 0.386-0.002 0-0.004 0-0.005 0h0z"></path>
</svg>
