<!-- Generated by IcoMoon.io -->
<svg version="1.1" xmlns="http://www.w3.org/2000/svg" width="64" height="64" viewBox="0 0 64 64">
<title>boat-alt</title>
<path d="M54.401 31l-3.043-8.367c-0.578-1.547-2.042-2.629-3.759-2.633h-4.905l-2-12h-13.055l2 12h-4.945l-2-12h-13.055l2 12h-5.639v11h-4v25h53.466l6.534-20.692v-4.308zM32.361 12h4.945l1.333 8h-4.945zM14.361 12h4.945l1.333 8h-4.945zM10 24h37.599l2.545 7h-40.145zM52.534 52h-46.534v-17h51.903z"></path>
<path d="M10 40h4v4h-4v-4z"></path>
<path d="M18 40h4v4h-4v-4z"></path>
<path d="M26 40h4v4h-4v-4z"></path>
<path d="M34 40h4v4h-4v-4z"></path>
<path d="M42 40h4v4h-4v-4z"></path>
</svg>
