<!-- Generated by IcoMoon.io -->
<svg version="1.1" xmlns="http://www.w3.org/2000/svg" width="64" height="64" viewBox="0 0 64 64">
<title>border-inner</title>
<path d="M34 30v-25h-4v25h-25v4h25v25h4v-25h25v-4h-25z"></path>
<path d="M55 55h4v4h-4v-4z"></path>
<path d="M38.273 55h4.182v4h-4.182v-4z"></path>
<path d="M21.546 55h4.182v4h-4.182v-4z"></path>
<path d="M46.636 55h4.182v4h-4.182v-4z"></path>
<path d="M13.182 55h4.182v4h-4.182v-4z"></path>
<path d="M5 55h4v4h-4v-4z"></path>
<path d="M5 38.273h4v4.182h-4v-4.182z"></path>
<path d="M5 46.636h4v4.182h-4v-4.182z"></path>
<path d="M5 21.546h4v4.182h-4v-4.182z"></path>
<path d="M5 13.182h4v4.182h-4v-4.182z"></path>
<path d="M5 5h4v4h-4v-4z"></path>
<path d="M38.273 5h4.182v4h-4.182v-4z"></path>
<path d="M21.546 5h4.182v4h-4.182v-4z"></path>
<path d="M46.636 5h4.182v4h-4.182v-4z"></path>
<path d="M13.182 5h4.182v4h-4.182v-4z"></path>
<path d="M55 5h4v4h-4v-4z"></path>
<path d="M55 46.636h4v4.182h-4v-4.182z"></path>
<path d="M55 38.273h4v4.182h-4v-4.182z"></path>
<path d="M55 13.182h4v4.182h-4v-4.182z"></path>
<path d="M55 21.545h4v4.182h-4v-4.182z"></path>
</svg>
