<!-- Generated by IcoMoon.io -->
<svg version="1.1" xmlns="http://www.w3.org/2000/svg" width="64" height="64" viewBox="0 0 64 64">
<title>border-right</title>
<path d="M55 5v54h4v-54h-4z"></path>
<path d="M38.273 55h4.182v4h-4.182v-4z"></path>
<path d="M21.546 55h4.182v4h-4.182v-4z"></path>
<path d="M46.636 55h4.182v4h-4.182v-4z"></path>
<path d="M13.182 55h4.182v4h-4.182v-4z"></path>
<path d="M5 55h4v4h-4v-4z"></path>
<path d="M5 38.273h4v4.182h-4v-4.182z"></path>
<path d="M5 46.636h4v4.182h-4v-4.182z"></path>
<path d="M5 29.909h4v4.182h-4v-4.182z"></path>
<path d="M5 21.546h4v4.182h-4v-4.182z"></path>
<path d="M5 13.182h4v4.182h-4v-4.182z"></path>
<path d="M5 5h4v4h-4v-4z"></path>
<path d="M38.273 5h4.182v4h-4.182v-4z"></path>
<path d="M21.546 5h4.182v4h-4.182v-4z"></path>
<path d="M46.636 5h4.182v4h-4.182v-4z"></path>
<path d="M29.909 5h4.182v4h-4.182v-4z"></path>
<path d="M13.182 5h4.182v4h-4.182v-4z"></path>
<path d="M29.909 29.909h4.182v4.182h-4.182v-4.182z"></path>
<path d="M29.909 38.273h4.182v4.182h-4.182v-4.182z"></path>
<path d="M29.909 21.545h4.182v4.182h-4.182v-4.182z"></path>
<path d="M29.909 13.182h4.182v4.182h-4.182v-4.182z"></path>
<path d="M29.909 46.636h4.182v4.182h-4.182v-4.182z"></path>
<path d="M29.909 55h4.182v4h-4.182v-4z"></path>
<path d="M38.273 29.909h4.182v4.182h-4.182v-4.182z"></path>
<path d="M46.636 29.909h4.182v4.182h-4.182v-4.182z"></path>
<path d="M21.546 29.909h4.182v4.182h-4.182v-4.182z"></path>
<path d="M13.182 29.909h4.182v4.182h-4.182v-4.182z"></path>
</svg>
