<!-- Generated by IcoMoon.io -->
<svg version="1.1" xmlns="http://www.w3.org/2000/svg" width="64" height="64" viewBox="0 0 64 64">
<title>border-style</title>
<path d="M55 55h4v4h-4v-4z"></path>
<path d="M38.273 55h4.182v4h-4.182v-4z"></path>
<path d="M21.546 55h4.182v4h-4.182v-4z"></path>
<path d="M46.636 55h4.182v4h-4.182v-4z"></path>
<path d="M13.182 55h4.182v4h-4.182v-4z"></path>
<path d="M7 5c-1.105 0-2 0.895-2 2v0 52h4v-50h50v-4z"></path>
<path d="M55 46.636h4v4.182h-4v-4.182z"></path>
<path d="M55 38.273h4v4.182h-4v-4.182z"></path>
<path d="M55 13.182h4v4.182h-4v-4.182z"></path>
<path d="M55 21.545h4v4.182h-4v-4.182z"></path>
<path d="M55 29.909h4v4.182h-4v-4.182z"></path>
<path d="M29.909 55h4.182v4h-4.182v-4z"></path>
</svg>
