<!-- Generated by IcoMoon.io -->
<svg version="1.1" xmlns="http://www.w3.org/2000/svg" width="64" height="64" viewBox="0 0 64 64">
<title>branding-watermark</title>
<path d="M59 9h-54c-1.656 0.002-2.998 1.344-3 3v40c0.002 1.656 1.344 2.998 3 3h54c1.656-0.002 2.998-1.344 3-3v-40c-0.002-1.656-1.344-2.998-3-3h-0zM58 51h-52v-38h52z"></path>
<path d="M26 27h4v4h-4v-4z"></path>
<path d="M34 27h4v4h-4v-4z"></path>
<path d="M42 27h4v4h-4v-4z"></path>
<path d="M50 27h4v4h-4v-4z"></path>
<path d="M26 35h4v4h-4v-4z"></path>
<path d="M50 35h4v4h-4v-4z"></path>
<path d="M26 43h4v4h-4v-4z"></path>
<path d="M34 43h4v4h-4v-4z"></path>
<path d="M42 43h4v4h-4v-4z"></path>
<path d="M50 43h4v4h-4v-4z"></path>
</svg>
