<!-- Generated by IcoMoon.io -->
<svg version="1.1" xmlns="http://www.w3.org/2000/svg" width="64" height="64" viewBox="0 0 64 64">
<title>briefcase-arrow-right</title>
<path d="M59 13.966h-12.904v-11.966h-28v11.966h-12.846c-1.709 0.002-3.094 1.387-3.096 3.096v41.754c0.002 1.709 1.387 3.094 3.096 3.096h53.75c1.709-0.002 3.094-1.387 3.096-3.096v-41.754c-0.002-1.709-1.387-3.094-3.096-3.096h-0zM22.096 6h20v7.966h-20zM57.904 57.721h-51.558v-39.562h51.558z"></path>
<path d="M28.614 49.586l2.828 2.828 14.21-14.21-14.21-14.21-2.828 2.828 9.382 9.382h-18.996v4h18.996l-9.382 9.382z"></path>
</svg>
