<!-- Generated by IcoMoon.io -->
<svg version="1.1" xmlns="http://www.w3.org/2000/svg" width="64" height="64" viewBox="0 0 64 64">
<title>brightness-auto</title>
<path d="M29.428 21l-6.897 19.684h4.238l1.291-3.684h7.879l1.291 3.684h4.239l-6.897-19.684zM29.462 33l2.538-7.243 2.538 7.243z"></path>
<path d="M62.192 32.519l-8.676-7.149-1.285-2.931 1.378-11.377-11.19 1.080-2.981-1.164-7.070-9.020-7.149 8.676-2.931 1.285-11.377-1.378 1.080 11.19-1.164 2.981-9.019 7.070 8.676 7.149 1.285 2.931-1.378 11.377 11.19-1.080 2.981 1.164 7.070 9.019 7.149-8.676 2.93-1.285 11.377 1.378-1.080-11.191 1.163-2.981zM49.844 37.116l-1.908 4.888 0.693 7.186-7.523-0.911-4.806 2.108-4.591 5.572-4.675-5.963-4.889-1.908-7.186 0.693 0.911-7.522-2.107-4.806-5.572-4.591 5.963-4.675 1.908-4.889-0.693-7.186 7.522 0.911 4.806-2.108 4.591-5.572 4.675 5.964 4.889 1.908 7.186-0.693-0.911 7.522 2.108 4.806 5.572 4.591z"></path>
</svg>
