<!-- Generated by IcoMoon.io -->
<svg version="1.1" xmlns="http://www.w3.org/2000/svg" width="64" height="64" viewBox="0 0 64 64">
<title>brightness-high</title>
<path d="M62.192 32.519l-8.676-7.149-1.285-2.931 1.378-11.377-11.19 1.080-2.981-1.164-7.070-9.020-7.149 8.676-2.931 1.285-11.377-1.378 1.080 11.19-1.164 2.981-9.019 7.070 8.676 7.149 1.285 2.931-1.378 11.377 11.19-1.080 2.981 1.164 7.070 9.019 7.149-8.676 2.93-1.285 11.377 1.378-1.080-11.191 1.163-2.981zM49.844 37.116l-1.908 4.888 0.693 7.186-7.523-0.911-4.806 2.108-4.591 5.572-4.675-5.963-4.889-1.908-7.186 0.693 0.911-7.522-2.107-4.806-5.572-4.591 5.963-4.675 1.908-4.889-0.693-7.186 7.522 0.911 4.806-2.108 4.591-5.572 4.675 5.964 4.889 1.908 7.186-0.693-0.911 7.522 2.108 4.806 5.572 4.591z"></path>
<path d="M21.077 44.366l5.44 3.2c1.634 0.592 3.52 0.934 5.487 0.934 1.202 0 2.374-0.128 3.503-0.371l-0.109 0.020-19.165-11.274c0.945 2.991 2.623 5.523 4.828 7.476l0.017 0.015z"></path>
<path d="M15.561 30.583l25.853 14.968c1.179-0.827 2.202-1.755 3.098-2.796l0.018-0.022-28.082-16.258c-0.442 1.202-0.757 2.597-0.883 4.046l-0.004 0.062z"></path>
<path d="M19.086 21.73l28.386 16.013c0.455-1.184 0.788-2.56 0.937-3.99l0.006-0.071-26.344-14.861c-1.126 0.856-2.107 1.812-2.96 2.876l-0.025 0.033z"></path>
<path d="M43.825 20.494l-8.492-4.657c-1.001-0.214-2.151-0.337-3.329-0.337-1.595 0-3.138 0.225-4.599 0.644l0.117-0.029 20.279 11.121c-0.812-2.639-2.181-4.902-3.98-6.746l0.003 0.003z"></path>
</svg>
