<!-- Generated by IcoMoon.io -->
<svg version="1.1" xmlns="http://www.w3.org/2000/svg" width="64" height="64" viewBox="0 0 64 64">
<title>broadcast-tower1</title>
<path d="M19.548 24.771c-1.215-2.086-1.932-4.591-1.932-7.264s0.717-5.178 1.97-7.334l-0.038 0.070-3.472-1.984c-1.547 2.656-2.46 5.845-2.46 9.248s0.913 6.592 2.508 9.337l-0.048-0.089z"></path>
<path d="M48.444 26.755c1.547-2.656 2.46-5.845 2.46-9.248s-0.913-6.592-2.508-9.337l0.048 0.089-3.472 1.984c1.215 2.086 1.932 4.591 1.932 7.264s-0.717 5.178-1.97 7.334l0.038-0.070z"></path>
<path d="M58.092 2.746l-3.488 1.993c2.135 3.666 3.396 8.070 3.396 12.768s-1.261 9.101-3.462 12.891l0.066-0.123 3.488 1.993c2.458-4.241 3.908-9.332 3.908-14.761s-1.45-10.519-3.985-14.905l0.077 0.144z"></path>
<path d="M6.429 2.746c-2.458 4.241-3.908 9.332-3.908 14.761s1.45 10.519 3.985 14.905l-0.077-0.144 3.488-1.993c-2.135-3.666-3.396-8.070-3.396-12.768s1.261-9.101 3.462-12.891l-0.066 0.123z"></path>
<path d="M39.76 17.5c0-0.002 0-0.004 0-0.007 0-4.142-3.358-7.5-7.5-7.5s-7.5 3.358-7.5 7.5c0 2.053 0.825 3.914 2.162 5.268l-0.001-0.001-13.080 39.239h4.216l5.658-16.973h17.682l6.129 16.973h4.253l-14.172-39.247c1.331-1.349 2.154-3.203 2.154-5.249 0-0.001 0-0.003 0-0.004v0zM32.26 14c1.933 0 3.5 1.567 3.5 3.5s-1.567 3.5-3.5 3.5c-1.933 0-3.5-1.567-3.5-3.5v0c0-1.933 1.567-3.5 3.5-3.5v0zM25.049 41.027l5.324-15.973h3.812l5.768 15.973z"></path>
</svg>
