<!-- Generated by IcoMoon.io -->
<svg version="1.1" xmlns="http://www.w3.org/2000/svg" width="64" height="64" viewBox="0 0 64 64">
<title>call-swap-calls</title>
<path d="M58.405 18.577l-10.481-10.345-10.339 10.355 2.831 2.826 5.585-5.593v31.18c0 3.314-2.686 6-6 6s-6-2.686-6-6v0-29c0-5.523-4.477-10-10-10s-10 4.477-10 10v0 31.099l-5.595-5.523-2.81 2.847 10.481 10.345 10.339-10.355-2.831-2.826-5.585 5.593v-31.18c0-3.314 2.686-6 6-6s6 2.686 6 6v0 29c0 5.523 4.477 10 10 10s10-4.477 10-10v0-31.099l5.595 5.523zM16.056 51.128l-0.13-0.128h0.257z"></path>
</svg>
