<!-- Generated by IcoMoon.io -->
<svg version="1.1" xmlns="http://www.w3.org/2000/svg" width="64" height="64" viewBox="0 0 64 64">
<title>car-alt</title>
<path d="M59.457 27.893l-11.284-1.738-6.877-11.234c-0.717-1.154-1.978-1.912-3.416-1.912-0.010 0-0.019 0-0.029 0h0.002l-28.82 0.23c-1.739 0.015-3.211 1.136-3.75 2.694l-0.008 0.028-3.275 9.711v22.328h6.876c1.103 3.504 4.322 6 8.124 6s7.021-2.496 8.108-5.94l0.016-0.060h12.751c1.103 3.504 4.322 6 8.124 6s7.022-2.496 8.108-5.94l0.016-0.060h7.876v-17.142c0-0.004 0-0.009 0-0.014 0-1.492-1.096-2.729-2.526-2.949l-0.017-0.002zM37.885 17.009l5.513 9.006-15.398-0.006v-8.922zM9.065 17.238l14.935-0.119v8.888l-17.89-0.006zM17 50c-2.485 0-4.5-2.015-4.5-4.5s2.015-4.5 4.5-4.5c2.485 0 4.5 2.015 4.5 4.5v0c-0.003 2.484-2.016 4.497-4.5 4.5h-0zM46 50c-2.485 0-4.5-2.015-4.5-4.5s2.015-4.5 4.5-4.5c2.485 0 4.5 2.015 4.5 4.5v0c-0.003 2.484-2.016 4.497-4.5 4.5h-0zM58 44h-3.635c-0.737-4.005-4.201-7-8.365-7s-7.628 2.995-8.357 6.948l-0.008 0.052h-12.27c-0.737-4.005-4.201-7-8.365-7s-7.628 2.995-8.357 6.948l-0.008 0.052h-2.635v-13.997l41.316 0.066 10.684 1.646z"></path>
</svg>
