<!-- Generated by IcoMoon.io -->
<svg version="1.1" xmlns="http://www.w3.org/2000/svg" width="64" height="64" viewBox="0 0 64 64">
<title>car</title>
<path d="M18 47.932c3.314 0 6-2.686 6-6s-2.686-6-6-6c-3.314 0-6 2.686-6 6v0c0.004 3.312 2.688 5.996 6 6h0zM18 39.932c1.105 0 2 0.895 2 2s-0.895 2-2 2c-1.105 0-2-0.895-2-2v0c0.001-1.104 0.896-1.999 2-2h0z"></path>
<path d="M45 47.932c3.314 0 6-2.686 6-6s-2.686-6-6-6c-3.314 0-6 2.686-6 6v0c0.004 3.312 2.688 5.996 6 6h0zM45 39.932c1.105 0 2 0.895 2 2s-0.895 2-2 2c-1.105 0-2-0.895-2-2v0c0.001-1.104 0.896-1.999 2-2h0z"></path>
<path d="M56 28.932h-0.078l-5.084-13.982c-0.867-2.32-3.063-3.944-5.638-3.95h-26.397c-2.576 0.006-4.772 1.629-5.625 3.908l-0.014 0.042-5.084 13.982h-0.079c-2.208 0.003-3.997 1.792-4 4v17c0.003 2.208 1.792 3.997 4 4h0v5.068c0.002 1.656 1.344 2.998 3 3h7c1.656-0.002 2.998-1.344 3-3v-5.069h22v5.068c0.002 1.656 1.344 2.998 3 3h7c1.656-0.002 2.998-1.344 3-3v-5.069c2.208-0.003 3.997-1.792 4-4v-17c-0.003-2.208-1.792-3.997-4-4h-0zM16.922 16.317c0.289-0.774 1.021-1.315 1.879-1.316h26.397c0.859 0.002 1.591 0.543 1.875 1.303l0.005 0.014 4.587 12.615h-39.331zM17 58h-5v-4.068h5zM52 58h-5v-4.068h5zM56 49.932h-48v-17h48z"></path>
</svg>
