<!-- Generated by IcoMoon.io -->
<svg version="1.1" xmlns="http://www.w3.org/2000/svg" width="64" height="64" viewBox="0 0 64 64">
<title>card-giftcard</title>
<path d="M59 16h-12.521c0.953-1.405 1.521-3.139 1.521-5.005 0-4.968-4.027-8.995-8.995-8.995-2.823 0-5.343 1.3-6.992 3.335l-0.013 0.017c-1.662-2.051-4.182-3.352-7.005-3.352-4.968 0-8.995 4.027-8.995 8.995 0 1.866 0.568 3.599 1.541 5.036l-0.020-0.032h-12.521c-1.656 0.002-2.998 1.344-3 3v38c0.002 1.656 1.344 2.998 3 3h54c1.656-0.002 2.998-1.344 3-3v-38c-0.002-1.656-1.344-2.998-3-3h-0zM34 11c0-2.761 2.239-5 5-5s5 2.239 5 5c0 2.761-2.239 5-5 5v0h-5zM25 6c2.76 0.003 4.997 2.24 5 5v5h-5c-2.761 0-5-2.239-5-5s2.239-5 5-5v0zM58 56h-52v-7h52zM58 41h-52v-21h21.172l-11.172 11.172v2.828h2.828l13.172-13.172 13.172 13.172h2.828v-2.828l-11.172-11.172h21.172z"></path>
</svg>
