<!-- Generated by IcoMoon.io -->
<svg version="1.1" xmlns="http://www.w3.org/2000/svg" width="64" height="64" viewBox="0 0 64 64">
<title>card-membership</title>
<path d="M59.012 2h-54.025c-1.649 0.002-2.986 1.338-2.988 2.988v38.025c0.002 1.649 1.338 2.986 2.988 2.988h14.998v15.969h4.667l7.326-5.495 7.244 5.495h4.777v-15.969h15.012c1.649-0.002 2.986-1.338 2.988-2.988v-38.025c-0.002-1.649-1.338-2.986-2.988-2.988h-0zM40 57.538l-8.007-6.074-8.007 6.005v-11.469h16.014zM58 42h-52v-7h52zM58 27h-52v-21h52z"></path>
</svg>
