<!-- Generated by IcoMoon.io -->
<svg version="1.1" xmlns="http://www.w3.org/2000/svg" width="64" height="64" viewBox="0 0 64 64">
<title>cart-arrow-down</title>
<path d="M20 9v4h38v10.923l-4.438 14.082h-34.821l-5-36.005h-11.742v4h8.258l5 36.005h41.237l5.504-17.467v-15.538h-42z"></path>
<path d="M22.123 46.043c-4.418 0-8 3.582-8 8s3.582 8 8 8c4.418 0 8-3.582 8-8v0c-0.005-4.416-3.584-7.995-8-8h-0zM22.123 58.043c-2.209 0-4-1.791-4-4s1.791-4 4-4c2.209 0 4 1.791 4 4v0c-0.003 2.208-1.792 3.997-4 4h-0z"></path>
<path d="M50.123 46.043c-4.418 0-8 3.582-8 8s3.582 8 8 8c4.418 0 8-3.582 8-8v0c-0.005-4.416-3.584-7.995-7.999-8h-0.001zM50.123 58.043c-2.209 0-4-1.791-4-4s1.791-4 4-4c2.209 0 4 1.791 4 4v0c-0.003 2.208-1.792 3.997-4 4h-0z"></path>
<path d="M35 17v9.684l-5.342-5.342-2.828 2.828 10.070 10.070 10.17-10.17-2.828-2.829-5.242 5.241v-9.483h-4z"></path>
</svg>
