<!-- Generated by IcoMoon.io -->
<svg version="1.1" xmlns="http://www.w3.org/2000/svg" width="64" height="64" viewBox="0 0 64 64">
<title>cart-slash</title>
<path d="M22.123 46.043c-4.418 0-8 3.582-8 8s3.582 8 8 8c4.418 0 8-3.582 8-8v0c-0.005-4.416-3.584-7.995-8-8h-0zM22.123 58.043c-2.209 0-4-1.791-4-4s1.791-4 4-4c2.209 0 4 1.791 4 4v0c-0.003 2.208-1.792 3.997-4 4h-0z"></path>
<path d="M20.49 12.005l4 4h33.51v7.918l-4.438 14.082h-7.072l4 4h6.006l5.504-17.467v-12.533h-41.51z"></path>
<path d="M4.828 2h-2.828v2.828l9.696 9.696 3.545 27.48h23.935l5.865 5.865c-1.789 1.477-2.92 3.695-2.92 6.178 0 4.416 3.58 7.995 7.995 7.995 2.482 0 4.7-1.131 6.167-2.906l0.011-0.014 2.877 2.877h2.828v-2.828zM18.759 38.005l-2.432-18.85 18.85 18.85zM50.123 58.043c-0.001 0-0.001 0-0.002 0-2.208 0-3.998-1.79-3.998-3.998 0-1.378 0.697-2.593 1.758-3.312l0.014-0.009 5.547 5.547c-0.727 1.075-1.942 1.772-3.319 1.773h-0z"></path>
</svg>
