<!-- Generated by IcoMoon.io -->
<svg version="1.1" xmlns="http://www.w3.org/2000/svg" width="64" height="64" viewBox="0 0 64 64">
<title>cart-plus</title>
<path d="M20 8v4h38v11.88l-4.437 14.082h-34.821l-5-36.005h-11.742v4h8.258l5 36.005h41.237l5.504-17.467v-16.495h-42z"></path>
<path d="M22.123 46c-4.418 0-8 3.582-8 8s3.582 8 8 8c4.418 0 8-3.582 8-8v0c-0.005-4.416-3.584-7.995-8-8h-0zM22.123 58c-2.209 0-4-1.791-4-4s1.791-4 4-4c2.209 0 4 1.791 4 4v0c-0.003 2.208-1.792 3.997-4 4h-0z"></path>
<path d="M50.123 46c-4.418 0-8 3.582-8 8s3.582 8 8 8c4.418 0 8-3.582 8-8v0c-0.005-4.416-3.584-7.995-7.999-8h-0.001zM50.123 58c-2.209 0-4-1.791-4-4s1.791-4 4-4c2.209 0 4 1.791 4 4v0c-0.003 2.208-1.792 3.997-4 4h-0z"></path>
<path d="M34 16v7h-7v4h7v7h4v-7h7v-4h-7v-7h-4z"></path>
</svg>
