<!-- Generated by IcoMoon.io -->
<svg version="1.1" xmlns="http://www.w3.org/2000/svg" width="64" height="64" viewBox="0 0 64 64">
<title>center-focus</title>
<path d="M6 56v-15h-4v15c0.004 3.312 2.688 5.996 6 6h15v-4h-15c-1.104-0.001-1.999-0.896-2-2v-0z"></path>
<path d="M6 8c0.001-1.104 0.896-1.999 2-2h15v-4h-15c-3.312 0.004-5.996 2.688-6 6v15h4z"></path>
<path d="M56 2h-15v4h15c1.104 0.001 1.999 0.896 2 2v15h4v-15c-0.004-3.312-2.688-5.996-6-6h-0z"></path>
<path d="M58 56c-0.001 1.104-0.896 1.999-2 2h-15v4h15c3.312-0.004 5.996-2.688 6-6v-15h-4z"></path>
<path d="M50 32c0-9.925-8.075-18-18-18s-18 8.075-18 18 8.075 18 18 18 18-8.075 18-18zM32 46c-7.732 0-14-6.268-14-14s6.268-14 14-14c7.732 0 14 6.268 14 14v0c-0.009 7.728-6.272 13.991-13.999 14h-0.001z"></path>
</svg>
