<!-- Generated by IcoMoon.io -->
<svg version="1.1" xmlns="http://www.w3.org/2000/svg" width="64" height="64" viewBox="0 0 64 64">
<title>center-focus-weak</title>
<path d="M6 56v-15h-4v15c0.004 3.312 2.688 5.996 6 6h15v-4h-15c-1.104-0.001-1.999-0.896-2-2v-0z"></path>
<path d="M6 8c0.001-1.104 0.896-1.999 2-2h15v-4h-15c-3.312 0.004-5.996 2.688-6 6v15h4z"></path>
<path d="M56 2h-15v4h15c1.104 0.001 1.999 0.896 2 2v15h4v-15c-0.004-3.312-2.688-5.996-6-6h-0z"></path>
<path d="M58 56c-0.001 1.104-0.896 1.999-2 2h-15v4h15c3.312-0.004 5.996-2.688 6-6v-15h-4z"></path>
<path d="M32 21c-6.075 0-11 4.925-11 11s4.925 11 11 11c6.075 0 11-4.925 11-11v0c-0.007-6.072-4.928-10.993-10.999-11h-0.001zM32 39c-3.866 0-7-3.134-7-7s3.134-7 7-7c3.866 0 7 3.134 7 7v0c-0.005 3.864-3.136 6.995-7 7h-0z"></path>
</svg>
