<!-- Generated by IcoMoon.io -->
<svg version="1.1" xmlns="http://www.w3.org/2000/svg" width="64" height="64" viewBox="0 0 64 64">
<title>chalkboard-teacher</title>
<path d="M29.817 48.418l-4.813-3.128 2.268-5.522v-8.13c0-0.003 0-0.007 0-0.011 0-5.377-4.359-9.735-9.735-9.735s-9.735 4.359-9.735 9.735c0 0.004 0 0.008 0 0.012v-0.001 8.090l2.084 5.681-4.629 3.009c-1.972 1.291-3.256 3.489-3.256 5.987 0 0.005 0 0.009 0 0.014v-0.001 7.581h31.073v-7.581c0-0.004 0-0.009 0-0.013 0-2.498-1.285-4.697-3.229-5.971l-0.027-0.017zM29.073 58h-23.073v-3.581c0-0.002 0-0.004 0-0.006 0-1.102 0.567-2.072 1.424-2.634l0.012-0.007 7.302-4.746-2.937-8.008v-7.38c0-0.003 0-0.006 0-0.008 0-3.167 2.568-5.735 5.735-5.735s5.735 2.568 5.735 5.735c0 0.003 0 0.006 0 0.009v-0 7.341l-3.227 7.859 7.592 4.935c0.87 0.569 1.436 1.539 1.436 2.641 0 0.002 0 0.004 0 0.006v-0z"></path>
<path d="M58.049 41.951v-36c-0.002-1.656-1.344-2.998-3-3h-46c-1.656 0.002-2.998 1.344-3 3v17.5l4-4v-12.5h44v35h-4v-8h-18v12h30v-4zM46.049 41.951h-10v-4h10z"></path>
</svg>
