<!-- Generated by IcoMoon.io -->
<svg version="1.1" xmlns="http://www.w3.org/2000/svg" width="64" height="64" viewBox="0 0 64 64">
<title>chart-multiline</title>
<path d="M47 20v4h8.172l-9.593 9.593c-1.902-3.267-4.084-6.085-6.587-8.584l-0.001-0c-7.379-7.418-17.593-12.009-28.88-12.009-0.039 0-0.078 0-0.117 0h0.006v4c20.402 0 37 16.598 37 37h4c0-0.022 0-0.049 0-0.075 0-6.004-1.294-11.705-3.617-16.84l0.104 0.257 10.513-10.513v8.172h4v-15z"></path>
<path d="M6 13h-4v49h60v-4h-56v-45z"></path>
<path d="M31.5 53.328l10.192-10.192c-0.591-1.585-1.173-2.88-1.824-4.134l0.097 0.204-8.465 8.465-9-9-12.914 12.914 2.829 2.828 10.086-10.086z"></path>
</svg>
