<!-- Generated by IcoMoon.io -->
<svg version="1.1" xmlns="http://www.w3.org/2000/svg" width="64" height="64" viewBox="0 0 64 64">
<title>chart-donut</title>
<path d="M35 61.947v-18.244l1.285-0.492c3.16-1.236 5.621-3.674 6.857-6.738l0.029-0.081 0.499-1.268h18.264l-0.437 2.364c-2.346 12.248-11.877 21.743-23.956 24.005l-0.186 0.029zM39 46.39v10.656c8.715-2.52 15.448-9.223 17.963-17.736l0.047-0.185h-10.68c-1.607 3.174-4.138 5.684-7.236 7.223l-0.093 0.042zM28.875 61.934l-2.364-0.437c-14.203-2.627-24.511-15.033-24.511-29.497s10.309-26.87 24.511-29.497l2.364-0.437v18.264l-1.268 0.499c-4.493 1.804-7.607 6.124-7.607 11.171s3.115 9.367 7.527 11.142l0.081 0.029 1.268 0.499zM24.875 6.988c-10.986 3.207-18.875 13.188-18.875 25.012s7.889 21.805 18.691 24.966l0.184 0.046v-10.682c-5.303-2.682-8.875-8.089-8.875-14.33s3.572-11.648 8.784-14.288l0.091-0.042zM61.947 29h-18.244l-0.492-1.285c-1.248-3.196-3.73-5.678-6.844-6.898l-0.082-0.028-1.285-0.492v-18.244l2.355 0.425c12.311 2.299 21.869 11.857 24.139 23.982l0.029 0.186zM46.39 25h10.656c-2.527-8.76-9.286-15.519-17.862-18l-0.184-0.046v10.656c3.233 1.6 5.79 4.157 7.348 7.297l0.042 0.093z"></path>
</svg>
