<!-- Generated by IcoMoon.io -->
<svg version="1.1" xmlns="http://www.w3.org/2000/svg" width="64" height="64" viewBox="0 0 64 64">
<title>chart-bubble</title>
<path d="M39 44c-4.971 0-9 4.029-9 9s4.029 9 9 9c4.971 0 9-4.029 9-9v0c-0.006-4.968-4.032-8.994-8.999-9h-0.001zM39 58c-2.761 0-5-2.239-5-5s2.239-5 5-5c2.761 0 5 2.239 5 5v0c-0.003 2.76-2.24 4.997-5 5h-0z"></path>
<path d="M14.5 30c-6.904 0-12.5 5.596-12.5 12.5s5.596 12.5 12.5 12.5c6.904 0 12.5-5.596 12.5-12.5v0c-0.008-6.9-5.6-12.492-12.499-12.5h-0.001zM14.5 51c-4.694 0-8.5-3.806-8.5-8.5s3.806-8.5 8.5-8.5c4.694 0 8.5 3.806 8.5 8.5v0c-0.006 4.692-3.808 8.495-8.499 8.5h-0.001z"></path>
<path d="M43.5 2c-10.201 0-18.5 8.299-18.5 18.5s8.299 18.5 18.5 18.5 18.5-8.299 18.5-18.5-8.299-18.5-18.5-18.5zM43.5 35c-8.008 0-14.5-6.492-14.5-14.5s6.492-14.5 14.5-14.5c8.008 0 14.5 6.492 14.5 14.5v0c-0.009 8.004-6.496 14.491-14.499 14.5h-0.001z"></path>
</svg>
