<!-- Generated by IcoMoon.io -->
<svg version="1.1" xmlns="http://www.w3.org/2000/svg" width="64" height="64" viewBox="0 0 64 64">
<title>chat-square</title>
<path d="M59 18.011h-38.010c-1.656 0.002-2.998 1.344-3 3v25.989c0.002 1.656 1.344 2.998 3 3h29.375l6.508 12h5.128v-40.989c-0.002-1.656-1.344-2.998-3-3h-0zM58 55.69l-5.255-9.69h-30.756v-23.989h36.010z"></path>
<path d="M5.99 39.693v-33.682h35.979v7.989h4v-8.989c-0.002-1.656-1.344-2.998-3-3h-37.979c-1.656 0.002-2.998 1.344-3 3v40.989h5.128l6.883-13v-3h-3z"></path>
</svg>
