<!-- Generated by IcoMoon.io -->
<svg version="1.1" xmlns="http://www.w3.org/2000/svg" width="64" height="64" viewBox="0 0 64 64">
<title>chat-bubble</title>
<path d="M56.026 49.063c3.815-3.4 5.974-7.932 5.974-12.635 0-4.998-2.34-9.672-6.588-13.162-4.134-3.396-9.608-5.266-15.412-5.266s-11.277 1.87-15.412 5.266c-4.249 3.49-6.588 8.164-6.588 13.162s2.34 9.672 6.588 13.162c4.134 3.396 9.608 5.266 15.412 5.266 0.773 0 1.551-0.034 2.323-0.102l1.318 1.143c4.356 3.791 10.087 6.102 16.359 6.102h2v-4.257l-0.586-0.586c-2.251-2.258-4.072-4.946-5.327-7.93l-0.061-0.164zM46.261 52.875l-2.645-2.293-0.882 0.108c-0.821 0.106-1.77 0.167-2.734 0.167h-0c-9.925 0-18-6.473-18-14.429s8.075-14.429 18-14.429 18 6.473 18 14.429c0 3.964-1.977 7.664-5.568 10.42l-1.152 0.884 0.532 1.504c1.17 3.249 2.774 6.059 4.778 8.531l-0.042-0.054c-3.982-0.681-7.48-2.397-10.311-4.86l0.025 0.022z"></path>
<path d="M7.523 39.684c1.792-2.252 3.266-4.861 4.29-7.686l0.061-0.192 0.528-1.497-1.151-0.883c-3.386-2.598-5.251-6.086-5.251-9.819 0-7.503 7.626-13.607 17-13.607 6.896 0 12.846 3.304 15.51 8.037 0.495-0.024 0.991-0.037 1.49-0.037q1.503 0 2.979 0.146c-1.029-2.667-2.817-5.101-5.275-7.12-3.946-3.241-9.168-5.026-14.704-5.026s-10.759 1.785-14.704 5.026c-4.060 3.335-6.295 7.803-6.295 12.581 0 4.475 2.044 8.787 5.656 12.030-1.245 2.952-2.957 5.472-5.071 7.592l-0.585 0.585v4.186h2c3.884-0.001 7.55-0.93 10.789-2.578l-0.135 0.063c-0.342-1.242-0.569-2.683-0.633-4.165l-0.001-0.040c-1.871 1.116-4.051 1.954-6.374 2.387l-0.123 0.019z"></path>
</svg>
