<!-- Generated by IcoMoon.io -->
<svg version="1.1" xmlns="http://www.w3.org/2000/svg" width="64" height="64" viewBox="0 0 64 64">
<title>check-double</title>
<path d="M13.089 21.716l11.911 11.911 26.814-26.814 7.787 7.617 2.797-2.86-10.615-10.383-26.783 26.783-11.915-11.915-10.502 10.532 2.833 2.824 7.673-7.696z"></path>
<path d="M51.799 14.373l-26.799 26.799-11.913-11.913-10.916 10.916 11.913 11.913-0.007 0.007 9.32 9.32 1.428 1.414 9.501-9.501 1.406-1.42 26.8-26.8zM31.492 50.492l-1.407 1.421-5.265 5.266-5.084-5.084 0.007-0.007-11.913-11.913 5.259-5.259 11.913 11.913 26.799-26.799 5.078 5.078z"></path>
</svg>
