<!-- Generated by IcoMoon.io -->
<svg version="1.1" xmlns="http://www.w3.org/2000/svg" width="64" height="64" viewBox="0 0 64 64">
<title>chevron-double-right</title>
<path d="M62.992 31.992l0.005-0.005-23.557-23.547-9.933 9.933 13.628 13.628-13.628 13.628 9.933 9.933 23.561-23.56zM39.44 49.904l-4.276-4.276 13.628-13.628-13.628-13.628 4.276-4.276 17.914 17.904-4.281 4.281-0.005-0.005-0.008 0.008z"></path>
<path d="M35.349 32l-0.008-0.008 0.005-0.005-8.51-8.51-1.411-1.401-13.636-13.636-9.933 9.933 13.628 13.628-13.628 13.628 9.933 9.933 22.151-22.141zM25.413 36.289l-0.005-0.005-13.619 13.619-4.276-4.276 13.628-13.628-13.628-13.628 4.276-4.276 17.914 17.904z"></path>
</svg>
