<!-- Generated by IcoMoon.io -->
<svg version="1.1" xmlns="http://www.w3.org/2000/svg" width="64" height="64" viewBox="0 0 64 64">
<title>chevron-double-up</title>
<path d="M32.44 21.721l13.628 13.628 9.933-9.933-23.566-23.566-8.519 8.519-1.417 1.428-13.619 13.619 9.933 9.933zM26.749 13.203l1.417-1.428 4.264-4.264 0.005 0.005 0.008-0.008 4.276 4.276-0.005 0.005 13.628 13.628-4.276 4.276-13.628-13.628-13.628 13.628-4.276-4.276z"></path>
<path d="M42.369 39.426l-8.51-8.51-1.425-1.414-8.519 8.519-1.409 1.419-13.628 13.628 9.933 9.933 13.628-13.628 13.628 13.628 9.933-9.933-13.636-13.636zM50.343 53.067l-4.276 4.276-13.628-13.628-13.628 13.628-4.276-4.276 17.904-17.914 4.29 4.29-0.005 0.005z"></path>
</svg>
