<!-- Generated by IcoMoon.io -->
<svg version="1.1" xmlns="http://www.w3.org/2000/svg" width="64" height="64" viewBox="0 0 64 64">
<title>chevron-square-down</title>
<path d="M59 2h-54c-1.656 0.002-2.998 1.344-3 3v54c0.002 1.656 1.344 2.998 3 3h54c1.656-0.002 2.998-1.344 3-3v-54c-0.002-1.656-1.344-2.998-3-3h-0zM58 58h-52v-52h52z"></path>
<path d="M53.647 27.178l-9.832-9.832-11.818 11.818-11.993-11.993-9.832 9.832 21.825 21.825zM20.003 22.828l11.993 11.993 11.818-11.818 4.175 4.175-15.993 15.993-16.168-16.168z"></path>
</svg>
