<!-- Generated by IcoMoon.io -->
<svg version="1.1" xmlns="http://www.w3.org/2000/svg" width="64" height="64" viewBox="0 0 64 64">
<title>chevron-double-left</title>
<path d="M34.507 17.933l-9.933-9.933-23.574 23.557 8.527 8.527 1.418 1.407 13.629 13.629 9.933-9.933-13.628-13.627zM24.574 49.464l-17.909-17.909 4.276-4.276 0.005 0.005 13.628-13.628 4.276 4.276-13.628 13.628 13.628 13.628z"></path>
<path d="M62.158 17.933l-9.933-9.933-23.566 23.566 8.519 8.519 1.411 1.401 13.636 13.636 9.933-9.933-13.628-13.627zM56.501 45.188l-4.276 4.276-17.914-17.904 4.29-4.29 0.005 0.005 13.619-13.619 4.276 4.276-13.628 13.628z"></path>
</svg>
