<!-- Generated by IcoMoon.io -->
<svg version="1.1" xmlns="http://www.w3.org/2000/svg" width="64" height="64" viewBox="0 0 64 64">
<title>cloudy</title>
<path d="M49.958 33.109v-0.477c0-9.925-8.075-18-18-18-0.275 0-0.549 0.007-0.821 0.020-0.988-7.181-7.083-12.653-14.457-12.653-8.056 0-14.586 6.53-14.586 14.586 0 7.122 5.105 13.052 11.855 14.331l0.091 0.014c-0.053 0.561-0.081 1.128-0.081 1.702v0.477c-6.867 1.268-12 7.209-12 14.349 0 8.051 6.526 14.578 14.577 14.579h30.845c8.051-0.001 14.578-6.528 14.578-14.579 0-7.14-5.133-13.082-11.91-14.335l-0.090-0.014zM6.094 16.586c0-0 0-0.001 0-0.001 0-5.846 4.739-10.585 10.585-10.585 5.385 0 9.831 4.021 10.498 9.225l0.006 0.053c-5.835 1.657-10.39 6.018-12.286 11.607l-0.037 0.127c-5.007-0.905-8.757-5.226-8.764-10.425v-0.001zM47.381 58.038h-30.845c-0 0-0 0-0 0-5.842 0-10.577-4.736-10.577-10.577 0-5.67 4.462-10.299 10.066-10.565l0.024-0.001 1.91-0.086v-4.175c0-7.732 6.268-14 14-14s14 6.268 14 14v0 4.175l1.91 0.086c5.628 0.267 10.090 4.896 10.090 10.566 0 5.842-4.736 10.577-10.577 10.577-0 0-0 0-0 0v0z"></path>
</svg>
