<!-- Generated by IcoMoon.io -->
<svg version="1.1" xmlns="http://www.w3.org/2000/svg" width="64" height="64" viewBox="0 0 64 64">
<title>color-palette</title>
<path d="M53.189 10.257c-5.592-5.324-13.105-8.257-21.155-8.257-7.503 0-14.982 2.509-20.52 6.884-6.135 4.847-9.514 11.636-9.514 19.116 0 7.512 1.941 12.359 6.109 15.252 3.5 2.43 8.551 3.466 16.89 3.466h3.719c1.811 0.002 3.279 1.47 3.281 3.281v5.998c0 0 0 0 0 0 0 2.209 1.791 4 4 4l11.348-0.011c0.932-0.002 1.789-0.321 2.469-0.856l-0.009 0.007c1.216-0.953 4.341-3.675 7.099-8.363 3.379-5.742 5.092-12.395 5.092-19.775 0-7.966-3.129-15.333-8.811-20.743zM53.461 48.746c-2.412 4.099-5.083 6.431-6.116 7.241l-11.344 0.011v-5.998c-0.005-4.019-3.262-7.277-7.281-7.281h-3.719c-7.461 0-11.83-0.823-14.61-2.752-3.036-2.108-4.391-5.798-4.391-11.966 0-13.771 13.237-22 26.034-22 14.56 0 25.966 10.981 25.966 25 0 6.657-1.527 12.627-4.539 17.746z"></path>
<path d="M16 18c-3.866 0-7 3.134-7 7s3.134 7 7 7c3.866 0 7-3.134 7-7v0c-0.005-3.864-3.136-6.995-7-7h-0zM16 28c-1.657 0-3-1.343-3-3s1.343-3 3-3c1.657 0 3 1.343 3 3v0c-0.002 1.656-1.344 2.998-3 3h-0z"></path>
<path d="M30 9c-3.866 0-7 3.134-7 7s3.134 7 7 7c3.866 0 7-3.134 7-7v0c-0.005-3.864-3.136-6.995-7-7h-0zM30 19c-1.657 0-3-1.343-3-3s1.343-3 3-3c1.657 0 3 1.343 3 3v0c-0.002 1.656-1.344 2.998-3 3h-0z"></path>
<path d="M45 30c3.866 0 7-3.134 7-7s-3.134-7-7-7c-3.866 0-7 3.134-7 7v0c0.005 3.864 3.136 6.995 7 7h0zM45 20c1.657 0 3 1.343 3 3s-1.343 3-3 3c-1.657 0-3-1.343-3-3v0c0.002-1.656 1.344-2.998 3-3h0z"></path>
<path d="M47 33c-3.866 0-7 3.134-7 7s3.134 7 7 7c3.866 0 7-3.134 7-7v0c-0.005-3.864-3.136-6.995-7-7h-0zM47 43c-1.657 0-3-1.343-3-3s1.343-3 3-3c1.657 0 3 1.343 3 3v0c-0.002 1.656-1.344 2.998-3 3h-0z"></path>
</svg>
