<!-- Generated by IcoMoon.io -->
<svg version="1.1" xmlns="http://www.w3.org/2000/svg" width="64" height="64" viewBox="0 0 64 64">
<title>comment-bubble-edit</title>
<path d="M53.482 44.461c2.364-1.998 4.328-4.381 5.818-7.063l0.066-0.129c1.658-2.963 2.635-6.502 2.635-10.269 0-3.002-0.62-5.86-1.74-8.451l0.053 0.138-3.119 3.119c0.51 1.552 0.805 3.339 0.806 5.194v0c0 5.804-2.88 11.21-8.108 15.222l-1.151 0.883 0.55 1.558c1.838 5.101 4.498 9.489 7.86 13.235l-0.033-0.037c-6.518-0.643-12.324-3.271-16.912-7.264l0.037 0.031-3.435-2.977-0.882 0.108c-1.178 0.152-2.541 0.239-3.925 0.239h-0c-14.336 0-26-9.421-26-21s11.664-21 26-21c0.013 0 0.028 0 0.043 0 2.823 0 5.559 0.37 8.163 1.065l-0.221-0.050 3.22-3.22c-3.318-1.138-7.141-1.794-11.117-1.794-0.031 0-0.063 0-0.094 0h0.005c-7.941 0-15.423 2.554-21.069 7.191-5.76 4.731-8.931 11.056-8.931 17.809s3.172 13.078 8.931 17.809c5.645 4.637 13.128 7.191 21.069 7.191 1.172 0 2.352-0.057 3.519-0.171l2.103 1.823c5.959 5.186 13.799 8.347 22.378 8.348h2v-4.828l-0.586-0.586c-3.356-3.366-6.044-7.4-7.847-11.885l-0.085-0.24z"></path>
<path d="M27.978 32.417l-0.018 0.085c-0.025 0.123-0.039 0.264-0.039 0.409 0 1.197 0.971 2.168 2.168 2.168 0.145 0 0.286-0.014 0.423-0.041l-0.014 0.002 10.594-2.508 17.708-17.708c1.362-1.36 2.204-3.239 2.204-5.315 0-4.149-3.363-7.511-7.511-7.511-2.076 0-3.956 0.842-5.315 2.204l-17.708 17.708zM34.099 23.935l16.906-16.906c0.635-0.633 1.511-1.024 2.478-1.024 1.939 0 3.511 1.572 3.511 3.511 0 0.967-0.391 1.843-1.024 2.478l-16.906 16.906-6.508 1.542z"></path>
</svg>
