<!-- Generated by IcoMoon.io -->
<svg version="1.1" xmlns="http://www.w3.org/2000/svg" width="64" height="64" viewBox="0 0 64 64">
<title>comment-square-edit</title>
<path d="M58 57.124l-8.215-15.124h-43.785v-36h33l4-4h-38c-1.656 0.002-2.998 1.344-3 3v38c0.002 1.656 1.344 2.998 3 3h42.406l8.69 16h5.904v-41l-4 4z"></path>
<path d="M29.057 32.339l-0.018 0.086c-0.025 0.123-0.039 0.264-0.039 0.408 0 1.197 0.971 2.168 2.168 2.168 0.145 0 0.286-0.014 0.422-0.041l-0.014 0.002 10.594-2.508 17.708-17.708c1.356-1.359 2.194-3.234 2.194-5.306 0-4.149-3.363-7.511-7.511-7.511-2.071 0-3.947 0.838-5.306 2.194l-17.708 17.708zM35.178 23.856l16.906-16.906c0.636-0.641 1.518-1.037 2.492-1.037 1.939 0 3.512 1.572 3.512 3.512 0 0.974-0.397 1.855-1.037 2.492l-16.906 16.906-6.508 1.542z"></path>
</svg>
