<!-- Generated by IcoMoon.io -->
<svg version="1.1" xmlns="http://www.w3.org/2000/svg" width="64" height="64" viewBox="0 0 64 64">
<title>comment-square-image</title>
<path d="M59 2h-54c-1.656 0.002-2.998 1.344-3 3v38c0.002 1.656 1.344 2.998 3 3h42.406l8.69 16h5.904v-57c-0.002-1.656-1.344-2.998-3-3h-0zM58 57.124l-8.215-15.124h-43.785v-36h52z"></path>
<path d="M10 10h5v5h-5v-5z"></path>
<path d="M54 27.003l-11.987-11.473-6.92 6.497-10.241-10.962-14.852 16.007v10.785h44zM50 33.857h-36v-5.215l10.862-11.707 10.045 10.752 7.080-6.646 8.013 7.67z"></path>
</svg>
