<!-- Generated by IcoMoon.io -->
<svg version="1.1" xmlns="http://www.w3.org/2000/svg" width="64" height="64" viewBox="0 0 64 64">
<title>comment-square-smile</title>
<path d="M59 2h-54c-1.656 0.002-2.998 1.344-3 3v38c0.002 1.656 1.344 2.998 3 3h42.406l8.69 16h5.904v-57c-0.002-1.656-1.344-2.998-3-3h-0zM58 57.124l-8.215-15.124h-43.785v-36h52z"></path>
<path d="M21 15h5v5h-5v-5z"></path>
<path d="M38 15h5v5h-5v-5z"></path>
<path d="M31.57 35h0.859c0.012 0 0.025 0 0.039 0 5.012 0 9.302-3.087 11.074-7.463l0.029-0.080 0.583-1.457h-4.309c-1.207 2.955-4.060 5-7.39 5-0.009 0-0.018 0-0.027-0h-0.858c-0.008 0-0.017 0-0.026 0-3.33 0-6.183-2.045-7.371-4.947l-0.019-0.053h-4.309l0.583 1.457c1.8 4.456 6.091 7.543 11.103 7.543 0.014 0 0.027 0 0.041-0h-0.002z"></path>
</svg>
