<!-- Generated by IcoMoon.io -->
<svg version="1.1" xmlns="http://www.w3.org/2000/svg" width="64" height="64" viewBox="0 0 64 64">
<title>compass-calibration</title>
<path d="M37.678 26.279l-14.886-7.456c-0.391-0.2-0.854-0.318-1.343-0.318-1.657 0-3 1.343-3 3 0 0.489 0.117 0.95 0.324 1.358l-0.008-0.017 7.446 14.899 14.881 7.428c0.39 0.199 0.851 0.316 1.34 0.316 1.657 0 3-1.343 3-3 0-0.489-0.117-0.951-0.325-1.359l0.008 0.017zM29.192 34.763l-5.507-11.019 11.011 5.515 5.501 10.997z"></path>
<path d="M32 11l7.5 10 2.479-2.754c4.275 3.123 7.020 8.118 7.021 13.754v0h4c0-11.579-9.421-21-21-21z"></path>
<path d="M22.021 45.754c-4.275-3.123-7.020-8.118-7.021-13.754v-0h-4c0 11.579 9.421 21 21 21l-7.5-10z"></path>
<path d="M32 2c-16.569 0-30 13.431-30 30s13.431 30 30 30 30-13.431 30-30-13.431-30-30-30zM32 58c-14.359 0-26-11.641-26-26s11.641-26 26-26 26 11.641 26 26-11.641 26-26 26z"></path>
</svg>
