<!-- Generated by IcoMoon.io -->
<svg version="1.1" xmlns="http://www.w3.org/2000/svg" width="64" height="64" viewBox="0 0 64 64">
<title>compass-slash</title>
<path d="M21.881 8.042c2.379-1.036 5.138-1.738 8.031-1.961l0.088-0.005v7.925h4v-7.925c12.832 1.007 22.99 11.204 23.928 23.964l0.005 0.085h-7.937v4h7.917c-0.354 4.308-1.714 8.235-3.842 11.632l0.063-0.108 2.894 2.894c3.115-4.64 4.972-10.352 4.972-16.498 0-0.016 0-0.032-0-0.048v0.002c0-16.569-13.431-30-30-30-0.013 0-0.029-0-0.045-0-6.146 0-11.858 1.857-16.606 5.040l0.108-0.068 2.894 2.894c0.995-0.628 2.155-1.238 3.362-1.759l0.168-0.065z"></path>
<path d="M40.519 32.034l4.595-9.175c0.2-0.391 0.318-0.854 0.318-1.343 0-1.657-1.343-3-3-3-0.489 0-0.95 0.117-1.358 0.324l0.017-0.008-9.184 4.59 2.982 2.982 5.304-2.651-2.655 5.301z"></path>
<path d="M4.828 2h-2.828v2.828l7.421 7.421c-4.608 5.232-7.421 12.142-7.421 19.709 0 0.015 0 0.030 0 0.045v-0.002c0 16.569 13.431 30 30 30 0.013 0 0.027 0 0.042 0 7.567 0 14.477-2.812 19.742-7.449l-0.033 0.028 7.421 7.421h2.828v-2.828zM32.85 35.678l-9.168 4.586 4.579-9.175zM42.119 55.958c-2.379 1.036-5.138 1.738-8.031 1.961l-0.088 0.005v-7.925h-4v7.925c-12.746-0.999-22.852-11.066-23.907-23.705l-0.006-0.094h7.91v-4h-7.93c0.421-5.795 2.691-10.992 6.216-15.075l-0.028 0.033 13.024 13.024-6.515 13.052c-0.2 0.391-0.317 0.852-0.317 1.341 0 1.657 1.343 2.999 2.999 2.999 0.49 0 0.952-0.117 1.361-0.326l-0.017 0.008 13.041-6.523 13.086 13.086c-1.948 1.683-4.192 3.098-6.629 4.149l-0.168 0.064z"></path>
</svg>
