<!-- Generated by IcoMoon.io -->
<svg version="1.1" xmlns="http://www.w3.org/2000/svg" width="64" height="64" viewBox="0 0 64 64">
<title>compass</title>
<path d="M37.677 26.654l-14.886-7.456c-0.391-0.2-0.854-0.318-1.343-0.318-1.657 0-3 1.343-3 3 0 0.489 0.117 0.95 0.324 1.358l-0.008-0.017 7.446 14.899 14.881 7.428c0.39 0.199 0.851 0.316 1.34 0.316 1.657 0 3-1.343 3-3 0-0.489-0.117-0.951-0.325-1.359l0.008 0.017zM29.192 35.138l-5.507-11.019 11.011 5.515 5.501 10.997z"></path>
<path d="M32 2c-16.569 0-30 13.431-30 30s13.431 30 30 30 30-13.431 30-30-13.431-30-30-30zM34 57.924v-7.549h-4v7.549c-12.598-0.958-22.684-10.894-23.88-23.424h7.876v-4h-7.952c0.739-12.998 11.025-23.441 23.956-24.424v8.299h4v-8.299c12.931 0.984 23.216 11.427 23.956 24.424h-7.959v4h7.883c-1.196 12.53-11.282 22.466-23.88 23.424z"></path>
</svg>
