<!-- Generated by IcoMoon.io -->
<svg version="1.1" xmlns="http://www.w3.org/2000/svg" width="64" height="64" viewBox="0 0 64 64">
<title>contact-phone</title>
<path d="M38.658 48.966v0l-8.418-4.679 2.761-6.902v-8.385c0-6.075-4.925-11-11-11s-11 4.925-11 11v0 8.385l2.761 6.902-8.418 4.679c-2.008 1.133-3.341 3.251-3.342 5.681v7.353h4v-7.353c0-0.935 0.513-1.749 1.273-2.178l0.013-0.007 11.497-6.39-3.783-9.457v-7.615c0-3.866 3.134-7 7-7s7 3.134 7 7v0 7.615l-3.783 9.457 11.497 6.39c0.772 0.436 1.285 1.25 1.285 2.185v7.353h4v-7.353c-0.001-2.43-1.335-4.549-3.31-5.664l-0.032-0.017z"></path>
<path d="M56.612 10.964c-1.821-2.663-3.963-4.938-6.408-6.843l-0.067-0.050c-0.665-0.516-1.511-0.827-2.43-0.827-0.506 0-0.99 0.094-1.435 0.266l0.027-0.009-8.595 3.223 2.584 12.92 6.927 1.673c1.079 1.25 1.736 2.89 1.736 4.683 0 1.735-0.615 3.327-1.639 4.569l0.010-0.012-7.039 0.577-2.56 15.358 9.035 2.259c0.294 0.077 0.632 0.121 0.98 0.122h0c0.756-0 1.463-0.213 2.064-0.581l-0.017 0.010c2.631-1.583 11.215-7.941 11.215-23.302 0-4.994-1.476-9.717-4.388-14.036zM47.728 44.87l-5.452-1.363 1.44-8.642 5.447-0.446 0.519-0.519c2.019-2.023 3.267-4.816 3.267-7.9s-1.248-5.877-3.267-7.901l-0.398-0.398-5.575-1.346-1.416-7.080 5.413-2.026c2.18 1.666 9.292 7.871 9.292 17.751 0 13.262-7.101 18.565-9.272 19.87z"></path>
</svg>
