<!-- Generated by IcoMoon.io -->
<svg version="1.1" xmlns="http://www.w3.org/2000/svg" width="64" height="64" viewBox="0 0 64 64">
<title>contacts</title>
<path d="M59 16h-54c-1.656 0.002-2.998 1.344-3 3v40c0.002 1.656 1.344 2.998 3 3h13v-8.785l11.385-5.915-3.385-8.462v-6.726c0-3.314 2.686-6 6-6s6 2.686 6 6v0 6.726l-3.385 8.462 11.385 5.915v8.785h13c1.656-0.002 2.998-1.344 3-3v-40c-0.002-1.656-1.344-2.998-3-3h-0zM58 58h-8v-4.785c0-0.002 0-0.005 0-0.008 0-1.533-0.865-2.864-2.134-3.531l-0.022-0.010h0l-8.17-4.245 2.325-5.813v-7.496c0-5.523-4.477-10-10-10s-10 4.477-10 10v0 7.496l2.325 5.813-8.169 4.245c-1.291 0.678-2.156 2.008-2.156 3.542 0 0.003 0 0.006 0 0.008v-0 4.785h-8v-38h52z"></path>
<path d="M16 2h32v4h-32v-4z"></path>
<path d="M8 9h48v4h-48v-4z"></path>
</svg>
