<!-- Generated by IcoMoon.io -->
<svg version="1.1" xmlns="http://www.w3.org/2000/svg" width="64" height="64" viewBox="0 0 64 64">
<title>copyright</title>
<path d="M33 20c0.013-0 0.029-0 0.044-0 2.801 0 5.376 0.97 7.407 2.593l-0.024-0.018 2.478-3.14c-2.677-2.14-6.111-3.434-9.848-3.434-0.020 0-0.040 0-0.061 0h0.003c-8.837 0-16 7.163-16 16s7.163 16 16 16v0c0.017 0 0.037 0 0.057 0 3.737 0 7.172-1.294 9.88-3.459l-0.032 0.024-2.478-3.14c-2.007 1.604-4.582 2.574-7.383 2.574-0.016 0-0.031 0-0.047-0h0.002c-6.627 0-12-5.373-12-12s5.373-12 12-12v0z"></path>
<path d="M32 2c-16.569 0-30 13.431-30 30s13.431 30 30 30 30-13.431 30-30-13.431-30-30-30zM50.385 50.385c-4.685 4.672-11.151 7.56-18.291 7.56-14.308 0-25.906-11.599-25.906-25.906s11.599-25.906 25.906-25.906c14.308 0 25.906 11.599 25.906 25.906 0 3.64-0.751 7.105-2.106 10.248l0.065-0.168c-1.378 3.213-3.258 5.957-5.573 8.265l-0.001 0.001z"></path>
</svg>
