<!-- Generated by IcoMoon.io -->
<svg version="1.1" xmlns="http://www.w3.org/2000/svg" width="64" height="64" viewBox="0 0 64 64">
<title>crop-rotate</title>
<path d="M46 1.996l-14 0.004c-7.973 0.012-15.427 3.21-21.066 8.849-5.412 5.383-8.761 12.836-8.761 21.070 0 0.029 0 0.057 0 0.086v-0.004h4c0-14.273 11.6-25.887 25.867-25.912v5.22z"></path>
<path d="M57.998 32.004c0 14.263-11.656 25.872-25.999 25.916v-3.921l-13.96 8h13.96c16.549-0.045 29.999-13.527 29.999-29.996z"></path>
<path d="M48 18.172v-2.172h-2.828l-3 3h-19.172v-4h-4v4h-4v4h4v22h21v4h4v-4h4v-4h-4v-13.172l-4 4v9.172h-14.828zM23 38.172v-15.172h15.172z"></path>
</svg>
