<!-- Generated by IcoMoon.io -->
<svg version="1.1" xmlns="http://www.w3.org/2000/svg" width="64" height="64" viewBox="0 0 64 64">
<title>deaf</title>
<path d="M21.648 13.146c2.673-2.566 6.31-4.146 10.315-4.146 0.051 0 0.102 0 0.153 0.001l-0.008-0c8.163 0.057 14.843 6.746 14.891 14.909 0 0.025 0 0.055 0 0.084 0 4.019-1.579 7.67-4.151 10.365l0.006-0.006 2.829 2.829c3.29-3.414 5.316-8.065 5.316-13.189 0-0.037-0-0.075-0-0.112v0.006c-0.061-10.34-8.523-18.812-18.863-18.885-0.058-0.001-0.127-0.001-0.196-0.001-5.103 0-9.732 2.028-13.125 5.322l0.005-0.005z"></path>
<path d="M62 62v-2.846l-57.154-57.154h-2.846v2.811l12.287 12.287c-0.814 2.038-1.287 4.399-1.287 6.871 0 0.011 0 0.022 0 0.032v-0.002 4h4v-4c0-0.003 0-0.008 0-0.012 0-1.319 0.169-2.599 0.487-3.819l-0.023 0.105 23.536 23.536v3.272c-0.005 4.37-3.546 7.912-7.916 7.917h-3.084v4h3.083c6.33-0.008 11.504-4.944 11.893-11.176l0.002-0.034 14.211 14.21z"></path>
<path d="M27.329 18.826c1.211-1.119 2.832-1.81 4.614-1.826h0.003c0.018-0 0.036-0 0.053-0 0 0 0 0 0 0 3.866 0 7 3.134 7 7 0 0 0 0 0 0v0h4c0-0.011 0-0.024 0-0.036 0-6.055-4.909-10.964-10.964-10.964-2.921 0-5.575 1.142-7.54 3.004l0.005-0.005z"></path>
<path d="M25 24.113c0-0.001 0-0.002 0-0.002 0-0.619 0.078-1.219 0.225-1.791l-0.011 0.050-3.105-3.105c-0.7 1.414-1.109 3.079-1.109 4.839 0 0.004 0 0.007 0 0.011v-0.001 10.716l0.636 0.635c2.696 2.681 4.364 6.394 4.364 10.495 0 0.014 0 0.028-0 0.042v-0.002h4c0-0.016 0-0.034 0-0.053 0-4.93-1.901-9.417-5.011-12.766l0.011 0.012z"></path>
</svg>
