<!-- Generated by IcoMoon.io -->
<svg version="1.1" xmlns="http://www.w3.org/2000/svg" width="64" height="64" viewBox="0 0 64 64">
<title>devices</title>
<path d="M59 29h-6v-14c-0.002-1.656-1.344-2.998-3-3h-45c-1.656 0.002-2.998 1.344-3 3v30.75c0.002 1.656 1.344 2.998 3 3h21.5v6.25h-7.5v4h19v-4h-7.5v-6.25h11.5v7.25c0.002 1.656 1.344 2.998 3 3h14c1.656-0.002 2.998-1.344 3-3v-24c-0.002-1.656-1.344-2.998-3-3h-0zM42 32v12.75h-36v-28.75h43v13h-4c-1.656 0.002-2.998 1.344-3 3v0zM58 55h-12v-22h12z"></path>
</svg>
