<!-- Generated by IcoMoon.io -->
<svg version="1.1" xmlns="http://www.w3.org/2000/svg" width="64" height="64" viewBox="0 0 64 64">
<title>dollar-slash</title>
<path d="M40.222 18.444v-4h-8.5v-7.444h-4v7.444s-4.316 0.028-4.715 0.078l3.922 3.922z"></path>
<path d="M4.828 2h-2.828v2.828l14.044 14.044c-1.003 1.509-1.6 3.364-1.6 5.357 0 5.396 4.374 9.77 9.77 9.77 0.003 0 0.005 0 0.008 0h6.949l8.401 8.401c-0.885 2.127-2.946 3.596-5.35 3.599h-17.223v4h10.722v7h4v-7h2.5c3.495-0.002 6.561-1.837 8.288-4.596l0.024-0.041 16.637 16.637h2.828v-2.828zM24.222 30c-0.001 0-0.001 0-0.002 0-3.19 0-5.776-2.586-5.776-5.776 0-0.878 0.196-1.71 0.546-2.455l-0.015 0.035 8.196 8.196z"></path>
</svg>
