<!-- Generated by IcoMoon.io -->
<svg version="1.1" xmlns="http://www.w3.org/2000/svg" width="64" height="64" viewBox="0 0 64 64">
<title>donate</title>
<path d="M52.71 40c1.445-2.914 2.29-6.345 2.29-9.973 0-0.009 0-0.019 0-0.028v0.001c0-12.682-10.318-23-23-23s-23 10.318-23 23c0 0.008 0 0.017 0 0.027 0 3.629 0.845 7.060 2.35 10.107l-0.060-0.134h-9.29v22h60v-22zM32 11c10.477 0 19 8.523 19 19s-8.523 19-19 19-19-8.523-19-19 8.523-19 19-19zM58 58h-52v-14h7.765c1.487 1.932 4.235 4 6.235 5h-9v4h42v-4h-9c2-1 4.748-3.068 6.235-5h7.765z"></path>
<path d="M28.856 32.5h6.539c1.243 0 2.25 1.007 2.25 2.25s-1.007 2.25-2.25 2.25v0h-10.789v4h5.394v4h4v-4h1.394c3.452 0 6.25-2.798 6.25-6.25s-2.798-6.25-6.25-6.25v0h-6.539c-1.243 0-2.25-1.007-2.25-2.25s1.007-2.25 2.25-2.25v0h10.789v-4h-5.644v-4h-4v4h-1.144c-3.452 0-6.25 2.798-6.25 6.25s2.798 6.25 6.25 6.25v0z"></path>
</svg>
