<!-- Generated by IcoMoon.io -->
<svg version="1.1" xmlns="http://www.w3.org/2000/svg" width="64" height="64" viewBox="0 0 64 64">
<title>double-quote-serif-right</title>
<path d="M59 2h-21c-1.656 0.002-2.998 1.344-3 3v21c0.002 1.656 1.344 2.998 3 3h11v0.172l-14 14v8.828h8.828l18.172-18.172v-28.828c-0.002-1.656-1.344-2.998-3-3h-0zM58 32.172l-15.828 15.828h-3.172v-3.172l14-14v-5.828h-14v-19h19z"></path>
<path d="M26 2h-21c-1.656 0.002-2.998 1.344-3 3v21c0.002 1.656 1.344 2.998 3 3h11v0.172l-14 14v8.828h8.828l18.172-18.172v-28.828c-0.002-1.656-1.344-2.998-3-3h-0zM25 32.172l-15.828 15.828h-3.172v-3.172l14-14v-5.828h-14v-19h19z"></path>
</svg>
