<!-- Generated by IcoMoon.io -->
<svg version="1.1" xmlns="http://www.w3.org/2000/svg" width="64" height="64" viewBox="0 0 64 64">
<title>double-quote-serif-left</title>
<path d="M1.25 20.547v28.453c0.002 1.656 1.344 2.998 3 3h21c1.656-0.002 2.998-1.344 3-3v-21c-0.002-1.656-1.344-2.998-3-3h-10.797l13.797-13.797v-8.828h-8.828zM24.25 6.375v3.172l-14 14v5.453h14v19h-19v-25.797l15.828-15.828z"></path>
<path d="M61.25 2.375h-8.828l-18.172 18.172v28.453c0.002 1.656 1.344 2.998 3 3h21c1.656-0.002 2.998-1.344 3-3v-21c-0.002-1.656-1.344-2.998-3-3h-10.797l13.797-13.797zM57.25 9.547l-14 14v5.453h14v19h-19v-25.797l15.828-15.828h3.172z"></path>
</svg>
