<!-- Generated by IcoMoon.io -->
<svg version="1.1" xmlns="http://www.w3.org/2000/svg" width="64" height="64" viewBox="0 0 64 64">
<title>drop-slash</title>
<path d="M32 7.934l13.996 21.861q0.036 0.056 0.076 0.11c2.133 2.849 3.415 6.442 3.415 10.335 0 0.017 0 0.033-0 0.050v-0.003c0 0.258-0.007 0.515-0.018 0.77l3.576 3.576c0.281-1.304 0.442-2.802 0.442-4.338 0-4.782-1.56-9.199-4.199-12.771l0.041 0.059-15.645-24.436c-0.361-0.558-0.98-0.922-1.684-0.922s-1.323 0.364-1.68 0.914l-0.005 0.008-7.322 11.436 2.896 2.896z"></path>
<path d="M4.828 2h-2.828v2.828l16.607 16.607-3.936 6.148c-2.597 3.491-4.158 7.887-4.158 12.648 0 0.020 0 0.040 0 0.060v-0.003c0 11.848 9.639 21.487 21.487 21.487 7.297-0.002 13.744-3.643 17.624-9.207l0.046-0.070 9.502 9.502h2.828v-2.828zM32 57.775c-9.642 0-17.487-7.845-17.487-17.487-0-0.014-0-0.031-0-0.047 0-3.893 1.282-7.486 3.448-10.38l-0.032 0.045q0.040-0.054 0.076-0.11l3.498-5.464 25.283 25.283c-3.147 4.933-8.589 8.158-14.785 8.161h-0z"></path>
</svg>
