<!-- Generated by IcoMoon.io -->
<svg version="1.1" xmlns="http://www.w3.org/2000/svg" width="64" height="64" viewBox="0 0 64 64">
<title>equalizer</title>
<path d="M12 18.253v-16.253h-4v16.253c-3.478 0.92-6 4.039-6 7.747s2.522 6.827 5.944 7.734l0.056 0.013v28.253h4v-28.253c3.478-0.92 6-4.039 6-7.747s-2.522-6.826-5.944-7.734l-0.056-0.013zM10 30c-2.209 0-4-1.791-4-4s1.791-4 4-4c2.209 0 4 1.791 4 4v0c-0.003 2.208-1.792 3.997-4 4h-0z"></path>
<path d="M34 36.253v-34.253h-4v34.253c-3.478 0.92-6 4.039-6 7.747s2.522 6.827 5.944 7.734l0.056 0.013v10.253h4v-10.253c3.478-0.92 6-4.039 6-7.747s-2.522-6.827-5.944-7.734l-0.056-0.013zM32 48c-2.209 0-4-1.791-4-4s1.791-4 4-4c2.209 0 4 1.791 4 4v0c-0.003 2.208-1.792 3.997-4 4h-0z"></path>
<path d="M56 10.253v-8.253h-4v8.253c-3.478 0.92-6 4.039-6 7.747s2.522 6.826 5.944 7.734l0.056 0.013v36.253h4v-36.253c3.478-0.92 6-4.039 6-7.747s-2.522-6.826-5.944-7.734l-0.056-0.013zM54 22c-2.209 0-4-1.791-4-4s1.791-4 4-4c2.209 0 4 1.791 4 4v0c-0.003 2.208-1.792 3.997-4 4h-0z"></path>
</svg>
