<!-- Generated by IcoMoon.io -->
<svg version="1.1" xmlns="http://www.w3.org/2000/svg" width="64" height="64" viewBox="0 0 64 64">
<title>euro-circle-slash</title>
<path d="M21.881 8.042c2.982-1.291 6.455-2.042 10.103-2.042 14.369 0 26.017 11.648 26.017 26.017 0 3.648-0.751 7.12-2.106 10.272l0.065-0.169q-0.237 0.56-0.499 1.105l2.973 2.973c2.246-4.093 3.567-8.969 3.567-14.154 0-0.015 0-0.031-0-0.046v0.002c0-16.569-13.431-30-30-30-0.013 0-0.028-0-0.044-0-5.185 0-10.061 1.321-14.31 3.645l0.156-0.078 2.973 2.973q0.546-0.261 1.105-0.499z"></path>
<path d="M31.645 19.41c0.99-0.26 2.127-0.41 3.299-0.41 0.002 0 0.004 0 0.006 0h6.3v-4h-6.3c-0.005 0-0.011 0-0.017 0-2.326 0-4.545 0.456-6.573 1.284l0.116-0.042z"></path>
<path d="M8.828 2.25h-2.828v2.828l5.253 5.253c-5.706 5.457-9.253 13.13-9.253 21.632 0 0.013 0 0.026 0 0.038v-0.002c0 16.569 13.431 30 30 30 0.011 0 0.024 0 0.036 0 8.502 0 16.175-3.547 21.622-9.242l0.011-0.011 5.253 5.253h3.078v-2.578zM35.922 35h-14.239c-0.148-0.751-0.233-1.615-0.233-2.498 0-0.529 0.030-1.051 0.090-1.565l-0.006 0.063h10.388zM27.922 27h-5.299c0.564-1.241 1.251-2.31 2.068-3.264l-0.015 0.018zM50.84 49.918q-0.224 0.236-0.455 0.467c-4.707 4.715-11.213 7.632-18.401 7.632-14.359 0-26-11.641-26-26 0-7.188 2.917-13.695 7.631-18.401l0-0q0.231-0.231 0.467-0.455l7.76 7.76c-1.514 1.704-2.71 3.729-3.469 5.957l-0.037 0.123h-5.336v4h4.515c-0.042 0.495-0.065 0.995-0.065 1.5 0 0.882 0.065 1.749 0.191 2.596l-0.012-0.096h-4.629v4h5.703c2.658 6.496 8.927 10.992 16.246 11h6.301v-4h-6.3c-5.069-0.004-9.485-2.799-11.794-6.931l-0.035-0.069h16.8z"></path>
</svg>
