<!-- Generated by IcoMoon.io -->
<svg version="1.1" xmlns="http://www.w3.org/2000/svg" width="64" height="64" viewBox="0 0 64 64">
<title>euro-circle</title>
<path d="M32 2c-16.569 0-30 13.431-30 30s13.431 30 30 30 30-13.431 30-30-13.431-30-30-30zM50.385 50.385c-4.685 4.672-11.151 7.56-18.291 7.56-14.308 0-25.906-11.599-25.906-25.906s11.599-25.906 25.906-25.906c14.308 0 25.906 11.599 25.906 25.906 0 3.64-0.751 7.105-2.106 10.248l0.065-0.168c-1.378 3.213-3.258 5.957-5.573 8.265l-0.001 0.001z"></path>
<path d="M18.703 26h-5.703v4h4.629c-0.114 0.751-0.179 1.618-0.179 2.5s0.065 1.749 0.191 2.596l-0.012-0.096h-4.629v4h5.703c2.658 6.496 8.927 10.992 16.246 11h6.301v-4h-6.3c-5.069-0.004-9.485-2.799-11.794-6.931l-0.035-0.069h14.879v-4h-16.317c-0.148-0.752-0.233-1.616-0.233-2.5s0.085-1.748 0.247-2.585l-0.014 0.085h16.317v-4h-14.879c2.343-4.201 6.759-6.996 11.828-7h6.3v-4h-6.3c-7.321 0.008-13.59 4.503-16.205 10.883l-0.042 0.117z"></path>
</svg>
