<!-- Generated by IcoMoon.io -->
<svg version="1.1" xmlns="http://www.w3.org/2000/svg" width="64" height="64" viewBox="0 0 64 64">
<title>exclamation</title>
<path d="M32 40c-6.075 0-11 4.925-11 11s4.925 11 11 11c6.075 0 11-4.925 11-11v0c-0.007-6.072-4.928-10.993-10.999-11h-0.001zM32 58c-3.866 0-7-3.134-7-7s3.134-7 7-7c3.866 0 7 3.134 7 7v0c-0.005 3.864-3.136 6.995-7 7h-0z"></path>
<path d="M19 2v8.286l7.5 25.714h11l7.5-25.714v-8.286zM41 9.714l-6.5 22.286h-5l-6.5-22.286v-3.714h18z"></path>
</svg>
