<!-- Generated by IcoMoon.io -->
<svg version="1.1" xmlns="http://www.w3.org/2000/svg" width="64" height="64" viewBox="0 0 64 64">
<title>eye-slash</title>
<path d="M49.653 16.388l-0.027-0.028c-7.897-7.896-19.817-9.377-29.222-4.442l2.992 2.992c7.696-3.461 17.072-2.041 23.388 4.264l11.216 11.66v0.388l-8.968 9.323 2.829 2.829 10.139-10.54v-3.612z"></path>
<path d="M44.1 35.541c0.515-1.34 0.814-2.891 0.814-4.512 0-7.132-5.782-12.913-12.913-12.913-1.621 0-3.171 0.299-4.601 0.844l0.089-0.030 3.274 3.274c0.375-0.056 0.808-0.088 1.248-0.088 4.917 0 8.904 3.986 8.904 8.904 0 0.44-0.032 0.873-0.094 1.296l0.006-0.048z"></path>
<path d="M46.237 43.409l-4.229-4.229c0.011-0.013 0.022-0.027 0.033-0.040l-2.851-2.851c-0.010 0.014-0.021 0.028-0.032 0.042l-12.46-12.46c0.014-0.010 0.028-0.021 0.042-0.032l-2.851-2.851c-0.014 0.011-0.027 0.022-0.040 0.033l-19.022-19.022h-2.828v2.828l11.961 11.961-11.961 12.434v3.612l12.374 12.864c4.516 4.504 10.748 7.289 17.63 7.289 5.19 0 10.010-1.584 14.004-4.294l-0.087 0.056 13.25 13.25h2.828v-2.828l-12.933-12.933zM24.092 26.921l12.017 12.017c-1.194 0.634-2.61 1.006-4.113 1.006-4.921 0-8.91-3.989-8.91-8.91 0-1.503 0.372-2.919 1.029-4.161l-0.023 0.048zM17.216 42.884l-11.216-11.66v-0.388l10.79-11.217 4.383 4.383c-1.308 1.985-2.087 4.42-2.087 7.036 0 7.128 5.778 12.906 12.906 12.906 2.616 0 5.051-0.779 7.085-2.117l-0.049 0.030 4.001 4.001c-8.064 5.002-18.815 4.012-25.813-2.973z"></path>
</svg>
