<!-- Generated by IcoMoon.io -->
<svg version="1.1" xmlns="http://www.w3.org/2000/svg" width="64" height="64" viewBox="0 0 64 64">
<title>eye</title>
<path d="M29.817 28.817h4.365v4.365h-4.366v-4.365z"></path>
<path d="M32 18.086c0 0-0 0-0 0-7.132 0-12.914 5.782-12.914 12.914s5.782 12.914 12.914 12.914c7.132 0 12.914-5.782 12.914-12.914v0c-0.008-7.129-5.785-12.905-12.913-12.914h-0.001zM32 39.914c0 0-0 0-0 0-4.923 0-8.914-3.991-8.914-8.914s3.991-8.914 8.914-8.914c4.923 0 8.914 3.991 8.914 8.914v0c-0.006 4.921-3.993 8.908-8.913 8.914h-0.001z"></path>
<path d="M49.653 16.358l-0.027-0.028c-9.719-9.719-25.532-9.719-35.251 0l-12.374 12.864v3.612l12.374 12.864c4.514 4.504 10.744 7.289 17.625 7.289s13.112-2.785 17.626-7.29l-0.001 0.001 12.374-12.864v-3.612zM58 31.194l-11.216 11.66c-8.156 8.141-21.412 8.141-29.568 0l-11.216-11.66v-0.388l11.216-11.66c8.156-8.141 21.412-8.141 29.568 0l11.216 11.66z"></path>
</svg>
