<!-- Generated by IcoMoon.io -->
<svg version="1.1" xmlns="http://www.w3.org/2000/svg" width="64" height="64" viewBox="0 0 64 64">
<title>fax</title>
<path d="M60.993 29.207l-7.993-7.105v-10.93l-9.172-9.172h-24.828v16h-9c-1.656 0.002-2.998 1.344-3 3v38c0.002 1.656 1.344 2.998 3 3h52v-30.551c-0-0.89-0.388-1.69-1.004-2.24l-0.003-0.003zM49 12.828v1.172h-8v-8h1.172zM23 6h14v12h12v9h-26zM19 58h-8v-36h8zM58 58h-35v-27h30v-3.546l5 4.444z"></path>
<path d="M29 43h4v4h-4v-4z"></path>
<path d="M37 43h4v4h-4v-4z"></path>
<path d="M29 51h4v4h-4v-4z"></path>
<path d="M37 51h4v4h-4v-4z"></path>
<path d="M45 43h4v4h-4v-4z"></path>
<path d="M45 51h4v4h-4v-4z"></path>
<path d="M29 35h20v4h-20v-4z"></path>
</svg>
