<!-- Generated by IcoMoon.io -->
<svg version="1.1" xmlns="http://www.w3.org/2000/svg" width="64" height="64" viewBox="0 0 64 64">
<title>file-archive</title>
<path d="M19 10h4v4h-4v-4z"></path>
<path d="M23 14h4v4h-4v-4z"></path>
<path d="M19 18h4v4h-4v-4z"></path>
<path d="M23 22h4v4h-4v-4z"></path>
<path d="M19 26h4v4h-4v-4z"></path>
<path d="M17.148 34l-1.142 14.847-0.006 4.153h14v-4l-1.148-15zM20.006 49l0.846-11h4.296l0.846 11z"></path>
<path d="M41.828 2h-35.828v60h53v-42.828zM55 20.828v0.172h-15v-15h0.172zM10 58v-52h13v4h4v-4h9v19h19v33z"></path>
</svg>
