<!-- Generated by IcoMoon.io -->
<svg version="1.1" xmlns="http://www.w3.org/2000/svg" width="64" height="64" viewBox="0 0 64 64">
<title>file-audio</title>
<path d="M41.828 2h-35.828v60h53v-42.828zM55 20.828v0.172h-15v-15h0.172zM10 58v-52h26v19h19v33z"></path>
<path d="M37 35v4c1.105 0 2 0.895 2 2s-0.895 2-2 2v0 4c3.314 0 6-2.686 6-6s-2.686-6-6-6v0z"></path>
<path d="M22.944 34.286h-6.801v13.429h6.801l6.607 4.286h3.449v-22h-3.449zM29 46.875l-4.872-3.16h-3.985v-5.429h3.985l4.872-3.16z"></path>
</svg>
