<!-- Generated by IcoMoon.io -->
<svg version="1.1" xmlns="http://www.w3.org/2000/svg" width="64" height="64" viewBox="0 0 64 64">
<title>file-xls</title>
<path d="M44.828 2h-35.828v28h-7v32h60v-42.828zM58 20.828v0.172h-15v-15h0.172zM6 58v-24h52v24zM13 30v-24h26v19h19v5z"></path>
<path d="M21.872 37.833l-3.055 4.493-3.056-4.493h-4.837l5.474 8.050-5.474 8.050h4.837l3.055-4.493 3.055 4.493h4.837l-5.474-8.050 5.474-8.050h-4.837z"></path>
<path d="M33.167 38h-4v16h10v-4h-6v-12z"></path>
<path d="M48 44h-2c-0.552 0-1-0.448-1-1s0.448-1 1-1v0h5v-4h-5c-2.761 0-5 2.239-5 5s2.239 5 5 5v0h2c0.552 0 1 0.448 1 1s-0.448 1-1 1v0h-6v4h6c2.761 0 5-2.239 5-5s-2.239-5-5-5v0z"></path>
</svg>
