<!-- Generated by IcoMoon.io -->
<svg version="1.1" xmlns="http://www.w3.org/2000/svg" width="64" height="64" viewBox="0 0 64 64">
<title>file-ppt</title>
<path d="M44.828 2h-35.828v28h-7v32h60v-42.828zM58 20.828v0.172h-15v-15h0.172zM6 58v-24h52v24zM13 30v-24h26v19h19v5z"></path>
<path d="M18.563 38h-6.063v16h4v-4h2.063c3.278-0.004 5.934-2.66 5.938-5.937v-0.125c-0.004-3.278-2.66-5.934-5.937-5.938h-0zM20.5 44.063c-0.001 1.070-0.868 1.936-1.937 1.938h-2.063v-4h2.063c1.070 0.001 1.936 0.868 1.938 1.937v0z"></path>
<path d="M33.063 38h-6.063v16h4v-4h2.063c3.278-0.004 5.934-2.66 5.938-5.937v-0.125c-0.004-3.278-2.66-5.934-5.937-5.938h-0zM35 44.063c-0.001 1.070-0.868 1.936-1.937 1.938h-2.063v-4h2.063c1.070 0.001 1.936 0.868 1.938 1.937v0z"></path>
<path d="M41 42h4v12h4v-12h4v-4h-12v4z"></path>
</svg>
