<!-- Generated by IcoMoon.io -->
<svg version="1.1" xmlns="http://www.w3.org/2000/svg" width="64" height="64" viewBox="0 0 64 64">
<title>filter-photo</title>
<path d="M55 5h-46c-2.208 0.003-3.997 1.792-4 4v46c0.003 2.208 1.792 3.997 4 4h46c2.208-0.003 3.997-1.792 4-4v-46c-0.003-2.208-1.792-3.997-4-4h-0zM55 55h-46v-46h46z"></path>
<path d="M15.077 32.717l0.004 0.283 0.040 2.872 10.257 3.302 3.229 10.254h6.787l3.229-10.254 10.257-3.302 0.040-2.872 0.004-0.283 0.009-0.637 0.040-2.91-9.815-3.325-3.831-11.345h-6.653l-3.831 11.345-9.815 3.325 0.040 2.91zM28 29l3.545-10.499h0.91l3.545 10.499 8.932 3.026c-0.006 0.44-0.007 0.479-0.013 0.919l-9.491 3.055-2.969 9.428h-0.919l-2.969-9.428-9.491-3.055c-0.006-0.44-0.007-0.479-0.013-0.919z"></path>
</svg>
