<!-- Generated by IcoMoon.io -->
<svg version="1.1" xmlns="http://www.w3.org/2000/svg" width="64" height="64" viewBox="0 0 64 64">
<title>fire</title>
<path d="M35.867 62h-11.513c-0.012 0-0.027 0-0.041 0-5.228 0-9.969-2.081-13.441-5.461l0.004 0.004c-3.505-3.374-5.712-8.076-5.805-13.294l-0-0.017q-0.004-0.23-0.004-0.463c0-11.292 6.776-17.261 12.754-22.527 1.421-1.252 2.763-2.434 3.986-3.657 1.761-1.761 2.74-3.455 2.536-5-0.342-2.586-2.722-4.049-2.722-4.049l2.568-5.137 1.646 0.549c2.34 0.78 12.448 5.668 15.472 13.69 1.499 3.976 1.068 8.034-1.282 12.061-0.702 1.204-1.413 2.371-2.1 3.5-5.17 8.491-9.253 15.197-3.479 26.916zM26 7c1 1 2.271 3.078 2.337 4.385 0.138 2.733-1.108 5.435-3.702 8.029-1.312 1.312-2.765 2.592-4.17 3.83-5.604 4.936-11.398 10.041-11.398 19.525q0 0.195 0.004 0.388c0.153 8.185 7.009 14.843 15.284 14.843h5.222c-4.734-12.007-0.029-19.734 4.931-27.881 0.678-1.113 1.378-2.264 2.062-3.435 1.737-2.977 2.062-5.802 0.994-8.635-1.688-4.478-8.084-9.148-11.564-11.050z"></path>
<path d="M42.319 62h-1.359l-0.535-1.165c-2.766-6.018-3.547-11.624-2.387-17.141 1.017-4.838 3.351-9.101 6.070-13.777l1.193-2.051 1.82 1.523c0.906 0.758 8.895 7.562 10.338 12.854 0.036 0.132 0.071 0.265 0.104 0.398 0.298 1.132 0.469 2.431 0.469 3.771 0 3.611-1.243 6.931-3.324 9.557l0.024-0.032c-2.889 3.704-7.353 6.063-12.368 6.063-0.016 0-0.031 0-0.047-0h0.002zM46.349 34.054c-4.444 7.933-6.769 14.4-2.827 23.886 3.29-0.34 6.136-2.001 8.035-4.437l0.020-0.026c1.528-1.925 2.452-4.39 2.452-7.070 0-0.992-0.126-1.953-0.364-2.871l0.017 0.079q-0.040-0.158-0.083-0.318c-0.747-2.738-4.587-6.765-7.25-9.243z"></path>
</svg>
