<!-- Generated by IcoMoon.io -->
<svg version="1.1" xmlns="http://www.w3.org/2000/svg" width="64" height="64" viewBox="0 0 64 64">
<title>flight-takeoff</title>
<path d="M2 58h60v4h-60v-4z"></path>
<path d="M60.038 28.401c2.968-1.397 3.33-3.631 2.677-5.257-0.724-1.804-2.821-3.306-5.754-4.123-2.923-0.814-6.032-0.757-8.751 0.162l-0.112 0.038-8.137 3.867-23.748-9.441c-0.658-0.272-1.423-0.43-2.224-0.43-1.54 0-2.944 0.584-4.003 1.542l0.005-0.005-3.179 2.85c-0.613 0.552-0.997 1.348-0.997 2.234 0 1.007 0.496 1.897 1.256 2.442l0.009 0.006 14.721 10.432-5.647 2.958-4.472-4.086c-1.064-0.973-2.487-1.569-4.049-1.569-0.862 0-1.682 0.182-2.423 0.509l0.038-0.015-2.432 1.054c-1.072 0.473-1.807 1.527-1.807 2.752 0 0.516 0.13 1.001 0.359 1.425l-0.008-0.016 9.102 17.105zM6.84 34.185c0.234-0.104 0.508-0.165 0.795-0.165 0.521 0 0.995 0.199 1.351 0.524l-0.002-0.001 6.542 5.977 13.916-7.29-19.028-13.484 2.246-2.014c0.351-0.318 0.819-0.512 1.332-0.512 0.267 0 0.522 0.053 0.755 0.148l-0.013-0.005 25.368 10.085 9.494-4.512c1.932-0.626 4.233-0.646 6.333-0.052 1.729 0.489 2.648 1.2 2.959 1.573-0.164 0.122-0.349 0.232-0.546 0.321l-0.019 0.008-0.019 0.009-46.131 22.738-6.772-12.725z"></path>
</svg>
