<!-- Generated by IcoMoon.io -->
<svg version="1.1" xmlns="http://www.w3.org/2000/svg" width="64" height="64" viewBox="0 0 64 64">
<title>flip-to-back</title>
<path d="M6 56v-41h-4v41c0.004 3.312 2.688 5.996 6 6h42v-4h-42c-1.104-0.001-1.999-0.896-2-2v-0z"></path>
<path d="M58 46h4v4h-4v-4z"></path>
<path d="M21.636 46h3.636v4h-3.636v-4z"></path>
<path d="M50.727 46h3.636v4h-3.636v-4z"></path>
<path d="M28.909 46h3.636v4h-3.636v-4z"></path>
<path d="M36.182 46h3.636v4h-3.636v-4z"></path>
<path d="M43.455 46h3.636v4h-3.636v-4z"></path>
<path d="M14 46h4v4h-4v-4z"></path>
<path d="M14 16.909h4v3.636h-4v-3.636z"></path>
<path d="M14 9.636h4v3.636h-4v-3.636z"></path>
<path d="M14 38.727h4v3.636h-4v-3.636z"></path>
<path d="M14 31.455h4v3.636h-4v-3.636z"></path>
<path d="M14 24.182h4v3.636h-4v-3.636z"></path>
<path d="M14 2h4v4h-4v-4z"></path>
<path d="M36.182 2h3.636v4h-3.636v-4z"></path>
<path d="M28.909 2h3.636v4h-3.636v-4z"></path>
<path d="M50.727 2h3.636v4h-3.636v-4z"></path>
<path d="M21.636 2h3.636v4h-3.636v-4z"></path>
<path d="M43.455 2h3.636v4h-3.636v-4z"></path>
<path d="M58 2h4v4h-4v-4z"></path>
<path d="M58 38.727h4v3.636h-4v-3.636z"></path>
<path d="M58 9.636h4v3.636h-4v-3.636z"></path>
<path d="M58 24.182h4v3.636h-4v-3.636z"></path>
<path d="M58 16.909h4v3.636h-4v-3.636z"></path>
<path d="M58 31.455h4v3.636h-4v-3.636z"></path>
</svg>
