<!-- Generated by IcoMoon.io -->
<svg version="1.1" xmlns="http://www.w3.org/2000/svg" width="64" height="64" viewBox="0 0 64 64">
<title>flip</title>
<path d="M37 5h4v4h-4v-4z"></path>
<path d="M46 5h4v4h-4v-4z"></path>
<path d="M37 55h4v4h-4v-4z"></path>
<path d="M46 55h4v4h-4v-4z"></path>
<path d="M55 5h4v4h-4v-4z"></path>
<path d="M55 13.182h4v4.182h-4v-4.182z"></path>
<path d="M55 21.545h4v4.182h-4v-4.182z"></path>
<path d="M55 46.636h4v4.182h-4v-4.182z"></path>
<path d="M55 29.909h4v4.182h-4v-4.182z"></path>
<path d="M55 38.273h4v4.182h-4v-4.182z"></path>
<path d="M55 55h4v4h-4v-4z"></path>
<path d="M28 5h-21c-1.105 0-2 0.895-2 2v0 50c0 1.105 0.895 2 2 2v0h21v3h4v-60h-4zM28 55h-19v-46h19z"></path>
</svg>
