<!-- Generated by IcoMoon.io -->
<svg version="1.1" xmlns="http://www.w3.org/2000/svg" width="64" height="64" viewBox="0 0 64 64">
<title>folder-open</title>
<path d="M61.084 27.706c-0.551-0.705-1.401-1.154-2.355-1.154-0.003 0-0.006 0-0.010 0h-8.274v-6.552c-0.002-1.595-1.294-2.887-2.889-2.889h-17.037l-2.222-5.334c-0.445-1.052-1.469-1.777-2.662-1.777-0.002 0-0.003 0-0.005 0h-20.74c-1.595 0.002-2.887 1.294-2.889 2.889v45.556h52.588l7.041-28.165c0.058-0.22 0.091-0.472 0.091-0.732 0-0.698-0.24-1.34-0.642-1.848l0.005 0.006zM6 54.444v-40.444h18.889l2.963 7.111h18.593v5.441h-29.246c-0.001 0-0.002 0-0.003 0-1.398 0-2.572 0.957-2.903 2.252l-0.005 0.021-6.405 25.62zM51.465 54.444h-39.459l5.973-23.893h39.459z"></path>
</svg>
