<!-- Generated by IcoMoon.io -->
<svg version="1.1" xmlns="http://www.w3.org/2000/svg" width="64" height="64" viewBox="0 0 64 64">
<title>fork</title>
<path d="M55.5 11.5c0-0 0-0 0-0 0-5.247-4.253-9.5-9.5-9.5s-9.5 4.253-9.5 9.5c0 4.717 3.438 8.631 7.945 9.373l0.055 0.008v4.37c-0.004 3.312-2.688 5.996-6 6h-19v-10.464c4.318-0.954 7.5-4.749 7.5-9.287 0-5.247-4.253-9.5-9.5-9.5s-9.5 4.253-9.5 9.5c0 4.538 3.182 8.333 7.437 9.275l0.063 0.012v22.427c-4.318 0.954-7.5 4.749-7.5 9.287 0 5.247 4.253 9.5 9.5 9.5s9.5-4.253 9.5-9.5c0-4.538-3.182-8.333-7.437-9.275l-0.063-0.012v-7.964h19c5.52-0.006 9.994-4.48 10-9.999v-4.587c4.063-1.14 6.994-4.809 7-9.163v-0.001zM12 11.5c0-3.038 2.462-5.5 5.5-5.5s5.5 2.462 5.5 5.5c0 3.038-2.462 5.5-5.5 5.5v0c-3.036-0.004-5.496-2.464-5.5-5.5v-0zM23 52.5c0 3.038-2.462 5.5-5.5 5.5s-5.5-2.462-5.5-5.5c0-3.038 2.462-5.5 5.5-5.5v0c3.036 0.004 5.496 2.464 5.5 5.5v0zM46 17c-3.038 0-5.5-2.462-5.5-5.5s2.462-5.5 5.5-5.5c3.038 0 5.5 2.462 5.5 5.5v0c-0.004 3.036-2.464 5.496-5.5 5.5h-0z"></path>
</svg>
