<!-- Generated by IcoMoon.io -->
<svg version="1.1" xmlns="http://www.w3.org/2000/svg" width="64" height="64" viewBox="0 0 64 64">
<title>frown</title>
<path d="M32 2c-16.569 0-30 13.431-30 30s13.431 30 30 30 30-13.431 30-30-13.431-30-30-30zM50.385 50.385c-4.685 4.672-11.151 7.56-18.291 7.56-14.307 0-25.906-11.599-25.906-25.906s11.599-25.906 25.906-25.906c14.307 0 25.906 11.599 25.906 25.906 0 3.64-0.751 7.105-2.106 10.248l0.065-0.168c-1.378 3.213-3.258 5.957-5.573 8.265l-0.001 0.001z"></path>
<path d="M19 25h5v5h-5v-5z"></path>
<path d="M40 25h5v5h-5v-5z"></path>
<path d="M32 36c-6.072 0.007-10.993 4.928-11 10.999v0.001h4c0-3.866 3.134-7 7-7s7 3.134 7 7v0h4c-0.007-6.072-4.928-10.993-10.999-11h-0.001z"></path>
</svg>
