<!-- Generated by IcoMoon.io -->
<svg version="1.1" xmlns="http://www.w3.org/2000/svg" width="64" height="64" viewBox="0 0 64 64">
<title>gamepad</title>
<path d="M46 21h-12v-8h22c1.656-0.002 2.998-1.344 3-3v-8h-4v7h-22c-1.656 0.002-2.998 1.344-3 3v9h-12c-8.832 0.010-15.99 7.168-16 15.999v12.62c0.007 6.283 5.098 11.374 11.38 11.381h0.226c0.004 0 0.009 0 0.014 0 3.501 0 6.632-1.585 8.714-4.077l0.015-0.018 6.587-7.905h6.078l6.583 8.558c2.101 2.712 5.359 4.442 9.021 4.442 6.285 0 11.381-5.095 11.381-11.381 0-0 0-0 0-0v0-13.619c-0.010-8.832-7.168-15.99-15.999-16h-0.001zM58 50.619c0 0 0 0 0 0 0 4.076-3.304 7.381-7.381 7.381-2.375 0-4.488-1.121-5.838-2.864l-0.013-0.017-7.784-10.119h-9.922l-7.787 9.344c-1.36 1.628-3.39 2.656-5.661 2.656-0.003 0-0.006 0-0.010 0h-0.225c-4.074-0.005-7.376-3.306-7.381-7.38v-12.62c0.008-6.624 5.376-11.992 11.999-12h28.001c6.624 0.008 11.992 5.376 12 11.999v0.001z"></path>
<path d="M45 31h4v4h-4v-4z"></path>
<path d="M45 41h4v4h-4v-4z"></path>
<path d="M40 36h4v4h-4v-4z"></path>
<path d="M50 36h4v4h-4v-4z"></path>
<path d="M19 31h-4v5h-5v4h5v5h4v-5h5v-4h-5v-5z"></path>
</svg>
