<!-- Generated by IcoMoon.io -->
<svg version="1.1" xmlns="http://www.w3.org/2000/svg" width="64" height="64" viewBox="0 0 64 64">
<title>globe-alt-lock</title>
<path d="M58 33l-0.021 0.021c-0.115 3.025-0.733 5.873-1.773 8.508l0.061-0.175-6.266-8.355h-20v-5l2.667-2h6.333v-4h-7.667l-5.333 4v11h22l6.293 8.391c-4.619 7.606-12.858 12.609-22.266 12.609-0.010 0-0.019 0-0.029 0h0.002c-0.001 0-0.001 0-0.002 0-1.31 0-2.597-0.096-3.856-0.281l0.143 0.017 5.215-4.867v-11.869h-7.138l-7.362-7.795v-8.096l-8.537-7.683c2.829-4.128 6.704-7.35 11.249-9.319l0.169-0.065c2.988-1.291 6.467-2.042 10.121-2.042 3.052 0 5.981 0.524 8.704 1.486l-0.183-0.056 1.265-3.795c-2.909-1.036-6.265-1.635-9.761-1.635-0.010 0-0.019 0-0.029 0h0.001c-16.569 0-30 13.431-30 30s13.431 30 30 30 30-13.431 30-30c0-0.463-0.012-0.923-0.033-1.38zM13.615 50.385c-4.705-4.71-7.615-11.214-7.615-18.398 0-3.649 0.751-7.123 2.106-10.275l-0.065 0.169c0.127-0.301 0.262-0.598 0.4-0.893l6.559 5.903v7.904l9.638 10.205h4.862v6.131l-5.881 5.489q-0.878-0.299-1.738-0.662c-3.213-1.378-5.957-3.258-8.265-5.573l-0.001-0.001z"></path>
<path d="M59.563 12v-3.094c-0.005-3.881-3.15-7.027-7.031-7.031h-0.501c-3.881 0.004-7.027 3.15-7.031 7.031v3.094h-3v7.359c0 5.799 4.701 10.5 10.5 10.5s10.5-4.701 10.5-10.5v0-7.359zM49 8.906c0.002-1.673 1.358-3.029 3.031-3.031h0.5c1.673 0.002 3.029 1.358 3.031 3.031v3.094h-6.563zM59 19.359c0 3.59-2.91 6.5-6.5 6.5s-6.5-2.91-6.5-6.5v0-3.359h13z"></path>
</svg>
