<!-- Generated by IcoMoon.io -->
<svg version="1.1" xmlns="http://www.w3.org/2000/svg" width="64" height="64" viewBox="0 0 64 64">
<title>globe-lock</title>
<path d="M58.563 13.125v-3.094c-0.005-3.881-3.15-7.027-7.031-7.031h-0.501c-3.881 0.005-7.027 3.15-7.031 7.031v3.094h-3v7.359c0 5.799 4.701 10.5 10.5 10.5s10.5-4.701 10.5-10.5v0-7.359zM48 10.031c0.002-1.673 1.358-3.029 3.031-3.031h0.5c1.673 0.002 3.029 1.358 3.031 3.031v3.094h-6.563zM58 20.484c0 3.59-2.91 6.5-6.5 6.5s-6.5-2.91-6.5-6.5v0-3.359h13z"></path>
<path d="M57.901 34.249c-0.906 10.567-8.13 19.328-17.877 22.488 0.835-1.223 1.604-2.621 2.237-4.093l0.062-0.163c2.082-4.847 3.342-11.064 3.618-17.739l-5.895-4.742h-18.017c0.194-6.462 1.357-12.45 3.323-17.028 1.903-4.431 4.326-6.972 6.648-6.972 0.007 0 0.014 0 0.022 0 2.842 0 5.577 0.456 8.137 1.3l-0.184-0.052 1.712-3.645c-2.882-1.016-6.206-1.603-9.666-1.603-0.008 0-0.015 0-0.023 0h0.001c-16.569 0-30 13.431-30 30s13.431 30 30 30 30-13.431 30-30c0-0.384-0.010-0.766-0.024-1.146zM41.967 34c-0.205 6.414-1.365 12.354-3.319 16.903-1.903 4.431-4.326 6.972-6.648 6.972s-4.744-2.541-6.648-6.972c-1.954-4.549-3.114-10.489-3.319-16.903zM23.866 7.3c-0.785 1.173-1.518 2.518-2.126 3.929l-0.063 0.164c-2.172 5.057-3.449 11.603-3.649 18.607h-11.953c0.809-10.638 8.021-19.485 17.79-22.7zM6.076 34h11.956c0.211 6.956 1.486 13.455 3.645 18.482 0.694 1.634 1.464 3.032 2.354 4.341l-0.056-0.087c-9.825-3.185-17.087-12.058-17.899-22.736z"></path>
</svg>
