<!-- Generated by IcoMoon.io -->
<svg version="1.1" xmlns="http://www.w3.org/2000/svg" width="64" height="64" viewBox="0 0 64 64">
<title>gradient</title>
<path d="M55 5h-46c-1.105 0-2 0.895-2 2v0 50c0 1.105 0.895 2 2 2v0h46c1.105 0 2-0.895 2-2v0-50c0-1.105-0.895-2-2-2v0zM11 35h6v-6h-6v-20h42v20h-6v6h6v6h-6v5h-6v-5h-6v5h-6v-5h-6v5h-6v-5h-6z"></path>
<path d="M17 35h6v6h-6v-6z"></path>
<path d="M23 29h6v6h-6v-6z"></path>
<path d="M29 35h6v6h-6v-6z"></path>
<path d="M35 29h6v6h-6v-6z"></path>
<path d="M41 35h6v6h-6v-6z"></path>
<path d="M17 23h6v6h-6v-6z"></path>
<path d="M29 23h6v6h-6v-6z"></path>
<path d="M41 23h6v6h-6v-6z"></path>
</svg>
