<!-- Generated by IcoMoon.io -->
<svg version="1.1" xmlns="http://www.w3.org/2000/svg" width="64" height="64" viewBox="0 0 64 64">
<title>grid</title>
<path d="M56.057 5.943h-48.113c-1.105 0-2 0.895-2 2v0 48.113c0 1.105 0.895 2 2 2v0h48.113c1.105 0 2-0.895 2-2v0-48.113c0-1.105-0.895-2-2-2v0zM54.057 21.981h-12.038v-12.038h12.038zM25.981 38.019v-12.038h12.038v12.038zM38.019 42.019v12.038h-12.038v-12.038zM21.981 38.019h-12.038v-12.038h12.038zM25.981 21.981v-12.038h12.038v12.038zM42.019 25.981h12.038v12.038h-12.038zM21.981 9.943v12.038h-12.038v-12.038zM9.943 42.019h12.038v12.038h-12.038zM42.019 54.057v-12.038h12.038v12.038z"></path>
</svg>
