<!-- Generated by IcoMoon.io -->
<svg version="1.1" xmlns="http://www.w3.org/2000/svg" width="64" height="64" viewBox="0 0 64 64">
<title>grid-slash</title>
<path d="M21.981 9.943v3.356l4 4v-7.356h12.038v12.038h-7.356l4 4h3.356v3.356l4 4v-7.356h12.038v12.038h-7.356l4 4h3.356v3.356l4 4v-41.431c0-1.105-0.895-2-2-2v0h-41.431l4 4zM54.057 21.981h-12.038v-12.038h12.038z"></path>
<path d="M4.828 2.083h-2.828v2.828l3.943 3.943v47.202c0 1.105 0.895 2 2 2v0h47.202l4.027 4.027h2.828v-2.828zM35.107 38.019h-9.126v-9.126zM9.943 25.981h12.038v12.038h-12.038zM19.069 21.981h-9.126v-9.126zM9.943 42.019h12.038v12.038h-12.038zM25.981 42.019h12.038v12.038h-12.038zM42.019 54.057v-9.126l9.126 9.126z"></path>
</svg>
