<!-- Generated by IcoMoon.io -->
<svg version="1.1" xmlns="http://www.w3.org/2000/svg" width="64" height="64" viewBox="0 0 64 64">
<title>hand-pointer</title>
<path d="M34 37h4v10h-4v-10z"></path>
<path d="M42 37h4v10h-4v-10z"></path>
<path d="M50 37h4v10h-4v-10z"></path>
<path d="M56 24c-0.002 0-0.004 0-0.006 0-0.728 0-1.425 0.13-2.070 0.368l0.041-0.013c-0.336-3.024-2.879-5.355-5.965-5.355-0.915 0-1.782 0.205-2.558 0.571l0.037-0.015c-0.96-2.113-3.052-3.555-5.48-3.555-0.717 0-1.404 0.126-2.041 0.356l0.042-0.013v-7.962c0-0.003 0-0.006 0-0.009 0-3.524-2.857-6.381-6.381-6.381s-6.381 2.857-6.381 6.381c0 0.003 0 0.006 0 0.009v-0.001 26.619h-3.459l-3.462-3.842c-1.894-2.096-4.622-3.407-7.656-3.407-2.657 0-5.079 1.006-6.907 2.657l0.009-0.008c-0.61 0.551-0.992 1.346-0.992 2.229 0 0.773 0.293 1.479 0.773 2.011l-0.002-0.003 23.394 25.965 1.081 1.398h29.353l4.628-14.693v-17.308c-0.004-3.312-2.688-5.996-6-6h-0zM58 46.693l-3.562 11.307h-24.461l-22.74-25.24c0.967-0.633 2.151-1.010 3.423-1.010 1.857 0 3.527 0.802 4.681 2.079l0.005 0.005 4.653 5.165h9.239v-30.619c0-0.002 0-0.004 0-0.005 0-1.315 1.066-2.381 2.381-2.381s2.381 1.066 2.381 2.381c0 0.002 0 0.004 0 0.006v-0 22.619h4v-9c0-1.105 0.895-2 2-2s2 0.895 2 2v0 9h4v-6c0-1.105 0.895-2 2-2s2 0.895 2 2v0 7h4v-2c0-1.105 0.895-2 2-2s2 0.895 2 2v0z"></path>
</svg>
