<!-- Generated by IcoMoon.io -->
<svg version="1.1" xmlns="http://www.w3.org/2000/svg" width="64" height="64" viewBox="0 0 64 64">
<title>hand-scissors</title>
<path d="M53.707 15.879c-0.54-0.543-1.287-0.879-2.113-0.879-0.003 0-0.006 0-0.009 0h-11.335c-4.002 0.005-7.245 3.248-7.25 7.25v1.14l-1.494-0.403-2.918-0.898-0.032 0.102-15.116-4.076c-0.464-0.129-0.996-0.203-1.546-0.203-2.797 0-5.147 1.914-5.812 4.504l-0.009 0.042-0.054 0.216c-0.111 0.433-0.175 0.93-0.175 1.441 0 2.778 1.881 5.116 4.439 5.81l0.042 0.010 15.584 4.065h-17.91c-3.314 0-6 2.686-6 6s2.686 6 6 6v0h19.72l5.196 11.257c0.489 1.036 1.524 1.74 2.724 1.743h16.908c0.001 0 0.002 0 0.004 0 0.63 0 1.215-0.195 1.697-0.528l-0.010 0.007 7.762-5.295v-29.011zM58 51.070l-5.761 3.93h-15.959l-6-13h-22.28c-1.105 0-2-0.895-2-2s0.895-2 2-2v0h24v-6.545l-20.664-5.391c-0.867-0.235-1.494-1.014-1.494-1.94 0-0.171 0.021-0.337 0.062-0.495l-0.003 0.014 0.054-0.216c0.225-0.877 1.008-1.515 1.94-1.515 0.181 0 0.357 0.024 0.524 0.069l-0.014-0.003 17.993 4.852 10.014 3.081 0.588 0.088h5v-4h-4.699l-4.301-1.323v-2.427c0.002-1.794 1.456-3.248 3.25-3.25h10.922l6.828 6.828z"></path>
</svg>
