<!-- Generated by IcoMoon.io -->
<svg version="1.1" xmlns="http://www.w3.org/2000/svg" width="64" height="64" viewBox="0 0 64 64">
<title>hand-point-right</title>
<path d="M34.24 59h-19.963c-0.57 0-1.103-0.159-1.557-0.435l0.013 0.008-10.733-6.44v-18.021l30.905-27.915c0.53-0.48 1.236-0.774 2.011-0.774 0.899 0 1.705 0.395 2.255 1.021l0.003 0.003c1.737 1.977 2.796 4.586 2.796 7.442 0 3.517-1.606 6.658-4.125 8.731l-0.020 0.016-2.825 2.312v3.052h22.5c3.59 0 6.5 2.91 6.5 6.5s-2.91 6.5-6.5 6.5v0h-13.98l-4.39 15.803c-0.366 1.276-1.52 2.194-2.89 2.197h-0zM14.554 55h18.926l5-18h17.020c1.381 0 2.5-1.119 2.5-2.5s-1.119-2.5-2.5-2.5v0h-26.5v-8.948l4.293-3.512c1.64-1.35 2.678-3.38 2.678-5.653 0-1.486-0.444-2.869-1.206-4.022l0.017 0.027-28.781 25.996v13.979zM35.587 9.165v0z"></path>
</svg>
