<!-- Generated by IcoMoon.io -->
<svg version="1.1" xmlns="http://www.w3.org/2000/svg" width="64" height="64" viewBox="0 0 64 64">
<title>hand-rock</title>
<path d="M49.5 21c-0.002 0-0.005 0-0.008 0-1.025 0-1.994 0.239-2.855 0.663l0.038-0.017c-0.879-2.618-3.31-4.47-6.173-4.47-1.271 0-2.456 0.365-3.457 0.995l0.027-0.016c-1.156-1.904-3.218-3.156-5.572-3.156s-4.416 1.252-5.556 3.127l-0.016 0.029c-0.974-0.615-2.16-0.979-3.43-0.979-3.588 0-6.497 2.909-6.497 6.497 0 0.001 0 0.002 0 0.003v-0 9.324h-3.25c-4.002 0.005-7.245 3.248-7.25 7.25v9.836c0 0.002 0 0.005 0 0.008 0 0.826 0.336 1.573 0.879 2.113l9.793 9.793h35.306l4.523-14.699v-19.801c-0.004-3.588-2.912-6.496-6.5-6.5h-0zM52 46.699l-3.477 11.301h-30.694l-8.328-8.328v-9.422c0.002-1.794 1.456-3.248 3.25-3.25h3.25v6h4v-19.324c0-1.381 1.119-2.5 2.5-2.5s2.5 1.119 2.5 2.5v0 1.324h4v-3.5c0-1.381 1.119-2.5 2.5-2.5s2.5 1.119 2.5 2.5v0 4.5h4v-2.324c0-1.381 1.119-2.5 2.5-2.5s2.5 1.119 2.5 2.5v0 3.324h4.050c0.241-1.149 1.246-2 2.45-2 1.381 0 2.5 1.119 2.5 2.5v0z"></path>
</svg>
