<!-- Generated by IcoMoon.io -->
<svg version="1.1" xmlns="http://www.w3.org/2000/svg" width="64" height="64" viewBox="0 0 64 64">
<title>hand-lizard</title>
<path d="M62.073 62h-22v-8.654l-8.54-6.346h-15.533c-1.656-0.002-2.998-1.344-3-3v-0c0.007-5.775 4.686-10.454 10.46-10.461h6.867l1.401-7.079h-19.268c-5.775-0.007-10.454-4.686-10.461-10.46v-0.001c0.002-1.656 1.344-2.998 3-3h39.117c0.004 0 0.008 0 0.012 0 1.294 0 2.396 0.824 2.809 1.977l0.007 0.021 14.652 34.474c0.077 0.176 0.143 0.383 0.186 0.599l0.003 0.020c0.181 0.479 0.286 1.033 0.286 1.611 0 0.002 0 0.005 0 0.007v-0zM44.073 58h14v-6.292c0-0 0-0.001 0-0.001 0-0.103-0.022-0.2-0.062-0.288l0.002 0.004-0.141-0.319-0.014-0.204-14.409-33.901h-37.372c0.505 3.11 3.17 5.456 6.383 5.461h23.54v3.021l-2.387 12.058h-10.152c-3.214 0.004-5.878 2.35-6.378 5.423l-0.005 0.037h15.779l11.217 8.334z"></path>
</svg>
