<!-- Generated by IcoMoon.io -->
<svg version="1.1" xmlns="http://www.w3.org/2000/svg" width="64" height="64" viewBox="0 0 64 64">
<title>hand-paper</title>
<path d="M52.878 19.792c-0.584-2.753-2.993-4.788-5.877-4.792h-0c-0.096 0-0.192 0.003-0.287 0.007-0.031 0.002-0.061 0.004-0.092 0.006-0.065 0.004-0.129 0.009-0.193 0.015-0.035 0.003-0.071 0.008-0.106 0.011q-0.089 0.010-0.177 0.023c-0.036 0.005-0.072 0.011-0.107 0.016-0.059 0.010-0.118 0.020-0.176 0.032-0.033 0.006-0.067 0.012-0.1 0.020-0.067 0.014-0.133 0.030-0.199 0.046-0.023 0.006-0.047 0.011-0.071 0.017q-0.133 0.035-0.264 0.075c-0.020 0.006-0.040 0.014-0.060 0.020-0.056 0.018-0.111 0.036-0.166 0.055v-2.343c0-0.001 0-0.002 0-0.004 0-3.312-2.685-5.996-5.996-5.996-0.001 0-0.002 0-0.004 0h0c-0.097 0-0.193 0.003-0.289 0.007-0.031 0.002-0.062 0.004-0.094 0.006-0.065 0.004-0.129 0.009-0.193 0.015-0.036 0.003-0.072 0.008-0.108 0.012-0.059 0.007-0.117 0.014-0.176 0.022q-0.056 0.008-0.111 0.017-0.086 0.014-0.172 0.031c-0.036 0.007-0.071 0.014-0.107 0.021-0.060 0.013-0.119 0.027-0.178 0.041-0.031 0.008-0.063 0.015-0.094 0.023-0.074 0.019-0.146 0.040-0.219 0.062-0.016 0.005-0.032 0.009-0.048 0.014q-0.125 0.039-0.247 0.083c-0.007-0.065-0.016-0.129-0.025-0.193-0.004-0.027-0.007-0.054-0.011-0.081q-0.022-0.144-0.051-0.286c-0.004-0.021-0.010-0.041-0.014-0.062-0.016-0.073-0.032-0.147-0.051-0.219-0.009-0.035-0.019-0.069-0.029-0.103-0.016-0.058-0.032-0.115-0.049-0.173-0.012-0.038-0.025-0.076-0.037-0.113-0.017-0.053-0.034-0.105-0.053-0.157-0.014-0.039-0.029-0.078-0.044-0.116-0.019-0.050-0.038-0.099-0.059-0.148-0.016-0.039-0.033-0.078-0.050-0.116-0.021-0.048-0.042-0.095-0.064-0.142-0.018-0.039-0.037-0.077-0.056-0.115-0.023-0.046-0.046-0.092-0.070-0.137q-0.030-0.057-0.062-0.113-0.037-0.067-0.076-0.132-0.033-0.055-0.067-0.11-0.040-0.065-0.083-0.129c-0.023-0.036-0.047-0.071-0.071-0.106-0.029-0.042-0.059-0.084-0.089-0.125-0.025-0.034-0.049-0.068-0.075-0.102-0.031-0.041-0.064-0.082-0.096-0.122-0.026-0.032-0.051-0.065-0.078-0.096-0.034-0.041-0.069-0.080-0.104-0.12-0.027-0.030-0.053-0.061-0.080-0.090-0.037-0.041-0.076-0.080-0.115-0.12-0.026-0.027-0.052-0.055-0.078-0.081-0.044-0.044-0.089-0.086-0.134-0.128-0.023-0.021-0.045-0.043-0.068-0.064q-0.103-0.093-0.21-0.182c-0.013-0.011-0.026-0.021-0.039-0.031-0.059-0.048-0.119-0.096-0.18-0.142-0.027-0.021-0.056-0.040-0.083-0.060-0.048-0.035-0.095-0.069-0.144-0.103-0.032-0.022-0.065-0.042-0.097-0.064-0.046-0.030-0.091-0.060-0.138-0.089-0.035-0.021-0.070-0.041-0.105-0.062-0.046-0.027-0.091-0.054-0.138-0.079-0.036-0.020-0.074-0.039-0.111-0.059-0.046-0.024-0.092-0.048-0.139-0.071-0.038-0.019-0.077-0.037-0.115-0.055-0.047-0.022-0.094-0.043-0.142-0.064-0.039-0.017-0.079-0.033-0.118-0.050q-0.072-0.030-0.145-0.057-0.060-0.023-0.121-0.044-0.074-0.026-0.148-0.050c-0.041-0.013-0.082-0.026-0.123-0.039-0.050-0.015-0.101-0.029-0.152-0.043-0.041-0.011-0.083-0.022-0.124-0.033-0.052-0.013-0.105-0.025-0.158-0.036-0.041-0.009-0.082-0.018-0.124-0.027-0.054-0.011-0.109-0.020-0.164-0.029-0.041-0.007-0.081-0.014-0.122-0.020-0.058-0.009-0.116-0.015-0.175-0.022-0.039-0.005-0.077-0.010-0.116-0.014-0.065-0.006-0.131-0.011-0.196-0.015-0.033-0.002-0.066-0.005-0.099-0.007-0.099-0.005-0.198-0.007-0.299-0.007-3.085 0.004-5.625 2.333-5.963 5.329l-0.003 0.027c-0.606-0.226-1.307-0.357-2.038-0.357-3.312 0-5.997 2.685-5.997 5.997 0 0.001 0 0.002 0 0.004v-0 14.005c-1.646-1.251-3.73-2.005-5.989-2.005-0.004 0-0.007 0-0.011 0h0.001c-1.656 0.002-2.998 1.344-3 3v21l0.52 1.345 10 11 1.48 0.655h27l1.952-1.566 4-18 0.048-0.434v-21c0-0.001 0-0.002 0-0.003 0-0.426-0.044-0.843-0.129-1.244l0.007 0.039zM45.396 58h-24.511l-8.885-9.773v-19.143c2.854 0.5 4.996 2.957 5 5.916v8h4v-30c0-1.105 0.895-2 2-2s2 0.895 2 2v0 21h4v-26c0-1.105 0.895-2 2-2s2 0.895 2 2v0 26h4v-21c0-1.105 0.895-2 2-2s2 0.895 2 2v0 21h4v-13c0-1.105 0.895-2 2-2s2 0.895 2 2v0 20.78z"></path>
</svg>
