<!-- Generated by IcoMoon.io -->
<svg version="1.1" xmlns="http://www.w3.org/2000/svg" width="64" height="64" viewBox="0 0 64 64">
<title>hdr-slash</title>
<path d="M28 17h8v10.318l4 4v-14.318c-0.003-2.208-1.792-3.997-4-4h-12v2.318l4 4z"></path>
<path d="M48 33h3.646l3.354 8.385v4.933l2.682 2.682h1.318v-8.385l-3.046-7.615h0.046c2.208-0.003 3.997-1.792 4-4v-12c-0.003-2.208-1.792-3.997-4-4h-12v22.318l4 4zM48 17h8v12h-8v-12z"></path>
<path d="M4.828 2.083h-2.828v2.828l14 14v10.088h-8v-16h-4v36h4v-16h8v16h4v-26.088l4 4v22.088h12c2.208-0.003 3.997-1.792 4-4v-2.089l19.172 19.172h2.828v-2.828zM36 45h-8v-14.088l8 8z"></path>
</svg>
