<!-- Generated by IcoMoon.io -->
<svg version="1.1" xmlns="http://www.w3.org/2000/svg" width="64" height="64" viewBox="0 0 64 64">
<title>hdr</title>
<path d="M36 13h-12v36h12c2.208-0.003 3.997-1.792 4-4v-28c-0.003-2.208-1.792-3.997-4-4h-0zM36 45h-8v-28h8z"></path>
<path d="M16 29h-8v-16h-4v36h4v-16h8v16h4v-36h-4v16z"></path>
<path d="M60 29v-12c-0.003-2.208-1.792-3.997-4-4h-12v36h4v-16h3.646l3.354 8.385v7.615h4v-8.385l-3.046-7.615h0.046c2.208-0.003 3.997-1.792 4-4v-0zM48 27v-10h8v12h-8z"></path>
</svg>
