<!-- Generated by IcoMoon.io -->
<svg version="1.1" xmlns="http://www.w3.org/2000/svg" width="64" height="64" viewBox="0 0 64 64">
<title>headphones1</title>
<path d="M51 19h-2c0-9.374-7.626-17-17-17s-17 7.626-17 17h-2c-6.072 0.007-10.993 4.928-11 10.999v10.001c0.007 6.072 4.928 10.993 10.999 11h3.001c1.656-0.002 2.998-1.344 3-3v-29c0-7.18 5.82-13 13-13s13 5.82 13 13v0 29c0.002 1.656 1.344 2.998 3 3h3c6.072-0.007 10.993-4.928 11-10.999v-10.001c-0.007-6.072-4.928-10.993-10.999-11h-0.001zM15 47h-2c-3.864-0.005-6.995-3.136-7-7v-10c0.005-3.864 3.136-6.995 7-7h2zM58 40c-0.005 3.864-3.136 6.995-7 7h-2v-24h2c3.864 0.005 6.995 3.136 7 7v0z"></path>
</svg>
