<!-- Generated by IcoMoon.io -->
<svg version="1.1" xmlns="http://www.w3.org/2000/svg" width="64" height="64" viewBox="0 0 64 64">
<title>healing</title>
<path d="M19.628 56.397c-0.001-0-0.001-0.001-0.002-0.002v0l-12.021-12.021 6.97-6.971-2.828-2.828-6.971 6.971c-0.724 0.724-1.172 1.724-1.172 2.828s0.448 2.105 1.172 2.828l12.021 12.021c0.724 0.723 1.724 1.17 2.828 1.17s2.104-0.447 2.828-1.17l6.971-6.971-2.827-2.827z"></path>
<path d="M44.374 7.605l12.021 12.021-6.97 6.971 2.828 2.828 6.971-6.971c0.724-0.724 1.172-1.724 1.172-2.828s-0.448-2.105-1.172-2.828l-12.021-12.021c-0.724-0.723-1.724-1.17-2.828-1.17s-2.104 0.447-2.828 1.17l-6.971 6.971 2.828 2.828z"></path>
<path d="M30.121 25.939l1.939-1.939 1.939 1.939-1.939 1.939-1.939-1.939z"></path>
<path d="M30.121 38.061l1.939-1.939 1.939 1.939-1.939 1.939-1.939-1.939z"></path>
<path d="M36.182 32l1.939-1.939 1.939 1.939-1.939 1.939-1.939-1.939z"></path>
<path d="M24.061 32l1.939-1.939 1.939 1.939-1.939 1.939-1.939-1.939z"></path>
<path d="M56.839 39.161l-32.971-32.971c-1.086-1.086-2.586-1.757-4.243-1.757s-3.157 0.672-4.243 1.757l-9.192 9.192c-1.086 1.086-1.757 2.586-1.757 4.243s0.672 3.157 1.757 4.243l33.941 33.941c0.010 0.010 0.020 0.019 0.030 0.029 1.083 1.069 2.571 1.729 4.213 1.729 1.657 0 3.157-0.672 4.242-1.757l9.192-9.192c1.086-1.086 1.757-2.586 1.757-4.243s-0.672-3.157-1.757-4.243v0zM9.019 21.040c-0.362-0.362-0.586-0.862-0.586-1.414s0.224-1.052 0.586-1.414l9.192-9.192c0.362-0.362 0.862-0.586 1.414-0.586s1.052 0.224 1.414 0.586l8.132 8.132-12.021 12.021zM19.979 32l12.021-12.021 12.021 12.021-12.020 12.021zM54.981 45.789l-9.192 9.192c-0.362 0.362-0.862 0.586-1.414 0.586s-1.052-0.224-1.414-0.586l-8.132-8.132 12.021-12.021 8.132 8.132c0.362 0.362 0.586 0.862 0.586 1.414s-0.224 1.052-0.586 1.414v0z"></path>
</svg>
