<!-- Generated by IcoMoon.io -->
<svg version="1.1" xmlns="http://www.w3.org/2000/svg" width="64" height="64" viewBox="0 0 64 64">
<title>heart</title>
<path d="M32.099 58.828l-0.028-0.028-0.028 0.028-23.491-23.491 0.028-0.028-1.941-1.941c-2.895-2.895-4.686-6.895-4.686-11.314s1.791-8.418 4.686-11.314l0.864-0.864c2.897-2.891 6.897-4.679 11.314-4.679s8.416 1.788 11.314 4.679l1.941 1.941 1.941-1.941c2.897-2.891 6.897-4.679 11.314-4.679s8.416 1.788 11.314 4.679l0.863 0.863c2.891 2.897 4.679 6.897 4.679 11.314s-1.788 8.416-4.679 11.314l-1.941 1.941 0.028 0.028zM32.071 53.143l0.028 0.028 17.834-17.834-0.028-0.028 4.77-4.77c2.172-2.172 3.515-5.172 3.515-8.485s-1.343-6.314-3.515-8.485l-0.864-0.864c-2.173-2.168-5.173-3.509-8.485-3.509s-6.312 1.341-8.486 3.509l-4.77 4.77-4.77-4.77c-2.173-2.168-5.173-3.509-8.485-3.509s-6.312 1.341-8.486 3.509l-0.864 0.864c-2.172 2.172-3.515 5.172-3.515 8.485s1.343 6.314 3.515 8.485l4.77 4.77-0.028 0.028 17.834 17.834z"></path>
</svg>
