<!-- Generated by IcoMoon.io -->
<svg version="1.1" xmlns="http://www.w3.org/2000/svg" width="64" height="64" viewBox="0 0 64 64">
<title>highlighter</title>
<path d="M61.464 14.554l-11.615-11.765c-0.721-0.735-1.725-1.19-2.835-1.19-0.005 0-0.010 0-0.015 0h0.001c-0.002 0-0.005 0-0.008 0-1.112 0-2.118 0.457-2.839 1.193l-0.001 0.001-33.211 33.736c-0.708 0.723-1.145 1.713-1.145 2.806 0 1.104 0.446 2.104 1.168 2.829l1.837 1.837-10.801 10.928v4.821h13.35l6.6-6.6 1.56 1.56c0.724 0.724 1.724 1.172 2.828 1.172 1.152 0 2.19-0.487 2.919-1.266l0.002-0.002 32.279-34.517c0.671-0.712 1.083-1.674 1.083-2.732 0-1.096-0.443-2.089-1.159-2.81l0 0zM13.694 55.75h-6.875l5.819-5.888 3.475 3.475zM26.339 51.881l-4.389-4.381-3.015 3.015-3.492-3.491 3-3.034-4.649-4.649 6.043-6.138 12.389 12.384zM34.964 42.664l-12.318-12.318 24.354-24.747 11.615 11.765z"></path>
</svg>
