<!-- Generated by IcoMoon.io -->
<svg version="1.1" xmlns="http://www.w3.org/2000/svg" width="64" height="64" viewBox="0 0 64 64">
<title>history</title>
<path d="M53.222 10.778c-5.423-5.423-12.914-8.778-21.189-8.778-8.198 0-15.626 3.292-21.036 8.626l0.004-0.003v-8.622h-4v16h16v-4h-9.714c4.736-4.931 11.382-7.995 18.744-8h0.001c14.319 0 25.969 11.65 25.969 25.969s-11.65 25.969-25.969 25.969-25.969-11.65-25.969-25.969h-4c0 16.551 13.417 29.969 29.969 29.969 8.276 0 15.768-3.354 21.191-8.778v0c5.423-5.423 8.778-12.915 8.778-21.191s-3.354-15.768-8.778-21.191v0z"></path>
<path d="M30 13.994l-0.067 22.006h16.067v-4h-12.055l0.055-17.994-4-0.012z"></path>
</svg>
