<!-- Generated by IcoMoon.io -->
<svg version="1.1" xmlns="http://www.w3.org/2000/svg" width="64" height="64" viewBox="0 0 64 64">
<title>hourglass</title>
<path d="M45.958 25.607h0c2.753-2.691 4.27-6.199 4.27-9.877v-9.73h5.773v-4h-48v4h5.814v9.73c0 3.678 1.516 7.186 4.27 9.877l4.991 4.878v3.030l-4.991 4.878c-2.753 2.691-4.27 6.199-4.27 9.877v9.73h-5.814v4h48v-4h-5.773v-9.73c0-3.678-1.516-7.186-4.27-9.877l-4.991-4.878v-3.030zM43.162 41.253c1.977 1.932 3.066 4.424 3.066 7.016v9.73h-28.413v-9.73c0-2.593 1.089-5.084 3.066-7.016l6.196-6.055v-6.398l-6.195-6.055c-1.977-1.932-3.066-4.424-3.066-7.016v-9.73h28.413v9.73c0 2.592-1.089 5.084-3.066 7.016l-6.196 6.055v6.398z"></path>
</svg>
