<!-- Generated by IcoMoon.io -->
<svg version="1.1" xmlns="http://www.w3.org/2000/svg" width="64" height="64" viewBox="0 0 64 64">
<title>invert</title>
<path d="M49.329 27.583l-15.645-24.436c-0.361-0.558-0.98-0.922-1.684-0.922s-1.323 0.364-1.68 0.914l-0.005 0.008-15.645 24.436c-2.597 3.491-4.158 7.887-4.158 12.648 0 0.020 0 0.040 0 0.060v-0.003c0 11.848 9.639 21.487 21.487 21.487s21.487-9.639 21.487-21.487c0-0.017 0-0.037 0-0.057 0-4.761-1.561-9.157-4.198-12.705l0.041 0.057zM34 11.058l7.005 10.942h-7.005zM34 43.333h15.221c-0.315 1.752-0.846 3.317-1.575 4.766l0.045-0.1h-13.692zM49.459 39.333h-15.459v-4.667h14.565c0.483 1.377 0.803 2.969 0.892 4.623l0.002 0.044zM46.072 29.905c0.184 0.249 0.359 0.504 0.529 0.761h-12.601v-4.667h9.566l2.43 3.795q0.036 0.056 0.076 0.11zM14.513 40.288c-0-0.014-0-0.031-0-0.047 0-3.893 1.282-7.486 3.448-10.38l-0.032 0.045q0.040-0.054 0.076-0.11l11.996-18.737v46.602c-8.704-0.996-15.487-8.406-15.487-17.372zM34 57.66v-5.66h10.974c-2.771 3.067-6.592 5.141-10.891 5.652l-0.083 0.008z"></path>
</svg>
