<!-- Generated by IcoMoon.io -->
<svg version="1.1" xmlns="http://www.w3.org/2000/svg" width="64" height="64" viewBox="0 0 64 64">
<title>keyboard</title>
<path d="M59 10h-54c-1.656 0.002-2.998 1.344-3 3v30c0.002 1.656 1.344 2.998 3 3h54c1.656-0.002 2.998-1.344 3-3v-30c-0.002-1.656-1.344-2.998-3-3h-0zM58 42h-52v-28h52z"></path>
<path d="M18 34h20v4h-20v-4z"></path>
<path d="M10 34h4v4h-4v-4z"></path>
<path d="M50 34h4v4h-4v-4z"></path>
<path d="M42 34h4v4h-4v-4z"></path>
<path d="M46 26h4v4h-4v-4z"></path>
<path d="M38 26h4v4h-4v-4z"></path>
<path d="M30 26h4v4h-4v-4z"></path>
<path d="M22 26h4v4h-4v-4z"></path>
<path d="M14 26h4v4h-4v-4z"></path>
<path d="M42 18h4v4h-4v-4z"></path>
<path d="M50 18h4v4h-4v-4z"></path>
<path d="M34 18h4v4h-4v-4z"></path>
<path d="M26 18h4v4h-4v-4z"></path>
<path d="M18 18h4v4h-4v-4z"></path>
<path d="M10 18h4v4h-4v-4z"></path>
</svg>
