<!-- Generated by IcoMoon.io -->
<svg version="1.1" xmlns="http://www.w3.org/2000/svg" width="64" height="64" viewBox="0 0 64 64">
<title>language</title>
<path d="M40 24v-21h-38v38h22v21h38v-38zM6 37v-30h30v17h-8.334l-4.205-12h-4.924l-6.276 17.913h4.238l1.021-2.913h6.479v10zM23.078 23h-4.155l2.078-5.93zM58 58h-30v-30h30z"></path>
<path d="M39.679 46.060c0.421 0.671 0.836 1.247 1.285 1.794l-0.024-0.030q-2.176 1.173-4.94 1.176v4c3.018 0 5.714-0.801 8-2.353 2.286 1.552 4.982 2.353 8 2.353v-4q-2.759 0-4.94-1.176c0.425-0.517 0.84-1.093 1.219-1.693l0.042-0.071c1.090-1.743 1.954-3.764 2.482-5.918l0.030-0.142h2.167v-4h-7v-3h-4v3h-7v4h2.167c0.558 2.296 1.422 4.317 2.563 6.148l-0.051-0.088zM46.691 40c-0.455 1.501-1.054 2.807-1.803 4.011l0.041-0.071c-0.312 0.498-0.618 0.924-0.948 1.33l0.019-0.024c-0.287-0.352-0.572-0.746-0.835-1.155l-0.031-0.051c-0.739-1.162-1.36-2.502-1.795-3.923l-0.031-0.117z"></path>
</svg>
