<!-- Generated by IcoMoon.io -->
<svg version="1.1" xmlns="http://www.w3.org/2000/svg" width="64" height="64" viewBox="0 0 64 64">
<title>layers-slash</title>
<path d="M32 8.303l23.87 13.64-16.614 8.901 2.955 2.955 18.734-10.036c0.633-0.344 1.056-1.004 1.056-1.763 0-0.739-0.401-1.385-0.998-1.731l-0.010-0.005-28-16c-0.285-0.166-0.627-0.263-0.992-0.263s-0.707 0.098-1.002 0.269l0.010-0.005-11.666 6.666 2.932 2.932z"></path>
<path d="M60 29.817l-14.046 7.725 2.945 2.945 11.1-6.105v-4.565z"></path>
<path d="M60 45.333v-4.533l-7.036 3.752 2.956 2.956 4.079-2.176z"></path>
<path d="M35.84 33.012l-31.012-31.012h-2.828v2.828l10.189 10.189-9.181 5.246c-0.606 0.351-1.008 0.997-1.008 1.736 0 0.759 0.422 1.419 1.045 1.758l0.010 0.005 18.007 9.646 3.651-2.582-16.584-8.884 6.991-3.995 23.582 23.582-6.703 3.687-28-15.4v4.565l27.036 14.87c0.278 0.156 0.61 0.248 0.964 0.248s0.686-0.092 0.974-0.253l-0.010 0.005 8.684-4.776 3.986 3.986-13.634 7.271-28-14.933v4.533l27.059 14.431c0.272 0.148 0.597 0.235 0.941 0.235s0.669-0.087 0.952-0.24l-0.011 0.005 15.649-8.346 10.581 10.581h2.828v-2.828z"></path>
</svg>
