<!-- Generated by IcoMoon.io -->
<svg version="1.1" xmlns="http://www.w3.org/2000/svg" width="64" height="64" viewBox="0 0 64 64">
<title>life-ring</title>
<path d="M53.213 10.787c-5.429-5.429-12.929-8.787-21.213-8.787-16.569 0-30 13.431-30 30 0 8.284 3.358 15.784 8.787 21.213v0c5.429 5.429 12.929 8.787 21.213 8.787 16.569 0 30-13.431 30-30 0-8.284-3.358-15.784-8.787-21.213v0zM43.208 40.38c1.743-2.305 2.792-5.22 2.792-8.38s-1.049-6.075-2.817-8.415l0.026 0.035 8.527-8.527c3.893 4.512 6.264 10.433 6.264 16.907s-2.371 12.395-6.293 16.941l0.028-0.033zM22 32c0-5.523 4.477-10 10-10s10 4.477 10 10c0 5.523-4.477 10-10 10v0c-5.52-0.006-9.994-4.48-10-9.999v-0.001zM48.907 12.264l-8.527 8.527c-2.305-1.743-5.22-2.792-8.38-2.792s-6.075 1.049-8.415 2.817l0.035-0.026-8.527-8.527c4.512-3.893 10.433-6.264 16.907-6.264s12.395 2.371 16.941 6.293l-0.033-0.028zM12.264 15.093l8.527 8.527c-1.743 2.305-2.792 5.22-2.792 8.38s1.049 6.075 2.817 8.415l-0.026-0.035-8.527 8.527c-3.893-4.512-6.264-10.433-6.264-16.907s2.371-12.395 6.293-16.941l-0.028 0.034zM15.093 51.736l8.527-8.527c2.305 1.743 5.22 2.792 8.38 2.792s6.075-1.049 8.415-2.817l-0.035 0.026 8.527 8.527c-4.512 3.893-10.433 6.264-16.907 6.264s-12.395-2.371-16.941-6.293l0.034 0.028z"></path>
</svg>
