<!-- Generated by IcoMoon.io -->
<svg version="1.1" xmlns="http://www.w3.org/2000/svg" width="64" height="64" viewBox="0 0 64 64">
<title>line-style</title>
<path d="M2 2v13h60v-13zM58 11h-52v-5h52z"></path>
<path d="M30 18h-28v12h28zM26 26h-20v-4h20z"></path>
<path d="M34 30h28v-12h-28zM38 22h20v4h-20z"></path>
<path d="M19 34h-17v11h17zM15 41h-9v-3h9z"></path>
<path d="M24 45h16v-11h-16zM28 38h8v3h-8z"></path>
<path d="M45 45h17v-11h-17zM49 38h9v3h-9z"></path>
<path d="M8.59 48.82c0 0-0 0-0 0-3.64 0-6.59 2.95-6.59 6.59s2.95 6.59 6.59 6.59c3.64 0 6.59-2.95 6.59-6.59 0 0 0-0 0-0v0c-0.004-3.638-2.952-6.586-6.59-6.59h-0zM8.59 58c0 0-0 0-0 0-1.431 0-2.59-1.16-2.59-2.59s1.16-2.59 2.59-2.59c1.431 0 2.59 1.16 2.59 2.59v0c-0.002 1.43-1.16 2.588-2.59 2.59h-0z"></path>
<path d="M24.197 48.82c0 0-0 0-0 0-3.64 0-6.59 2.95-6.59 6.59s2.95 6.59 6.59 6.59c3.64 0 6.59-2.95 6.59-6.59 0 0 0-0 0-0v0c-0.004-3.638-2.952-6.586-6.59-6.59h-0zM24.197 58c0 0-0 0-0 0-1.43 0-2.59-1.16-2.59-2.59s1.16-2.59 2.59-2.59c1.43 0 2.59 1.16 2.59 2.59v0c-0.002 1.43-1.16 2.588-2.59 2.59h-0z"></path>
<path d="M39.803 48.82c-3.64 0-6.59 2.95-6.59 6.59s2.95 6.59 6.59 6.59c3.64 0 6.59-2.95 6.59-6.59 0 0 0-0 0-0v0c-0.004-3.638-2.952-6.586-6.59-6.59h-0zM39.803 58c-1.431-0-2.59-1.16-2.59-2.59s1.16-2.59 2.59-2.59c1.431 0 2.59 1.16 2.59 2.59v0c-0.002 1.43-1.16 2.589-2.59 2.59h-0z"></path>
<path d="M55.41 48.82c-3.64 0-6.59 2.95-6.59 6.59s2.95 6.59 6.59 6.59c3.64 0 6.59-2.95 6.59-6.59 0 0 0-0 0-0v0c-0.004-3.638-2.952-6.586-6.59-6.59h-0zM55.41 58c-1.431-0-2.59-1.16-2.59-2.59s1.16-2.59 2.59-2.59c1.431 0 2.59 1.16 2.59 2.59v0c-0.002 1.43-1.16 2.589-2.59 2.59h-0z"></path>
</svg>
