<!-- Generated by IcoMoon.io -->
<svg version="1.1" xmlns="http://www.w3.org/2000/svg" width="64" height="64" viewBox="0 0 64 64">
<title>link-intact</title>
<path d="M57.799 6.279c-2.622-2.616-6.24-4.233-10.237-4.233s-7.615 1.618-10.237 4.234l-10.72 10.72h5.657l7.892-7.892c1.894-1.886 4.507-3.052 7.392-3.052 5.786 0 10.477 4.691 10.477 10.477 0 2.885-1.166 5.498-3.053 7.392l-12.498 12.498c-1.897 1.893-4.516 3.064-7.408 3.064s-5.511-1.171-7.409-3.064l0 0c-1.397-1.389-2.401-3.172-2.83-5.168l-0.012-0.068-3.2 3.2c2.199 5.378 7.39 9.098 13.451 9.098 3.996 0 7.615-1.618 10.236-4.234l12.498-12.498c2.616-2.622 4.233-6.24 4.233-10.237s-1.618-7.615-4.234-10.237l0 0z"></path>
<path d="M24.198 54.869c-1.91 1.91-4.547 3.091-7.461 3.091-5.828 0-10.552-4.724-10.552-10.552 0-2.914 1.181-5.552 3.091-7.461l12.626-12.626c1.897-1.893 4.516-3.064 7.408-3.064s5.51 1.17 7.408 3.063l0.106 0.106c1.333 1.326 2.307 3.010 2.767 4.897l0.015 0.071 3.163-3.163c-0.767-1.802-1.819-3.339-3.115-4.632l-0.107-0.107c-2.622-2.616-6.24-4.234-10.237-4.234s-7.615 1.618-10.237 4.234l-12.626 12.626c-2.639 2.634-4.271 6.276-4.271 10.299 0 8.037 6.515 14.552 14.552 14.552 4.023 0 7.665-1.633 10.299-4.271l10.698-10.698h-5.657z"></path>
</svg>
