<!-- Generated by IcoMoon.io -->
<svg version="1.1" xmlns="http://www.w3.org/2000/svg" width="64" height="64" viewBox="0 0 64 64">
<title>location-gps-off</title>
<path d="M52.976 31c-0.492-10.45-8.658-18.925-18.976-19.904v-9.096h-4v9.095c-2.967 0.288-5.676 1.156-8.093 2.489l0.107-0.054 2.981 2.981c2.051-0.954 4.453-1.511 6.985-1.511 0.007 0 0.014 0 0.020 0h-0.001c9.374 0 17 7.626 17 17 0 0.006 0 0.013 0 0.019 0 2.532-0.557 4.933-1.554 7.089l0.043-0.105 2.981 2.981c1.119-2.020 1.931-4.373 2.3-6.872l0.014-0.114h9.216v-4z"></path>
<path d="M4.828 2h-2.828v2.828l13.811 13.811c-2.788 3.345-4.558 7.627-4.784 12.313l-0.002 0.048h-9.025v4h9.215c1.367 9.514 9.134 16.988 18.785 17.904v9.096h4v-9.096c4.365-0.426 8.266-2.136 11.395-4.742l-0.034 0.027 13.811 13.811h2.828v-2.828zM32 49c-9.374 0-17-7.626-17-17 0-0.005 0-0.010 0-0.016 0-3.983 1.377-7.645 3.681-10.535l-0.026 0.034 23.862 23.862c-2.856 2.278-6.518 3.655-10.501 3.655-0.005 0-0.011 0-0.016 0h0.001z"></path>
</svg>
