<!-- Generated by IcoMoon.io -->
<svg version="1.1" xmlns="http://www.w3.org/2000/svg" width="64" height="64" viewBox="0 0 64 64">
<title>location-pin-edit</title>
<path d="M54.945 5.055c-1.18-1.18-2.81-1.91-4.611-1.91s-3.431 0.73-4.611 1.91l-14.599 14.599-2.066 8.72-0.018 0.085c-0.024 0.121-0.038 0.261-0.038 0.404 0 1.18 0.957 2.137 2.137 2.137 0.143 0 0.283-0.014 0.418-0.041l-0.014 0.002 8.804-2.084 14.599-14.599c1.18-1.18 1.91-2.811 1.91-4.611s-0.73-3.431-1.91-4.611v0zM52.116 11.45l-13.797 13.797-4.673 1.107 1.107-4.673 13.797-13.797c0.456-0.456 1.087-0.739 1.783-0.739 1.392 0 2.521 1.129 2.521 2.521 0 0.696-0.282 1.327-0.739 1.783v0z"></path>
<path d="M54.316 21.271l-3.898 3.898c-0.215 3.166-1.234 6.057-2.854 8.517l0.041-0.066-14.864 22.819-14.865-22.819c-4.55-6.985-3.574-16.333 2.32-22.227 3.193-3.21 7.612-5.196 12.496-5.196 0.017 0 0.034 0 0.051 0h-0.003c0.005 0 0.010 0 0.015 0 1.709 0 3.363 0.241 4.928 0.69l-0.126-0.031 3.155-3.155c-2.361-0.957-5.098-1.512-7.966-1.512-12.010 0-21.747 9.736-21.747 21.747 0 4.414 1.315 8.52 3.574 11.95l-0.051-0.082 15.114 23.202c0.671 1.019 1.809 1.681 3.102 1.681s2.431-0.663 3.094-1.668l0.009-0.014 15.114-23.202c2.208-3.353 3.522-7.464 3.522-11.883 0-0.789-0.042-1.569-0.124-2.336l0.008 0.096c-0.014-0.137-0.030-0.273-0.047-0.409z"></path>
</svg>
