<!-- Generated by IcoMoon.io -->
<svg version="1.1" xmlns="http://www.w3.org/2000/svg" width="64" height="64" viewBox="0 0 64 64">
<title>low-vision</title>
<path d="M49.653 17.388l-0.027-0.028c-7.712-7.712-19.26-9.303-28.557-4.776l3.027 3.027c7.558-3.072 16.562-1.55 22.689 4.565l11.216 11.66v0.388l-8.478 8.813 2.829 2.829 9.649-10.031v-3.612z"></path>
<path d="M44.874 36.29c0.711-1.556 1.126-3.376 1.126-5.292 0-7.179-5.819-12.998-12.998-12.998-1.916 0-3.736 0.415-5.374 1.159l0.081-0.033 3.136 3.136c0.648-0.167 1.391-0.262 2.157-0.262 4.969 0 8.997 4.028 8.997 8.997 0 0.766-0.096 1.51-0.276 2.219l0.013-0.062z"></path>
<path d="M2 2v2.742l12.497 12.497c-0.041 0.040-0.082 0.080-0.123 0.12l-12.374 12.864v3.612l12.374 12.864c4.515 4.504 10.747 7.289 17.63 7.289 5.465 0 10.519-1.756 14.63-4.734l-0.073 0.050 12.696 12.696h2.742v-2.914l-57.086-57.086zM10.248 27.419l2.129-2.214 24.265 24.265c-1.132 0.268-2.45 0.448-3.801 0.501l-0.040 0.001zM6 32.224v-0.388l1.474-1.533 18.93 18.93c-3.613-1.015-6.711-2.871-9.188-5.348l-0-0zM40.86 48.032l-25.709-25.709 2.066-2.147c0.036-0.036 0.073-0.071 0.11-0.107l26.363 26.363c-0.807 0.553-1.734 1.086-2.703 1.547l-0.126 0.054z"></path>
</svg>
