<!-- Generated by IcoMoon.io -->
<svg version="1.1" xmlns="http://www.w3.org/2000/svg" width="64" height="64" viewBox="0 0 64 64">
<title>loyalty</title>
<path d="M60.736 32.908l-29.736-29.736c-0.72-0.724-1.716-1.172-2.818-1.172-0.004 0-0.008 0-0.011 0h-20.171c-3.312 0.004-5.996 2.688-6 6v20.135c0.002 1.148 0.486 2.183 1.259 2.913l0.002 0.002 31.633 29.716c0.532 0.504 1.252 0.814 2.045 0.814 0.002 0 0.004 0 0.006 0h-0q0.056 0 0.112-0.002c0.832-0.029 1.574-0.395 2.097-0.965l0.002-0.002 21.667-23.55c0.493-0.532 0.795-1.246 0.795-2.031 0-0.829-0.337-1.579-0.881-2.121l-0-0zM36.896 57.159l-30.896-29.024v-20.135c0.001-1.104 0.896-1.999 2-2h20.172l29.058 29.058z"></path>
<path d="M17 10.5c-3.59 0-6.5 2.91-6.5 6.5s2.91 6.5 6.5 6.5c3.59 0 6.5-2.91 6.5-6.5v0c-0.004-3.588-2.912-6.496-6.5-6.5h-0zM17 19.5c-1.381 0-2.5-1.119-2.5-2.5s1.119-2.5 2.5-2.5c1.381 0 2.5 1.119 2.5 2.5v0c-0.002 1.38-1.12 2.498-2.5 2.5h-0z"></path>
<path d="M25.722 40.982l10.557 10.557 10.494-10.494c1.376-1.376 2.227-3.277 2.227-5.377 0-4.2-3.405-7.605-7.605-7.605-1.972 0-3.768 0.75-5.12 1.981l0.006-0.005c-1.354-1.263-3.177-2.039-5.182-2.039-4.2 0-7.605 3.405-7.605 7.605 0 2.1 0.851 4.001 2.227 5.377v0zM28.55 33.056c0.652-0.652 1.554-1.056 2.549-1.056s1.897 0.403 2.549 1.056l2.63 2.63 2.568-2.568c0.652-0.652 1.553-1.056 2.549-1.056 1.991 0 3.605 1.614 3.605 3.605 0 0.995-0.404 1.897-1.056 2.549l-7.665 7.666-7.728-7.728c-0.651-0.653-1.054-1.554-1.054-2.549s0.403-1.896 1.054-2.549l-0 0z"></path>
</svg>
