<!-- Generated by IcoMoon.io -->
<svg version="1.1" xmlns="http://www.w3.org/2000/svg" width="64" height="64" viewBox="0 0 64 64">
<title>microphone-slash</title>
<path d="M54 29v-9h-4v9c0 0.006 0 0.013 0 0.020 0 3.588-1.057 6.93-2.876 9.731l0.042-0.069 2.881 2.882c2.472-3.495 3.952-7.845 3.952-12.54 0-0.008 0-0.016 0-0.024v0.001z"></path>
<path d="M4.828 2h-2.828v2.828l18 18v6.172c0 0.001 0 0.002 0 0.004 0 6.625 5.371 11.996 11.996 11.996 1.835 0 3.575-0.412 5.13-1.149l-0.073 0.031 4.418 4.418c-2.684 1.695-5.95 2.7-9.451 2.7-0.007 0-0.014 0-0.021 0h0.001c-9.925 0-18-8.075-18-18v-5l-4-4v9c0 11.457 8.803 20.894 20 21.908v7.092h-9v4h22v-4h-9v-7.092c3.906-0.362 7.441-1.701 10.435-3.766l-0.073 0.048 14.81 14.81h2.828v-2.828zM32 37c-4.416-0.005-7.995-3.584-8-8v-2.172l9.934 9.934c-0.58 0.151-1.245 0.237-1.931 0.237-0.001 0-0.002 0-0.003 0h0z"></path>
<path d="M24 14c0-4.418 3.582-8 8-8s8 3.582 8 8v0 15c-0 0.785-0.114 1.544-0.325 2.26l0.014-0.056 3.082 3.082c0.775-1.538 1.229-3.353 1.229-5.273 0-0.005 0-0.009 0-0.014v0.001-15c-0-6.627-5.373-12-12-12-5.825 0-10.68 4.15-11.771 9.655l-0.013 0.076 3.784 3.784z"></path>
</svg>
