<!-- Generated by IcoMoon.io -->
<svg version="1.1" xmlns="http://www.w3.org/2000/svg" width="64" height="64" viewBox="0 0 64 64">
<title>mobile-speaker</title>
<path d="M25.243 50h4v4h-4v-4z"></path>
<path d="M11.243 42v-28h35v-8c-0.003-2.208-1.792-3.997-4-4h-31c-2.208 0.003-3.997 1.792-4 4v52c0.003 2.208 1.792 3.997 4 4h31c2.208-0.003 3.997-1.792 4-4v-16zM11.243 6h31l0 4h-31zM42.243 58h-31v-12h31.002l0.001 12z"></path>
<path d="M40.243 32.799l0.414 0.414c1.448-1.448 2.343-3.448 2.343-5.657s-0.895-4.209-2.343-5.657v0l-2.828 2.828c0.724 0.724 1.172 1.724 1.172 2.828s-0.448 2.105-1.172 2.828v0z"></path>
<path d="M51 27.556c0-0.011 0-0.023 0-0.036 0-4.407-1.791-8.396-4.686-11.277l-0.001-0.001-2.828 2.828c2.172 2.172 3.515 5.172 3.515 8.485s-1.343 6.314-3.515 8.485v0l2.828 2.828c2.895-2.882 4.686-6.871 4.686-11.278 0-0.012 0-0.025-0-0.037v0.002z"></path>
<path d="M51.971 10.586l-2.828 2.828c0.192 0.192 0.378 0.388 0.561 0.586q0.277 0.3 0.54 0.608c6.33 7.44 6.33 18.456 0 25.896q-0.522 0.614-1.1 1.194l2.828 2.828c4.343-4.343 7.029-10.343 7.029-16.971s-2.686-12.627-7.029-16.971v0z"></path>
</svg>
