<!-- Generated by IcoMoon.io -->
<svg version="1.1" xmlns="http://www.w3.org/2000/svg" width="64" height="64" viewBox="0 0 64 64">
<title>mobile-settings</title>
<path d="M29 50h4v4h-4v-4z"></path>
<path d="M15 42v-28h35v-8c-0.003-2.208-1.792-3.997-4-4h-31c-2.208 0.003-3.997 1.792-4 4v52c0.003 2.208 1.792 3.997 4 4h31c2.208-0.003 3.997-1.792 4-4v-16zM15 6h31l0 4h-31zM46 58h-31v-12h31.002l0.001 12z"></path>
<path d="M20 28c0 3.314 2.686 6 6 6s6-2.686 6-6c0-3.314-2.686-6-6-6v0c-3.312 0.004-5.996 2.688-6 6v0zM28 28c0 1.105-0.895 2-2 2s-2-0.895-2-2c0-1.105 0.895-2 2-2v0c1.104 0.001 1.999 0.896 2 2v0z"></path>
<path d="M40 22c-0.003 0-0.006 0-0.009 0-3.319 0-6.009 2.69-6.009 6.009s2.69 6.009 6.009 6.009c3.319 0 6.009-2.69 6.009-6.009 0-1.776-0.77-3.371-1.994-4.471l-0.006-0.005c-1.056-0.949-2.46-1.531-4-1.533h-0zM40 30c-1.105 0-2-0.895-2-2s0.895-2 2-2c1.105 0 2 0.895 2 2v0c-0.001 1.104-0.896 1.999-2 2h-0z"></path>
<path d="M54 22c-3.314 0-6 2.686-6 6s2.686 6 6 6c3.314 0 6-2.686 6-6v0c-0.004-3.312-2.688-5.996-6-6h-0zM54 30c-1.105 0-2-0.895-2-2s0.895-2 2-2c1.105 0 2 0.895 2 2v0c-0.001 1.104-0.896 1.999-2 2h-0z"></path>
</svg>
