<!-- Generated by IcoMoon.io -->
<svg version="1.1" xmlns="http://www.w3.org/2000/svg" width="64" height="64" viewBox="0 0 64 64">
<title>mobile-check</title>
<path d="M20 50h4v4h-4v-4z"></path>
<path d="M6 42v-28h35v-8c-0.003-2.208-1.792-3.997-4-4h-31c-2.208 0.003-3.997 1.792-4 4v52c0.003 2.208 1.792 3.997 4 4h31c2.208-0.003 3.997-1.792 4-4v-16zM37 6l0 4h-31v-4zM37 58h-31v-12h31.002l0.001 12z"></path>
<path d="M32.27 24.873l-2.828 2.828 8.27 8.27 14.558-14.558-2.828-2.828-11.73 11.729-5.442-5.442z"></path>
</svg>
