<!-- Generated by IcoMoon.io -->
<svg version="1.1" xmlns="http://www.w3.org/2000/svg" width="64" height="64" viewBox="0 0 64 64">
<title>mobile-volume</title>
<path d="M27 50h4v4h-4v-4z"></path>
<path d="M13 42v-28h35v-8c-0.003-2.208-1.792-3.997-4-4h-31c-2.208 0.003-3.997 1.792-4 4v52c0.003 2.208 1.792 3.997 4 4h31c2.208-0.003 3.997-1.792 4-4v-16zM13 6h31l0 4h-31zM44 58h-31v-12h31.002l0.001 12z"></path>
<path d="M43.895 28.784c-0.267 1.276-1.076 2.324-2.17 2.908l-0.023 0.011 2.512 2.512c2.266-1.188 3.785-3.524 3.785-6.215s-1.519-5.027-3.747-6.197l-0.038-0.018-2.775 2.775c1.097 0.555 2.437 1.565 2.551 3.213 0.006 0.075 0.009 0.15 0.009 0.227 0 0-0 0.015-0.001 0.042-0.004 0.265-0.041 0.52-0.108 0.763l0.005-0.021z"></path>
<path d="M52 19.349c-0.792-0.999-1.686-1.865-2.681-2.603l-0.038-0.027-2.875 2.875c2.781 1.804 4.594 4.893 4.594 8.406s-1.813 6.602-4.555 8.382l-0.039 0.024 2.875 2.875c1.033-0.765 1.927-1.631 2.697-2.601l0.022-0.029c1.87-2.355 3-5.371 3-8.651s-1.13-6.296-3.022-8.68l0.022 0.029z"></path>
<path d="M21.143 21.286v13.429h6.801l6.607 4.286h3.449v-22h-3.449l-6.607 4.286zM34 22.125v11.75l-4.872-3.16h-3.985v-5.429h3.985z"></path>
</svg>
