<!-- Generated by IcoMoon.io -->
<svg version="1.1" xmlns="http://www.w3.org/2000/svg" width="64" height="64" viewBox="0 0 64 64">
<title>mobile-lock</title>
<path d="M47.502 42h-31.002v-28h16.5v-4h-16.5v-4h19.5l2-4h-21.5c-2.208 0.003-3.997 1.792-4 4v52c0.003 2.208 1.792 3.997 4 4h31c2.208-0.003 3.997-1.792 4-4v-23.841h-3.999zM47.5 58h-31v-12h31.002l0.001 12z"></path>
<path d="M30 50h4v4h-4v-4z"></path>
<path d="M55.438 12.284v-3.094c-0.005-3.881-3.15-7.027-7.031-7.031h-0.501c-3.881 0.005-7.027 3.15-7.031 7.031v3.094h-3v7.359c0 5.799 4.701 10.5 10.5 10.5s10.5-4.701 10.5-10.5v0-7.359zM44.875 9.191c0.002-1.673 1.358-3.029 3.031-3.031h0.5c1.673 0.002 3.029 1.358 3.031 3.031v3.094h-6.563zM54.875 19.644c0 3.59-2.91 6.5-6.5 6.5s-6.5-2.91-6.5-6.5v0-3.359h13z"></path>
</svg>
