<!-- Generated by IcoMoon.io -->
<svg version="1.1" xmlns="http://www.w3.org/2000/svg" width="64" height="64" viewBox="0 0 64 64">
<title>mobile-arrow-remove</title>
<path d="M49 2h-31c-2.208 0.003-3.997 1.792-4 4v8h35l0.001 28h-35.002v16c0.003 2.208 1.792 3.997 4 4h31c2.208-0.003 3.997-1.792 4-4v-52c-0.003-2.208-1.792-3.997-4-4h-0zM18 10v-4h31l0 4zM49 58h-31v-12h31.002l0.001 12z"></path>
<path d="M32 50h4v4h-4v-4z"></path>
<path d="M29 34h-10.97l14.343-13.546-2.747-2.908-14.627 13.814v-10.36h-4v17h18v-4z"></path>
</svg>
