<!-- Generated by IcoMoon.io -->
<svg version="1.1" xmlns="http://www.w3.org/2000/svg" width="64" height="64" viewBox="0 0 64 64">
<title>more</title>
<path d="M22 30h4v4h-4v-4z"></path>
<path d="M34 30h4v4h-4v-4z"></path>
<path d="M46 30h4v4h-4v-4z"></path>
<path d="M59 56h-34.67c-0.856-0.002-1.629-0.36-2.176-0.935l-0.001-0.001-20.153-21.267v-3.594l20.153-21.267c0.549-0.576 1.321-0.935 2.177-0.936h34.67c1.656 0.002 2.998 1.344 3 3v42c-0.002 1.656-1.344 2.998-3 3h-0zM24.76 52h33.24v-40h-33.24l-18.76 19.797v0.406z"></path>
</svg>
