<!-- Generated by IcoMoon.io -->
<svg version="1.1" xmlns="http://www.w3.org/2000/svg" width="64" height="64" viewBox="0 0 64 64">
<title>move</title>
<path d="M50.477 20.636l-2.828 2.828 6.485 6.485h-20.083v-20.083l6.485 6.485 2.828-2.828-11.314-11.314-11.314 11.314 2.828 2.828 6.485-6.485v20.083h-20.184l6.485-6.485-2.828-2.828-11.314 11.314 11.314 11.314 2.829-2.828-6.485-6.485h20.184v20.184l-6.485-6.485-2.828 2.828 11.314 11.314 11.314-11.314-2.828-2.828-6.485 6.485v-20.184h20.083l-6.485 6.485 2.828 2.828 11.314-11.314-11.314-11.314z"></path>
</svg>
