<!-- Generated by IcoMoon.io -->
<svg version="1.1" xmlns="http://www.w3.org/2000/svg" width="64" height="64" viewBox="0 0 64 64">
<title>overscan</title>
<path d="M59 7h-54c-1.656 0.002-2.998 1.344-3 3v44c0.002 1.656 1.344 2.998 3 3h54c1.656-0.002 2.998-1.344 3-3v-44c-0.002-1.656-1.344-2.998-3-3h-0zM58 53h-52v-42h52z"></path>
<path d="M32 18.603l4.72 3.933 2.561-3.073-7.28-6.067-7.28 6.067 2.561 3.073 4.72-3.933z"></path>
<path d="M39.28 44.536l-2.561-3.073-4.72 3.933-4.72-3.933-2.561 3.073 7.28 6.067 7.28-6.067z"></path>
<path d="M48.536 39.28l6.067-7.28-6.067-7.28-3.073 2.561 3.933 4.72-3.933 4.72 3.073 2.561z"></path>
<path d="M18.537 36.72l-3.933-4.72 3.933-4.72-3.073-2.561-6.067 7.28 6.067 7.28 3.073-2.561z"></path>
</svg>
