<!-- Generated by IcoMoon.io -->
<svg version="1.1" xmlns="http://www.w3.org/2000/svg" width="64" height="64" viewBox="0 0 64 64">
<title>pageview</title>
<path d="M2 9v48h60v-48zM58 53h-52v-40h52z"></path>
<path d="M29.983 41.965c0.004 0 0.009 0 0.014 0 2.497 0 4.815-0.768 6.729-2.081l-0.041 0.026 8.504 8.504 2.828-2.828-8.437-8.437c1.484-1.972 2.377-4.463 2.377-7.162 0-6.616-5.363-11.979-11.979-11.979s-11.979 5.363-11.979 11.979c0 6.616 5.363 11.979 11.979 11.979 0.001 0 0.003 0 0.004 0h-0zM29.983 22c0 0 0 0 0 0 4.409 0 7.983 3.574 7.983 7.983s-3.574 7.983-7.983 7.983c-4.409 0-7.983-3.574-7.983-7.983 0 0 0 0 0 0v0c0.005-4.407 3.576-7.977 7.982-7.983h0z"></path>
</svg>
