<!-- Generated by IcoMoon.io -->
<svg version="1.1" xmlns="http://www.w3.org/2000/svg" width="64" height="64" viewBox="0 0 64 64">
<title>page-restore</title>
<path d="M40.828 2h-35.828v60h53v-42.828zM54 58h-45v-52h30.172l14.828 14.828z"></path>
<path d="M20.251 22.786l-0.716 0.716v-8.502h-4v15.475h15.475v-4h-8.792l0.861-0.861c2.267-2.267 5.399-3.669 8.858-3.669 6.919 0 12.527 5.609 12.527 12.527s-5.609 12.527-12.527 12.527c-3.459 0-6.591-1.402-8.858-3.669v0l-2.828 2.828c2.993 2.986 7.124 4.833 11.687 4.833s8.694-1.847 11.687-4.833l-0 0c6.444-6.444 6.444-16.929 0-23.373-2.991-2.991-7.123-4.841-11.687-4.841s-8.696 1.85-11.687 4.841v0z"></path>
</svg>
