<!-- Generated by IcoMoon.io -->
<svg version="1.1" xmlns="http://www.w3.org/2000/svg" width="64" height="64" viewBox="0 0 64 64">
<title>paint-bucket</title>
<path d="M53.098 38.751l-1.562-1.955-1.562 1.955c-1.044 1.307-6.253 8.026-6.253 11.985 0 4.556 3.506 8.263 7.816 8.263s7.816-3.707 7.816-8.263c0-3.959-5.209-10.679-6.253-11.985zM51.535 55c-2.104 0-3.816-1.913-3.816-4.263 0-1.458 1.936-4.735 3.816-7.4 1.88 2.662 3.815 5.939 3.815 7.4 0 2.351-1.712 4.263-3.816 4.263z"></path>
<path d="M15.334 6.436l-3.317 9.113-8.255-3.399-1.523 3.699 8.409 3.462-7.285 20.014c-0.228 0.609-0.36 1.313-0.36 2.048 0 2.578 1.624 4.776 3.905 5.629l0.042 0.014 23.090 8.404c0.61 0.229 1.316 0.362 2.052 0.362 2.577 0 4.775-1.625 5.625-3.906l0.014-0.041 11.971-32.889zM18.891 22.706c0.314 1.968 2 3.455 4.032 3.455 2.254 0 4.081-1.827 4.081-4.081s-1.827-4.081-4.081-4.081c-1.004 0-1.923 0.363-2.634 0.964l0.006-0.005-4.577-1.885 2.006-5.511 26.849 9.772-3.573 9.817v-0.152h-30.35l3.699-10.164zM33.97 50.466c-0.288 0.774-1.020 1.316-1.879 1.316-0.245 0-0.481-0.044-0.698-0.125l0.014 0.005-23.090-8.404c-0.774-0.288-1.316-1.020-1.316-1.879 0-0.245 0.044-0.48 0.125-0.698l-0.005 0.014 2.072-5.694h30.405z"></path>
</svg>
