<!-- Generated by IcoMoon.io -->
<svg version="1.1" xmlns="http://www.w3.org/2000/svg" width="64" height="64" viewBox="0 0 64 64">
<title>paint</title>
<path d="M51.003 9h-3.003v-4c-0.002-1.656-1.344-2.998-3-3h-36c-1.656 0.002-2.998 1.344-3 3v13c0.002 1.656 1.344 2.998 3 3h36c1.656-0.002 2.998-1.344 3-3v-5h3.003c2.76 0 4.997 2.237 4.997 4.997 0 2.492-1.824 4.557-4.209 4.935l-0.028 0.004-21.763 3.348v8.716h-7v27h18v-27h-7v-5.284l18.371-2.826c4.346-0.687 7.629-4.406 7.629-8.892 0-4.969-4.028-8.997-8.997-8.997-0 0-0 0-0 0v0zM44 17h-34v-11h34zM37 58h-10v-19h10z"></path>
</svg>
