<!-- Generated by IcoMoon.io -->
<svg version="1.1" xmlns="http://www.w3.org/2000/svg" width="64" height="64" viewBox="0 0 64 64">
<title>pause-circle</title>
<path d="M53.213 10.787c-5.429-5.429-12.929-8.787-21.213-8.787-16.569 0-30 13.431-30 30 0 8.284 3.358 15.784 8.787 21.213v0c5.429 5.429 12.929 8.787 21.213 8.787 16.569 0 30-13.431 30-30 0-8.284-3.358-15.784-8.787-21.213v0zM32 58c-14.336 0-26-11.664-26-26s11.664-26 26-26 26 11.664 26 26-11.664 26-26 26z"></path>
<path d="M18 44h12v-24h-12zM22 24h4v16h-4z"></path>
<path d="M35 44h12v-24h-12zM39 24h4v16h-4z"></path>
</svg>
