<!-- Generated by IcoMoon.io -->
<svg version="1.1" xmlns="http://www.w3.org/2000/svg" width="64" height="64" viewBox="0 0 64 64">
<title>pen-nib</title>
<path d="M60.125 17.211l-13.109-13.106c-0.543-0.543-1.293-0.879-2.122-0.879-0.934 0-1.768 0.426-2.318 1.095l-0.004 0.005-11.242 13.741-16.266 3.314c-1.156 0.239-2.083 1.042-2.492 2.102l-0.008 0.023-10.329 27.224c-0.139 0.358-0.22 0.773-0.22 1.206 0 0.941 0.381 1.792 0.997 2.409l6.659 6.655c0.617 0.616 1.468 0.996 2.409 0.996 0.433 0 0.847-0.081 1.228-0.228l-0.023 0.008 27.233-10.326c1.070-0.412 1.867-1.32 2.115-2.435l0.004-0.023 3.513-16.086 13.75-11.25c0.676-0.554 1.105-1.39 1.105-2.325 0-0.828-0.335-1.577-0.877-2.12l0 0zM38.8 47.824l-26.574 10.079-1.644-1.642 12.418-12.42c0.988 0.566 2.173 0.899 3.435 0.899 3.872 0 7.010-3.139 7.010-7.010s-3.139-7.010-7.010-7.010c-3.872 0-7.010 3.139-7.010 7.010 0 1.183 0.293 2.297 0.81 3.274l-0.018-0.038-12.466 12.466-1.639-1.642 10.072-26.554 15.59-3.176 10.381 10.375zM23.425 37.737c0-1.657 1.343-3 3-3s3 1.343 3 3c0 1.657-1.343 3-3 3v0c-1.656-0.001-2.997-1.344-2.997-3v0zM44.474 29.105l-9.349-9.355 9.847-12.035 11.543 11.543z"></path>
</svg>
