<!-- Generated by IcoMoon.io -->
<svg version="1.1" xmlns="http://www.w3.org/2000/svg" width="64" height="64" viewBox="0 0 64 64">
<title>pen-fancy</title>
<path d="M58.764 5.236c-2-1.999-4.762-3.236-7.814-3.236-3.439 0-6.51 1.571-8.537 4.033l-0.015 0.019-18.672 22.822-11.384 2.319c-1.021 0.21-1.839 0.919-2.199 1.855l-0.007 0.020-7.354 19.387c-0.123 0.316-0.195 0.681-0.195 1.064 0 0.828 0.336 1.578 0.879 2.121l4.742 4.742c1.204 1.205 2.84 0.815 3.185 0.684l19.395-7.356c0.943-0.363 1.645-1.163 1.864-2.145l0.004-0.020 2.458-11.261 22.835-18.683c2.482-2.042 4.052-5.114 4.052-8.553 0-3.051-1.237-5.814-3.236-7.814v0zM28.863 50.163l-18.284 6.936-0.424-0.425 5.759-5.76-2.828-2.828-5.76 5.759-0.575-0.575 6.929-18.27 10.489-2.138 6.956 6.956zM57.987 13.401c-0.095 2.064-1.074 3.882-2.565 5.095l-0.013 0.010-21.968 17.978-5.926-5.926 17.984-21.971c1.303-1.585 3.264-2.589 5.459-2.589 3.894 0 7.050 3.156 7.050 7.050 0 0.124-0.003 0.248-0.010 0.371l0.001-0.017z"></path>
<path d="M17 43h4v4h-4v-4z"></path>
</svg>
