<!-- Generated by IcoMoon.io -->
<svg version="1.1" xmlns="http://www.w3.org/2000/svg" width="64" height="64" viewBox="0 0 64 64">
<title>people_plus</title>
<path d="M34.86 32.597c0.716-1.332 1.138-2.915 1.14-4.596v-9.001c-0.005-7.183-5.824-13.005-13.006-13.017h-0.001c-7.165 0-12.993 5.839-12.993 13.017v9c-0 0.014-0 0.030-0 0.046 0 1.665 0.417 3.232 1.153 4.603l-0.026-0.052 3.114 5.708-7.996 5.232c-2.541 1.677-4.194 4.519-4.194 7.747 0 0.006 0 0.011 0 0.017v-0.001l-0.062 10.7h36.012v-4h-31.988l0.039-6.688c0-0.005 0-0.012 0-0.018 0-1.837 0.94-3.454 2.365-4.397l0.020-0.012 11.085-7.254-4.881-8.949c-0.402-0.773-0.639-1.689-0.639-2.659 0-0.008 0-0.016 0-0.024v0.001-9c0-4.971 4.029-9 9-9s9 4.029 9 9v0 9c-0 0.98-0.241 1.903-0.667 2.714l0.015-0.032-4.864 8.918 11.132 7.284c0.134 0.087 0.26 0.182 0.384 0.28v-4.809l-6.237-4.081z"></path>
<path d="M50 15v9c-0 0.98-0.241 1.903-0.667 2.714l0.015-0.032-4.865 8.918 3.668 2.4h7.305l-5.694-3.726 3.097-5.677c0.716-1.332 1.138-2.915 1.14-4.596v-9.001c0-0.012 0-0.027 0-0.041 0-7.173-5.815-12.987-12.987-12.987-3.102 0-5.949 1.087-8.183 2.902l0.024-0.019 2.853 2.853c0.228-0.166 0.462-0.324 0.703-0.467 1.312-0.789 2.895-1.256 4.587-1.256 4.972 0 9.003 4.031 9.003 9.003 0 0.005 0 0.010 0 0.014v-0.001z"></path>
<path d="M54 50v-8h-4v8h-8v4h8v8h4v-8h8v-4h-8z"></path>
</svg>
