<!-- Generated by IcoMoon.io -->
<svg version="1.1" xmlns="http://www.w3.org/2000/svg" width="64" height="64" viewBox="0 0 64 64">
<title>person-female</title>
<path d="M45.484 26.368l-0.036-0.128c-0.294-0.911-0.692-1.703-1.192-2.419l0.019 0.029c1.587-0.472 2.725-1.919 2.725-3.631 0-0.326-0.041-0.642-0.119-0.943l0.006 0.026-2.401-9.603c-1.133-4.533-5.034-7.699-9.486-7.699s-8.353 3.166-9.486 7.699l-2.401 9.602c-0.072 0.276-0.113 0.592-0.113 0.919 0 1.647 1.054 3.049 2.524 3.567l0.026 0.008c-0.43 0.605-0.8 1.299-1.074 2.039l-0.020 0.062-7.099 25.105h9.070l1.446 11h13.509l1.446-11h8.725zM39.319 47l-1.446 11h-6.492l-1.446-11h-7.292l5.595-19.801c0.457-1.188 1.323-2.133 2.423-2.679l0.029-0.013 1.313-0.645-0.578-3.862h-4.363l2.333-9.331c0.687-2.749 2.992-4.669 5.606-4.669s4.918 1.92 5.606 4.669l2.333 9.331h-4.258l-0.695 3.906 1.275 0.686c1.109 0.602 1.947 1.584 2.347 2.768l0.010 0.035 4.83 19.605z"></path>
</svg>
