<!-- Generated by IcoMoon.io -->
<svg version="1.1" xmlns="http://www.w3.org/2000/svg" width="64" height="64" viewBox="0 0 64 64">
<title>person</title>
<path d="M38.381 62h-13.509l-2.103-16h-5.061l-0.699-16.78c-0.006-0.132-0.009-0.288-0.009-0.444 0-4.845 3.195-8.944 7.593-10.304l0.076-0.020-0.888-2.665c-0.098-0.283-0.154-0.608-0.154-0.947 0-0 0-0.001 0-0.001v0-4.338c0-4.694 3.806-8.5 8.5-8.5s8.5 3.806 8.5 8.5v0 4.338c0 0 0 0.001 0 0.001 0 0.339-0.056 0.665-0.16 0.969l0.006-0.021-0.993 2.98c4.004 1.636 6.774 5.5 6.774 10.012 0 0.155-0.003 0.31-0.010 0.463l0.001-0.022-0.699 16.78h-5.061zM28.381 58h6.491l2.103-16h4.733l0.539-12.947c0.004-0.084 0.006-0.183 0.006-0.282 0-3.347-2.428-6.126-5.618-6.674l-0.040-0.006-2.314-0.381 2.345-7.035v-4.175c0-2.485-2.015-4.5-4.5-4.5s-4.5 2.015-4.5 4.5v0 4.175l2.398 7.195-2.621 0.139c-3.58 0.211-6.403 3.166-6.403 6.78 0 0.093 0.002 0.185 0.006 0.277l-0-0.013 0.539 12.947h4.733z"></path>
</svg>
