<!-- Generated by IcoMoon.io -->
<svg version="1.1" xmlns="http://www.w3.org/2000/svg" width="64" height="64" viewBox="0 0 64 64">
<title>phone-call-end</title>
<path d="M61.049 30.451l-1.848-1.848c-6.961-6.961-16.578-11.267-27.201-11.267s-20.239 4.306-27.201 11.267v0-0l-1.848 1.848c-0.558 0.555-0.903 1.323-0.903 2.172 0 0.247 0.029 0.488 0.085 0.718l-0.004-0.021 0.023 0.099 3.669 10.796 18.235-2.605 1.192-8.346c1.791-1.581 4.159-2.547 6.752-2.547s4.961 0.965 6.763 2.556l-0.011-0.010 1.192 8.346 18.235 2.605 3.669-10.796 0.023-0.099c0.051-0.209 0.081-0.45 0.081-0.697 0-0.849-0.345-1.617-0.903-2.172l-0-0zM55.46 39.786l-11.98-1.712-0.961-6.729-0.471-0.471c-2.573-2.567-6.125-4.155-10.047-4.155s-7.474 1.588-10.047 4.155l-0.471 0.471-0.961 6.729-11.98 1.712-2.351-6.916 1.438-1.438c6.237-6.237 14.854-10.095 24.372-10.095s18.135 3.858 24.372 10.095l1.438 1.438z"></path>
</svg>
