<!-- Generated by IcoMoon.io -->
<svg version="1.1" xmlns="http://www.w3.org/2000/svg" width="64" height="64" viewBox="0 0 64 64">
<title>phone-square</title>
<path d="M13.718 52.596c0.533 0.848 1.463 1.404 2.524 1.404 0.003 0 0.007 0 0.010 0h2.39c19.528 0 35.359-15.831 35.359-35.359v0-2.39c0-0.003 0-0.006 0-0.009 0-1.060-0.556-1.991-1.392-2.517l-0.012-0.007-0.086-0.053-9.491-4.676-10.272 13.695 4.666 6.222c-0.333 4.559-3.95 8.175-8.479 8.507l-0.030 0.002-6.222-4.666-13.695 10.272 4.676 9.491zM22.684 37.748l4.918 3.688h0.667c7.269-0.008 13.159-5.899 13.168-13.167v-0.667l-3.688-4.918 6.48-8.641 5.772 2.843v1.755c0 17.291-14.068 31.359-31.359 31.359h-1.755l-2.843-5.772z"></path>
<path d="M59 2h-54c-1.656 0.002-2.998 1.344-3 3v54c0.002 1.656 1.344 2.998 3 3h54c1.656-0.002 2.998-1.344 3-3v-54c-0.002-1.656-1.344-2.998-3-3h-0zM58 58h-52v-52h52z"></path>
</svg>
