<!-- Generated by IcoMoon.io -->
<svg version="1.1" xmlns="http://www.w3.org/2000/svg" width="64" height="64" viewBox="0 0 64 64">
<title>phone-slash</title>
<path d="M35.872 27.387l3.102 3.102c0.85-1.821 1.347-3.954 1.347-6.202 0-0.006 0-0.011 0-0.017v0.001-0.667l-4.394-5.858 7.892-10.523 7.183 3.539v2.26c0 0.011 0 0.024 0 0.037 0 8.33-2.769 16.013-7.438 22.179l0.067-0.092 2.87 2.87c5.302-6.801 8.501-15.468 8.501-24.881 0-0.040-0-0.079-0-0.119v0.006-2.793c0-0.003 0-0.007 0-0.010 0-1.12-0.587-2.102-1.47-2.657l-0.013-0.008-0.085-0.053-10.824-5.333-11.683 15.577 5.375 7.167c-0.053 0.902-0.207 1.746-0.451 2.551l0.020-0.078z"></path>
<path d="M43.897 41.069l-39.069-39.069h-2.828v2.828l28.928 28.928c-1.435 0.875-3.149 1.435-4.985 1.544l-0.030 0.001-7.167-5.375-15.577 11.683 5.333 10.824 0.053 0.085c0.562 0.896 1.545 1.483 2.664 1.483 0.004 0 0.007 0 0.011 0h2.793c0.034 0 0.074 0 0.113 0 10.327 0 19.756-3.849 26.929-10.19l-0.043 0.038 18.151 18.151h2.828v-2.828zM14.022 50.002h-2.26l-3.539-7.183 10.522-7.892 5.858 4.394h0.667c0.005 0 0.011 0 0.016 0 3.193 0 6.152-1 8.582-2.704l-0.048 0.032 4.354 4.354c-6.422 5.591-14.873 8.999-24.119 8.999-0.012 0-0.023 0-0.035 0h0.002z"></path>
</svg>
