<!-- Generated by IcoMoon.io -->
<svg version="1.1" xmlns="http://www.w3.org/2000/svg" width="64" height="64" viewBox="0 0 64 64">
<title>phone-bluetooth</title>
<path d="M21.020 62h-2.793c-0.003 0-0.006 0-0.010 0-1.119 0-2.102-0.587-2.656-1.469l-0.008-0.013-0.054-0.086-5.333-10.824 15.577-11.683 7.167 5.375c5.595-0.343 10.047-4.795 10.388-10.358l0.002-0.031-5.375-7.167 11.683-15.577 10.824 5.333 0.085 0.053c0.896 0.562 1.483 1.545 1.483 2.664 0 0.004 0 0.007 0 0.011v-0.001 2.793c-0 22.632-18.347 40.98-40.98 40.98h-0zM18.761 58h2.26c20.391 0 36.98-16.589 36.98-36.98v-2.26l-7.183-3.539-7.892 10.523 4.394 5.858v0.667c-0.010 8.308-6.742 15.040-15.049 15.050h-0.668l-5.858-4.394-10.523 7.892z"></path>
<path d="M28 9l-9.333-7h-5.667v14.305l-7-4.48v4.749l5.412 3.464-5.412 3.897v4.929l7-5.040v13.176h5.667l9.333-7v-4.095l-9.471-6.062 9.471-6.819zM23.932 28.051l-6.599 4.949h-0.333v-9.386zM17 16.015v-10.015h0.333l6.65 4.988z"></path>
</svg>
