<!-- Generated by IcoMoon.io -->
<svg version="1.1" xmlns="http://www.w3.org/2000/svg" width="64" height="64" viewBox="0 0 64 64">
<title>phone-in-talk</title>
<path d="M57.518 12.859l-0.086-0.053-10.824-5.333-11.683 15.577 5.375 7.167c-0.343 5.594-4.795 10.046-10.358 10.388l-0.031 0.002-7.167-5.375-15.577 11.683 5.333 10.824 0.054 0.086c0.563 0.895 1.545 1.482 2.664 1.482 0.003 0 0.007 0 0.010 0h2.793c22.632-0 40.98-18.347 40.98-40.98v-2.793c0-0.003 0-0.006 0-0.010 0-1.119-0.587-2.102-1.469-2.657l-0.013-0.008zM55 18.326c0 20.391-16.589 36.98-36.98 36.98h-2.26l-3.539-7.183 10.523-7.892 5.858 4.394h0.667c8.308-0.010 15.040-6.742 15.050-15.049v-0.668l-4.394-5.858 7.892-10.523 7.183 3.539z"></path>
<path d="M25.058 32c0.004-3.825 3.104-6.924 6.928-6.929h0v-4c-6.033 0.007-10.922 4.896-10.929 10.928v0.001z"></path>
<path d="M31.987 13.036c-10.457 0-18.964 8.507-18.964 18.964h4c0.010-8.261 6.704-14.955 14.963-14.964h0.001z"></path>
<path d="M31.987 9v-4c-14.912 0-27 12.088-27 27v0h4c0-12.682 10.318-23 23-23z"></path>
</svg>
