<!-- Generated by IcoMoon.io -->
<svg version="1.1" xmlns="http://www.w3.org/2000/svg" width="64" height="64" viewBox="0 0 64 64">
<title>phone-callback</title>
<path d="M57.518 12.859l-0.086-0.054-10.824-5.333-11.683 15.577 5.375 7.167c-0.343 5.594-4.795 10.046-10.358 10.388l-0.031 0.002-7.167-5.375-15.577 11.683 5.333 10.824 0.053 0.086c0.562 0.896 1.545 1.482 2.664 1.482 0.004 0 0.007 0 0.011 0h2.793c22.632-0 40.98-18.347 40.98-40.98v0-2.793c0-0.003 0-0.006 0-0.010 0-1.119-0.587-2.102-1.469-2.656l-0.013-0.008zM55 18.326c0 20.391-16.589 36.98-36.98 36.98h-2.26l-3.539-7.183 10.523-7.892 5.858 4.394h0.667c8.308-0.010 15.040-6.742 15.050-15.049v-0.668l-4.394-5.858 7.892-10.523 7.183 3.539z"></path>
<path d="M10 23v4h18v-17h-4v10.36l-14.627-13.814-2.747 2.908 14.343 13.546h-10.97z"></path>
</svg>
