<!-- Generated by IcoMoon.io -->
<svg version="1.1" xmlns="http://www.w3.org/2000/svg" width="64" height="64" viewBox="0 0 64 64">
<title>plus-circle</title>
<path d="M32 2c-16.569 0-30 13.431-30 30s13.431 30 30 30 30-13.431 30-30-13.431-30-30-30zM50.385 50.385c-4.685 4.672-11.151 7.56-18.291 7.56-14.307 0-25.906-11.599-25.906-25.906s11.599-25.906 25.906-25.906c14.307 0 25.906 11.599 25.906 25.906 0 3.64-0.751 7.105-2.106 10.248l0.065-0.168c-1.378 3.213-3.258 5.957-5.573 8.265l-0.001 0.001z"></path>
<path d="M34 16h-4v14h-14v4h14v14h4v-14h14v-4h-14v-14z"></path>
</svg>
