<!-- Generated by IcoMoon.io -->
<svg version="1.1" xmlns="http://www.w3.org/2000/svg" width="64" height="64" viewBox="0 0 64 64">
<title>power-settings</title>
<path d="M18 58h4v4h-4v-4z"></path>
<path d="M30 58h4v4h-4v-4z"></path>
<path d="M42 58h4v4h-4v-4z"></path>
<path d="M39 9.602v4.283c6.386 2.794 10.768 9.053 10.776 16.337v0.001c0 9.802-7.974 17.776-17.776 17.776s-17.776-7.974-17.776-17.776c0.008-7.285 4.39-13.545 10.661-16.294l0.114-0.045v-4.283c-8.584 2.922-14.776 11.062-14.776 20.622 0 12.007 9.769 21.776 21.776 21.776s21.776-9.769 21.776-21.776c0-9.56-6.192-17.7-14.776-20.622z"></path>
<path d="M30 2h4v28.724h-4v-28.724z"></path>
</svg>
