<!-- Generated by IcoMoon.io -->
<svg version="1.1" xmlns="http://www.w3.org/2000/svg" width="64" height="64" viewBox="0 0 64 64">
<title>rain</title>
<path d="M49.774 17.151c-1.424-8.641-8.839-15.151-17.774-15.151-8.979 0-16.423 6.574-17.78 15.171l-0.013 0.102c-3.159 0.566-5.908 2.031-8.048 4.119l0.003-0.003c-2.566 2.487-4.159 5.964-4.162 9.813v0.001c0 3.89 1.599 7.595 4.501 10.434q0.355 0.347 0.731 0.668l1.416-4.248c-1.636-1.894-2.648-4.305-2.648-6.854 0-5.295 4.465-9.752 10.166-10.146l1.757-0.121 0.102-1.758c0.447-7.369 6.533-13.177 13.975-13.177 7.433 0 13.512 5.792 13.971 13.109l0.002 0.040 0.111 1.861 1.864 0.020c5.824 0.061 10.051 4.339 10.051 10.173 0 4.144-2.088 7.672-5.23 9.487l-1.641 4.923c2.734-0.679 5.071-2.1 6.859-4.035l0.008-0.009c2.582-2.776 4.004-6.457 4.004-10.366 0-7.389-5.143-13.153-12.226-14.051z"></path>
<path d="M15.754 62h4.224l7.917-23.358-3.788-1.284-8.352 24.642z"></path>
<path d="M36.754 62h4.224l7.917-23.358-3.788-1.284-8.352 24.642z"></path>
<path d="M36.264 31.379l-8.041 24.621h4.208l7.636-23.379-3.802-1.242z"></path>
<path d="M16.099 31.379l-8.041 24.621h4.208l7.636-23.379-3.802-1.242z"></path>
</svg>
