<!-- Generated by IcoMoon.io -->
<svg version="1.1" xmlns="http://www.w3.org/2000/svg" width="64" height="64" viewBox="0 0 64 64">
<title>registered</title>
<path d="M53.213 10.787c-5.428-5.422-12.924-8.776-21.202-8.776-16.569 0-30 13.431-30 30 0 8.279 3.354 15.775 8.776 21.203l-0-0c5.428 5.422 12.924 8.776 21.202 8.776 16.569 0 30-13.431 30-30 0-8.279-3.353-15.774-8.776-21.203l0 0zM32 58c-14.336 0-26-11.664-26-26s11.664-26 26-26 26 11.664 26 26-11.664 26-26 26z"></path>
<path d="M43 26c-0.006-4.968-4.032-8.994-8.999-9h-11.001v28h4v-10h6.444l5.882 10h4.641l-6.334-10.769c3.185-1.434 5.363-4.578 5.367-8.231v-0.001zM34 31h-7v-10h7c2.761 0 5 2.239 5 5s-2.239 5-5 5v0z"></path>
</svg>
