<!-- Generated by IcoMoon.io -->
<svg version="1.1" xmlns="http://www.w3.org/2000/svg" width="64" height="64" viewBox="0 0 64 64">
<title>restore</title>
<path d="M53.213 10.787c-5.429-5.43-12.93-8.789-21.216-8.789-11.057 0-20.717 5.981-25.921 14.885l-0.077 0.142v-10.025h-4v16h16v-4h-8.52c4.613-7.96 13.236-13 22.52-13 14.336 0 26 11.664 26 26s-11.664 26-26 26c-0.018 0-0.039 0-0.060 0-7.067 0-13.473-2.836-18.14-7.432l0.003 0.003-2.8 2.857c5.407 5.303 12.822 8.577 21.001 8.577 16.569 0 30-13.431 30-30 0-8.287-3.36-15.789-8.792-21.218l-0-0z"></path>
<path d="M43 32c0-6.075-4.925-11-11-11s-11 4.925-11 11c0 6.075 4.925 11 11 11v0c6.072-0.007 10.993-4.928 11-10.999v-0.001zM25 32c0-3.866 3.134-7 7-7s7 3.134 7 7c0 3.866-3.134 7-7 7v0c-3.864-0.005-6.995-3.136-7-7v-0z"></path>
</svg>
