<!-- Generated by IcoMoon.io -->
<svg version="1.1" xmlns="http://www.w3.org/2000/svg" width="64" height="64" viewBox="0 0 64 64">
<title>rounded-corner</title>
<path d="M36.5 5h-31.5v4h31.5c10.201 0 18.5 8.299 18.5 18.5v31.5h4v-31.5c0-12.406-10.093-22.5-22.5-22.5z"></path>
<path d="M29.909 55h4.182v4h-4.182v-4z"></path>
<path d="M13.182 55h4.182v4h-4.182v-4z"></path>
<path d="M21.546 55h4.182v4h-4.182v-4z"></path>
<path d="M38.273 55h4.182v4h-4.182v-4z"></path>
<path d="M46.636 55h4.182v4h-4.182v-4z"></path>
<path d="M5 55h4v4h-4v-4z"></path>
<path d="M5 46.636h4v4.182h-4v-4.182z"></path>
<path d="M5 38.273h4v4.182h-4v-4.182z"></path>
<path d="M5 13.182h4v4.182h-4v-4.182z"></path>
<path d="M5 29.909h4v4.182h-4v-4.182z"></path>
<path d="M5 21.545h4v4.182h-4v-4.182z"></path>
</svg>
