<!-- Generated by IcoMoon.io -->
<svg version="1.1" xmlns="http://www.w3.org/2000/svg" width="64" height="64" viewBox="0 0 64 64">
<title>router</title>
<path d="M45 12c0.002 0 0.003 0 0.005 0 4.112 0 7.81 1.777 10.366 4.606l0.011 0.012 2.829-2.829c-3.294-3.564-7.993-5.789-13.211-5.789s-9.917 2.224-13.2 5.777l-0.011 0.012 2.829 2.829c2.567-2.841 6.264-4.618 10.377-4.618 0.002 0 0.004 0 0.006 0h-0z"></path>
<path d="M37.452 19.452l2.838 2.838c1.106-1.4 2.804-2.29 4.71-2.29s3.604 0.89 4.701 2.277l0.010 0.013 2.838-2.838c-1.84-2.119-4.538-3.452-7.548-3.452s-5.708 1.332-7.538 3.439l-0.010 0.012z"></path>
<path d="M59 35h-12v-8h-4v8h-38c-1.656 0.002-2.998 1.344-3 3v14c0.002 1.656 1.344 2.998 3 3h54c1.656-0.002 2.998-1.344 3-3v-14c-0.002-1.656-1.344-2.998-3-3h-0zM58 51h-52v-12h52z"></path>
<path d="M12 43h4v4h-4v-4z"></path>
<path d="M22 43h4v4h-4v-4z"></path>
<path d="M32 43h4v4h-4v-4z"></path>
</svg>
