<!-- Generated by IcoMoon.io -->
<svg version="1.1" xmlns="http://www.w3.org/2000/svg" width="64" height="64" viewBox="0 0 64 64">
<title>rss-square</title>
<path d="M17 54c3.866 0 7-3.134 7-7s-3.134-7-7-7c-3.866 0-7 3.134-7 7v0c0.005 3.864 3.136 6.995 7 7h0zM17 44c1.657 0 3 1.343 3 3s-1.343 3-3 3c-1.657 0-3-1.343-3-3v0c0-1.657 1.343-3 3-3v0z"></path>
<path d="M59 2h-54c-1.656 0.002-2.998 1.344-3 3v54c0.002 1.656 1.344 2.998 3 3h54c1.656-0.002 2.998-1.344 3-3v-54c-0.002-1.656-1.344-2.998-3-3h-0zM58 58h-52v-52h52z"></path>
<path d="M30 47h4c0-9.374-7.626-17-17-17v4c7.176 0.008 12.992 5.824 13 12.999v0.001z"></path>
<path d="M40 47h4c0-14.912-12.088-27-27-27v0 4c12.682 0 23 10.318 23 23z"></path>
<path d="M50 47h4c0-20.435-16.565-37-37-37v0 4c18.196 0 33 14.804 33 33z"></path>
</svg>
