<!-- Generated by IcoMoon.io -->
<svg version="1.1" xmlns="http://www.w3.org/2000/svg" width="64" height="64" viewBox="0 0 64 64">
<title>ruble-slash</title>
<path d="M36.469 16.063c0.001 0 0.002 0 0.004 0 5.093 0 9.221 4.128 9.221 9.221 0 3.223-1.654 6.061-4.16 7.709l-0.035 0.022 2.872 2.872c3.245-2.436 5.323-6.277 5.323-10.602 0-7.302-5.919-13.221-13.221-13.221-0.001 0-0.003 0-0.004 0h-15.921l4 4z"></path>
<path d="M33.32 30.492l-28.492-28.492h-2.828v2.828l19.993 19.993v9.691h-4.993v4h4.993v5.488h-4.993v4h4.993v7h4v-7h12.007v-4h-12.007v-5.488h9.691l23.488 23.488h2.828v-2.828zM25.993 34.512v-5.691l5.691 5.691z"></path>
</svg>
