<!-- Generated by IcoMoon.io -->
<svg version="1.1" xmlns="http://www.w3.org/2000/svg" width="64" height="64" viewBox="0 0 64 64">
<title>scooter</title>
<path d="M55.572 33.221l-6.063-21.221h-7.509v4h4.491l4.883 17.088c-6.169 0.703-11.16 5.048-12.806 10.805l-0.026 0.106h-6.542v-14h-14.967c-8.299 0.010-15.024 6.735-15.033 15.032v2.968h4.016c-0.010 0.166-0.016 0.332-0.016 0.5 0 4.694 3.806 8.5 8.5 8.5s8.5-3.806 8.5-8.5v0c0-0.168-0.006-0.334-0.016-0.5h19.016c0-0.001 0-0.003 0-0.004 0-6.073 4.923-10.996 10.996-10.996 3.709 0 6.99 1.837 8.981 4.651l0.023 0.034v-5.687c-1.801-1.368-3.973-2.345-6.339-2.764l-0.090-0.013zM19 48.5c0 0.002 0 0.003 0 0.005 0 2.485-2.015 4.5-4.5 4.5s-4.5-2.015-4.5-4.5c0-0.178 0.010-0.353 0.030-0.526l-0.002 0.021h8.943c0.018 0.15 0.028 0.324 0.028 0.5v0zM27 44h-20.952c0.552-5.629 5.258-9.993 10.985-10h10.967v10z"></path>
<path d="M53.5 40c-4.694 0-8.5 3.806-8.5 8.5s3.806 8.5 8.5 8.5c4.694 0 8.5-3.806 8.5-8.5v0c-0.005-4.692-3.808-8.495-8.499-8.5h-0.001zM53.5 53c-2.485 0-4.5-2.015-4.5-4.5s2.015-4.5 4.5-4.5c2.485 0 4.5 2.015 4.5 4.5v0c-0.003 2.484-2.016 4.497-4.5 4.5h-0z"></path>
<path d="M21 23h11v4h-11v-4z"></path>
</svg>
