<!-- Generated by IcoMoon.io -->
<svg version="1.1" xmlns="http://www.w3.org/2000/svg" width="64" height="64" viewBox="0 0 64 64">
<title>screen-lock-horizontal</title>
<path d="M58 11h-52c-2.208 0.003-3.997 1.792-4 4v34c0.003 2.208 1.792 3.997 4 4h52c2.208-0.003 3.997-1.792 4-4v-34c-0.003-2.208-1.792-3.997-4-4h-0zM48 15v34.001l-32 0.002v-34.002zM6 49v-34h6v34.002l-6 0zM58 49l-6 0v-34h6z"></path>
<path d="M21.5 35.492c0 5.799 4.701 10.5 10.5 10.5s10.5-4.701 10.5-10.5v0-7.359h-3.438v-3.093c-0.005-3.881-3.15-7.027-7.031-7.031h-0.501c-3.881 0.005-7.027 3.15-7.031 7.031v3.094h-3zM38.5 35.492c0 3.59-2.91 6.5-6.5 6.5s-6.5-2.91-6.5-6.5v0-3.359h13zM28.5 25.039c0.002-1.673 1.358-3.029 3.031-3.031h0.5c1.673 0.002 3.029 1.358 3.031 3.031v3.094h-6.563z"></path>
</svg>
