<!-- Generated by IcoMoon.io -->
<svg version="1.1" xmlns="http://www.w3.org/2000/svg" width="64" height="64" viewBox="0 0 64 64">
<title>share-boxed</title>
<path d="M58 31v27h-52v-52h27v-4h-31v60h60v-35l-4 4z"></path>
<path d="M13.265 21.392c-0.798 1.565-1.265 3.414-1.265 5.371 0 0.011 0 0.023 0 0.034v-0.002 27.023h5.973l5.148-18.446c1.021-3.542 4.229-6.090 8.034-6.1h6.845v10.727h4.825l19.004-18.888-18.996-19.112h-4.832v11h-11.727c-5.75 0.006-10.705 3.405-12.971 8.303l-0.037 0.088zM42 17v-10.163l14.172 14.258-14.172 14.085v-9.907h-10.844c-5.631 0.014-10.377 3.785-11.867 8.937l-0.022 0.087-3.268 11.709v-19.211c0-0.007-0-0.016-0-0.024 0-1.322 0.318-2.57 0.881-3.671l-0.021 0.046 0.037-0.077c1.651-3.605 5.226-6.065 9.376-6.069h0.001z"></path>
</svg>
