<!-- Generated by IcoMoon.io -->
<svg version="1.1" xmlns="http://www.w3.org/2000/svg" width="64" height="64" viewBox="0 0 64 64">
<title>snowflake</title>
<path d="M16.91 25.841l11.107 6.449-10.005 5.809-11.974-3.209v4.141l9.356 2.507-2.521 9.407 3.586 2.071 2.98-11.121 10.56-6.132v11.036l-8.897 8.897 3.586 2.071 7.561-7.561 7.392 7.392 3.586-2.071-9.228-9.228v-10.536l10.375 6.024 3.035 11.325 3.586-2.071-2.547-9.505 9.55-2.559v-4.141l-12.062 3.232-9.956-5.781 11.058-6.421 10.959 2.936v-4.141l-8.707-2.333 2.404-8.971-3.586-2.071-2.961 11.052-11.15 6.474v-12.495l8.354-8.354-3.586-2.071-6.896 6.897-6.788-6.788-3.586 2.071 8.503 8.503v12.238l-11.334-6.581-2.906-10.847-3.586 2.071 2.378 8.874-8.512 2.281v4.141l10.871-2.913z"></path>
</svg>
