<!-- Generated by IcoMoon.io -->
<svg version="1.1" xmlns="http://www.w3.org/2000/svg" width="64" height="64" viewBox="0 0 64 64">
<title>sort-numeric-down</title>
<path d="M29.385 47.711l-6.485 6.485v-52.196h-4v52.196l-6.486-6.485-2.828 2.828 11.314 11.314 11.314-11.314-2.829-2.828z"></path>
<path d="M49 25v-18h-4v4h-4v4h4v10h-5v4h14v-4h-5z"></path>
<path d="M47.050 35h-0.55c-3.837 0.004-6.946 3.113-6.95 6.95v0.55c0.004 3.837 3.113 6.946 6.95 6.95h0.55c0.002 0 0.004 0 0.005 0 1.063 0 2.071-0.241 2.97-0.67l-0.042 0.018c-0.216 2.915-2.633 5.199-5.583 5.203h-2.4v4h2.4c5.3-0.006 9.594-4.3 9.6-9.599v-6.451c-0.004-3.837-3.113-6.946-6.95-6.95h-0zM47.050 45.45h-0.55c-1.628-0.002-2.948-1.322-2.95-2.95v-0.55c0.002-1.628 1.322-2.948 2.95-2.95h0.55c1.628 0.002 2.948 1.322 2.95 2.95v0.55c-0.002 1.628-1.322 2.948-2.95 2.95h-0z"></path>
</svg>
