<!-- Generated by IcoMoon.io -->
<svg version="1.1" xmlns="http://www.w3.org/2000/svg" width="64" height="64" viewBox="0 0 64 64">
<title>stop-circle</title>
<path d="M53.213 10.787c-5.428-5.422-12.924-8.776-21.202-8.776-16.569 0-30 13.431-30 30 0 8.279 3.354 15.775 8.776 21.203l-0-0c5.428 5.422 12.924 8.776 21.202 8.776 16.569 0 30-13.431 30-30 0-8.279-3.353-15.774-8.776-21.203l0 0zM32 58c-14.336 0-26-11.664-26-26s11.664-26 26-26 26 11.664 26 26-11.664 26-26 26z"></path>
<path d="M20 44h24v-24h-24zM24 24h16v16h-16z"></path>
</svg>
