<!-- Generated by IcoMoon.io -->
<svg version="1.1" xmlns="http://www.w3.org/2000/svg" width="64" height="64" viewBox="0 0 64 64">
<title>tag</title>
<path d="M60.736 32.908l-29.736-29.736c-0.72-0.724-1.716-1.172-2.818-1.172-0.004 0-0.008 0-0.011 0h-20.171c-3.312 0.004-5.996 2.688-6 6v20.135c0.002 1.148 0.485 2.183 1.259 2.914l0.002 0.002 31.633 29.716c0.532 0.504 1.252 0.814 2.045 0.814 0.002 0 0.004 0 0.006 0h-0q0.056 0 0.112-0.002c0.832-0.029 1.574-0.395 2.097-0.965l0.002-0.002 21.667-23.55c0.493-0.532 0.795-1.246 0.795-2.031 0-0.829-0.337-1.579-0.881-2.121l-0-0zM36.896 57.159l-30.896-29.024v-20.135c0.001-1.104 0.896-1.999 2-2h20.172l29.058 29.058z"></path>
<path d="M18.5 12c-3.59 0-6.5 2.91-6.5 6.5s2.91 6.5 6.5 6.5c3.59 0 6.5-2.91 6.5-6.5v0c-0.004-3.588-2.912-6.496-6.5-6.5h-0zM18.5 21c-1.381 0-2.5-1.119-2.5-2.5s1.119-2.5 2.5-2.5c1.381 0 2.5 1.119 2.5 2.5v0c-0.002 1.38-1.12 2.498-2.5 2.5h-0z"></path>
</svg>
