<!-- Generated by IcoMoon.io -->
<svg version="1.1" xmlns="http://www.w3.org/2000/svg" width="64" height="64" viewBox="0 0 64 64">
<title>timer</title>
<path d="M57.939 36.5c0 11.855-9.645 21.5-21.5 21.5s-21.5-9.645-21.5-21.5 9.645-21.5 21.5-21.5h1.172l-6.586 6.586 2.828 2.828 11.314-11.314-11.314-11.314-2.828 2.828 6.385 6.385h-0.971c-14.061 0-25.5 11.439-25.5 25.5s11.439 25.5 25.5 25.5 25.5-11.439 25.5-25.5z"></path>
<path d="M36.439 28.75c-0.003 0-0.006 0-0.009 0-4.423 0-8.009 3.586-8.009 8.009s3.586 8.009 8.009 8.009c4.423 0 8.009-3.586 8.009-8.009 0-1.437-0.378-2.785-1.041-3.95l0.021 0.040 11.434-11.434-2.828-2.828-11.37 11.37c-1.195-0.756-2.649-1.205-4.209-1.205-0.003 0-0.005 0-0.008 0h0zM36.439 40.75c-2.209 0-4-1.791-4-4s1.791-4 4-4c2.209 0 4 1.791 4 4v0c-0.003 2.208-1.792 3.997-4 4h-0z"></path>
</svg>
