<!-- Generated by IcoMoon.io -->
<svg version="1.1" xmlns="http://www.w3.org/2000/svg" width="64" height="64" viewBox="0 0 64 64">
<title>traffic</title>
<path d="M6 30v-9h33v-4.582l-6.134-9.639c-1.076-1.681-2.933-2.779-5.047-2.779-0.005 0-0.011 0-0.016 0h-13.767c-1.986 0.003-3.747 0.968-4.841 2.454l-0.012 0.017-7.185 9.879v17.65h4v4h4v-4h14.1l2.8-4zM12.419 8.824c0.368-0.501 0.955-0.823 1.617-0.824h13.767c0.002 0 0.003 0 0.005 0 0.704 0 1.324 0.366 1.677 0.918l0.005 0.008 5.138 8.074h-28.156z"></path>
<path d="M10 23h4v4h-4v-4z"></path>
<path d="M29 27h2v-4h-4v4h2z"></path>
<path d="M55.866 28.779c-1.076-1.681-2.933-2.779-5.047-2.779-0.005 0-0.011 0-0.016 0h-13.767c-1.986 0.003-3.747 0.968-4.841 2.454l-0.012 0.017-7.185 9.879v17.65h4v4h4v-4h21v4h4v-4h4v-17.582zM35.419 30.824c0.368-0.501 0.955-0.823 1.617-0.824h13.767c0.002 0 0.003 0 0.005 0 0.705 0 1.324 0.366 1.677 0.918l0.005 0.008 5.138 8.074h-28.156zM58 52h-29v-9h29z"></path>
<path d="M33 45h4v4h-4v-4z"></path>
<path d="M50 45h4v4h-4v-4z"></path>
</svg>
