<!-- Generated by IcoMoon.io -->
<svg version="1.1" xmlns="http://www.w3.org/2000/svg" width="64" height="64" viewBox="0 0 64 64">
<title>tram</title>
<path d="M50.992 50v-31.938c-0.004-3.346-2.716-6.058-6.062-6.062h-5.398l3.6-6h6.632l2.447 4.894 3.578-1.789-2.723-5.447c-0.499-0.991-1.508-1.659-2.673-1.659-0.004 0-0.007 0-0.011 0h-36.763c-0.003 0-0.007 0-0.010 0-1.165 0-2.174 0.668-2.665 1.641l-0.008 0.017-2.724 5.447 3.578 1.789 2.447-4.894h6.632l3.6 6h-5.398c-3.346 0.004-6.058 2.716-6.062 6.062v31.938h4.377l-7.5 12h4.717l7.5-12h19.796l7.5 12h4.717l-7.5-12zM38.468 6l-3.6 6h-5.735l-3.6-6zM17.008 18.062c0.001-1.138 0.924-2.061 2.062-2.062h25.861c1.138 0.001 2.061 0.924 2.062 2.062v10.938h-29.985zM17.008 46v-13h29.985v13z"></path>
<path d="M39 37h4v4h-4v-4z"></path>
<path d="M21 37h4v4h-4v-4z"></path>
</svg>
