<!-- Generated by IcoMoon.io -->
<svg version="1.1" xmlns="http://www.w3.org/2000/svg" width="64" height="64" viewBox="0 0 64 64">
<title>trash-x</title>
<path d="M12 59c-0 0.007-0 0.015-0 0.023 0 1.634 1.316 2.96 2.946 2.977h34.107c1.631-0.017 2.947-1.343 2.947-2.977 0-0.008-0-0.016-0-0.024v0.001-40h-40zM16 23h32v35h-32z"></path>
<path d="M41 11v-6c0-1.682-1.186-3-2.7-3h-12.6c-1.514 0-2.7 1.318-2.7 3v6h-15v4h48v-4zM27 6h10v5h-10z"></path>
<path d="M38.586 31.586l-6.586 6.586-6.586-6.586-2.828 2.828 6.586 6.586-6.586 6.586 2.828 2.828 6.586-6.586 6.586 6.586 2.828-2.828-6.586-6.586 6.586-6.586-2.828-2.828z"></path>
</svg>
