<!-- Generated by IcoMoon.io -->
<svg version="1.1" xmlns="http://www.w3.org/2000/svg" width="64" height="64" viewBox="0 0 64 64">
<title>trash-sweep</title>
<path d="M5.5 59.102c-0 0.005-0 0.011-0 0.018 0 1.582 1.275 2.866 2.854 2.88h30.791c1.58-0.014 2.855-1.298 2.855-2.88 0-0.006 0-0.013-0-0.019v0.001-36.102h-36.5zM9.5 27h28.5v31h-28.5z"></path>
<path d="M46 15h-14v-5.111c0-1.62-1.16-2.889-2.642-2.889h-11.55c-1.481 0-2.642 1.269-2.642 2.889v5.111h-13.167v4h44zM19.167 11h8.833v4h-8.833z"></path>
<path d="M46 28h16v4h-16v-4z"></path>
<path d="M46 40h12v4h-12v-4z"></path>
<path d="M46 52h8v4h-8v-4z"></path>
</svg>
