<!-- Generated by IcoMoon.io -->
<svg version="1.1" xmlns="http://www.w3.org/2000/svg" width="64" height="64" viewBox="0 0 64 64">
<title>tty</title>
<path d="M18.951 50h28v4h-28v-4z"></path>
<path d="M10.95 50h4v4h-4v-4z"></path>
<path d="M50.95 50h4v4h-4v-4z"></path>
<path d="M46.95 42h4v4h-4v-4z"></path>
<path d="M14.95 42h4v4h-4v-4z"></path>
<path d="M22.951 42h4v4h-4v-4z"></path>
<path d="M30.951 42h4v4h-4v-4z"></path>
<path d="M38.95 42h4v4h-4v-4z"></path>
<path d="M18.951 34h4v4h-4v-4z"></path>
<path d="M10.95 34h4v4h-4v-4z"></path>
<path d="M26.951 34h4v4h-4v-4z"></path>
<path d="M34.95 34h4v4h-4v-4z"></path>
<path d="M42.95 34h4v4h-4v-4z"></path>
<path d="M50.95 34h4v4h-4v-4z"></path>
<path d="M58.18 28.876l-18.235-2.605-1.192-8.346c-1.791-1.581-4.159-2.546-6.752-2.546s-4.961 0.965-6.763 2.556l0.011-0.010-1.192 8.346-18.235 2.605-3.669-10.796-0.023-0.098c-0.051-0.21-0.081-0.45-0.081-0.698 0-0.849 0.346-1.617 0.904-2.172l1.848-1.848c6.961-6.961 16.578-11.267 27.201-11.267s20.24 4.306 27.201 11.267l1.848 1.848c0.558 0.555 0.904 1.323 0.904 2.172 0 0.248-0.029 0.488-0.085 0.719l0.004-0.021-0.023 0.098zM43.48 22.736l11.98 1.712 2.35-6.916-1.438-1.438c-6.237-6.237-14.854-10.095-24.372-10.095s-18.135 3.858-24.372 10.095l-1.438 1.438 2.35 6.916 11.98-1.712 0.961-6.729 0.471-0.471c2.573-2.568 6.125-4.155 10.047-4.155s7.474 1.588 10.047 4.155l0.471 0.471z"></path>
</svg>
