<!-- Generated by IcoMoon.io -->
<svg version="1.1" xmlns="http://www.w3.org/2000/svg" width="64" height="64" viewBox="0 0 64 64">
<title>usb</title>
<path d="M53 15h-13v13h4v5h-10v-23.172l2.243 2.243 2.828-2.828-7.071-7.071-7.071 7.071 2.828 2.828 2.243-2.243v23.172h-9v-5.293c2.916-0.889 5-3.555 5-6.708 0-3.866-3.134-7-7-7s-7 3.134-7 7c0 3.153 2.084 5.819 4.95 6.695l0.050 0.013v9.293h13v11.293c-2.916 0.889-5 3.555-5 6.708 0 3.866 3.134 7 7 7s7-3.134 7-7c0-3.153-2.084-5.819-4.95-6.695l-0.050-0.013v-11.293h14v-9h5zM16 21c0-1.657 1.343-3 3-3s3 1.343 3 3c0 1.657-1.343 3-3 3v0c-1.656-0.002-2.998-1.344-3-3v-0zM35 55c0 1.657-1.343 3-3 3s-3-1.343-3-3c0-1.657 1.343-3 3-3v0c1.656 0.002 2.998 1.344 3 3v0zM49 24h-5v-5h5z"></path>
</svg>
