<!-- Generated by IcoMoon.io -->
<svg version="1.1" xmlns="http://www.w3.org/2000/svg" width="64" height="64" viewBox="0 0 64 64">
<title>user-secret</title>
<path d="M51.507 20.208l-3.8-12.901c-0.581-1.927-2.34-3.307-4.421-3.307-0.397 0-0.782 0.050-1.15 0.145l0.032-0.007-14.83 3.708-4.727-3.152c-0.644-0.434-1.437-0.694-2.29-0.694-1.865 0-3.441 1.236-3.953 2.933l-0.008 0.029-3.901 13.245-10.458 8.964v5.866h59.964v-5.866zM20.196 8.092c0.019-0.053 0.068-0.090 0.126-0.090 0.026 0 0.049 0.007 0.070 0.020l-0.001-0 6.2 4.133 16.547-4.137c0.044-0.011 0.095-0.018 0.147-0.018 0.275 0 0.508 0.182 0.583 0.433l0.001 0.004 3.111 10.563h-29.998zM57.964 31.037l-51.964-0.026 9.049-7.756h33.866l9.049 7.756z"></path>
<path d="M46.609 38.711c-3.985 0.001-7.502 2.005-9.6 5.059l-0.026 0.039c-1.48-0.871-3.26-1.386-5.161-1.386-1.818 0-3.527 0.471-5.010 1.298l0.052-0.027c-2.124-3.002-5.582-4.939-9.492-4.939-6.402 0-11.591 5.189-11.591 11.591s5.189 11.591 11.591 11.591c6.401 0 11.591-5.189 11.591-11.591 0-1.072-0.146-2.111-0.418-3.097l0.019 0.081c0.929-0.57 2.054-0.908 3.258-0.908 1.305 0 2.517 0.397 3.522 1.076l-0.022-0.014c-0.228 0.862-0.359 1.851-0.359 2.871 0 6.431 5.214 11.645 11.645 11.645s11.645-5.214 11.645-11.645c0-6.431-5.213-11.645-11.645-11.645h-0zM17.32 58c-4.222 0-7.645-3.423-7.645-7.645s3.423-7.645 7.645-7.645c4.222 0 7.645 3.423 7.645 7.645v0c-0.005 4.22-3.425 7.64-7.644 7.645h-0zM46.609 58c-4.222-0-7.645-3.423-7.645-7.645s3.423-7.645 7.645-7.645c4.222 0 7.645 3.423 7.645 7.645v0c-0.005 4.22-3.425 7.64-7.644 7.645h-0.001z"></path>
</svg>
