<!-- Generated by IcoMoon.io -->
<svg version="1.1" xmlns="http://www.w3.org/2000/svg" width="64" height="64" viewBox="0 0 64 64">
<title>verical-split</title>
<path d="M59.143 8h-23.143c-1.656 0.002-2.998 1.344-3 3v42c0.002 1.656 1.344 2.998 3 3h23.143c1.656-0.002 2.998-1.344 3-3v-42c-0.002-1.656-1.344-2.998-3-3h-0zM58.143 52h-21.143v-40h21.143z"></path>
<path d="M3 8h25v4h-25v-4z"></path>
<path d="M3 52h25v4h-25v-4z"></path>
<path d="M3 41h25v4h-25v-4z"></path>
<path d="M3 30h25v4h-25v-4z"></path>
<path d="M3 19h25v4h-25v-4z"></path>
</svg>
