<!-- Generated by IcoMoon.io -->
<svg version="1.1" xmlns="http://www.w3.org/2000/svg" width="64" height="64" viewBox="0 0 64 64">
<title>view-array</title>
<path d="M43 8h-22c-1.656 0.002-2.998 1.344-3 3v42c0.002 1.656 1.344 2.998 3 3h22c1.656-0.002 2.998-1.344 3-3v-42c-0.002-1.656-1.344-2.998-3-3h-0zM42 52h-20v-40h20z"></path>
<path d="M11 8h-6c-1.656 0.002-2.998 1.344-3 3v42c0.002 1.656 1.344 2.998 3 3h6c1.656-0.002 2.998-1.344 3-3v-42c-0.002-1.656-1.344-2.998-3-3h-0zM10 52h-4v-40h4z"></path>
<path d="M59 8h-6c-1.656 0.002-2.998 1.344-3 3v42c0.002 1.656 1.344 2.998 3 3h6c1.656-0.002 2.998-1.344 3-3v-42c-0.002-1.656-1.344-2.998-3-3h-0zM58 52h-4v-40h4z"></path>
</svg>
