<!-- Generated by IcoMoon.io -->
<svg version="1.1" xmlns="http://www.w3.org/2000/svg" width="64" height="64" viewBox="0 0 64 64">
<title>view-carousel</title>
<path d="M43 56h-22c-1.656-0.002-2.998-1.344-3-3v-42c0.002-1.656 1.344-2.998 3-3h22c1.656 0.002 2.998 1.344 3 3v42c-0.002 1.656-1.344 2.998-3 3h-0zM22 52h20v-40h-20z"></path>
<path d="M11 48h-6c-1.656-0.002-2.998-1.344-3-3v-26c0.002-1.656 1.344-2.998 3-3h6c1.656 0.002 2.998 1.344 3 3v26c-0.002 1.656-1.344 2.998-3 3h-0zM6 44h4v-24h-4z"></path>
<path d="M59 48h-6c-1.656-0.002-2.998-1.344-3-3v-26c0.002-1.656 1.344-2.998 3-3h6c1.656 0.002 2.998 1.344 3 3v26c-0.002 1.656-1.344 2.998-3 3h-0zM54 44h4v-24h-4z"></path>
</svg>
