<!-- Generated by IcoMoon.io -->
<svg version="1.1" xmlns="http://www.w3.org/2000/svg" width="64" height="64" viewBox="0 0 64 64">
<title>volume-high</title>
<path d="M18.172 15h-16.172v34h16.172l13 13h4.828v-60h-4.828zM6 19h10v26h-10zM32 57.172l-12-12v-26.343l12-12z"></path>
<path d="M51 32c-0.007-6.072-4.928-10.993-10.999-11h-0.001v4c3.866 0 7 3.134 7 7s-3.134 7-7 7v0 4c6.072-0.007 10.993-4.928 11-10.999v-0.001z"></path>
<path d="M40 7.181v4.035c10.163 1.46 18 10.224 18 20.785s-7.837 19.325-18 20.785v4.035c12.376-1.487 22-12.050 22-24.819s-9.624-23.332-22-24.819z"></path>
</svg>
