<!-- Generated by IcoMoon.io -->
<svg version="1.1" xmlns="http://www.w3.org/2000/svg" width="64" height="64" viewBox="0 0 64 64">
<title>walk</title>
<path d="M42.676 8.63c0.901 2.174-0.132 4.667-2.306 5.567s-4.667-0.132-5.567-2.306c-0.901-2.174 0.132-4.667 2.306-5.567s4.667 0.132 5.567 2.306z"></path>
<path d="M44.177 25l-3.926-7.067-7.573-2.58-9.703 3.528c-1.16 0.434-1.972 1.531-1.975 2.819v7.3h4v-6.599l6.101-2.219-11.274 34.818h4.202l6.26-19.476 0.984 0.321 4.726 8.665v10.49h4v-10.745c-0-0.527-0.136-1.022-0.374-1.452l0.008 0.015-4.695-8.608 3.619-11.089 2.409 4.335c0.523 0.927 1.501 1.543 2.622 1.543h6.412v-4z"></path>
</svg>
