<!-- Generated by IcoMoon.io -->
<svg version="1.1" xmlns="http://www.w3.org/2000/svg" width="64" height="64" viewBox="0 0 64 64">
<title>wallet</title>
<path d="M61.246 14.882c-0.54-0.545-1.289-0.882-2.117-0.882-0.003 0-0.006 0-0.009 0h-2.121v-5c-0.002-1.656-1.344-2.998-3-3h-43.172c0 0 0 0 0 0-4.876 0-8.828 3.953-8.828 8.828v0 34.343c0 4.876 3.953 8.828 8.828 8.828h48.175c1.652-0.003 2.991-1.339 3-2.989v-0.001l0.118-37.999c0-0.006 0-0.012 0-0.018 0-0.824-0.334-1.57-0.875-2.109l-0-0zM58.007 54h-47.178c-2.667 0-4.828-2.162-4.828-4.828v0-34.343c0-2.667 2.162-4.828 4.828-4.828h42.172v4h-42v4h47.118z"></path>
<path d="M49 33h4v4h-4v-4z"></path>
</svg>
