<!-- Generated by IcoMoon.io -->
<svg version="1.1" xmlns="http://www.w3.org/2000/svg" width="64" height="64" viewBox="0 0 64 64">
<title>waves</title>
<path d="M38.471 47.208c-1.846 1.128-4.081 1.796-6.471 1.796s-4.625-0.668-6.526-1.828l0.055 0.031c-2.434-1.487-5.378-2.367-8.529-2.367s-6.095 0.88-8.602 2.409l0.073-0.041c-1.848 1.123-4.082 1.788-6.471 1.789h-0v4.001c3.149-0.003 6.093-0.88 8.603-2.402l-0.074 0.042c1.846-1.128 4.081-1.796 6.471-1.796s4.625 0.668 6.526 1.827l-0.055-0.031c2.434 1.487 5.378 2.367 8.529 2.367s6.095-0.88 8.602-2.409l-0.073 0.041c1.846-1.128 4.081-1.796 6.471-1.796s4.625 0.668 6.526 1.827l-0.055-0.031c2.435 1.48 5.38 2.358 8.528 2.36h0.001v-4.001c-2.389-0.002-4.623-0.667-6.527-1.821l0.056 0.032c-2.434-1.487-5.379-2.367-8.529-2.367s-6.095 0.88-8.602 2.409l0.073-0.041z"></path>
<path d="M38.471 36.208c-1.846 1.128-4.081 1.796-6.471 1.796s-4.625-0.668-6.526-1.828l0.055 0.031c-2.434-1.487-5.378-2.367-8.529-2.367s-6.095 0.88-8.602 2.409l0.073-0.041c-1.848 1.123-4.082 1.788-6.471 1.789h-0v4.001c3.149-0.003 6.093-0.88 8.603-2.402l-0.074 0.042c1.846-1.128 4.081-1.796 6.471-1.796s4.625 0.668 6.526 1.827l-0.055-0.031c2.434 1.487 5.378 2.367 8.529 2.367s6.095-0.88 8.602-2.409l-0.073 0.041c1.846-1.128 4.081-1.796 6.471-1.796s4.625 0.668 6.526 1.827l-0.055-0.031c2.435 1.48 5.38 2.358 8.528 2.36h0.001v-4.001c-2.389-0.002-4.623-0.667-6.527-1.821l0.056 0.032c-2.434-1.487-5.379-2.367-8.529-2.367s-6.095 0.88-8.602 2.409l0.073-0.041z"></path>
<path d="M38.471 25.053c-1.846 1.128-4.081 1.796-6.471 1.796s-4.625-0.668-6.526-1.828l0.055 0.031c-2.434-1.487-5.378-2.367-8.529-2.367s-6.095 0.88-8.602 2.409l0.073-0.041c-1.848 1.123-4.082 1.788-6.471 1.789h-0v4.001c3.149-0.003 6.093-0.88 8.603-2.402l-0.074 0.042c1.846-1.128 4.081-1.796 6.471-1.796s4.625 0.668 6.526 1.827l-0.055-0.031c2.434 1.487 5.378 2.367 8.529 2.367s6.095-0.88 8.602-2.409l-0.073 0.041c1.846-1.128 4.081-1.796 6.471-1.796s4.625 0.668 6.526 1.827l-0.055-0.031c2.435 1.48 5.38 2.357 8.528 2.36h0.001v-4.001c-2.389-0.002-4.623-0.667-6.527-1.821l0.056 0.032c-2.434-1.487-5.379-2.367-8.529-2.367s-6.095 0.88-8.602 2.409l0.073-0.041z"></path>
<path d="M55.529 13.63c-2.434-1.487-5.379-2.367-8.529-2.367s-6.095 0.88-8.602 2.409l0.073-0.041c-1.846 1.128-4.081 1.796-6.471 1.796s-4.625-0.668-6.526-1.828l0.055 0.031c-2.434-1.487-5.378-2.367-8.529-2.367s-6.095 0.88-8.602 2.409l0.073-0.041c-1.848 1.123-4.082 1.788-6.471 1.789h-0v4.001c3.149-0.003 6.093-0.88 8.603-2.402l-0.074 0.042c1.846-1.128 4.081-1.796 6.471-1.796s4.625 0.668 6.526 1.827l-0.055-0.031c2.434 1.487 5.378 2.367 8.529 2.367s6.095-0.88 8.602-2.409l-0.073 0.041c1.846-1.128 4.081-1.796 6.471-1.796s4.625 0.668 6.526 1.827l-0.055-0.031c2.435 1.48 5.38 2.358 8.528 2.36h0.001v-4.001c-2.389-0.002-4.623-0.667-6.527-1.821l0.056 0.032z"></path>
</svg>
