<!-- Generated by IcoMoon.io -->
<svg version="1.1" xmlns="http://www.w3.org/2000/svg" width="64" height="64" viewBox="0 0 64 64">
<title>wheelchair</title>
<path d="M29 10.261c0 2.353-1.908 4.261-4.261 4.261s-4.261-1.908-4.261-4.261c0-2.353 1.908-4.261 4.261-4.261s4.261 1.908 4.261 4.261z"></path>
<path d="M54.515 47.060l-5.993 1.498-2.397-11.187c-0.305-1.362-1.501-2.365-2.933-2.371h-11.089l-0.808-7h13.704v-4h-14.166l-0.517-4.478c-0.178-1.502-1.445-2.656-2.98-2.656-0.121 0-0.241 0.007-0.358 0.021l0.014-0.001-4.967 0.573 2.486 21.541h17.871l3.095 14.442 10.007-2.502z"></path>
<path d="M25 58c-0 0-0 0-0.001 0-8.284 0-14.999-6.715-14.999-14.999 0-6.245 3.817-11.599 9.245-13.856l0.099-0.037-0.472-4.094c-7.479 2.555-12.872 9.652-12.872 17.986 0 10.477 8.523 19 19 19 6.859-0.004 12.869-3.64 16.208-9.089l0.047-0.083-1.255-5.828c-2 6-7.675 11-15 11z"></path>
</svg>
