<!-- Generated by IcoMoon.io -->
<svg version="1.1" xmlns="http://www.w3.org/2000/svg" width="64" height="64" viewBox="0 0 64 64">
<title>wifi</title>
<path d="M62 16.311c-8.388-5.828-18.787-9.311-30-9.311s-21.612 3.483-30.175 9.426l0.175-0.115v4.332l27.558 39.358h4.883l27.558-39.358zM32 56.513l-9.169-13.095c2.644-1.488 5.804-2.365 9.169-2.365s6.525 0.877 9.264 2.414l-0.095-0.049zM43.473 40.127c-3.291-1.933-7.249-3.074-11.473-3.074s-8.182 1.141-11.582 3.133l0.108-0.059-6.080-8.683c4.994-3.115 11.058-4.963 17.553-4.963s12.559 1.847 17.695 5.045l-0.142-0.082zM51.85 28.164c-5.636-3.566-12.496-5.682-19.85-5.682s-14.215 2.116-20.005 5.773l0.155-0.091-6.594-9.417c7.477-4.858 16.623-7.747 26.444-7.747s18.967 2.889 26.635 7.863l-0.191-0.116z"></path>
</svg>
