<!-- Generated by IcoMoon.io -->
<svg version="1.1" xmlns="http://www.w3.org/2000/svg" width="64" height="64" viewBox="0 0 64 64">
<title>yen-circle-slash</title>
<path d="M21.881 8.042c2.982-1.291 6.455-2.042 10.103-2.042 14.369 0 26.017 11.648 26.017 26.017 0 3.648-0.751 7.12-2.106 10.272l0.065-0.169q-0.492 1.163-1.089 2.265l2.93 2.93c2.639-4.363 4.2-9.635 4.2-15.27 0-0.016 0-0.031-0-0.046v0.002c0-16.569-13.431-30-30-30-0.013 0-0.029-0-0.044-0-5.636 0-10.907 1.561-15.404 4.275l0.134-0.075 2.93 2.93q1.102-0.597 2.265-1.089z"></path>
<path d="M34.102 23.617l2.867 2.867 6.658-9.322-3.255-2.325-6.271 8.779z"></path>
<path d="M34.612 29.784l-27.784-27.784h-2.828v2.828l6.377 6.377c-5.184 5.369-8.377 12.689-8.377 20.755 0 0.014 0 0.028 0 0.041v-0.002c0 16.569 13.431 30 30 30 0.012 0 0.025 0 0.039 0 8.066 0 15.386-3.194 20.764-8.386l-0.009 0.008 6.378 6.377h2.828v-2.828l-26.68-26.68zM49.966 50.794c-4.662 4.47-11 7.221-17.982 7.221-14.359 0-25.999-11.64-25.999-25.999 0-6.982 2.752-13.321 7.23-17.991l-0.009 0.009 16.966 16.966h-8.172v4h8v4h-8v4h8v7h4v-7h8.172zM34 39v-4h0.172l4 4z"></path>
</svg>
