<!-- Generated by IcoMoon.io -->
<svg version="1.1" xmlns="http://www.w3.org/2000/svg" width="64" height="64" viewBox="0 0 64 64">
<title>accessible</title>
<path d="M56 9.261c0 2.353-1.908 4.261-4.261 4.261s-4.261-1.908-4.261-4.261c0-2.353 1.908-4.261 4.261-4.261s4.261 1.908 4.261 4.261z"></path>
<path d="M49.795 28.909h-12.047l9.959-9.959c0.543-0.543 0.879-1.293 0.879-2.121s-0.336-1.578-0.879-2.121l-3.535-3.536-0.056 0.056-8.040-8.249c-0.574-0.584-1.373-0.946-2.256-0.946-0.841 0-1.605 0.328-2.172 0.864l0.002-0.001-8.894 8.457 2.756 2.899 8.285-7.879 7.49 7.684-10.89 10.89c-1.867-0.674-4.022-1.063-6.268-1.063-4.531 0-8.692 1.586-11.958 4.233l0.035-0.028 2.848 2.848c2.484-1.906 5.637-3.054 9.057-3.054 0.195 0 0.389 0.004 0.582 0.011l-0.028-0.001c7.842 0.277 14.204 6.639 14.481 14.481 0.007 0.165 0.010 0.359 0.010 0.554 0 3.421-1.148 6.573-3.080 9.093l0.026-0.036 2.848 2.848c2.619-3.229 4.205-7.388 4.205-11.918 0-3.705-1.061-7.163-2.896-10.085l0.046 0.079h8.639v17.546h4v-18.397c0 0 0 0 0 0 0-1.74-1.41-3.15-3.15-3.15 0 0-0 0-0 0v0zM37.494 29.384c-0.037-0.037-0.075-0.073-0.112-0.109l0.112-0.112z"></path>
<path d="M24.124 57.947c-0.003 0-0.006 0-0.009 0-8.297 0-15.023-6.726-15.023-15.023 0-3.468 1.175-6.661 3.148-9.204l-0.025 0.034-2.846-2.846c-2.663 3.237-4.277 7.425-4.277 11.989 0 0.006 0 0.012 0 0.019v-0.001c0 10.494 8.538 19.032 19.032 19.032 0.005 0 0.012 0 0.018 0 4.564 0 8.752-1.614 12.022-4.303l-0.033 0.026-2.846-2.846c-2.5 1.948-5.686 3.123-9.146 3.123-0.005 0-0.010 0-0.016 0h0.001z"></path>
</svg>
