<!-- Generated by IcoMoon.io -->
<svg version="1.1" xmlns="http://www.w3.org/2000/svg" width="64" height="64" viewBox="0 0 64 64">
<title>airplane-mode-off</title>
<path d="M28 14.236c0-0.003 0-0.007 0-0.011 0-2.824 1.279-5.349 3.288-7.028l0.015-0.012c0.187-0.157 0.431-0.253 0.697-0.253s0.51 0.095 0.699 0.254l-0.002-0.001c2.024 1.691 3.303 4.216 3.303 7.040 0 0.004 0 0.008 0 0.012v-0.001 11.5l20.739 10.37-0.334 1.669-10.867-1.417 4.639 4.639 9.417 1.228 1.666-8.331-21.261-10.63v-9.028c0-0.005 0-0.011 0-0.016 0-4.054-1.836-7.68-4.721-10.091l-0.021-0.017c-0.876-0.734-2.015-1.18-3.258-1.18s-2.382 0.446-3.266 1.186l0.008-0.006c-2.906 2.428-4.742 6.054-4.742 10.108 0 0.006 0 0.011 0 0.017v-0.001 0.584l4 4z"></path>
<path d="M4.815 2h-2.811v2.832l19.621 19.62-18.885 9.443 1.666 8.331 19.649-2.563 0.967 10.153-9.021 3.866v8.319h32v-8.319l-9.021-3.866 0.697-7.313 19.499 19.498h2.825v-2.818zM44 56.319v1.681h-24v-1.681l9.28-3.977-1.28-13.437v-3.791l-20.405 2.662-0.334-1.669 17.345-8.673 11.394 11.393v0.079l-1.28 13.437z"></path>
</svg>
