<!-- Generated by IcoMoon.io -->
<svg version="1.1" xmlns="http://www.w3.org/2000/svg" width="64" height="64" viewBox="0 0 64 64">
<title>alarm-off</title>
<path d="M39.871 4.651l2.259-3.301 19 13-2.259 3.301-19-13z"></path>
<path d="M24.129 4.651l-2.259-3.301-7.146 4.89 2.878 2.878 6.527-4.466z"></path>
<path d="M23.985 15.5c2.369-0.949 5.115-1.5 7.989-1.5 12.164 0 22.025 9.861 22.025 22.025 0 2.875-0.551 5.621-1.552 8.138l0.052-0.149 3.038 3.038c1.554-3.228 2.462-7.018 2.462-11.020 0-0.012 0-0.023 0-0.035v0.002c0-14.359-11.641-26-26-26-0.010 0-0.021 0-0.033 0-4.002 0-7.792 0.908-11.176 2.529l0.156-0.067z"></path>
<path d="M4.828 2h-2.828v2.828l6.007 6.007-5.136 3.514 2.259 3.301 5.755-3.938 3.329 3.329c-5.060 4.743-8.213 11.468-8.213 18.93 0 0.010 0 0.020 0 0.030v-0.002c0 14.359 11.641 26 26 26 0.008 0 0.018 0 0.027 0 7.462 0 14.188-3.153 18.917-8.2l0.013-0.014 8.214 8.214h2.828v-2.828zM47.556 51.556c-3.981 3.981-9.481 6.444-15.556 6.444-12.15 0-22-9.85-22-22 0-6.075 2.462-11.575 6.444-15.556v0c0.196-0.196 0.396-0.386 0.598-0.573l31.088 31.088q-0.281 0.303-0.574 0.598z"></path>
</svg>
