<!-- Generated by IcoMoon.io -->
<svg version="1.1" xmlns="http://www.w3.org/2000/svg" width="64" height="64" viewBox="0 0 64 64">
<title>aperture</title>
<path d="M32.086 2.092c-16.52 0-29.912 13.392-29.912 29.912 0 8.26 3.348 15.738 8.761 21.151v0c5.413 5.413 12.891 8.761 21.151 8.761 16.52 0 29.912-13.392 29.912-29.912 0-8.26-3.348-15.738-8.761-21.151v0c-5.383-5.412-12.836-8.761-21.070-8.761-0.029 0-0.057 0-0.086 0h0.004zM57.998 32.004c0 0.009 0 0.020 0 0.031 0 4.306-1.057 8.365-2.925 11.932l0.068-0.142 1.686 2.917-3.463 2.002-0.634-1.097c-4.514 5.922-11.424 9.819-19.258 10.234l-0.064 0.003-1.699 2.971-3.472-1.986 0.657-1.148c-7.831-1.008-14.475-5.379-18.527-11.593l-0.061-0.1h-3.387v-4h1.273c-1.276-2.958-2.018-6.402-2.018-10.019 0-4.355 1.076-8.46 2.976-12.061l-0.068 0.141-1.66-2.89 3.469-1.992 0.616 1.073c4.531-5.896 11.449-9.765 19.282-10.154l0.061-0.002 1.697-2.951 3.468 1.993-0.652 1.134c7.806 1.031 14.421 5.401 18.457 11.603l0.061 0.1h3.454v4h-1.345c1.27 2.945 2.009 6.374 2.009 9.976 0 0.009 0 0.019 0 0.028v-0.002z"></path>
<path d="M57.333 18.002h-28.7l-2.3 4h11.57l-0.626-1.083 3.463-2.002 1.784 3.085h14.81v-4z"></path>
<path d="M40.739 18.916l-3.463 2.002 6.365 11.010 0.555-0.97 3.472 1.986-1.711 2.991 7.406 12.809 3.463-2.002-16.087-27.826z"></path>
<path d="M47.669 32.944l-3.472-1.986-6.33 11.069h1.099v4h-3.386l-7.343 12.841 3.472 1.986 15.961-27.91z"></path>
<path d="M38.966 46.027v-4h-12.674l0.601 1.046-3.469 1.992-1.745-3.038h-14.762v4h32.048z"></path>
<path d="M23.424 45.065l3.469-1.992-6.333-11.029-0.592 1.030-3.468-1.994 1.754-3.051-7.364-12.824-3.469 1.992 16.003 27.868z"></path>
<path d="M16.5 31.081l3.468 1.994 16.045-27.91-3.468-1.994-16.045 27.91z"></path>
</svg>
