<!-- Generated by IcoMoon.io -->
<svg version="1.1" xmlns="http://www.w3.org/2000/svg" width="64" height="64" viewBox="0 0 64 64">
<title>arrow-thick-circle-left</title>
<path d="M35.998 14h-4.878l-18.027 17.978 17.999 18.020 4.908 0.003-0.001-10.001h10v-16h-10.001zM42 36h-10.001l0.001 9.247-13.248-13.263 13.246-13.21 0 9.227h10.001z"></path>
<path d="M53.213 10.787c-5.429-5.429-12.929-8.787-21.213-8.787-16.569 0-30 13.431-30 30 0 8.284 3.358 15.784 8.787 21.213v0c5.429 5.429 12.929 8.787 21.213 8.787 16.569 0 30-13.431 30-30 0-8.284-3.358-15.784-8.787-21.213v0zM32 58c-14.336 0-26-11.664-26-26s11.664-26 26-26 26 11.664 26 26-11.664 26-26 26z"></path>
</svg>
