<!-- Generated by IcoMoon.io -->
<svg version="1.1" xmlns="http://www.w3.org/2000/svg" width="64" height="64" viewBox="0 0 64 64">
<title>arrow-thick-square-down</title>
<path d="M49.998 32.831l0.003-4.831-10.001 0v-12h-16v12.001l-10 0v4.8l17.978 18.027zM28 32.001v-12.001h8v12.001l9.17-0.001-13.186 13.17-13.133-13.169z"></path>
<path d="M59 2h-54c-1.656 0.002-2.998 1.344-3 3v54c0.002 1.656 1.344 2.998 3 3h54c1.656-0.002 2.998-1.344 3-3v-54c-0.002-1.656-1.344-2.998-3-3h-0zM58 58h-52v-52h52z"></path>
</svg>
