<!-- Generated by IcoMoon.io -->
<svg version="1.1" xmlns="http://www.w3.org/2000/svg" width="64" height="64" viewBox="0 0 64 64">
<title>arrow-thick-square-right</title>
<path d="M28.002 50h4.8l18.027-17.978-17.999-18.020-4.831-0.002 0 10.001h-12v16h12.001zM20 28h12.001l-0.001-9.17 13.17 13.186-13.169 13.133-0.001-9.149h-12.001z"></path>
<path d="M59 2h-54c-1.656 0.002-2.998 1.344-3 3v54c0.002 1.656 1.344 2.998 3 3h54c1.656-0.002 2.998-1.344 3-3v-54c-0.002-1.656-1.344-2.998-3-3h-0zM58 58h-52v-52h52z"></path>
</svg>
