<!-- Generated by IcoMoon.io -->
<svg version="1.1" xmlns="http://www.w3.org/2000/svg" width="64" height="64" viewBox="0 0 64 64">
<title>audio-description</title>
<path d="M59 8h-54c-1.656 0.002-2.998 1.344-3 3v42c0.002 1.656 1.344 2.998 3 3h54c1.656-0.002 2.998-1.344 3-3v-42c-0.002-1.656-1.344-2.998-3-3h-0zM58 52h-52v-40h52z"></path>
<path d="M53 32.917v-1.833c-0.007-5.566-4.517-10.077-10.083-10.083h-7.917v22h7.917c5.566-0.007 10.077-4.517 10.083-10.083v-0.001zM39 25h3.917c3.358 0.004 6.079 2.725 6.083 6.083v1.834c-0.004 3.358-2.725 6.079-6.083 6.083h-3.917z"></path>
<path d="M16.775 36h7.45l2.333 7h4.216l-7.333-22h-5.883l-7.333 22h4.216zM20.442 25h0.117l2.333 7h-4.784z"></path>
</svg>
