<!-- Generated by IcoMoon.io -->
<svg version="1.1" xmlns="http://www.w3.org/2000/svg" width="64" height="64" viewBox="0 0 64 64">
<title>balance-scale-left</title>
<path d="M11.734 31.875l-9.734 20.55v3.38l0.529 0.574c2.845 3.074 6.899 4.993 11.402 4.998h0.001c0.018 0 0.035 0 0.053-0 4.521-0.021 8.583-1.969 11.41-5.064l0.011-0.012 0.594-0.654v-3.223l-9.734-20.55zM22 54.076c-2.054 2.040-4.884 3.301-8.009 3.301-0.007 0-0.014 0-0.021 0h0.001c-0.014 0-0.027 0-0.041 0-0.017 0-0.037 0-0.057 0-3.058 0-5.834-1.208-7.877-3.173l0.004 0.004v-0.884l8-16.889 8 16.889z"></path>
<path d="M52.266 16.875h-4.531l-9.734 20.55v3.38l0.529 0.574c2.845 3.074 6.899 4.993 11.402 4.998h0.001c0.017 0 0.035 0 0.053-0 4.521-0.021 8.583-1.969 11.41-5.064l0.011-0.012 0.594-0.654v-3.223zM58 39.076c-2.054 2.040-4.884 3.301-8.009 3.301-0.007 0-0.014 0-0.021 0h0.001c-0.014 0-0.027 0-0.041 0-0.017 0-0.037 0-0.057 0-3.058 0-5.834-1.208-7.877-3.173l0.004 0.004v-0.884l8-16.889 8 16.889z"></path>
<path d="M34 24.582c2.915-0.887 5-3.552 5-6.704 0-0.264-0.015-0.525-0.043-0.782l0.003 0.032 13.040-5.641v-4.358l-14.589 6.311c-1.293-1.569-3.237-2.561-5.412-2.561-3.865 0-6.999 3.134-6.999 6.999 0 0.249 0.013 0.495 0.038 0.738l-0.003-0.030-13.036 5.315v4.32l14.565-5.939c0.875 1.073 2.044 1.876 3.385 2.289l0.050 0.013v37.293h17v-4h-13zM29 17.875c0-1.657 1.343-3 3-3s3 1.343 3 3c0 1.657-1.343 3-3 3v0c-1.657 0-3-1.343-3-3v0z"></path>
</svg>
