<!-- Generated by IcoMoon.io -->
<svg version="1.1" xmlns="http://www.w3.org/2000/svg" width="64" height="64" viewBox="0 0 64 64">
<title>balance-scale-right</title>
<path d="M37.434 22.281l14.566 5.939v-4.32l-13.036-5.315c0.023-0.214 0.036-0.461 0.036-0.712 0-3.865-3.133-6.997-6.997-6.997-2.177 0-4.121 0.994-5.405 2.553l-0.010 0.012-14.589-6.311v4.358l13.040 5.641c-0.026 0.225-0.040 0.486-0.040 0.75 0 3.152 2.085 5.817 4.95 6.691l0.050 0.013v33.293h-13v4h17v-37.293c1.39-0.425 2.559-1.228 3.425-2.289l0.010-0.013zM32 20.875c-1.657 0-3-1.343-3-3s1.343-3 3-3c1.657 0 3 1.343 3 3v0c0 1.657-1.343 3-3 3v0z"></path>
<path d="M52.266 31.875h-4.531l-9.734 20.55v3.223l0.594 0.654c2.838 3.107 6.9 5.055 11.417 5.076h0.004c0.018 0 0.035 0 0.053 0 4.504-0.005 8.558-1.924 11.394-4.988l0.009-0.010 0.529-0.574v-3.38zM58 54.208c-2.039 1.961-4.815 3.169-7.873 3.169-0.020 0-0.040-0-0.060-0h0.003c-0.014 0-0.028 0-0.041-0-0.006 0-0.012 0-0.019 0-3.125 0-5.956-1.261-8.010-3.302l0.001 0.001v-0.751l8-16.889 8 16.889z"></path>
<path d="M25.471 41.38l0.529-0.574v-3.38l-9.734-20.55h-4.531l-9.734 20.55v3.223l0.594 0.654c2.838 3.107 6.9 5.055 11.417 5.076h0.004c0.018 0 0.035 0 0.053 0 4.504-0.005 8.558-1.924 11.394-4.988l0.009-0.010zM22 39.208c-2.039 1.961-4.815 3.169-7.873 3.169-0.020 0-0.040-0-0.060-0h0.003c-0.014 0-0.028 0-0.041-0-0.006 0-0.012 0-0.019 0-3.125 0-5.955-1.261-8.010-3.302l0.001 0.001v-0.751l8-16.889 8 16.889z"></path>
</svg>
