<!-- Generated by IcoMoon.io -->
<svg version="1.1" xmlns="http://www.w3.org/2000/svg" width="64" height="64" viewBox="0 0 64 64">
<title>bath</title>
<path d="M58 35h-48v-22.5c0-0.005 0-0.011 0-0.017 0-1.776 0.722-3.382 1.889-4.543l0-0 0.050-0.050c1.169-1.167 2.783-1.889 4.565-1.889 1.002 0 1.952 0.228 2.798 0.636l-0.039-0.017c-0.888 1.454-1.414 3.214-1.414 5.096 0 2.726 1.103 5.194 2.887 6.982l1.369 1.369-2.52 2.52 2.828 2.828 19-19-2.828-2.828-2.52 2.52-1.369-1.369c-1.788-1.783-4.255-2.886-6.98-2.886-2.108 0-4.063 0.66-5.667 1.785l0.032-0.021c-1.581-1.013-3.511-1.615-5.581-1.615-2.886 0-5.498 1.17-7.39 3.061v0l-0.050 0.050c-1.891 1.881-3.061 4.484-3.061 7.361 0 0.010 0 0.020 0 0.030v-0.002 22.5h-4v4h4v3.838c0 0 0 0.001 0 0.001 0 0.339 0.056 0.665 0.16 0.969l-0.006-0.021 3.721 11.162c0.408 1.202 1.526 2.051 2.843 2.051 0.001 0 0.002 0 0.003 0h1.612l-1.458 5h4.167l1.458-5h26.012l1.5 5h4.176l-1.5-5h2.591c0.001 0 0.002 0 0.003 0 1.317 0 2.435-0.849 2.837-2.030l0.006-0.021 3.721-11.162c0.098-0.283 0.154-0.609 0.154-0.948 0-0 0-0.001 0-0.001v0-3.838h4v-4zM23.565 7.565c1.063-1.061 2.531-1.717 4.152-1.717s3.089 0.656 4.152 1.717l1.369 1.369-8.304 8.304-1.369-1.369c-1.061-1.063-1.717-2.531-1.717-4.152s0.656-3.089 1.717-4.152l-0 0zM54 42.675l-3.441 10.325h-37.117l-3.441-10.325v-3.675h44z"></path>
</svg>
