<!-- Generated by IcoMoon.io -->
<svg version="1.1" xmlns="http://www.w3.org/2000/svg" width="64" height="64" viewBox="0 0 64 64">
<title>beaker</title>
<path d="M57 44.309c0-0.001 0-0.002 0-0.003 0-0.635-0.198-1.224-0.536-1.708l0.006 0.010-13.47-19.544v-7.939h5c1.656-0.002 2.998-1.344 3-3v-10.125h-38v10.125c0.002 1.656 1.344 2.998 3 3h4.99v8.078l-13.455 19.402c-0.335 0.476-0.535 1.067-0.535 1.705 0 0.002 0 0.003 0 0.004v-0 14.676c0.002 1.656 1.344 2.998 2.999 3l44.006 0.010c1.657-0 3-1.343 3-3 0-0 0-0.001 0-0.001v0zM24.99 24.454v-13.329h-7.99v-5.125h30v5.125h-8v13.184l8.058 11.691h-30.076zM11 57.99v-13.364l3.208-4.626h35.607l3.185 4.621 0.004 13.378z"></path>
</svg>
