<!-- Generated by IcoMoon.io -->
<svg version="1.1" xmlns="http://www.w3.org/2000/svg" width="64" height="64" viewBox="0 0 64 64">
<title>bell-slash</title>
<path d="M32.115 8.063c8.28 0.010 14.99 6.72 15 14.999v11.508l4.947 9.132 3.725 3.725c0.29-0.229 0.532-0.504 0.719-0.815l0.008-0.014c0.268-0.438 0.426-0.968 0.426-1.535 0-0.524-0.136-1.017-0.374-1.445l0.008 0.015-5.459-10.078v-10.493c0-10.477-8.523-19-19-19-0.002 0-0.005 0-0.008 0-5.415 0-10.3 2.272-13.753 5.915l-0.008 0.008 2.828 2.828c2.738-2.927 6.623-4.751 10.935-4.751 0.002 0 0.005 0 0.007 0h-0z"></path>
<path d="M4.766 2.063h-2.828v2.828l12.155 12.155c-0.619 1.791-0.977 3.855-0.977 6.002 0 0.005 0 0.011 0 0.016v-0.001 10.493l-5.459 10.078c-0.228 0.413-0.362 0.905-0.362 1.429 0 1.657 1.343 3 3 3h10.867c-0.030 0.33-0.046 0.663-0.046 1 0 6.075 4.925 11 11 11s11-4.925 11-11v0c0-0.337-0.016-0.67-0.046-1h2.040l14 14h2.828v-2.828zM32.115 56.063c-0.002 0-0.004 0-0.005 0-3.863 0-6.995-3.132-6.995-6.995 0-0.355 0.026-0.703 0.077-1.044l-0.005 0.038h13.855c0.046 0.302 0.073 0.651 0.073 1.005 0 3.863-3.132 6.995-6.995 6.995-0.002 0-0.004 0-0.006 0h0zM11.973 44.063l5.142-9.493v-11.507c0-0.001 0-0.001 0-0.002 0-0.969 0.092-1.916 0.267-2.834l-0.015 0.094 23.742 23.742z"></path>
</svg>
