<!-- Generated by IcoMoon.io -->
<svg version="1.1" xmlns="http://www.w3.org/2000/svg" width="64" height="64" viewBox="0 0 64 64">
<title>bike</title>
<path d="M14.5 33.5c-6.904 0-12.5 5.596-12.5 12.5s5.596 12.5 12.5 12.5c6.904 0 12.5-5.596 12.5-12.5v0c-0.008-6.9-5.6-12.492-12.499-12.5h-0.001zM14.5 54.5c-4.694 0-8.5-3.806-8.5-8.5s3.806-8.5 8.5-8.5c4.694 0 8.5 3.806 8.5 8.5v0c-0.006 4.692-3.808 8.495-8.499 8.5h-0.001z"></path>
<path d="M49.5 33.5c-6.904 0-12.5 5.596-12.5 12.5s5.596 12.5 12.5 12.5c6.904 0 12.5-5.596 12.5-12.5v0c-0.008-6.9-5.6-12.492-12.499-12.5h-0.001zM49.5 54.5c-4.694 0-8.5-3.806-8.5-8.5s3.806-8.5 8.5-8.5c4.694 0 8.5 3.806 8.5 8.5v0c-0.005 4.692-3.808 8.495-8.499 8.5h-0.001z"></path>
<path d="M44 11.761c0 2.353-1.908 4.261-4.261 4.261s-4.261-1.908-4.261-4.261c0-2.353 1.908-4.261 4.261-4.261s4.261 1.908 4.261 4.261z"></path>
<path d="M42.275 29.596c0.546 0.556 1.306 0.902 2.146 0.904h3.579v-4h-3.158l-11.561-11.836-0.059 0.058-1.050-1.050-14 14 5.657 5.657 0.041-0.041 6.131 6.049v11.164h4v-11.582c-0.002-0.835-0.343-1.59-0.893-2.135l-0-0-6.409-6.323 8.307-8.307z"></path>
</svg>
