<!-- Generated by IcoMoon.io -->
<svg version="1.1" xmlns="http://www.w3.org/2000/svg" width="64" height="64" viewBox="0 0 64 64">
<title>bike-alt</title>
<path d="M49.5 27c-0.648 0-1.285 0.049-1.906 0.144l0.070-0.009-5.239-15.135h-10.424v4h7.576l2.769 8h-18.551l-1.143-4h3.349v-4h-12v4h4.491l1.545 5.406-1.328 2.324c-1.261-0.468-2.718-0.738-4.238-0.738-6.92 0-12.53 5.61-12.53 12.53s5.61 12.53 12.53 12.53c6.92 0 12.53-5.61 12.53-12.53 0-3.987-1.863-7.54-4.765-9.835l-0.026-0.020 0.952-1.666h20.569l0.121 0.351c-4.094 2.109-6.845 6.306-6.845 11.146 0 6.902 5.595 12.497 12.497 12.497s12.497-5.595 12.497-12.497c0-6.902-5.595-12.497-12.497-12.497-0.001 0-0.002 0-0.003 0h0zM23 39.5c0 0 0 0.001 0 0.001 0 4.695-3.806 8.501-8.501 8.501s-8.501-3.806-8.501-8.501c0-4.695 3.806-8.501 8.501-8.501 0.775 0 1.525 0.104 2.238 0.298l-0.060-0.014-4.414 7.724 3.473 1.985 4.456-7.798c1.727 1.559 2.807 3.805 2.807 6.303 0 0.001 0 0.002 0 0.003v-0zM49.5 48c-0.001 0-0.002 0-0.003 0-4.693 0-8.497-3.804-8.497-8.497 0-3.1 1.66-5.812 4.14-7.296l0.039-0.021 2.932 8.469 3.78-1.308-2.884-8.33c0.163-0.009 0.328-0.015 0.494-0.015 4.694 0 8.5 3.806 8.5 8.5s-3.806 8.5-8.5 8.5v0z"></path>
</svg>
