<!-- Generated by IcoMoon.io -->
<svg version="1.1" xmlns="http://www.w3.org/2000/svg" width="64" height="64" viewBox="0 0 64 64">
<title>bluetooth-searching</title>
<path d="M29.757 2h-4.828v25.172l-10.172-10.172h-5.657l15 15-15 15h5.657l10.172-10.172v25.172h4.828l15-15-15-15 15-15zM39.101 47l-10.172 10.172v-20.343zM28.929 27.172v-20.343l10.172 10.172z"></path>
<path d="M37.929 32.037l4.268 4.268c1.092-1.092 1.768-2.601 1.768-4.268s-0.676-3.176-1.768-4.268v0z"></path>
<path d="M48.382 21.584l-2.843 2.843c1.534 1.916 2.461 4.375 2.461 7.051 0 2.955-1.131 5.645-2.983 7.663l0.007-0.008 2.83 2.83c2.568-2.735 4.146-6.426 4.146-10.486 0-3.781-1.368-7.242-3.636-9.915l0.018 0.022z"></path>
</svg>
