<!-- Generated by IcoMoon.io -->
<svg version="1.1" xmlns="http://www.w3.org/2000/svg" width="64" height="64" viewBox="0 0 64 64">
<title>boat</title>
<path d="M56.335 52.030c-0.827-0.569-1.789-1.020-2.822-1.301l-0.066-0.015 6.008-21.029-9.456-3.026v-12.66c-0.003-2.208-1.792-3.997-4-4h-5v-8h-18v8h-5c-2.208 0.003-3.997 1.792-4 4v12.66l-9.456 3.026 5.921 20.724c-1.88 0.198-3.561 0.921-4.93 2.019l0.019-0.014-3.554 2.83v5.113l6.046-4.813c0.922-0.739 2.106-1.185 3.395-1.185 1.365 0 2.613 0.502 3.57 1.331l-0.007-0.006 0.088 0.076c1.647 1.429 3.811 2.3 6.179 2.3s4.532-0.871 6.19-2.309l-0.012 0.010c0.948-0.827 2.197-1.331 3.563-1.331 1.324 0 2.538 0.474 3.481 1.261l-0.009-0.007 0.496 0.41c1.623 1.344 3.726 2.16 6.020 2.16 2.278 0 4.369-0.805 6.003-2.145l-0.017 0.013 0.593-0.486c0.934-0.763 2.14-1.225 3.454-1.225 1.14 0 2.199 0.348 3.075 0.943l-0.019-0.012 7.909 5.361v-4.832zM54.545 32.314l-1.602 5.608-18.942-6.062v-6.12zM27 6h10v4h-10zM18 14h28v11.38l-14-4.48-14 4.48zM30 25.74v6.12l-18.942 6.062-1.602-5.608zM25.801 52c-0.365 0.243-0.68 0.484-0.979 0.743l0.012-0.010c-0.952 0.818-2.2 1.316-3.563 1.316s-2.611-0.498-3.57-1.322l0.007 0.006-0.088-0.076c-0.806-0.696-1.744-1.266-2.768-1.665l-0.065-0.022-2.628-9.2 17.843-5.71v14.422c-1.582 0.175-3.009 0.718-4.233 1.54l0.034-0.021zM45.776 52c-0.25 0.168-0.494 0.347-0.73 0.54l-0.593 0.486c-0.933 0.766-2.138 1.23-3.452 1.23-1.323 0-2.536-0.47-3.481-1.253l0.009 0.007-0.496-0.41c-0.237-0.197-0.502-0.394-0.776-0.577l-0.035-0.022c-0.639-0.431-1.374-0.798-2.155-1.066l-0.066-0.020v-14.854l17.843 5.71-2.511 8.787c-1.347 0.248-2.544 0.753-3.588 1.464l0.032-0.021z"></path>
</svg>
