<!-- Generated by IcoMoon.io -->
<svg version="1.1" xmlns="http://www.w3.org/2000/svg" width="64" height="64" viewBox="0 0 64 64">
<title>book</title>
<path d="M12.708 50h45.292v-48h-45.417c-4.183 0.014-7.569 3.401-7.583 7.582v44.199h0.001c-0 0.019-0.001 0.038-0.001 0.057 0 4.424 3.473 8.162 7.583 8.162h45.417v-4h-45.417c-1.875 0-3.583-1.984-3.583-4.162 0-2.080 1.698-3.838 3.708-3.838zM45 6.042v21.602l-6.050-5.311-5.95 5.28v-21.571zM29 6v27h3.955l6.009-5.332 6.074 5.332h3.962v-27h5v40h-36.99l-0.009-40zM12.583 6h0.417l0.009 40h-0.302c-1.364 0-2.643 0.366-3.744 1.005l0.036-0.019v-37.371c0-0.003 0-0.007 0-0.011 0-1.983 1.602-3.592 3.582-3.603h0.001z"></path>
</svg>
