<!-- Generated by IcoMoon.io -->
<svg version="1.1" xmlns="http://www.w3.org/2000/svg" width="64" height="64" viewBox="0 0 64 64">
<title>book-open</title>
<path d="M43.763 2c-4.708 0.006-8.921 2.122-11.744 5.453l-0.018 0.022c-2.842-3.353-7.055-5.469-11.762-5.475h-18.238v44h15.456c4.397 0.014 8.149 2.762 9.647 6.631l0.024 0.071 0.487 1.298h8.772l0.487-1.298c1.522-3.941 5.274-6.688 9.67-6.702h15.458v-44zM22 6v18.507l-4.041-3.007-3.959 2.993v-18.493zM25.618 44.552c-2.272-1.597-5.095-2.552-8.142-2.552-0.007 0-0.014 0-0.021 0h-11.455v-36h4v23h4.671l3.307-2.5 3.36 2.5h4.662v-21.427c1.655 0.983 3.004 2.321 3.971 3.915l0.029 0.050v37.865c-1.094-1.962-2.569-3.587-4.336-4.821l-0.046-0.031zM58 42h-11.456c-0 0-0 0-0 0-5.372 0-10.054 2.956-12.507 7.331l-0.037 0.072v-37.865c2.026-3.337 5.637-5.533 9.762-5.539h14.238z"></path>
<path d="M43.382 52.552c-1.995 1.39-3.588 3.225-4.657 5.366l-0.037 0.083h-13.375c-2.391-4.777-7.247-8-12.857-8h-10.456v4h10.456c4.397 0.014 8.149 2.762 9.647 6.631l0.024 0.071 0.487 1.298h18.772l0.487-1.298c1.522-3.941 5.274-6.688 9.67-6.702h10.458v-4h-10.456c-0.006 0-0.013 0-0.020 0-3.047 0-5.87 0.955-8.187 2.582l0.046-0.030z"></path>
</svg>
