<!-- Generated by IcoMoon.io -->
<svg version="1.1" xmlns="http://www.w3.org/2000/svg" width="64" height="64" viewBox="0 0 64 64">
<title>border-clear</title>
<path d="M55 59h4v-4h-4v4z"></path>
<path d="M38.273 59h4.182v-4h-4.182v4z"></path>
<path d="M21.546 59h4.182v-4h-4.182v4z"></path>
<path d="M46.636 59h4.182v-4h-4.182v4z"></path>
<path d="M13.182 59h4.182v-4h-4.182v4z"></path>
<path d="M5 59h4v-4h-4v4z"></path>
<path d="M5 42.455h4v-4.182h-4v4.182z"></path>
<path d="M5 50.818h4v-4.182h-4v4.182z"></path>
<path d="M5 34.091h4v-4.182h-4v4.182z"></path>
<path d="M5 25.727h4v-4.182h-4v4.182z"></path>
<path d="M5 17.364h4v-4.182h-4v4.182z"></path>
<path d="M5 9h4v-4h-4v4z"></path>
<path d="M38.273 9h4.182v-4h-4.182v4z"></path>
<path d="M21.546 9h4.182v-4h-4.182v4z"></path>
<path d="M46.636 9h4.182v-4h-4.182v4z"></path>
<path d="M29.909 9h4.182v-4h-4.182v4z"></path>
<path d="M13.182 9h4.182v-4h-4.182v4z"></path>
<path d="M55 5v4h4v-4h-4z"></path>
<path d="M55 50.818h4v-4.182h-4v4.182z"></path>
<path d="M55 42.455h4v-4.182h-4v4.182z"></path>
<path d="M55 17.363h4v-4.182h-4v4.182z"></path>
<path d="M55 25.727h4v-4.182h-4v4.182z"></path>
<path d="M55 34.091h4v-4.182h-4v4.182z"></path>
<path d="M29.909 34.091h4.182v-4.182h-4.182v4.182z"></path>
<path d="M29.909 42.455h4.182v-4.182h-4.182v4.182z"></path>
<path d="M29.909 25.727h4.182v-4.182h-4.182v4.182z"></path>
<path d="M29.909 17.363h4.182v-4.182h-4.182v4.182z"></path>
<path d="M29.909 50.818h4.182v-4.182h-4.182v4.182z"></path>
<path d="M29.909 59h4.182v-4h-4.182v4z"></path>
<path d="M38.273 34.091h4.182v-4.182h-4.182v4.182z"></path>
<path d="M46.636 34.091h4.182v-4.182h-4.182v4.182z"></path>
<path d="M21.546 34.091h4.182v-4.182h-4.182v4.182z"></path>
<path d="M13.182 34.091h4.182v-4.182h-4.182v4.182z"></path>
</svg>
