<!-- Generated by IcoMoon.io -->
<svg version="1.1" xmlns="http://www.w3.org/2000/svg" width="64" height="64" viewBox="0 0 64 64">
<title>border-outer</title>
<path d="M57 5h-50c-1.105 0-2 0.895-2 2v0 50c0 1.105 0.895 2 2 2v0h50c1.105 0 2-0.895 2-2v0-50c0-1.105-0.895-2-2-2v0zM55 55h-46v-46h46z"></path>
<path d="M29.909 29.909h4.182v4.182h-4.182v-4.182z"></path>
<path d="M29.909 38.273h4.182v4.182h-4.182v-4.182z"></path>
<path d="M29.909 21.545h4.182v4.182h-4.182v-4.182z"></path>
<path d="M29.909 13.182h4.182v4.182h-4.182v-4.182z"></path>
<path d="M29.909 46.636h4.182v4.182h-4.182v-4.182z"></path>
<path d="M38.273 29.909h4.182v4.182h-4.182v-4.182z"></path>
<path d="M46.636 29.909h4.182v4.182h-4.182v-4.182z"></path>
<path d="M21.546 29.909h4.182v4.182h-4.182v-4.182z"></path>
<path d="M13.182 29.909h4.182v4.182h-4.182v-4.182z"></path>
</svg>
