<!-- Generated by IcoMoon.io -->
<svg version="1.1" xmlns="http://www.w3.org/2000/svg" width="64" height="64" viewBox="0 0 64 64">
<title>braille</title>
<path d="M14 24c0-3.314-2.686-6-6-6s-6 2.686-6 6c0 3.314 2.686 6 6 6v0c3.312-0.004 5.996-2.688 6-6v-0zM6 24c0-1.105 0.895-2 2-2s2 0.895 2 2c0 1.105-0.895 2-2 2v0c-1.104-0.001-1.999-0.896-2-2v-0z"></path>
<path d="M40 30c3.314 0 6-2.686 6-6s-2.686-6-6-6c-3.314 0-6 2.686-6 6v0c0.004 3.312 2.688 5.996 6 6h0zM40 22c1.105 0 2 0.895 2 2s-0.895 2-2 2c-1.105 0-2-0.895-2-2v0c0.001-1.104 0.896-1.999 2-2h0z"></path>
<path d="M23 14c3.314 0 6-2.686 6-6s-2.686-6-6-6c-3.314 0-6 2.686-6 6v0c0.004 3.312 2.688 5.996 6 6h0zM23 6c1.105 0 2 0.895 2 2s-0.895 2-2 2c-1.105 0-2-0.895-2-2v0c0.001-1.104 0.896-1.999 2-2h0z"></path>
<path d="M56 18c-3.314 0-6 2.686-6 6s2.686 6 6 6c3.314 0 6-2.686 6-6v0c-0.004-3.312-2.688-5.996-6-6h-0zM56 26c-1.105 0-2-0.895-2-2s0.895-2 2-2c1.105 0 2 0.895 2 2v0c-0.001 1.104-0.896 1.999-2 2h-0z"></path>
<path d="M56 14c3.314 0 6-2.686 6-6s-2.686-6-6-6c-3.314 0-6 2.686-6 6v0c0.004 3.312 2.688 5.996 6 6h0zM56 6c1.105 0 2 0.895 2 2s-0.895 2-2 2c-1.105 0-2-0.895-2-2v0c0.001-1.104 0.896-1.999 2-2h0z"></path>
<path d="M40 14c3.314 0 6-2.686 6-6s-2.686-6-6-6c-3.314 0-6 2.686-6 6v0c0.004 3.312 2.688 5.996 6 6h0zM40 6c1.105 0 2 0.895 2 2s-0.895 2-2 2c-1.105 0-2-0.895-2-2v0c0.001-1.104 0.896-1.999 2-2h0z"></path>
<path d="M47 40c-0.121 0-0.241 0.005-0.361 0.012-0.037 0.002-0.073 0.005-0.109 0.008q-0.127 0.010-0.253 0.025c-0.039 0.005-0.077 0.009-0.116 0.015q-0.137 0.019-0.272 0.045c-0.026 0.005-0.051 0.009-0.077 0.014q-0.17 0.034-0.337 0.078c-0.029 0.008-0.058 0.017-0.087 0.025-0.083 0.023-0.166 0.048-0.247 0.075-0.037 0.012-0.073 0.025-0.11 0.037q-0.117 0.041-0.231 0.086c-0.032 0.013-0.063 0.024-0.094 0.037-0.105 0.044-0.208 0.089-0.31 0.139-0.013 0.006-0.025 0.013-0.038 0.020q-0.134 0.066-0.264 0.139c-0.012 0.007-0.024 0.012-0.036 0.019-0.010-0.016-0.022-0.032-0.033-0.048q-0.067-0.102-0.138-0.201c-0.019-0.027-0.038-0.054-0.057-0.080-0.066-0.090-0.134-0.178-0.206-0.264-0.009-0.011-0.019-0.022-0.029-0.033q-0.094-0.112-0.193-0.219c-0.025-0.027-0.050-0.053-0.076-0.080q-0.081-0.084-0.164-0.165c-0.027-0.026-0.055-0.053-0.083-0.079q-0.096-0.089-0.195-0.173c-0.019-0.016-0.038-0.033-0.057-0.050q-0.128-0.106-0.261-0.205c-0.025-0.019-0.051-0.036-0.076-0.054q-0.1-0.072-0.202-0.139c-0.032-0.021-0.065-0.042-0.098-0.063q-0.1-0.063-0.202-0.122c-0.031-0.018-0.061-0.036-0.092-0.053-0.098-0.054-0.197-0.106-0.298-0.155-0.009-0.004-0.019-0.008-0.028-0.013q-0.139-0.066-0.282-0.125c-0.034-0.014-0.068-0.027-0.102-0.040q-0.111-0.044-0.224-0.083c-0.036-0.013-0.073-0.025-0.11-0.037-0.084-0.027-0.168-0.052-0.254-0.076-0.026-0.007-0.052-0.015-0.078-0.022q-0.166-0.044-0.336-0.078c-0.028-0.006-0.057-0.010-0.086-0.015-0.087-0.016-0.174-0.031-0.262-0.043-0.039-0.005-0.078-0.010-0.117-0.015q-0.124-0.015-0.25-0.025c-0.036-0.003-0.073-0.006-0.109-0.008-0.119-0.007-0.238-0.012-0.359-0.012s-0.241 0.005-0.361 0.012c-0.037 0.002-0.073 0.005-0.109 0.008q-0.127 0.010-0.253 0.025c-0.039 0.005-0.077 0.009-0.116 0.015q-0.137 0.019-0.272 0.045c-0.026 0.005-0.051 0.009-0.077 0.014q-0.17 0.034-0.337 0.078c-0.029 0.008-0.058 0.017-0.087 0.025-0.083 0.023-0.166 0.048-0.247 0.075-0.037 0.012-0.073 0.025-0.11 0.037q-0.117 0.041-0.231 0.086c-0.032 0.013-0.063 0.024-0.094 0.037-0.105 0.044-0.208 0.089-0.31 0.139-0.013 0.006-0.025 0.013-0.038 0.020q-0.134 0.066-0.264 0.139c-0.012 0.007-0.024 0.012-0.036 0.019-0.010-0.016-0.022-0.032-0.033-0.048q-0.067-0.102-0.138-0.201c-0.019-0.027-0.038-0.054-0.057-0.080-0.066-0.090-0.134-0.178-0.206-0.264-0.009-0.011-0.019-0.022-0.029-0.033q-0.094-0.112-0.193-0.219c-0.025-0.027-0.050-0.053-0.076-0.080q-0.081-0.084-0.164-0.165c-0.027-0.026-0.055-0.053-0.083-0.079q-0.096-0.089-0.195-0.173c-0.019-0.016-0.038-0.033-0.057-0.050q-0.128-0.106-0.261-0.205c-0.025-0.019-0.051-0.036-0.076-0.054q-0.1-0.072-0.202-0.139c-0.032-0.021-0.065-0.042-0.098-0.063q-0.1-0.063-0.202-0.122c-0.031-0.018-0.061-0.036-0.092-0.053-0.098-0.054-0.197-0.106-0.298-0.155-0.009-0.004-0.019-0.008-0.028-0.013q-0.139-0.066-0.282-0.125c-0.034-0.014-0.068-0.027-0.102-0.040q-0.111-0.044-0.224-0.083c-0.036-0.013-0.073-0.025-0.11-0.037-0.084-0.027-0.168-0.052-0.254-0.076-0.026-0.007-0.052-0.015-0.078-0.022q-0.166-0.044-0.336-0.078c-0.028-0.006-0.057-0.010-0.086-0.015-0.087-0.016-0.174-0.031-0.262-0.043-0.039-0.005-0.078-0.010-0.117-0.015q-0.124-0.015-0.25-0.025c-0.036-0.003-0.073-0.006-0.109-0.008-0.119-0.007-0.238-0.012-0.359-0.012-0.096 0-0.192 0.003-0.287 0.007-0.031 0.001-0.061 0.004-0.092 0.006-0.064 0.004-0.129 0.009-0.192 0.015-0.036 0.003-0.071 0.008-0.106 0.011q-0.089 0.010-0.177 0.023c-0.036 0.005-0.072 0.011-0.108 0.016-0.059 0.010-0.118 0.020-0.176 0.032-0.033 0.006-0.067 0.013-0.1 0.020-0.067 0.014-0.133 0.030-0.199 0.046-0.024 0.006-0.047 0.011-0.071 0.017q-0.133 0.035-0.264 0.075c-0.021 0.006-0.041 0.014-0.061 0.020-0.055 0.018-0.111 0.035-0.166 0.055v-5.343c0-3.314-2.686-6-6-6s-6 2.686-6 6v0 12.005c-1.646-1.251-3.73-2.005-5.989-2.005-0.004 0-0.007 0-0.011 0h0.001c-1.656 0.002-2.998 1.344-3 3v18h4v-16.917c2.854 0.5 4.996 2.958 5 5.916v2h4v-22c0-1.105 0.895-2 2-2s2 0.895 2 2v0 22h4v-11c0-1.105 0.895-2 2-2s2 0.895 2 2v0 11h4v-9c0-1.105 0.895-2 2-2s2 0.895 2 2v0 9h4v-7c0-1.105 0.895-2 2-2s2 0.895 2 2v0 16h4v-16c-0.004-3.312-2.688-5.996-6-6h-0z"></path>
</svg>
