<!-- Generated by IcoMoon.io -->
<svg version="1.1" xmlns="http://www.w3.org/2000/svg" width="64" height="64" viewBox="0 0 64 64">
<title>briefcase-slash</title>
<path d="M59 13.966h-12.904v-11.966h-28l0 7.611 4 4-0-7.611h20v7.966h-19.644l4.192 4.192h31.26v10.036l-6.647 6.647h-7.93l4.192 4.192h5.474l4.911-4.911v15.296l4.192 4.192v-36.548c-0.002-1.709-1.387-3.094-3.096-3.096h-0z"></path>
<path d="M62 59.172v0l-57.172-57.172h-2.828v2.828l9.138 9.138h-5.888c-1.709 0.002-3.094 1.387-3.096 3.096v41.754c0.002 1.709 1.387 3.094 3.096 3.096l56.75 0.087zM6.346 18.159h8.984l16.683 16.683h-19.020l-6.647-6.647zM6.346 57.721v-23.598l4.911 4.911h24.948l18.687 18.687z"></path>
</svg>
