<!-- Generated by IcoMoon.io -->
<svg version="1.1" xmlns="http://www.w3.org/2000/svg" width="64" height="64" viewBox="0 0 64 64">
<title>brightness</title>
<path d="M9.808 31.729l6.565 5.41 0.782 1.785-1.039 8.577 8.468-0.817 1.815 0.708 5.33 6.8 5.41-6.565 1.784-0.782 8.577 1.039-0.817-8.468 0.708-1.815 6.8-5.33-6.565-5.41-0.782-1.785 1.039-8.577-8.468 0.817-1.815-0.708-5.33-6.8-5.41 6.565-1.785 0.782-8.577-1.039 0.817 8.467-0.709 1.815zM19.936 28.873l1.453-3.723-0.431-4.464 4.722 0.572 3.66-1.605 2.852-3.461 2.935 3.744 3.723 1.453 4.464-0.431-0.572 4.723 1.605 3.66 3.461 2.852-3.744 2.935-1.453 3.723 0.431 4.464-4.723-0.572-3.66 1.605-2.852 3.461-2.935-3.744-3.723-1.453-4.464 0.431 0.572-4.723-1.605-3.66-3.461-2.852z"></path>
<path d="M59 2h-54c-1.656 0.002-2.998 1.344-3 3v54c0.002 1.656 1.344 2.998 3 3h54c1.656-0.002 2.998-1.344 3-3v-54c-0.002-1.656-1.344-2.998-3-3h-0zM58 58h-52v-52h52z"></path>
</svg>
