<!-- Generated by IcoMoon.io -->
<svg version="1.1" xmlns="http://www.w3.org/2000/svg" width="64" height="64" viewBox="0 0 64 64">
<title>brightness-low</title>
<path d="M31.632 62.343l-7.070-9.019-2.981-1.164-11.19 1.080 1.378-11.377-1.285-2.931-8.676-7.149 9.019-7.070 1.164-2.981-1.080-11.19 11.377 1.378 2.931-1.285 7.149-8.676 7.070 9.020 2.981 1.163 11.19-1.080-1.378 11.377 1.285 2.931 8.676 7.149-9.020 7.070-1.163 2.981 1.080 11.191-11.377-1.378-2.93 1.285zM22.146 48.087l4.889 1.908 4.675 5.963 4.591-5.572 4.806-2.108 7.523 0.911-0.693-7.186 1.908-4.888 5.964-4.675-5.572-4.591-2.108-4.806 0.911-7.522-7.186 0.693-4.889-1.908-4.675-5.964-4.591 5.572-4.806 2.108-7.522-0.911 0.693 7.186-1.908 4.889-5.963 4.675 5.572 4.591 2.108 4.806-0.911 7.522z"></path>
</svg>
