<!-- Generated by IcoMoon.io -->
<svg version="1.1" xmlns="http://www.w3.org/2000/svg" width="64" height="64" viewBox="0 0 64 64">
<title>brightness-medium</title>
<path d="M62.192 32.519l-8.676-7.149-1.285-2.931 1.378-11.377-11.19 1.080-2.981-1.163-7.070-9.020-7.149 8.676-2.931 1.285-11.377-1.378 1.079 11.19-1.164 2.981-9.019 7.070 8.676 7.149 1.285 2.931-1.378 11.377 11.19-1.080 2.981 1.164 7.070 9.019 7.149-8.676 2.93-1.285 11.377 1.378-1.080-11.19 1.163-2.981zM49.844 37.116l-1.908 4.888 0.694 7.187-7.523-0.911-4.806 2.108-4.591 5.572-4.675-5.964-4.889-1.908-7.186 0.693 0.911-7.522-2.108-4.806-5.572-4.591 5.963-4.675 1.908-4.889-0.693-7.186 7.522 0.911 4.806-2.108 4.591-5.572 4.675 5.964 4.889 1.908 7.186-0.693-0.911 7.522 2.108 4.806 5.572 4.591z"></path>
<path d="M21.089 44.366l5.44 3.2c1.628 0.592 3.508 0.934 5.468 0.934 0.005 0 0.010 0 0.015 0h-0.001q0.498 0 0.988-0.030v-1.738l-16.756-9.856c0.945 2.991 2.623 5.523 4.828 7.476l0.017 0.015z"></path>
<path d="M15.573 30.583l17.427 10.089v-4.622l-16.539-9.575c-0.442 1.202-0.757 2.597-0.883 4.046l-0.004 0.062z"></path>
<path d="M19.098 21.73l13.902 7.842v-4.593l-10.917-6.158c-1.126 0.856-2.107 1.812-2.96 2.876l-0.025 0.033z"></path>
<path d="M27.533 16.115l5.467 2.998v-3.583q-0.49-0.030-0.988-0.030c-0.004 0-0.008 0-0.012 0-1.59 0-3.128 0.225-4.583 0.644l0.117-0.029z"></path>
</svg>
