<!-- Generated by IcoMoon.io -->
<svg version="1.1" xmlns="http://www.w3.org/2000/svg" width="64" height="64" viewBox="0 0 64 64">
<title>british-pound-slash</title>
<path d="M21.881 7.874c2.991-1.3 6.474-2.057 10.135-2.057 14.359 0 25.999 11.64 25.999 25.999 0 5.102-1.469 9.86-4.008 13.875l0.063-0.107 2.891 2.891c3.156-4.662 5.038-10.41 5.038-16.598 0-0.016 0-0.032-0-0.048v0.003c0-16.569-13.431-30-30-30-0.014 0-0.030-0-0.046-0-6.188 0-11.936 1.882-16.704 5.106l0.105-0.067 2.891 2.891c1.028-0.654 2.221-1.286 3.465-1.824l0.168-0.065z"></path>
<path d="M34.451 13.707c-3.296 0.003-6.151 1.89-7.546 4.642l-0.022 0.048 3.155 3.155c0.31-2.184 2.168-3.846 4.414-3.846 2.461 0 4.456 1.995 4.456 4.456 0 0 0 0 0 0.001v0h4c-0.005-4.668-3.788-8.451-8.455-8.456h-0.001z"></path>
<path d="M2 2v2.828l7.344 7.344c-4.562 5.218-7.344 12.094-7.344 19.619 0 0.015 0 0.029 0 0.044v-0.002c0 16.569 13.431 30 30 30 0.012 0 0.027 0 0.042 0 7.525 0 14.4-2.782 19.654-7.374l-0.035 0.030 7.511 7.511h2.828v-2.828l-57.172-57.172zM29.995 33h0.176l10 10h-10.176zM25.995 28.824v0.176h-6v4h6v10h-6v4h24.176l4.654 4.654c-4.506 3.851-10.401 6.195-16.844 6.195-14.358 0-25.998-11.64-25.998-25.998 0-6.443 2.344-12.338 6.225-16.88l-0.030 0.036z"></path>
</svg>
