<!-- Generated by IcoMoon.io -->
<svg version="1.1" xmlns="http://www.w3.org/2000/svg" width="64" height="64" viewBox="0 0 64 64">
<title>british-pound-circle</title>
<path d="M29.995 32.832h9v-4h-9v-6.669c0-2.461 1.995-4.456 4.456-4.456s4.456 1.995 4.456 4.456v0h4c0-4.67-3.786-8.456-8.456-8.456s-8.456 3.786-8.456 8.456v0 6.669h-6v4h6v9.992h-6v4h23v-4h-13z"></path>
<path d="M32 1.832c-16.569 0-30 13.431-30 30s13.431 30 30 30 30-13.431 30-30-13.431-30-30-30zM50.385 50.217c-4.685 4.672-11.151 7.56-18.291 7.56-14.308 0-25.906-11.599-25.906-25.906s11.599-25.906 25.906-25.906c14.308 0 25.906 11.599 25.906 25.906 0 3.64-0.751 7.105-2.106 10.248l0.065-0.168c-1.378 3.213-3.258 5.957-5.573 8.265l-0.001 0.001z"></path>
</svg>
