<!-- Generated by IcoMoon.io -->
<svg version="1.1" xmlns="http://www.w3.org/2000/svg" width="64" height="64" viewBox="0 0 64 64">
<title>brush-alt</title>
<path d="M51 26h-10.827l1.634-13.283 0.009-0.085c0.020-0.235 0.031-0.509 0.031-0.785 0-5.438-4.409-9.847-9.847-9.847s-9.847 4.409-9.847 9.847c0 0.276 0.011 0.55 0.034 0.821l-0.002-0.035 0.003 0.042 1.639 13.325h-10.827c-3.312 0.004-5.996 2.688-6 6v30h50v-30c-0.004-3.312-2.688-5.996-6-6h-0zM53 58h-42v-18h42zM11 36v-4c0.001-1.104 0.896-1.999 2-2h15.35l-2.181-17.726c-0.010-0.128-0.016-0.277-0.016-0.427 0-3.229 2.618-5.847 5.847-5.847s5.847 2.618 5.847 5.847c0 0.15-0.006 0.299-0.017 0.447l0.001-0.020-2.181 17.726h15.349c1.104 0.001 1.999 0.896 2 2v4z"></path>
</svg>
