<!-- Generated by IcoMoon.io -->
<svg version="1.1" xmlns="http://www.w3.org/2000/svg" width="64" height="64" viewBox="0 0 64 64">
<title>building</title>
<path d="M55 58v-56h-46v56h-7v4h60v-4zM34 58v-8h-4v8h-17v-52h38v52z"></path>
<path d="M20 38h4v4h-4v-4z"></path>
<path d="M30 38h4v4h-4v-4z"></path>
<path d="M40 38h4v4h-4v-4z"></path>
<path d="M20 26h4v4h-4v-4z"></path>
<path d="M30 26h4v4h-4v-4z"></path>
<path d="M40 26h4v4h-4v-4z"></path>
<path d="M20 14h4v4h-4v-4z"></path>
<path d="M30 14h4v4h-4v-4z"></path>
<path d="M40 14h4v4h-4v-4z"></path>
</svg>
