<!-- Generated by IcoMoon.io -->
<svg version="1.1" xmlns="http://www.w3.org/2000/svg" width="64" height="64" viewBox="0 0 64 64">
<title>bus-timer</title>
<path d="M18 47.932c3.314 0 6-2.686 6-6s-2.686-6-6-6c-3.314 0-6 2.686-6 6v0c0.004 3.312 2.688 5.996 6 6h0zM18 39.932c1.105 0 2 0.895 2 2s-0.895 2-2 2c-1.105 0-2-0.895-2-2v0c0.001-1.104 0.896-1.999 2-2h0z"></path>
<path d="M45 47.932c3.314 0 6-2.686 6-6s-2.686-6-6-6c-3.314 0-6 2.686-6 6v0c0.004 3.312 2.688 5.996 6 6h0zM45 39.932c1.105 0 2 0.895 2 2s-0.895 2-2 2c-1.105 0-2-0.895-2-2v0c0.001-1.104 0.896-1.999 2-2h0z"></path>
<path d="M10 29.932v-21.932c0.001-1.104 0.896-1.999 2-2h21v-4h-21c-3.312 0.004-5.996 2.688-6 6v41.932c0.003 2.208 1.792 3.997 4 4h2v5.068c0.002 1.656 1.344 2.998 3 3h7c1.656-0.002 2.998-1.344 3-3v-5.069h14v5.068c0.002 1.656 1.344 2.998 3 3h7c1.656-0.002 2.998-1.344 3-3v-5.069h2c2.208-0.003 3.997-1.792 4-4v-19.932zM21 58h-5v-4.068h5zM48 58h-5v-4.068h5zM54 49.932h-44v-15.932h44z"></path>
<path d="M47.297 28c7.456 0 13.5-6.044 13.5-13.5s-6.044-13.5-13.5-13.5c-7.456 0-13.5 6.044-13.5 13.5v0c0.009 7.452 6.048 13.491 13.499 13.5h0.001zM47.297 5c5.247 0 9.5 4.253 9.5 9.5s-4.253 9.5-9.5 9.5c-5.247 0-9.5-4.253-9.5-9.5v0c0.006-5.244 4.256-9.494 9.499-9.5h0.001z"></path>
<path d="M52.299 14.954l-3.040-1.373v-5.105h-4v7.688l5.394 2.436 1.646-3.646z"></path>
</svg>
