<!-- Generated by IcoMoon.io -->
<svg version="1.1" xmlns="http://www.w3.org/2000/svg" width="64" height="64" viewBox="0 0 64 64">
<title>camera</title>
<path d="M58.999 14h-11.15l-2.030-5.844c-0.561-1.577-2.040-2.686-3.778-2.687h-20.135c-0 0-0.001 0-0.001 0-1.748 0-3.233 1.121-3.777 2.683l-0.009 0.028-1.98 5.82h-11.137c-1.656 0.002-2.998 1.344-3 3v39c0.002 1.656 1.344 2.998 3 3h53.998c1.656-0.002 2.998-1.344 3-3v-39c-0.002-1.656-1.344-2.998-3-3h-0zM57.999 55h-51.998v-37h13.002l2.903-8.531 20.135-0 2.964 8.531h12.995z"></path>
<path d="M32 21c-7.87 0-14.25 6.38-14.25 14.25s6.38 14.25 14.25 14.25c7.87 0 14.25-6.38 14.25-14.25v0c-0.009-7.866-6.384-14.241-14.249-14.25h-0.001zM32 45.5c-5.661 0-10.25-4.589-10.25-10.25s4.589-10.25 10.25-10.25c5.661 0 10.25 4.589 10.25 10.25v0c-0.007 5.658-4.592 10.243-10.249 10.25h-0.001z"></path>
</svg>
