<!-- Generated by IcoMoon.io -->
<svg version="1.1" xmlns="http://www.w3.org/2000/svg" width="64" height="64" viewBox="0 0 64 64">
<title>cart-loaded</title>
<path d="M22 46c-4.418 0-8 3.582-8 8s3.582 8 8 8c4.418 0 8-3.582 8-8v0c-0.005-4.416-3.584-7.995-8-8h-0zM22 58c-2.209 0-4-1.791-4-4s1.791-4 4-4c2.209 0 4 1.791 4 4v0c-0.003 2.208-1.792 3.997-4 4h-0z"></path>
<path d="M50 46c-4.418 0-8 3.582-8 8s3.582 8 8 8c4.418 0 8-3.582 8-8v0c-0.005-4.416-3.584-7.995-7.999-8h-0.001zM50 58c-2.209 0-4-1.791-4-4s1.791-4 4-4c2.209 0 4 1.791 4 4v0c-0.003 2.208-1.792 3.997-4 4h-0z"></path>
<path d="M20 17v4h38v2.695l-4.47 14.305h-34.788l-5-36h-11.742v4h8.259l5 36h41.212l5.53-17.695v-7.305h-42z"></path>
<path d="M31.846 9.282c1.869-2.021 4.535-3.282 7.495-3.282 3.115 0 5.904 1.396 7.775 3.597l0.012 0.015 2.867 3.389h5.24l-5.053-5.972c-2.621-3.084-6.504-5.028-10.84-5.028-4.121 0-7.832 1.755-10.426 4.559l-0.009 0.009-5.937 6.431h5.444z"></path>
</svg>
