<!-- Generated by IcoMoon.io -->
<svg version="1.1" xmlns="http://www.w3.org/2000/svg" width="64" height="64" viewBox="0 0 64 64">
<title>chevron-double-down</title>
<path d="M31.56 43.129l-13.628-13.628-9.933 9.933 23.565 23.566 8.519-8.519 1.401-1.411 13.636-13.636-9.933-9.933zM37.251 51.648l-1.396 1.407-4.294 4.294-0.005-0.005-4.285-4.285 0.005-0.005-13.619-13.619 4.276-4.276 13.628 13.628 13.628-13.628 4.276 4.276z"></path>
<path d="M21.631 25.424l8.51 8.51 1.424 1.414 8.519-8.519 1.401-1.411 13.636-13.636-9.933-9.933-13.628 13.628-13.627-13.628-9.933 9.933 13.636 13.636zM13.657 11.783l4.276-4.276 13.628 13.628 13.628-13.628 4.276 4.276-17.909 17.909-4.285-4.285 0.005-0.005z"></path>
</svg>
