<!-- Generated by IcoMoon.io -->
<svg version="1.1" xmlns="http://www.w3.org/2000/svg" width="64" height="64" viewBox="0 0 64 64">
<title>closed-captioning</title>
<path d="M59 13h-54c-1.656 0.002-2.998 1.344-3 3v42c0.002 1.656 1.344 2.998 3 3h54c1.656-0.002 2.998-1.344 3-3v-42c-0.002-1.656-1.344-2.998-3-3h-0zM58 57h-52v-40h52z"></path>
<path d="M23 48c0.012 0 0.026 0 0.039 0 2.569 0 4.931-0.89 6.793-2.378l-0.022 0.017-2.478-3.14c-1.17 0.936-2.672 1.501-4.306 1.501-0.009 0-0.019 0-0.028-0h0.001c-3.866 0-7-3.134-7-7s3.134-7 7-7v0c0.008-0 0.017-0 0.026-0 1.634 0 3.135 0.566 4.32 1.512l-0.014-0.011 2.478-3.14c-1.84-1.472-4.202-2.362-6.771-2.362-0.014 0-0.028 0-0.041 0h0.002c-6.075 0-11 4.925-11 11s4.925 11 11 11v0z"></path>
<path d="M43.429 48c0.012 0 0.026 0 0.039 0 2.569 0 4.931-0.89 6.793-2.378l-0.022 0.017-2.478-3.14c-1.17 0.936-2.672 1.501-4.306 1.501-0.009 0-0.019 0-0.028-0h0.001c-3.866 0-7-3.134-7-7s3.134-7 7-7v0c0.008-0 0.017-0 0.026-0 1.634 0 3.135 0.566 4.32 1.512l-0.014-0.011 2.478-3.14c-1.84-1.472-4.202-2.362-6.771-2.362-0.014 0-0.028 0-0.041 0h0.002c-6.075 0-11 4.925-11 11s4.925 11 11 11v0z"></path>
</svg>
