<!-- Generated by IcoMoon.io -->
<svg version="1.1" xmlns="http://www.w3.org/2000/svg" width="64" height="64" viewBox="0 0 64 64">
<title>coffee</title>
<path d="M23.938 53h12.125c7.694-0.009 13.928-6.244 13.938-13.937v-2.063h3c4.971 0 9-4.029 9-9s-4.029-9-9-9v0h-43v20.063c0.009 7.694 6.244 13.928 13.937 13.938h0.001zM50 23h3c2.761 0 5 2.239 5 5s-2.239 5-5 5v0h-3zM14 23h32v16.063c-0.006 5.486-4.452 9.931-9.937 9.938h-12.126c-5.486-0.006-9.931-4.452-9.938-9.937v-0.001z"></path>
<path d="M2 58h60v4h-60v-4z"></path>
</svg>
