<!-- Generated by IcoMoon.io -->
<svg version="1.1" xmlns="http://www.w3.org/2000/svg" width="64" height="64" viewBox="0 0 64 64">
<title>color-border</title>
<path d="M17.925 41.489c0.145 0 0.287-0.014 0.424-0.041l-0.014 0.002 11.233-2.66 23.775-23.776c1.424-1.424 2.305-3.39 2.305-5.563 0-4.344-3.521-7.865-7.865-7.865-2.173 0-4.14 0.881-5.563 2.305l-23.776 23.775-2.642 11.148-0.018 0.084c-0.025 0.123-0.039 0.265-0.039 0.41 0 1.203 0.975 2.179 2.178 2.179h0zM22.076 29.692l22.973-22.973c0.7-0.702 1.668-1.136 2.737-1.136 2.135 0 3.865 1.731 3.865 3.865 0 1.069-0.434 2.037-1.136 2.737l-22.973 22.973-7.164 1.698z"></path>
<path d="M59 47h-54c-1.656 0.002-2.998 1.344-3 3v9c0.002 1.656 1.344 2.998 3 3h54c1.656-0.002 2.998-1.344 3-3v-9c-0.002-1.656-1.344-2.998-3-3h-0zM58 58h-52v-7h52z"></path>
</svg>
