<!-- Generated by IcoMoon.io -->
<svg version="1.1" xmlns="http://www.w3.org/2000/svg" width="64" height="64" viewBox="0 0 64 64">
<title>color-fill</title>
<path d="M59 47h-54c-1.656 0.002-2.998 1.344-3 3v9c0.002 1.656 1.344 2.998 3 3h54c1.656-0.002 2.998-1.344 3-3v-9c-0.002-1.656-1.344-2.998-3-3h-0zM58 58h-52v-7h52z"></path>
<path d="M5.626 29.936c-0.124 0.466-0.196 1.002-0.196 1.554 0 2.913 1.985 5.363 4.677 6.070l0.044 0.010 19.813 5.066c0.467 0.125 1.003 0.196 1.557 0.196 2.913 0 5.362-1.986 6.067-4.678l0.010-0.044 6.62-25.892-31.972-8.174-1.501 5.872-7.249-1.854-0.991 3.875 7.249 1.854zM30.955 38.76v0l-19.813-5.066c-0.992-0.261-1.711-1.149-1.711-2.206 0-0.2 0.026-0.393 0.074-0.578l-0.004 0.016 0.498-1.949v0.023h25.798l-2.076 8.119c-0.261 0.992-1.149 1.711-2.206 1.711-0.2 0-0.393-0.026-0.578-0.074l0.016 0.004zM39.352 15.103l-2.53 9.897h-25.804l4.114-16.090z"></path>
<path d="M52.5 44c4.687 0 8.5-4.037 8.5-9 0-2.023-1.168-4.814-3.57-8.535-1.661-2.572-3.299-4.628-3.368-4.714l-1.562-1.955-1.563 1.955c-0.069 0.086-1.707 2.142-3.368 4.714-2.402 3.72-3.57 6.512-3.57 8.535 0 4.963 3.813 9 8.5 9zM52.5 26.32c2.207 3.080 4.5 6.928 4.5 8.68 0 2.757-2.019 5-4.5 5s-4.5-2.243-4.5-5c0-1.752 2.293-5.601 4.5-8.68z"></path>
</svg>
