<!-- Generated by IcoMoon.io -->
<svg version="1.1" xmlns="http://www.w3.org/2000/svg" width="64" height="64" viewBox="0 0 64 64">
<title>comment-square-rate-review</title>
<path d="M59 2h-54c-1.656 0.002-2.998 1.344-3 3v38c0.002 1.656 1.344 2.998 3 3h42.406l8.69 16h5.904v-57c-0.002-1.656-1.344-2.998-3-3h-0zM58 57.124l-8.215-15.124h-43.785v-36h52z"></path>
<path d="M26 38h24v-4h-20l-4 4z"></path>
<path d="M12.283 38c0.143 0 0.283-0.014 0.418-0.041l-0.014 0.002 8.804-2.084 14.599-14.599c1.186-1.181 1.92-2.815 1.92-4.621 0-3.602-2.92-6.521-6.521-6.521-1.806 0-3.44 0.734-4.621 1.919l-14.599 14.599-2.066 8.72-0.018 0.085c-0.024 0.121-0.038 0.26-0.038 0.402 0 1.181 0.957 2.138 2.137 2.138h0zM15.899 28.681l13.797-13.797c0.456-0.456 1.087-0.739 1.783-0.739 1.393 0 2.521 1.129 2.521 2.521 0 0.696-0.282 1.327-0.739 1.783l-13.797 13.797-4.673 1.107z"></path>
</svg>
