<!-- Generated by IcoMoon.io -->
<svg version="1.1" xmlns="http://www.w3.org/2000/svg" width="64" height="64" viewBox="0 0 64 64">
<title>comment-bubble-question</title>
<path d="M53.482 44.461c2.364-1.998 4.328-4.381 5.818-7.063l0.066-0.129c1.655-2.964 2.631-6.502 2.635-10.268v-0.001c0-6.753-3.172-13.078-8.931-17.809-5.645-4.637-13.128-7.191-21.069-7.191s-15.423 2.554-21.069 7.191c-5.76 4.731-8.931 11.056-8.931 17.809s3.172 13.078 8.931 17.809c5.645 4.637 13.128 7.191 21.069 7.191 1.172 0 2.352-0.057 3.518-0.171l2.103 1.823c5.959 5.186 13.799 8.347 22.378 8.348h2v-4.828l-0.586-0.586c-3.356-3.366-6.044-7.4-7.847-11.885l-0.085-0.24zM40.242 50.63l-3.435-2.977-0.882 0.108c-1.178 0.152-2.541 0.239-3.925 0.239h-0c-14.336 0-26-9.421-26-21s11.664-21 26-21 26 9.421 26 21c0 5.804-2.88 11.21-8.108 15.222l-1.151 0.883 0.549 1.559c1.838 5.101 4.498 9.489 7.86 13.235l-0.033-0.037c-6.518-0.643-12.324-3.271-16.912-7.264l0.037 0.031z"></path>
<path d="M32.176 13.007c-0.102-0.004-0.222-0.007-0.342-0.007-4.879 0-8.834 3.955-8.834 8.833v0h4c0-2.669 2.164-4.833 4.834-4.833 0.067 0 0.134 0.001 0.2 0.004l-0.010-0c2.587 0.105 4.644 2.227 4.644 4.83 0 2.451-1.824 4.476-4.188 4.791l-0.025 0.003c-1.484 0.197-2.618 1.453-2.621 2.975v4.398h4v-3.561c3.945-0.941 6.833-4.435 6.833-8.605 0-4.758-3.762-8.638-8.474-8.827l-0.017-0.001z"></path>
<path d="M30 38h4v4h-4v-4z"></path>
</svg>
