<!-- Generated by IcoMoon.io -->
<svg version="1.1" xmlns="http://www.w3.org/2000/svg" width="64" height="64" viewBox="0 0 64 64">
<title>command1</title>
<path d="M52 42h-6v-20h6c5.523 0 10-4.477 10-10s-4.477-10-10-10c-5.523 0-10 4.477-10 10v0 6h-20v-6c0-5.523-4.477-10-10-10s-10 4.477-10 10c0 5.523 4.477 10 10 10v0h6v20h-6c-5.523 0-10 4.477-10 10s4.477 10 10 10c5.523 0 10-4.477 10-10v0-6h20v6c0 5.523 4.477 10 10 10s10-4.477 10-10c0-5.523-4.477-10-10-10v0zM46 12c0-3.314 2.686-6 6-6s6 2.686 6 6c0 3.314-2.686 6-6 6v0h-6zM12 18c-3.314 0-6-2.686-6-6s2.686-6 6-6c3.314 0 6 2.686 6 6v0 6zM18 52c0 3.314-2.686 6-6 6s-6-2.686-6-6c0-3.314 2.686-6 6-6v0h6zM22 42v-20h20v20zM52 58c-3.312-0.004-5.996-2.688-6-6v-6h6c3.314 0 6 2.686 6 6s-2.686 6-6 6v0z"></path>
</svg>
