<!-- Generated by IcoMoon.io -->
<svg version="1.1" xmlns="http://www.w3.org/2000/svg" width="64" height="64" viewBox="0 0 64 64">
<title>comment-bubble</title>
<path d="M62 62h-2c-8.579-0-16.419-3.162-22.42-8.383l0.041 0.035-2.103-1.823c-1.167 0.113-2.346 0.171-3.519 0.171-7.941 0-15.423-2.554-21.069-7.191-5.76-4.731-8.931-11.056-8.931-17.809s3.172-13.078 8.931-17.809c5.645-4.637 13.128-7.191 21.069-7.191s15.423 2.554 21.069 7.191c5.76 4.731 8.931 11.056 8.931 17.809-0.003 3.767-0.979 7.305-2.69 10.378l0.056-0.109c-1.555 2.811-3.52 5.194-5.846 7.162l-0.037 0.031c1.888 4.725 4.576 8.759 7.933 12.126l0.585 0.585zM36.807 47.653l3.435 2.977c4.551 3.961 10.358 6.589 16.75 7.222l0.125 0.010c-3.329-3.709-5.989-8.097-7.739-12.922l-0.088-0.277-0.549-1.558 1.151-0.883c5.229-4.013 8.108-9.419 8.108-15.222 0-11.579-11.664-21-26-21s-26 9.421-26 21 11.664 21 26 21c1.384-0 2.747-0.087 4.084-0.255l-0.159 0.016z"></path>
</svg>
