<!-- Generated by IcoMoon.io -->
<svg version="1.1" xmlns="http://www.w3.org/2000/svg" width="64" height="64" viewBox="0 0 64 64">
<title>commute</title>
<path d="M54 55v6h4v-6h-4z"></path>
<path d="M10 36h4v4h-4v-4z"></path>
<path d="M55.866 29.779c-1.076-1.681-2.933-2.779-5.047-2.779-0.005 0-0.011 0-0.016 0h-13.767c-1.986 0.007-3.744 0.971-4.841 2.455l-0.012 0.017-7.185 9.879v5.65h-19v-14h20.8l2.8-4h-23.6v-15c0.001-1.104 0.896-1.999 2-2h26c1.104 0.001 1.999 0.896 2 2v12h4v-12c-0.004-3.312-2.688-5.996-6-6h-26c-3.312 0.004-5.996 2.688-6 6v37h6v5h4v-5h13v8h4v4h4v-4h21v-2h4v2h4v-17.582zM35.419 31.824c0.368-0.501 0.955-0.823 1.617-0.824h13.767c0.002 0 0.003 0 0.005 0 0.705 0 1.324 0.366 1.677 0.918l0.005 0.008 5.138 8.074h-28.156zM58 53h-29v-9h29z"></path>
<path d="M33 46h4v4h-4v-4z"></path>
<path d="M50 46h4v4h-4v-4z"></path>
</svg>
