<!-- Generated by IcoMoon.io -->
<svg version="1.1" xmlns="http://www.w3.org/2000/svg" width="64" height="64" viewBox="0 0 64 64">
<title>contact</title>
<path d="M59 6h-54c-1.656 0.002-2.998 1.344-3 3v46c0.002 1.656 1.344 2.998 3 3h11v-7.353c0-0.935 0.513-1.749 1.273-2.178l0.012-0.007 11.497-6.39-3.783-9.457v-7.615c0-3.866 3.134-7 7-7s7 3.134 7 7v0 7.615l-3.783 9.457 11.497 6.39c0.772 0.436 1.285 1.25 1.285 2.185v7.353h11c1.656-0.002 2.998-1.344 3-3v-46c-0.002-1.656-1.344-2.998-3-3h-0zM58 54h-6v-3.353c-0.001-2.43-1.334-4.549-3.31-5.665l-0.032-0.017h0l-8.418-4.679 2.761-6.902v-8.385c0-6.075-4.925-11-11-11s-11 4.925-11 11v0 8.385l2.761 6.902-8.418 4.679c-2.008 1.133-3.341 3.251-3.342 5.681v3.353h-6v-44h52z"></path>
</svg>
