<!-- Generated by IcoMoon.io -->
<svg version="1.1" xmlns="http://www.w3.org/2000/svg" width="64" height="64" viewBox="0 0 64 64">
<title>contrast</title>
<path d="M32 2c-16.569 0-30 13.431-30 30s13.431 30 30 30 30-13.431 30-30-13.431-30-30-30zM6 32q0-1.239 0.115-2.459l23.135 12.951v6.666l-22.889-12.813c-0.23-1.304-0.361-2.805-0.361-4.337 0-0.003 0-0.005 0-0.008v0zM8.788 20.274l20.462 11.468v6.167l-22.398-12.538c0.364-1.376 0.77-2.537 1.254-3.657l-0.064 0.167q0.346-0.819 0.746-1.607zM29.25 6.144v10.049l-11.206-6.137c3.191-2.063 6.998-3.46 11.092-3.902l0.114-0.010zM14.565 12.712l14.685 8.042v6.403l-18.386-10.304c0.868-1.2 1.771-2.257 2.751-3.237l0-0q0.465-0.465 0.95-0.904zM13.615 50.385c-2.315-2.309-4.196-5.052-5.509-8.097l-0.065-0.168c-0.045-0.107-0.088-0.216-0.132-0.323l21.34 11.947v4.114c-6.153-0.663-11.569-3.393-15.634-7.471l-0.001-0.001zM50.385 50.385c-4.412 4.425-10.414 7.263-17.076 7.583l-0.059 0.002v-51.94c13.816 0.673 24.763 12.039 24.763 25.961 0 7.185-2.916 13.689-7.628 18.393l-0 0z"></path>
</svg>
