<!-- Generated by IcoMoon.io -->
<svg version="1.1" xmlns="http://www.w3.org/2000/svg" width="64" height="64" viewBox="0 0 64 64">
<title>cut</title>
<path d="M56 53.171l-20.671-20.671 20.671-20.671v-2.829h-2.829l-20.671 20.671-10.44-10.44c1.214-1.745 1.94-3.908 1.94-6.241 0-6.081-4.929-11.010-11.010-11.010s-11.010 4.929-11.010 11.010c0 6.081 4.929 11.010 11.010 11.010 2.333 0 4.497-0.726 6.277-1.964l-0.036 0.024 10.44 10.44-9.865 9.865c-1.853-1.468-4.224-2.355-6.802-2.355-6.075 0-11 4.925-11 11s4.925 11 11 11c6.075 0 11-4.925 11-11 0-2.080-0.577-4.025-1.58-5.684l0.028 0.049 10.049-10.046 20.671 20.671h2.829zM13 20c-3.866 0-7-3.134-7-7s3.134-7 7-7c3.866 0 7 3.134 7 7v0c-0.004 3.864-3.136 6.996-7 7h-0zM13 58c-3.866 0-7-3.134-7-7s3.134-7 7-7c3.866 0 7 3.134 7 7v0c-0.004 3.864-3.136 6.996-7 7h-0z"></path>
</svg>
