<!-- Generated by IcoMoon.io -->
<svg version="1.1" xmlns="http://www.w3.org/2000/svg" width="64" height="64" viewBox="0 0 64 64">
<title>d-rotate</title>
<path d="M33.54 15.859c-0.43-0.252-0.948-0.4-1.5-0.4s-1.070 0.149-1.514 0.408l0.014-0.008-12.376 7.146c-0.902 0.53-1.498 1.494-1.5 2.598v14.291c0.002 1.104 0.598 2.069 1.486 2.59l0.014 0.008 12.376 7.145c0.43 0.252 0.948 0.401 1.5 0.401s1.069-0.149 1.514-0.408l-0.014 0.008 12.377-7.146c0.902-0.53 1.498-1.494 1.5-2.598v-14.291c-0.002-1.104-0.598-2.069-1.486-2.59l-0.014-0.008zM43.835 41.487l-2.111-1.193-9.684 5.591-9.688-5.593-2.115 1.196-1.968-3.482 2.395-1.354v-10.47l9.376-5.413v-2.694h4v2.693l9.377 5.414v10.475l2.387 1.349z"></path>
<path d="M34.039 31.355v1.724h-4v-1.728l-11.771 6.653 1.968 3.482 11.799-6.669 11.799 6.669 1.968-3.482-11.764-6.649z"></path>
<path d="M30.039 33.080h4v-15.007h-4v15.007z"></path>
<path d="M46 1.996l-14 0.004c-7.973 0.012-15.427 3.21-21.066 8.849-5.412 5.383-8.761 12.836-8.761 21.070 0 0.029 0 0.057 0 0.086v-0.004h4c0-14.273 11.6-25.887 25.867-25.912v5.22z"></path>
<path d="M57.998 32.004c0 14.263-11.656 25.872-25.999 25.916v-3.921l-13.96 8h13.96c16.549-0.045 29.999-13.527 29.999-29.996z"></path>
</svg>
