<!-- Generated by IcoMoon.io -->
<svg version="1.1" xmlns="http://www.w3.org/2000/svg" width="64" height="64" viewBox="0 0 64 64">
<title>d</title>
<path d="M55.46 16.17l-21.419-12.366c-0.574-0.336-1.264-0.534-2-0.534s-1.426 0.198-2.019 0.545l0.019-0.010-21.419 12.366c-1.202 0.706-1.998 1.992-2 3.464v24.733c0.002 1.472 0.798 2.758 1.981 3.454l0.019 0.010 21.419 12.366c0.574 0.336 1.264 0.534 2 0.534s1.426-0.198 2.019-0.544l-0.019 0.010 21.419-12.366c1.202-0.706 1.997-1.992 2-3.464v-24.733c-0.002-1.472-0.798-2.758-1.981-3.454l-0.019-0.010zM53.46 19.634v22.172l-19.419-10.976v-22.408zM10.623 19.634l19.419-11.211v22.401l-19.419 10.976zM32.042 56.732l-19.644-11.342 19.638-11.1 19.644 11.103z"></path>
</svg>
