<!-- Generated by IcoMoon.io -->
<svg version="1.1" xmlns="http://www.w3.org/2000/svg" width="64" height="64" viewBox="0 0 64 64">
<title>device-unknown</title>
<path d="M41.905 29.528c-0.224-5.166-4.355-9.297-9.5-9.52l-0.021-0.001c-0.114-0.005-0.249-0.007-0.384-0.007-5.474 0-9.912 4.438-9.913 9.912v0h4c0-3.265 2.647-5.912 5.913-5.912 0.082 0 0.163 0.002 0.244 0.005l-0.012-0c3.164 0.128 5.68 2.725 5.68 5.908 0 2.998-2.231 5.474-5.123 5.861l-0.030 0.003c-1.562 0.208-2.756 1.529-2.759 3.131v5.093h4v-4.378c4.548-0.963 7.912-4.944 7.912-9.711 0-0.135-0.003-0.269-0.008-0.402l0.001 0.019z"></path>
<path d="M48 2h-32c-2.208 0.003-3.997 1.792-4 4v52c0.003 2.208 1.792 3.997 4 4h32c2.208-0.003 3.997-1.792 4-4v-52c-0.003-2.208-1.792-3.997-4-4h-0zM16 6h32l0 6h-32zM48 58h-32v-6h9v-4h-9v-32h32.001l0.002 32h-9.002v4h9.002l0 6z"></path>
<path d="M30 48h4v4h-4v-4z"></path>
</svg>
