<!-- Generated by IcoMoon.io -->
<svg version="1.1" xmlns="http://www.w3.org/2000/svg" width="64" height="64" viewBox="0 0 64 64">
<title>devices-important</title>
<path d="M59 29h-6v-14c-0.002-1.656-1.344-2.998-3-3h-45c-1.656 0.002-2.998 1.344-3 3v30.75c0.002 1.656 1.344 2.998 3 3h21.5v6.25h-7.5v4h19v-4h-7.5v-6.25h11.5v7.25c0.002 1.656 1.344 2.998 3 3h14c1.656-0.002 2.998-1.344 3-3v-24c-0.002-1.656-1.344-2.998-3-3h-0zM42 32v12.75h-36v-28.75h43v13h-4c-1.656 0.002-2.998 1.344-3 3v0zM58 55h-12v-22h12z"></path>
<path d="M38.311 26.786l-6.052-0.984c-0.049-0.008-0.090-0.039-0.112-0.081l-0-0.001-2.806-5.452c-0.17-0.325-0.504-0.542-0.889-0.542s-0.72 0.218-0.887 0.537l-0.003 0.006-2.806 5.452c-0.022 0.043-0.063 0.073-0.111 0.081l-0.001 0-6.052 0.984c-0.479 0.080-0.84 0.491-0.84 0.987 0 0.275 0.111 0.524 0.29 0.704l-0-0 4.318 4.353c0.028 0.028 0.045 0.066 0.045 0.108 0 0.008-0.001 0.016-0.002 0.024l0-0.001-0.935 6.060c-0.007 0.046-0.012 0.099-0.012 0.153 0 0.552 0.448 1 1 1 0.164 0 0.319-0.040 0.456-0.11l-0.006 0.003 5.475-2.762c0.020-0.010 0.044-0.017 0.069-0.017s0.049 0.006 0.070 0.017l-0.001-0 5.475 2.762c0.131 0.068 0.286 0.107 0.45 0.107 0.552 0 1-0.448 1-1 0-0.054-0.004-0.107-0.012-0.158l0.001 0.006-0.935-6.060c-0.001-0.007-0.002-0.015-0.002-0.023 0-0.042 0.017-0.081 0.045-0.108v0l4.318-4.353c0.179-0.181 0.29-0.43 0.29-0.704 0-0.496-0.361-0.907-0.834-0.986l-0.006-0.001z"></path>
</svg>
