<!-- Generated by IcoMoon.io -->
<svg version="1.1" xmlns="http://www.w3.org/2000/svg" width="64" height="64" viewBox="0 0 64 64">
<title>devices-slash</title>
<path d="M59 29h-6v-14c-0.002-1.656-1.344-2.998-3-3h-29.515l4 4h24.515v13h-4c-1.656 0.002-2.998 1.344-3 3v1.515l4 4v-4.515h12v16.515l4 4v-21.515c-0.002-1.656-1.344-2.998-3-3h-0z"></path>
<path d="M4.828 2h-2.828v2.828l7.172 7.172h-4.172c-1.656 0.002-2.998 1.344-3 3v30.75c0.002 1.656 1.344 2.998 3 3h21.5v6.25h-7.5v4h19v-4h-7.5v-6.25h11.5v7.25c0.002 1.656 1.344 2.998 3 3h11.172l3 3h2.828v-2.828zM6 44.75v-28.75h7.172l28.75 28.75zM46 55v-6.172l6.172 6.172z"></path>
</svg>
