<!-- Generated by IcoMoon.io -->
<svg version="1.1" xmlns="http://www.w3.org/2000/svg" width="64" height="64" viewBox="0 0 64 64">
<title>devices-other</title>
<path d="M5 13c-1.656 0.002-2.998 1.344-3 3v37.021c0.002 1.656 1.344 2.998 3 3h11v-4h-10v-35.021h56v-4z"></path>
<path d="M59 23h-16c-1.656 0.002-2.998 1.344-3 3v27c0.002 1.656 1.344 2.998 3 3h16c1.656-0.002 2.998-1.344 3-3v-27c-0.002-1.656-1.344-2.998-3-3h-0zM58 52h-14v-25h14z"></path>
<path d="M26.5 29c-5.799 0-10.5 4.701-10.5 10.5s4.701 10.5 10.5 10.5c5.799 0 10.5-4.701 10.5-10.5v0c-0.007-5.796-4.704-10.493-10.499-10.5h-0.001zM26.5 46c-3.59 0-6.5-2.91-6.5-6.5s2.91-6.5 6.5-6.5c3.59 0 6.5 2.91 6.5 6.5v0c-0.004 3.588-2.912 6.496-6.5 6.5h-0z"></path>
<path d="M21 23h11v4h-11v-4z"></path>
<path d="M21 52.021h11v4h-11v-4z"></path>
</svg>
