<!-- Generated by IcoMoon.io -->
<svg version="1.1" xmlns="http://www.w3.org/2000/svg" width="64" height="64" viewBox="0 0 64 64">
<title>dial</title>
<path d="M53.222 16.778c-5.423-5.423-12.915-8.778-21.191-8.778-16.551 0-29.969 13.417-29.969 29.969v0h4c0-14.319 11.65-25.969 25.969-25.969s25.969 11.65 25.969 25.969h4c0-0.024 0-0.053 0-0.081 0-8.25-3.356-15.716-8.776-21.108l-0.001-0.001z"></path>
<path d="M32.031 19.594c-10.029 0-18.188 8.159-18.188 18.188s8.159 18.188 18.188 18.188 18.188-8.159 18.188-18.188-8.159-18.188-18.188-18.188zM32.031 51.969c-0 0-0 0-0.001 0-7.836 0-14.188-6.352-14.188-14.188 0-7.123 5.249-13.020 12.090-14.034l0.077-0.009v13.34h4v-13.346c6.938 1.005 12.208 6.911 12.208 14.049 0 7.835-6.352 14.187-14.187 14.188v0z"></path>
</svg>
