<!-- Generated by IcoMoon.io -->
<svg version="1.1" xmlns="http://www.w3.org/2000/svg" width="64" height="64" viewBox="0 0 64 64">
<title>directions</title>
<path d="M61.121 30.009l-26.87-26.87c-0.543-0.543-1.293-0.879-2.121-0.879s-1.578 0.336-2.121 0.879l-26.87 26.87c-0.542 0.543-0.877 1.293-0.877 2.121s0.335 1.578 0.877 2.121l26.87 26.87c0.543 0.543 1.293 0.879 2.121 0.879s1.578-0.336 2.121-0.879l26.87-26.87c0.542-0.543 0.877-1.293 0.877-2.121s-0.335-1.578-0.877-2.121l0 0zM32.13 57.586l-25.456-25.456 25.456-25.456 25.456 25.456z"></path>
<path d="M21 28v12h4v-8h14.172l-5.586 5.586 2.828 2.828 10.414-10.414-10.414-10.414-2.828 2.828 5.586 5.586h-18.172z"></path>
</svg>
