<!-- Generated by IcoMoon.io -->
<svg version="1.1" xmlns="http://www.w3.org/2000/svg" width="64" height="64" viewBox="0 0 64 64">
<title>dollar-circle-slash</title>
<path d="M21.881 8.042c2.982-1.291 6.455-2.042 10.103-2.042 14.369 0 26.017 11.648 26.017 26.017 0 3.648-0.751 7.12-2.106 10.272l0.065-0.169q-0.327 0.772-0.702 1.517l2.943 2.984c2.391-4.198 3.8-9.223 3.8-14.578 0-0.015 0-0.030-0-0.045v0.002c0-16.569-13.431-30-30-30-0.013 0-0.029-0-0.045-0-5.207 0-10.104 1.333-14.366 3.676l0.155-0.078 2.944 2.985q0.589-0.284 1.194-0.541z"></path>
<path d="M29.96 11v6.985l2.973 3.015h10.067v-4h-9.040v-6h-4z"></path>
<path d="M26.5 20.185v-0.012l-2.695-2.733c-0.004 0.001-0.008 0.003-0.012 0.004l-6.681-6.764c0.005-0.004 0.010-0.007 0.015-0.011l-2.842-2.881c-0.006 0.004-0.012 0.008-0.017 0.013l-5.482-5.551h-2.786v2.871l5.199 5.264c-5.674 5.452-9.199 13.104-9.199 21.579 0 0.013 0 0.025 0 0.038v-0.002c0 16.569 13.431 30 30 30 0.011 0 0.024 0 0.037 0 8.344 0 15.89-3.417 21.314-8.928l0.004-0.004 5.859 5.932h2.786v-2.83l-27.531-27.917zM30.572 30h-4.072c-0.001 0-0.002 0-0.003 0-2.484 0-4.497-2.014-4.497-4.497 0-1.16 0.439-2.217 1.16-3.015l-0.003 0.004zM40.66 40.214c-0.694 1.648-2.294 2.783-4.16 2.786h-16.5v4h9.96v6h4v-6h2.54c2.95-0.001 5.548-1.505 7.071-3.788l0.019-0.031 6.954 7.041c-0.053 0.054-0.105 0.109-0.159 0.163-4.708 4.721-11.219 7.642-18.412 7.642-14.359 0-26-11.641-26-26 0-7.193 2.921-13.704 7.642-18.411l0.001-0.001c0.13-0.13 0.262-0.258 0.394-0.385l6.337 6.416c-1.452 1.521-2.346 3.586-2.346 5.86 0 4.691 3.803 8.493 8.493 8.493 0.002 0 0.005 0 0.007 0h8.022z"></path>
</svg>
