<!-- Generated by IcoMoon.io -->
<svg version="1.1" xmlns="http://www.w3.org/2000/svg" width="64" height="64" viewBox="0 0 64 64">
<title>dollar-circle</title>
<path d="M32 2c-16.569 0-30 13.431-30 30s13.431 30 30 30 30-13.431 30-30-13.431-30-30-30zM50.385 50.385c-4.685 4.672-11.151 7.56-18.291 7.56-14.307 0-25.906-11.599-25.906-25.906s11.599-25.906 25.906-25.906c14.307 0 25.906 11.599 25.906 25.906 0 3.64-0.751 7.105-2.106 10.248l0.065-0.168c-1.378 3.213-3.258 5.957-5.573 8.265l-0.001 0.001z"></path>
<path d="M36.5 30h-10c-2.485 0-4.5-2.015-4.5-4.5s2.015-4.5 4.5-4.5v0h16.5v-4h-9.040v-6h-4v6h-3.46c-4.694 0-8.5 3.806-8.5 8.5s3.806 8.5 8.5 8.5v0h10c2.485 0 4.5 2.015 4.5 4.5s-2.015 4.5-4.5 4.5v0h-16.5v4h9.96v6h4v-6h2.54c4.694 0 8.5-3.806 8.5-8.5s-3.806-8.5-8.5-8.5v0z"></path>
</svg>
