<!-- Generated by IcoMoon.io -->
<svg version="1.1" xmlns="http://www.w3.org/2000/svg" width="64" height="64" viewBox="0 0 64 64">
<title>envelope-minus</title>
<path d="M2 2v48h26v-4h-22v-2l20.667-15.5 2.933 2.2c0.661 0.496 1.496 0.795 2.4 0.795s1.739-0.299 2.411-0.802l-0.010 0.008-0 0 23.6-17.7v18l4 4v-33zM6 39v-26l17.333 13zM58 8l-26 19.5-26-19.5v-2h52z"></path>
<path d="M39.714 44.857h14.286v4h-14.286v-4z"></path>
<path d="M47 32c-8.284 0-15 6.716-15 15s6.716 15 15 15c8.284 0 15-6.716 15-15v0c0-8.284-6.716-15-15-15v0zM47 58c-6.075 0-11-4.925-11-11s4.925-11 11-11c6.075 0 11 4.925 11 11v0c0 6.075-4.925 11-11 11v0z"></path>
</svg>
