<!-- Generated by IcoMoon.io -->
<svg version="1.1" xmlns="http://www.w3.org/2000/svg" width="64" height="64" viewBox="0 0 64 64">
<title>eraser</title>
<path d="M39.042 50l21.272-21.272c0.542-0.543 0.877-1.293 0.877-2.121s-0.335-1.578-0.877-2.121l-19.799-19.799c-0.543-0.542-1.293-0.877-2.121-0.877s-1.578 0.335-2.121 0.877l-31.556 31.556c-0.542 0.543-0.877 1.293-0.877 2.121s0.335 1.578 0.877 2.121l9.515 9.515zM38.393 8.222l18.385 18.385-8.672 8.672-18.385-18.385zM26.893 19.722l18.385 18.385-7.893 7.893h-21.497l-7.636-7.636z"></path>
<path d="M14 54h48v4h-48v-4z"></path>
</svg>
