<!-- Generated by IcoMoon.io -->
<svg version="1.1" xmlns="http://www.w3.org/2000/svg" width="64" height="64" viewBox="0 0 64 64">
<title>euro-slash</title>
<path d="M39.5 15h6.5v-4h-6.5c-0.005 0-0.011 0-0.017 0-5.561 0-10.627 2.12-14.434 5.595l0.017-0.015 2.832 2.832c3.065-2.738 7.132-4.412 11.589-4.412 0.005 0 0.010 0 0.014 0h-0.001z"></path>
<path d="M37.485 29h5.515v-4h-9.515l4 4z"></path>
<path d="M33.32 30.492l-28.492-28.492h-2.828v2.828l18.202 18.202c-0.261 0.508-0.547 1.158-0.802 1.823l-0.049 0.147h-7.351v4h6.286c-0.182 1.052-0.286 2.264-0.286 3.5s0.104 2.448 0.304 3.627l-0.018-0.127h-6.286v4h7.351c3.050 8.168 10.931 14 20.149 14h4.5v-4h-4.5c-6.937-0.007-12.93-4.044-15.764-9.896l-0.046-0.104h13.481l22 22h2.828v-2.828zM22.352 36c-0.224-1.051-0.352-2.258-0.352-3.495 0-2.322 0.451-4.538 1.271-6.566l-0.042 0.118 9.943 9.943z"></path>
</svg>
