<!-- Generated by IcoMoon.io -->
<svg version="1.1" xmlns="http://www.w3.org/2000/svg" width="64" height="64" viewBox="0 0 64 64">
<title>ev-station</title>
<path d="M54.49 10.772l-1.888-8.772h-4.092l2.042 9.483c-0.758-0.306-1.637-0.484-2.558-0.484-3.866 0-7 3.134-7 7s3.134 7 7 7c1.494 0 2.879-0.468 4.016-1.266l-0.022 0.015c0.008 0.405 0.013 0.81 0.013 1.214v29.537c0 1.933-1.567 3.5-3.5 3.5s-3.5-1.567-3.5-3.5v0-17c-0.005-4.14-3.36-7.495-7.5-7.5h-2.5v-18c-0.004-3.312-2.688-5.996-6-6h-21c-3.312 0.004-5.996 2.688-6 6v50h33v-28h2.5c1.932 0.002 3.498 1.568 3.5 3.5v17c0 4.142 3.358 7.5 7.5 7.5s7.5-3.358 7.5-7.5v0-29.537c-0.001-5.028-0.551-9.926-1.593-14.64l0.083 0.449zM48 21c-1.657 0-3-1.343-3-3s1.343-3 3-3c1.657 0 3 1.343 3 3v0c-0.002 1.656-1.344 2.998-3 3h-0zM31 58h-25v-46c0.001-1.104 0.896-1.999 2-2h21c1.104 0.001 1.999 0.896 2 2v0z"></path>
<path d="M19.44 23h-4.079l-2.8 14h5.966l-2.143 10h4.091l3-14h-6.034l2-10z"></path>
</svg>
