<!-- Generated by IcoMoon.io -->
<svg version="1.1" xmlns="http://www.w3.org/2000/svg" width="64" height="64" viewBox="0 0 64 64">
<title>eyedropper</title>
<path d="M58.893 5.607l-0.5-0.5c-1.919-1.919-4.571-3.107-7.5-3.107s-5.581 1.187-7.5 3.107l-8.041 8.041-6.484-6.51-2.834 2.823 6.514 6.54-24.614 24.614c-3.402 3.384-5.508 8.069-5.508 13.246 0 0.018 0 0.036 0 0.054v-0.003 5.183c0.002 1.663 1.349 3.010 3.012 3.012h4.172c0.015 0 0.033 0 0.051 0 5.176 0 9.861-2.105 13.245-5.507l25.090-25.091 6.981 7.009 2.834-2.823-6.986-7.014 0.161-0.161-0.002-0.003 7.911-7.911c1.919-1.919 3.107-4.571 3.107-7.5s-1.187-5.581-3.107-7.5v0zM20.078 53.771c-2.664 2.678-6.353 4.336-10.428 4.336-0.014 0-0.028 0-0.042-0h-3.181v-4.195c-0-0.012-0-0.026-0-0.040 0-4.075 1.658-7.764 4.335-10.428l2.337-2.337h19.643zM36.681 37.167v-0.060h-19.583l18.408-18.408 9.822 9.822zM56.065 17.778l-7.672 7.672-9.843-9.843 7.672-7.672c1.196-1.196 2.847-1.935 4.672-1.935s3.476 0.739 4.672 1.935l0.5 0.5c1.194 1.196 1.932 2.848 1.932 4.672s-0.738 3.475-1.932 4.672l0-0z"></path>
</svg>
