<!-- Generated by IcoMoon.io -->
<svg version="1.1" xmlns="http://www.w3.org/2000/svg" width="64" height="64" viewBox="0 0 64 64">
<title>file-pdf</title>
<path d="M44.828 2h-35.828v28h-7v32h60v-42.828zM58 20.828v0.172h-15v-15h0.172zM6 58v-24h52v24zM13 30v-24h26v19h19v5z"></path>
<path d="M18.563 38h-6.063v16h4v-4h2.063c3.278-0.004 5.934-2.66 5.938-5.937v-0.125c-0.004-3.278-2.66-5.934-5.937-5.938h-0zM20.5 44.063c-0.001 1.070-0.868 1.936-1.937 1.938h-2.063v-4h2.063c1.070 0.001 1.936 0.868 1.938 1.937v0z"></path>
<path d="M42.5 54h4v-5h4v-4h-4v-3h6v-4h-10v16z"></path>
<path d="M32.479 38h-5.979v16h5.979c3.876-0.005 7.016-3.145 7.021-7.020v-1.959c-0.005-3.876-3.145-7.016-7.020-7.021h-0zM35.5 46.979c-0.002 1.668-1.353 3.019-3.021 3.021h-1.979v-8h1.979c1.668 0.002 3.019 1.353 3.021 3.021v0z"></path>
</svg>
