<!-- Generated by IcoMoon.io -->
<svg version="1.1" xmlns="http://www.w3.org/2000/svg" width="64" height="64" viewBox="0 0 64 64">
<title>file-powerpoint</title>
<path d="M41.828 2h-35.828v60h53v-42.828zM55 20.828v0.172h-15v-15h0.172zM10 58v-52h26v19h19v33z"></path>
<path d="M23.571 33h-7.571v21h4v-6.143h3.571c0.003 0 0.006 0 0.010 0 4.103 0 7.429-3.326 7.429-7.429s-3.326-7.429-7.429-7.429c-0.003 0-0.007 0-0.010 0h0zM23.571 43.857h-3.571v-6.857h3.571c0.002 0 0.004 0 0.007 0 1.894 0 3.429 1.535 3.429 3.429s-1.535 3.429-3.429 3.429c-0.002 0-0.005 0-0.007 0h0z"></path>
</svg>
