<!-- Generated by IcoMoon.io -->
<svg version="1.1" xmlns="http://www.w3.org/2000/svg" width="64" height="64" viewBox="0 0 64 64">
<title>file-acrobat</title>
<path d="M41.828 2h-35.828v60h53v-42.828zM55 20.828v0.172h-15v-15h0.172zM10 58v-52h26v19h19v33z"></path>
<path d="M40.794 38.377l-4.149 0.932c-3.055-2.481-5.681-5.323-7.862-8.495l-0.088-0.136 1.614-5.168c0.145-0.45 0.229-0.967 0.229-1.504 0-2.786-2.258-5.044-5.044-5.044s-5.044 2.258-5.044 5.044c0 1.32 0.507 2.522 1.338 3.421l-0.003-0.003 3.673 3.987c-0.677 4.226-1.916 8.024-3.653 11.53l0.105-0.233-4.084 0.917c-2.27 0.525-3.937 2.529-3.937 4.923 0 2.777 2.243 5.031 5.017 5.047h0.002c0.4-0 0.79-0.046 1.163-0.133l-0.035 0.007c1.775-0.397 3.172-1.698 3.7-3.383l0.010-0.035 1.691-5.414c2.582-0.89 5.62-1.595 8.755-1.988l0.228-0.023 3.77 4.092c0.915 1.003 2.227 1.63 3.686 1.63h0c0.4-0 0.79-0.046 1.164-0.133l-0.035 0.007c2.271-0.523 3.939-2.528 3.939-4.922 0-2.786-2.258-5.044-5.044-5.044-0.392 0-0.773 0.045-1.139 0.129l0.034-0.007zM23.542 23.396c0.218-0.697 0.784-1.224 1.49-1.383l0.014-0.003c0.137-0.032 0.295-0.051 0.457-0.051h0c1.125 0.007 2.035 0.92 2.035 2.046 0 0.217-0.034 0.427-0.097 0.623l0.004-0.015-1.056 3.38-2.399-2.604c-0.337-0.36-0.544-0.846-0.544-1.38 0-0.22 0.035-0.431 0.1-0.629l-0.004 0.014zM20.882 49.156c-0.268 0.838-1.040 1.435-1.951 1.435-1.129 0-2.044-0.915-2.044-2.044 0-0.97 0.676-1.783 1.583-1.992l0.014-0.003 3.455-0.776zM25.785 41.379c0.789-1.87 1.512-4.113 2.048-6.428l0.056-0.29c1.492 1.899 3.055 3.59 4.743 5.146l0.030 0.027c-2.654 0.404-4.976 0.942-7.228 1.637l0.35-0.093zM43.851 43.908c-0.268 0.838-1.040 1.435-1.952 1.435-0.594 0-1.129-0.253-1.502-0.658l-0.001-0.001-2.399-2.604 3.455-0.776c0.135-0.032 0.289-0.050 0.448-0.050 1.129 0 2.044 0.915 2.044 2.044 0 0.218-0.034 0.427-0.097 0.624l0.004-0.014z"></path>
</svg>
