<!-- Generated by IcoMoon.io -->
<svg version="1.1" xmlns="http://www.w3.org/2000/svg" width="64" height="64" viewBox="0 0 64 64">
<title>file-doc</title>
<path d="M44.828 2h-35.828v28h-7v32h60v-42.828zM58 20.828v0.172h-15v-15h0.172zM58 58h-52v-24h52zM13 30v-24h26v19h19v5z"></path>
<path d="M24 46.979v-1.958c-0.005-3.876-3.145-7.016-7.020-7.021h-5.98v16h5.979c3.876-0.005 7.016-3.145 7.021-7.020v-0zM15 42h1.979c1.668 0.002 3.019 1.353 3.021 3.021v1.959c-0.002 1.668-1.353 3.019-3.021 3.021h-1.979z"></path>
<path d="M32.5 54c3.588-0.004 6.496-2.912 6.5-6.5v-3c0-3.59-2.91-6.5-6.5-6.5s-6.5 2.91-6.5 6.5v0 3c0.004 3.588 2.912 6.496 6.5 6.5h0zM30 44.5c0-1.381 1.119-2.5 2.5-2.5s2.5 1.119 2.5 2.5v0 3c0 1.381-1.119 2.5-2.5 2.5s-2.5-1.119-2.5-2.5v0z"></path>
<path d="M47.5 54c0.002 0 0.005 0 0.008 0 2.751 0 5.102-1.711 6.047-4.128l0.015-0.044-3.717-1.487c-0.356 0.975-1.275 1.659-2.354 1.659-1.38 0-2.5-1.119-2.5-2.5 0-0 0-0 0-0.001v0-3c0-0 0-0 0-0 0-1.38 1.119-2.5 2.5-2.5 1.079 0 1.998 0.684 2.348 1.641l0.006 0.017 3.717-1.487c-0.963-2.461-3.317-4.172-6.069-4.172-3.59 0-6.5 2.91-6.501 6.5v3c0.004 3.588 2.912 6.496 6.5 6.5h0z"></path>
</svg>
