<!-- Generated by IcoMoon.io -->
<svg version="1.1" xmlns="http://www.w3.org/2000/svg" width="64" height="64" viewBox="0 0 64 64">
<title>find-replace</title>
<path d="M59.95 50.050l-10.136-10.136-7.796-3.221c2.491-3.504 3.982-7.87 3.982-12.584 0-0.008 0-0.017 0-0.025v0.001q0-0.546-0.027-1.086h-4.007c0.022 0.359 0.034 0.721 0.034 1.086 0 9.925-8.075 18-18 18-6.66-0.004-12.474-3.622-15.587-8.999l-0.046-0.087h8.633v-4h-15v15h4v-7.281c4.025 5.694 10.581 9.367 17.996 9.367 4.764 0 9.174-1.516 12.773-4.092l-0.066 0.045 3.212 7.776 10.136 10.136c1.268 1.276 3.024 2.065 4.965 2.065 3.866 0 7-3.134 7-7 0-1.94-0.789-3.696-2.065-4.964l-0-0zM57.121 57.121c-0.543 0.542-1.293 0.877-2.121 0.877s-1.578-0.335-2.121-0.877l-9.572-9.572-2.987-7.229 7.229 2.987 9.572 9.572c0.542 0.543 0.877 1.293 0.877 2.121s-0.335 1.578-0.877 2.121l0-0z"></path>
<path d="M6.023 25q-0.023-0.454-0.023-0.914c0-9.925 8.075-18 18-18 6.59 0.004 12.351 3.547 15.487 8.831l0.046 0.083h-8.532v4h15v-15h-4v7.452c-4.028-5.693-10.585-9.365-18-9.367h-0c-12.131 0-22 9.869-22 22 0 0.306 0.008 0.611 0.020 0.914z"></path>
</svg>
