<!-- Generated by IcoMoon.io -->
<svg version="1.1" xmlns="http://www.w3.org/2000/svg" width="64" height="64" viewBox="0 0 64 64">
<title>find-in-page</title>
<path d="M41.828 2h-35.828v60h53v-42.828zM55 58h-45v-52h30.172l14.828 14.828z"></path>
<path d="M29.983 19c-0.002 0-0.004 0-0.007 0-6.618 0-11.983 5.365-11.983 11.983s5.365 11.983 11.983 11.983c2.504 0 4.829-0.768 6.751-2.081l-0.041 0.027 8.504 8.504 2.828-2.828-8.437-8.437c1.489-1.974 2.385-4.468 2.385-7.172 0-6.615-5.362-11.977-11.977-11.977-0.002 0-0.004 0-0.006 0h0zM22 30.983c0 0 0-0 0-0 0-4.409 3.574-7.983 7.983-7.983s7.983 3.574 7.983 7.983c0 4.409-3.574 7.983-7.983 7.983 0 0 0 0 0 0v0c-4.407-0.005-7.977-3.576-7.983-7.982v-0z"></path>
</svg>
