<!-- Generated by IcoMoon.io -->
<svg version="1.1" xmlns="http://www.w3.org/2000/svg" width="64" height="64" viewBox="0 0 64 64">
<title>flight-land</title>
<path d="M2 58h60v4h-60v-4z"></path>
<path d="M57.072 51.6c1.819 0 2.963-1.038 3.474-2.235 0.764-1.787 0.343-4.333-1.153-6.985-1.491-2.643-3.73-4.8-6.303-6.073l-0.106-0.052-8.489-3.019-10.116-23.468c-0.894-2.056-2.857-3.494-5.168-3.615l-0.015-0.001-4.263-0.233c-0.049-0.003-0.106-0.004-0.164-0.004-1.657 0-3 1.343-3 3 0 0.178 0.015 0.353 0.045 0.522l-0.003-0.018 3.033 17.786-6.084-1.901-0.273-6.051c-0.114-2.41-1.631-4.438-3.748-5.295l-0.040-0.014-2.465-0.974c-0.327-0.133-0.706-0.21-1.102-0.21-1.344 0-2.482 0.884-2.864 2.103l-0.006 0.021-5.658 18.531 52.332 17.776c0.633 0.248 1.365 0.397 2.131 0.41l0.006 0zM11.772 17.087l1.458 0.576c0.719 0.29 1.225 0.967 1.263 1.765l0 0.005 0.399 8.853 14.995 4.686-3.92-22.989 3.012 0.165c0.775 0.041 1.43 0.52 1.722 1.192l0.005 0.013 10.806 25.069 9.904 3.523c1.809 0.923 3.45 2.536 4.514 4.441 0.877 1.569 1.024 2.721 0.98 3.204-0.238-0.037-0.45-0.095-0.652-0.174l0.021 0.007-0.019-0.007-48.697-16.542z"></path>
</svg>
