<!-- Generated by IcoMoon.io -->
<svg version="1.1" xmlns="http://www.w3.org/2000/svg" width="64" height="64" viewBox="0 0 64 64">
<title>flip-to-front</title>
<path d="M58 2h-40c-2.208 0.003-3.997 1.792-4 4v40c0.003 2.208 1.792 3.997 4 4h40c2.208-0.003 3.997-1.792 4-4v-40c-0.003-2.208-1.792-3.997-4-4h-0zM58 46h-40v-40h40l0.003 40z"></path>
<path d="M9.731 58h3.846v4h-3.846v-4z"></path>
<path d="M48 58h3.846v4h-3.846v-4z"></path>
<path d="M25.038 58h3.846v4h-3.846v-4z"></path>
<path d="M17.385 58h3.846v4h-3.846v-4z"></path>
<path d="M32.692 58h3.846v4h-3.846v-4z"></path>
<path d="M40.346 58h3.846v4h-3.846v-4z"></path>
<path d="M2 58h4v4h-4v-4z"></path>
<path d="M2 28.038h4v3.769h-4v-3.769z"></path>
<path d="M2 35.558h4v3.769h-4v-3.769z"></path>
<path d="M2 50.596h4v3.769h-4v-3.769z"></path>
<path d="M2 43.077h4v3.769h-4v-3.769z"></path>
<path d="M2 20.519h4v3.769h-4v-3.769z"></path>
<path d="M2 13h4v3.769h-4v-3.769z"></path>
</svg>
