<!-- Generated by IcoMoon.io -->
<svg version="1.1" xmlns="http://www.w3.org/2000/svg" width="64" height="64" viewBox="0 0 64 64">
<title>folder-special</title>
<path d="M59 13h-25.333l-2.564-6.154c-0.462-1.093-1.525-1.846-2.764-1.846-0.002 0-0.004 0-0.006 0h-23.333c-1.656 0.002-2.998 1.344-3 3v48c0.002 1.656 1.344 2.998 3 3h54c1.656-0.002 2.998-1.344 3-3v-40c-0.002-1.656-1.344-2.998-3-3h-0zM58 55h-52v-46h21.667l3.333 8h27z"></path>
<path d="M28.193 29.735l-6.052 0.984c-0.251 0.774-0.298 0.918-0.55 1.691l4.318 4.353c0.015 0.046 0.028 0.085 0.043 0.132l-0.935 6.060c0.658 0.478 0.781 0.567 1.439 1.045l5.475-2.762h0.139l5.475 2.762c0.658-0.478 0.781-0.567 1.439-1.045l-0.935-6.060c0.015-0.046 0.028-0.085 0.043-0.132l4.318-4.353c-0.251-0.774-0.298-0.918-0.55-1.691l-6.052-0.984-0.112-0.081-2.806-5.452h-1.778l-2.806 5.452z"></path>
</svg>
