<!-- Generated by IcoMoon.io -->
<svg version="1.1" xmlns="http://www.w3.org/2000/svg" width="64" height="64" viewBox="0 0 64 64">
<title>functions</title>
<path d="M45.596 46.343c-0.817-0.548-1.409-1.379-1.638-2.349l-0.005-0.026-1.153-5.388 13.21-12.774h-5.76l-8.44 8.159-0.381-1.779v-0.024c-0.806-3.447-3.779-6.001-7.376-6.162l-0.017-0.001h-8.44l2.356-10.961c0.4-1.688 1.849-2.94 3.606-3.038l0.010-0h5.955v-4h-6.082c-3.613 0.161-6.586 2.716-7.381 6.109l-0.011 0.054-2.55 11.837h-10.5v4h9.646l-4.075 18.961c-0.401 1.687-1.849 2.939-3.606 3.038l-0.010 0h-5.955v4h6.082c3.612-0.161 6.585-2.715 7.381-6.108l0.011-0.054 4.264-19.839h9.171c1.766 0.099 3.215 1.351 3.61 3.011l0.005 0.027 0.9 4.205-14.233 13.758h5.75l9.464-9.149 0.634 2.962v0.024c0.806 3.45 3.785 6.007 7.386 6.162l0.016 0.001h6.559v-4h-6.431c-0.74-0.041-1.417-0.281-1.986-0.666l0.014 0.009z"></path>
</svg>
