<!-- Generated by IcoMoon.io -->
<svg version="1.1" xmlns="http://www.w3.org/2000/svg" width="64" height="64" viewBox="0 0 64 64">
<title>futbol</title>
<path d="M53.213 10.787c-5.43-5.436-12.935-8.799-21.225-8.799-16.569 0-30 13.431-30 30 0 8.29 3.363 15.795 8.799 21.225l0 0c5.43 5.436 12.935 8.799 21.225 8.799 16.569 0 30-13.431 30-30 0-8.29-3.363-15.795-8.799-21.225l-0-0zM52.655 16.229c3.134 4.053 5.101 9.151 5.321 14.697l0.002 0.050-8.267-6.222zM39.504 7.106l-7.297 5.421-7.641-5.442c2.225-0.688 4.783-1.085 7.434-1.085 2.676 0 5.258 0.404 7.688 1.155l-0.184-0.049zM14.599 24.756l-8.58 6.285c0.209-5.655 2.203-10.807 5.43-14.95l-0.043 0.058zM10.775 47h9.921l3.13 9.682c-5.391-1.833-9.858-5.212-12.997-9.603l-0.054-0.079zM28.373 57.746l-4.767-14.746h-15.161c-1.004-2.086-1.762-4.506-2.148-7.048l-0.018-0.143 13.121-9.612-4.956-13.358c1.657-1.525 3.535-2.85 5.57-3.914l0.144-0.069 12.098 8.617 11.593-8.613c2.188 1.139 4.073 2.471 5.753 4.022l-0.018-0.016-4.605 13.333 12.744 9.59c-0.403 2.692-1.161 5.119-2.235 7.366l0.067-0.155h-14.616l-5.256 14.738c-1.107 0.167-2.384 0.262-3.683 0.262-1.279 0-2.537-0.092-3.767-0.271l0.14 0.017zM40.324 56.634l3.435-9.634h9.466c-3.163 4.429-7.574 7.785-12.718 9.578l-0.183 0.056z"></path>
<path d="M43.351 27.928l-11.119-8.079-11.119 8.079 4.247 13.072h13.744zM36.198 37h-7.932l-2.451-7.544 6.417-4.662 6.417 4.662z"></path>
</svg>
