<!-- Generated by IcoMoon.io -->
<svg version="1.1" xmlns="http://www.w3.org/2000/svg" width="64" height="64" viewBox="0 0 64 64">
<title>glasses</title>
<path d="M61.619 37.245l-4.619-27.714c-0.54-3.156-3.256-5.528-6.526-5.528-1.078 0-2.097 0.258-2.996 0.716l0.038-0.017-2.516 1.258v3.040h2.864l1.441-0.72c0.341-0.174 0.743-0.276 1.17-0.276 1.293 0 2.367 0.938 2.578 2.17l0.002 0.015 4.135 24.808c-2.457-0.67-5.278-1.055-8.189-1.055-3.956 0-7.745 0.711-11.249 2.011l0.224-0.073c-0.145 0.054-0.266 0.109-0.382 0.171l0.016-0.008c-1.616-1.103-3.611-1.761-5.761-1.761-2.095 0-4.044 0.625-5.67 1.7l0.038-0.024c-0.063-0.028-0.126-0.054-0.191-0.078-3.279-1.228-7.069-1.938-11.024-1.938-2.892 0-5.696 0.38-8.363 1.092l0.226-0.051 4.082-24.491c0.214-1.248 1.287-2.186 2.58-2.186 0.426 0 0.829 0.102 1.185 0.283l-0.015-0.007 0.832 0.416h2.472v-3.236l-1.516-0.758c-0.862-0.44-1.88-0.699-2.959-0.699-3.27 0-5.985 2.372-6.52 5.489l-0.006 0.039-4.548 27.288c-0.288 0.465-0.452 10.126-0.452 10.126 0.006 5.382 4.368 9.744 9.749 9.75h6.501c5.382-0.006 9.744-4.368 9.75-9.749v-7.651c1.052-0.822 2.393-1.318 3.85-1.318 1.594 0 3.049 0.594 4.157 1.572l-0.007-0.006v7.403c0.006 5.382 4.368 9.744 9.749 9.75h6.501c5.382-0.006 9.744-4.368 9.75-9.749v-0.001s-0.138-9.568-0.381-10.005zM24 47.25c-0.004 3.174-2.576 5.746-5.75 5.75h-6.5c-3.174-0.004-5.746-2.576-5.75-5.75v-7.085l0.133-0.799c2.647-0.903 5.697-1.425 8.868-1.425 3.22 0 6.314 0.537 9.198 1.527l-0.199-0.059zM58 47.25c-0.004 3.174-2.576 5.746-5.75 5.75h-6.5c-3.174-0.004-5.746-2.576-5.75-5.75v-7.84c2.685-0.931 5.779-1.468 8.999-1.468 3.191 0 6.259 0.528 9.121 1.501l-0.199-0.059 0.080 0.477z"></path>
</svg>
