<!-- Generated by IcoMoon.io -->
<svg version="1.1" xmlns="http://www.w3.org/2000/svg" width="64" height="64" viewBox="0 0 64 64">
<title>globe-alt</title>
<path d="M32 2c-16.569 0-30 13.431-30 30s13.431 30 30 30 30-13.431 30-30-13.431-30-30-30zM55.958 21.881c1.291 2.987 2.042 6.466 2.042 10.119 0 3.364-0.636 6.579-1.795 9.532l0.061-0.177-6.266-8.355h-20v-5l2.485-1.863 10.173 2.035 4.689-4.689-2.064-5.159 4.275-5.497q0.42 0.386 0.826 0.79c2.315 2.309 4.196 5.052 5.509 8.097l0.065 0.168zM13.615 50.385c-4.705-4.71-7.615-11.214-7.615-18.398 0-3.649 0.751-7.123 2.106-10.275l-0.065 0.169c0.127-0.301 0.262-0.598 0.4-0.893l6.559 5.903v7.904l9.638 10.205h4.862v6.131l-5.881 5.489q-0.878-0.299-1.738-0.662c-3.213-1.378-5.957-3.258-8.265-5.573l-0.001-0.001zM50.385 50.385c-4.691 4.705-11.178 7.615-18.346 7.615-0.014 0-0.027 0-0.041-0h0.002c-0.001 0-0.001 0-0.002 0-1.31 0-2.597-0.096-3.856-0.281l0.143 0.017 5.215-4.867v-11.869h-7.138l-7.362-7.795v-8.096l-8.537-7.683c2.829-4.128 6.704-7.35 11.249-9.319l0.169-0.065c2.986-1.298 6.465-2.052 10.119-2.052 5.372 0 10.363 1.631 14.505 4.424l-0.092-0.059-5.696 7.323 1.936 4.841-1.311 1.311-9.827-1.965-5.515 4.137v11h22l6.293 8.391c-1.15 1.892-2.442 3.53-3.908 4.994l-0 0z"></path>
</svg>
