<!-- Generated by IcoMoon.io -->
<svg version="1.1" xmlns="http://www.w3.org/2000/svg" width="64" height="64" viewBox="0 0 64 64">
<title>hand-point-up</title>
<path d="M52.132 62.212h-18.021l-27.915-30.906c-0.48-0.53-0.774-1.236-0.774-2.011 0-0.899 0.395-1.705 1.021-2.255l0.003-0.003c1.977-1.736 4.586-2.796 7.442-2.796 3.517 0 6.658 1.606 8.731 4.125l0.016 0.020 2.312 2.826h3.052v-22.5c0-3.59 2.91-6.5 6.5-6.5s6.5 2.91 6.5 6.5v0 13.98l15.803 4.39c1.276 0.366 2.194 1.52 2.197 2.89v19.963c0 0.57-0.159 1.103-0.435 1.557l0.008-0.013zM35.889 58.212h13.979l5.132-8.554v-18.926l-18-5v-17.020c0-1.381-1.119-2.5-2.5-2.5s-2.5 1.119-2.5 2.5v0 26.5h-8.948l-3.512-4.293c-1.35-1.64-3.38-2.678-5.653-2.678-1.486 0-2.869 0.444-4.022 1.206l0.027-0.017zM55.728 30.934l0.004 0.001z"></path>
</svg>
