<!-- Generated by IcoMoon.io -->
<svg version="1.1" xmlns="http://www.w3.org/2000/svg" width="64" height="64" viewBox="0 0 64 64">
<title>handshake</title>
<path d="M32.782 16h12.933l8.492 8h7.794v-4h-6.206l-8.492-8h-32.198c-0.893 0.002-1.698 0.375-2.271 0.972l-7.662 8.046-3.159-0.018-0.023 4 4.888 0.028 8.597-9.028h11.652l-9.293 9.292c-1.312 1.315-2.123 3.13-2.123 5.134 0 4.015 3.255 7.269 7.269 7.269 2.004 0 3.819-0.811 5.134-2.123l3.008-3.008 11.927 11.927-2.405 2.524c-0.259 0.271-0.623 0.44-1.026 0.44-0.391 0-0.746-0.159-1.002-0.415l-6.77-6.77-2.828 2.828 4.998 4.998-2.331 2.382c-0.257 0.263-0.616 0.426-1.013 0.426-0.391 0-0.746-0.159-1.002-0.415l-6.803-6.803-2.828 2.828 3.084 3.084-1.848 1.957c-0.259 0.274-0.625 0.444-1.030 0.444-0.389 0-0.741-0.157-0.997-0.41l0 0-10.405-10.59h-6.839v4h5.161l9.25 9.413c0.973 0.98 2.322 1.587 3.812 1.587 0.006 0 0.011 0 0.017 0h-0.001c0.026 0 0.053-0 0.080-0.001 1.523-0.017 2.891-0.665 3.858-1.694l0.003-0.003 1.77-1.874 0.89 0.89c0.974 0.98 2.323 1.587 3.814 1.587 0.005 0 0.011 0 0.016 0h-0.001c0.010 0 0.020 0 0.030 0 1.507-0.004 2.867-0.626 3.841-1.627l0.001-0.001 2.447-2.5c0.753 0.427 1.654 0.678 2.614 0.678 0.004 0 0.008 0 0.012 0h-0.001c0.022 0 0.045-0 0.067-0 1.519-0.014 2.885-0.655 3.854-1.677l0.002-0.002 2.548-2.674h7.755l5-5.101h3.16v-4h-4.84l-5 5.101h-4.847l-13.365-13.365 3.837-3.836-2.828-2.829-9.674 9.672c-0.592 0.592-1.409 0.957-2.311 0.957-1.805 0-3.269-1.464-3.269-3.269 0-0.903 0.366-1.72 0.958-2.312v0z"></path>
</svg>
