<!-- Generated by IcoMoon.io -->
<svg version="1.1" xmlns="http://www.w3.org/2000/svg" width="64" height="64" viewBox="0 0 64 64">
<title>hand-spock</title>
<path d="M56.699 18.512c-0.345-0.071-0.742-0.112-1.148-0.112-0.167 0-0.332 0.007-0.495 0.020l0.021-0.001 0.445-2.256c0.071-0.345 0.111-0.743 0.111-1.149 0-3.314-2.686-6-6-6-2.898 0-5.316 2.054-5.877 4.786l-0.007 0.039-2.815 14.258-3.604-21.194c-0.501-2.852-2.959-4.991-5.916-4.991-3.069 0-5.6 2.303-5.959 5.275l-0.003 0.029c-0.36-0.077-0.774-0.121-1.198-0.121-3.314 0-6 2.686-6 6 0 0.355 0.031 0.703 0.090 1.042l-0.005-0.036 3.894 22.9h-1.905l-1.939-1.939c-1.892-1.888-4.504-3.056-7.389-3.056s-5.497 1.168-7.389 3.056l0-0c-0.542 0.543-0.877 1.293-0.877 2.121s0.335 1.578 0.877 2.121l19.394 19.394-0.001 0.124 3.164 3.178h28.561l4.396-19.78v-5.024l2.297-11.635c0.072-0.348 0.112-0.747 0.112-1.157 0-2.903-2.060-5.326-4.798-5.885l-0.039-0.007zM57.498 24.786l-2.373 12.018v4.976l-3.604 16.22h-23.69l-0.818-0.822 0.001-0.129-19.812-19.812c1.051-0.771 2.37-1.234 3.797-1.234 1.781 0 3.394 0.721 4.562 1.886l3.111 3.111h8.299l-4.689-27.57c-0.018-0.101-0.028-0.217-0.028-0.336 0-1.104 0.895-1.999 1.999-1.999 0.683 0 1.285 0.342 1.646 0.864l0.004 0.007 4.382 21.034h4.086l-4.929-24.757c-0.018-0.101-0.028-0.218-0.028-0.336 0-0.613 0.275-1.162 0.708-1.53l0.003-0.002c0.136-0.118 0.292-0.217 0.461-0.291l0.012-0.005c0.239-0.109 0.518-0.172 0.813-0.172 0.987 0 1.808 0.714 1.973 1.654l0.002 0.012 4.324 25.427h6.333l3.63-18.387c0.188-0.926 0.995-1.613 1.962-1.613 1.105 0 2 0.895 2 2 0 0.137-0.014 0.271-0.040 0.4l0.002-0.013-3.677 17.612h4.091l1.986-9.267c0.161-0.761 0.828-1.324 1.625-1.324 0.1 0 0.197 0.009 0.292 0.026l-0.010-0.002q0.010 0.002 0.019 0.004c0.926 0.189 1.612 0.996 1.612 1.964 0 0.136-0.014 0.27-0.040 0.398l0.002-0.013z"></path>
</svg>
