<!-- Generated by IcoMoon.io -->
<svg version="1.1" xmlns="http://www.w3.org/2000/svg" width="64" height="64" viewBox="0 0 64 64">
<title>hand-point-left</title>
<path d="M49.723 59h-19.963c-1.37-0.003-2.525-0.921-2.885-2.176l-0.005-0.021-4.39-15.803h-13.98c-3.59 0-6.5-2.91-6.5-6.5s2.91-6.5 6.5-6.5v0h22.5v-3.052l-2.825-2.312c-2.538-2.088-4.145-5.23-4.145-8.747 0-2.856 1.060-5.465 2.807-7.455l-0.011 0.013c0.553-0.629 1.359-1.024 2.258-1.024 0.775 0 1.481 0.294 2.013 0.776l-0.003-0.002 30.905 27.915v18.021l-10.733 6.44c-0.441 0.269-0.973 0.428-1.543 0.428v0zM30.52 55h18.926l8.554-5.132v-13.979l-28.781-25.996c-0.745 1.126-1.189 2.509-1.189 3.995 0 2.273 1.038 4.303 2.665 5.643l0.013 0.010 4.292 3.512v8.948h-26.5c-1.381 0-2.5 1.119-2.5 2.5s1.119 2.5 2.5 2.5v0h17.020zM28.413 9.165l0.003 0.002z"></path>
</svg>
