<!-- Generated by IcoMoon.io -->
<svg version="1.1" xmlns="http://www.w3.org/2000/svg" width="64" height="64" viewBox="0 0 64 64">
<title>hard-drive</title>
<path d="M6 4v56c0 1.105 0.895 2 2 2v0h48c1.105 0 2-0.895 2-2v0-56c0-1.105-0.895-2-2-2v0h-48c-1.105 0-2 0.895-2 2v0zM54 6v34h-44v-34zM10 58v-14h44v14z"></path>
<path d="M44.567 48.702h4.365v4.365h-4.365v-4.365z"></path>
<path d="M35 48.702h4.365v4.365h-4.365v-4.365z"></path>
<path d="M32.5 14v-4c-6.9 0.008-12.492 5.6-12.5 12.499v0.001h4c0.006-4.692 3.808-8.495 8.499-8.5h0.001z"></path>
<path d="M32.5 35c6.9-0.008 12.492-5.6 12.5-12.499v-0.001h-4c-0.005 4.692-3.808 8.494-8.499 8.5h-0.001z"></path>
</svg>
