<!-- Generated by IcoMoon.io -->
<svg version="1.1" xmlns="http://www.w3.org/2000/svg" width="64" height="64" viewBox="0 0 64 64">
<title>industry</title>
<path d="M57.407 12l-16.407 16.212v-16.212h-4.316l-15.684 15.908v-25.908h-19v60h60v-50zM58 58h-52v-52h11v27h4.597l15.403-15.623v15.623h4.846l16.154-15.962z"></path>
<path d="M17 38h4v4h-4v-4z"></path>
<path d="M17 47h4v4h-4v-4z"></path>
<path d="M27 38h4v4h-4v-4z"></path>
<path d="M27 47h4v4h-4v-4z"></path>
<path d="M37 38h4v4h-4v-4z"></path>
<path d="M37 47h4v4h-4v-4z"></path>
<path d="M47 38h4v4h-4v-4z"></path>
<path d="M47 47h4v4h-4v-4z"></path>
</svg>
