<!-- Generated by IcoMoon.io -->
<svg version="1.1" xmlns="http://www.w3.org/2000/svg" width="64" height="64" viewBox="0 0 64 64">
<title>infinity</title>
<path d="M57.899 22.101c-2.533-2.534-6.033-4.101-9.899-4.101s-7.366 1.567-9.899 4.101l-6.071 6.071-6.071-6.071c-2.534-2.534-6.034-4.1-9.899-4.1-7.732 0-14 6.268-14 14s6.268 14 14 14c3.866 0 7.366-1.567 9.899-4.1l6.071-6.071 6.071 6.071c2.533 2.534 6.033 4.1 9.899 4.1 7.732 0 14-6.268 14-14 0-3.866-1.567-7.366-4.1-9.899v0zM23.13 39.071c-1.81 1.81-4.31 2.929-7.071 2.929-5.523 0-10-4.477-10-10s4.477-10 10-10c2.761 0 5.261 1.119 7.071 2.929l6.899 6.899v0.343zM55.071 39.071c-1.81 1.81-4.31 2.929-7.071 2.929s-5.261-1.119-7.071-2.929l-6.9-6.9v-0.343l6.9-6.9c1.81-1.81 4.31-2.929 7.071-2.929 5.523 0 10 4.477 10 10 0 2.761-1.119 5.261-2.929 7.071v0z"></path>
</svg>
