<!-- Generated by IcoMoon.io -->
<svg version="1.1" xmlns="http://www.w3.org/2000/svg" width="64" height="64" viewBox="0 0 64 64">
<title>input-component</title>
<path d="M17 13h-3v-11h-4v11h-3c-1.656 0.002-2.998 1.344-3 3v32c0.002 1.656 1.344 2.998 3 3h3v11h4v-11h3c1.656-0.002 2.998-1.344 3-3v-32c-0.002-1.656-1.344-2.998-3-3h-0zM16 17v13h-8v-13zM8 47v-13h8v13z"></path>
<path d="M37 13h-3v-11h-4v11h-3c-1.656 0.002-2.998 1.344-3 3v32c0.002 1.656 1.344 2.998 3 3h3v11h4v-11h3c1.656-0.002 2.998-1.344 3-3v-32c-0.002-1.656-1.344-2.998-3-3h-0zM36 17v13h-8v-13zM28 47v-13h8v13z"></path>
<path d="M57 13h-3v-11h-4v11h-3c-1.656 0.002-2.998 1.344-3 3v32c0.002 1.656 1.344 2.998 3 3h3v11h4v-11h3c1.656-0.002 2.998-1.344 3-3v-32c-0.002-1.656-1.344-2.998-3-3h-0zM56 17v13h-8v-13zM48 47v-13h8v13z"></path>
</svg>
