<!-- Generated by IcoMoon.io -->
<svg version="1.1" xmlns="http://www.w3.org/2000/svg" width="64" height="64" viewBox="0 0 64 64">
<title>input-svideo</title>
<path d="M19 26h5v5h-5v-5z"></path>
<path d="M16.5 35h5v5h-5v-5z"></path>
<path d="M43.5 35h5v5h-5v-5z"></path>
<path d="M39.5 25.5h5v5h-5v-5z"></path>
<path d="M32 7c-13.785 0-25 11.215-25 25s11.215 25 25 25 25-11.215 25-25-11.215-25-25-25zM32 53c-11.579 0-21-9.421-21-21s9.421-21 21-21 21 9.421 21 21-9.421 21-21 21z"></path>
<path d="M26 43h13v4h-13v-4z"></path>
<path d="M26 17h13v4h-13v-4z"></path>
</svg>
