<!-- Generated by IcoMoon.io -->
<svg version="1.1" xmlns="http://www.w3.org/2000/svg" width="64" height="64" viewBox="0 0 64 64">
<title>input-antenna</title>
<path d="M53.213 10.787c-5.429-5.429-12.929-8.787-21.213-8.787-16.569 0-30 13.431-30 30v0h4c0-14.336 11.664-26 26-26s26 11.664 26 26h4c0-0.024 0-0.053 0-0.081 0-8.259-3.359-15.733-8.786-21.131l-0.001-0.001z"></path>
<path d="M32 12c-11.028 0-20 8.972-20 20h4c0-8.837 7.163-16 16-16s16 7.163 16 16v0h4c0-11.028-8.972-20-20-20z"></path>
<path d="M34 41.286c4.318-0.954 7.5-4.749 7.5-9.287 0-5.247-4.253-9.5-9.5-9.5s-9.5 4.253-9.5 9.5c0 4.538 3.182 8.333 7.437 9.275l0.063 0.012v6.885l-13.87 13.87h5.657l10.213-10.213 10.213 10.213h5.657l-13.87-13.87zM26.5 32c0-3.038 2.462-5.5 5.5-5.5s5.5 2.462 5.5 5.5c0 3.038-2.462 5.5-5.5 5.5v0c-3.036-0.004-5.496-2.464-5.5-5.5v-0z"></path>
</svg>
