<!-- Generated by IcoMoon.io -->
<svg version="1.1" xmlns="http://www.w3.org/2000/svg" width="64" height="64" viewBox="0 0 64 64">
<title>key</title>
<path d="M42 2c-11.028 0-20 8.972-20 20 0 0.005 0 0.010 0 0.016 0 1.926 0.273 3.788 0.781 5.55l-0.035-0.141-20.746 20.746v13.828h16v-6h5v-6h4.828l8.746-8.746c1.621 0.474 3.483 0.746 5.409 0.746 0.006 0 0.011 0 0.017 0h-0.001c11.028 0 20-8.972 20-20s-8.972-20-20-20zM42 38c-0.005 0-0.011 0-0.017 0-1.899 0-3.721-0.332-5.411-0.94l0.111 0.035-1.188-0.418-9.324 9.324h-7.172v6h-5v6h-8v-8.172l21.324-21.324-0.418-1.188c-0.576-1.584-0.91-3.412-0.91-5.319 0-8.838 7.164-16.002 16.002-16.002s16.002 7.164 16.002 16.002c0 8.837-7.163 16.001-16 16.002h-0z"></path>
<path d="M43 13c-4.418 0-8 3.582-8 8s3.582 8 8 8c4.418 0 8-3.582 8-8v0c-0.005-4.416-3.584-7.995-7.999-8h-0.001zM43 25c-2.209 0-4-1.791-4-4s1.791-4 4-4c2.209 0 4 1.791 4 4v0c-0.003 2.208-1.792 3.997-4 4h-0z"></path>
</svg>
