<!-- Generated by IcoMoon.io -->
<svg version="1.1" xmlns="http://www.w3.org/2000/svg" width="64" height="64" viewBox="0 0 64 64">
<title>lemon</title>
<path d="M58.285 5.993c-1.943-1.942-4.626-3.143-7.59-3.143-2.589 0-4.965 0.917-6.819 2.443l0.019-0.015c-2.433-0.885-5.241-1.397-8.169-1.397-0.013 0-0.025 0-0.038 0h0.002c-0 0-0 0-0 0-17.346 0-31.408 14.062-31.408 31.408 0 0 0 0 0 0v0c0 0.011 0 0.024 0 0.037 0 2.928 0.512 5.736 1.451 8.34l-0.054-0.171c-1.512 1.836-2.428 4.211-2.428 6.8 0 5.928 4.806 10.734 10.734 10.734 2.589 0 4.964-0.917 6.818-2.443l-0.018 0.015c2.433 0.885 5.241 1.397 8.169 1.397 0.013 0 0.026 0 0.038 0h-0.002c17.346-0 31.408-14.062 31.408-31.408v0c0-0.011 0-0.024 0-0.037 0-2.928-0.512-5.736-1.451-8.341l0.054 0.171c1.509-1.836 2.424-4.211 2.424-6.799 0-2.963-1.199-5.646-3.139-7.591l0 0zM54.838 20.695c0.986 2.322 1.559 5.023 1.559 7.858 0 0.013 0 0.025-0 0.038v-0.002c0 15.113-12.295 27.408-27.408 27.408-0.011 0-0.023 0-0.035 0-2.835 0-5.536-0.573-7.994-1.61l0.135 0.051-1.291-0.533-0.945 1.029c-0.038 0.041-0.076 0.083-0.116 0.123-1.218 1.217-2.9 1.969-4.758 1.969-3.718 0-6.733-3.014-6.733-6.733 0-1.858 0.752-3.54 1.969-4.758l-0 0c0.040-0.040 0.081-0.078 0.123-0.116l1.029-0.945-0.533-1.291c-0.986-2.323-1.559-5.024-1.559-7.859 0-0.012 0-0.024 0-0.037v0.002c0-15.113 12.295-27.408 27.408-27.408 0.011 0 0.023 0 0.035 0 2.835 0 5.536 0.573 7.994 1.61l-0.135-0.051 1.291 0.533 0.945-1.028c0.038-0.041 0.075-0.082 0.117-0.123 1.218-1.215 2.899-1.967 4.755-1.967 3.718 0 6.733 3.014 6.733 6.733 0 1.857-0.751 3.538-1.967 4.756l0-0c-0.041 0.040-0.082 0.079-0.124 0.117l-1.027 0.945z"></path>
<path d="M15.040 28.343l3.559 1.826c3.194-6.158 8.477-10.86 14.892-13.227l0.19-0.061-1.36-3.762c-7.566 2.782-13.62 8.169-17.198 15.050l-0.082 0.174z"></path>
</svg>
