<!-- Generated by IcoMoon.io -->
<svg version="1.1" xmlns="http://www.w3.org/2000/svg" width="64" height="64" viewBox="0 0 64 64">
<title>library-bookmark</title>
<path d="M59 2h-38c-1.656 0.002-2.998 1.344-3 3v38c0.002 1.656 1.344 2.998 3 3h38c1.656-0.002 2.998-1.344 3-3v-38c-0.002-1.656-1.344-2.998-3-3h-0zM50 6.042v21.602l-6.050-5.311-5.95 5.28v-21.571zM58 42h-36v-36h12v27h3.955l6.009-5.332 6.074 5.332h3.962v-27h4z"></path>
<path d="M14 50v-40h-4v41c0 1.657 1.343 3 3 3v0h41v-4z"></path>
<path d="M6 58v-40h-4v41c0 1.657 1.343 3 3 3v0h41v-4z"></path>
</svg>
