<!-- Generated by IcoMoon.io -->
<svg version="1.1" xmlns="http://www.w3.org/2000/svg" width="64" height="64" viewBox="0 0 64 64">
<title>link-broken</title>
<path d="M36 62.187h4v-16h16v-4h-20v20z"></path>
<path d="M20.348 22.187h7.652v-20h-4v16h-16v4h12.348z"></path>
<path d="M9.838 54.509l-0.16-0.16c-2.273-2.273-3.679-5.413-3.679-8.881s1.406-6.608 3.679-8.881l9.4-9.4h-5.657l-6.571 6.571c-2.997 2.997-4.85 7.137-4.85 11.709s1.853 8.712 4.85 11.709l0.16 0.16c2.999 2.992 7.138 4.843 11.71 4.843s8.711-1.85 11.71-4.843l0.571-0.571v-5.657l-3.4 3.4c-2.274 2.269-5.414 3.673-8.881 3.673s-6.606-1.403-8.881-3.673l0 0z"></path>
<path d="M57.15 7.197l-0.16-0.16c-6.457-6.457-16.962-6.457-23.419 0l-0.571 0.571v5.657l3.4-3.4c2.274-2.269 5.414-3.673 8.881-3.673s6.606 1.403 8.881 3.673l0.16 0.16c2.273 2.273 3.679 5.413 3.679 8.881s-1.406 6.608-3.679 8.881l-9.4 9.4h5.657l6.571-6.571c2.997-2.997 4.85-7.137 4.85-11.709s-1.853-8.713-4.85-11.709v0z"></path>
</svg>
