<!-- Generated by IcoMoon.io -->
<svg version="1.1" xmlns="http://www.w3.org/2000/svg" width="64" height="64" viewBox="0 0 64 64">
<title>list-low-priority</title>
<path d="M32 7h30v4h-30v-4z"></path>
<path d="M32 20.334h30v4h-30v-4z"></path>
<path d="M32 33.666h30v4h-30v-4z"></path>
<path d="M41 47h21v4h-21v-4z"></path>
<path d="M20.9 47h-0.75c-7.8 0-14.15-8.075-14.15-18s6.35-18 14.154-18h6.846v-4h-6.846c-4.931 0-9.54 2.344-12.979 6.601-3.337 4.133-5.175 9.601-5.175 15.399s1.837 11.266 5.175 15.399c3.439 4.258 8.047 6.601 12.979 6.601h0.75v8.597l16.846-10.472-16.85-10.779zM24.9 45.654l5.35 3.422-5.35 3.326z"></path>
</svg>
