<!-- Generated by IcoMoon.io -->
<svg version="1.1" xmlns="http://www.w3.org/2000/svg" width="64" height="64" viewBox="0 0 64 64">
<title>location-gps-fixed</title>
<path d="M62 31h-9.024c-0.492-10.45-8.658-18.925-18.976-19.904v-9.096h-4v9.096c-10.318 0.979-18.483 9.454-18.976 19.904h-9.024v4h9.215c1.367 9.514 9.134 16.988 18.785 17.904v9.096h4v-9.096c9.651-0.916 17.418-8.39 18.785-17.904h9.215zM32 49c-9.374 0-17-7.626-17-17s7.626-17 17-17 17 7.626 17 17-7.626 17-17 17z"></path>
<path d="M32 20c-6.627 0-12 5.373-12 12s5.373 12 12 12c6.627 0 12-5.373 12-12v0c-0.008-6.624-5.376-11.992-11.999-12h-0.001zM32 40c-4.418 0-8-3.582-8-8s3.582-8 8-8c4.418 0 8 3.582 8 8v0c-0.005 4.416-3.584 7.995-7.999 8h-0.001z"></path>
</svg>
