<!-- Generated by IcoMoon.io -->
<svg version="1.1" xmlns="http://www.w3.org/2000/svg" width="64" height="64" viewBox="0 0 64 64">
<title>location-pin-check</title>
<path d="M30 28.172l-5.586-5.586-2.828 2.828 8.414 8.414 14.414-14.414-2.828-2.828-11.586 11.586z"></path>
<path d="M53.882 21.68c-1.181-10.996-10.411-19.483-21.623-19.483-12.007 0-21.74 9.733-21.74 21.74 0 4.413 1.315 8.52 3.575 11.948l-0.051-0.082 15.114 23.202c0.671 1.019 1.809 1.681 3.102 1.681s2.431-0.663 3.094-1.668l0.009-0.014 15.114-23.202c2.208-3.353 3.522-7.464 3.522-11.883 0-0.789-0.042-1.569-0.124-2.336l0.008 0.095zM47.124 33.62l-14.865 22.819-14.865-22.819c-4.55-6.985-3.574-16.333 2.32-22.227 3.21-3.21 7.645-5.196 12.544-5.196s9.334 1.986 12.544 5.196v0c5.894 5.894 6.87 15.242 2.32 22.227z"></path>
</svg>
