<!-- Generated by IcoMoon.io -->
<svg version="1.1" xmlns="http://www.w3.org/2000/svg" width="64" height="64" viewBox="0 0 64 64">
<title>location-pin-slash</title>
<path d="M32 6.197c0.014-0 0.031-0 0.048-0 4.884 0 9.303 1.986 12.495 5.195l0.001 0.001c5.894 5.895 6.87 15.242 2.32 22.227l-1.877 2.882 2.891 2.891 2.338-3.59c2.21-3.347 3.525-7.454 3.525-11.867 0-12.006-9.733-21.739-21.739-21.739-5.899 0-11.249 2.35-15.166 6.164l0.005-0.005 2.828 2.828c3.17-3.085 7.504-4.988 12.283-4.988 0.017 0 0.033 0 0.050 0h-0.003z"></path>
<path d="M38.077 29.591c1.441-1.446 2.332-3.441 2.332-5.644 0-4.416-3.58-7.996-7.996-7.996-2.203 0-4.198 0.891-5.644 2.332l0-0 2.827 2.827c0.723-0.718 1.718-1.162 2.818-1.162 2.208 0 3.998 1.79 3.998 3.998 0 1.099-0.444 2.095-1.162 2.818l0-0z"></path>
<path d="M4.828 2h-2.828v2.828l10.182 10.182c-1.214 2.625-1.923 5.696-1.923 8.933 0 4.411 1.315 8.515 3.575 11.941l-0.050-0.081 15.114 23.202c0.671 1.019 1.809 1.681 3.102 1.681s2.431-0.663 3.094-1.668l0.009-0.014 8.313-12.761 15.756 15.757h2.828v-2.828zM32 56.439l-14.865-22.819c-1.79-2.731-2.855-6.076-2.855-9.67 0-2.096 0.362-4.108 1.028-5.976l-0.039 0.124 25.255 25.255z"></path>
</svg>
