<!-- Generated by IcoMoon.io -->
<svg version="1.1" xmlns="http://www.w3.org/2000/svg" width="64" height="64" viewBox="0 0 64 64">
<title>locomotive</title>
<path d="M62 46.637l-3-8v-8.165c0-0.006 0-0.013 0-0.020 0-2.33-1.335-4.348-3.283-5.331l-0.034-0.016-2.683-1.342v-11.764h-14v11h-8.559l-3.632-10.898c-0.816-2.404-3.053-4.103-5.687-4.103-0.002 0-0.004 0-0.006 0h-19.117v10.354l5 2v6.292l-5 2v25.354h10.811c0.322 3.378 3.145 6 6.58 6 3.541 0 6.431-2.785 6.6-6.284l0.001-0.015 1.796-0.045c0.146 3.534 3.046 6.344 6.603 6.344 3.65 0 6.608-2.959 6.608-6.608 0-0 0-0.001 0-0.001v0c0-0.022-0.001-0.043-0.002-0.065l1.786-0.045c-0.001 0.037-0.003 0.073-0.003 0.11 0 0.003 0 0.006 0 0.009 0 3.65 2.959 6.609 6.609 6.609s6.609-2.959 6.609-6.609c0-0.003 0-0.006 0-0.010v0.001c0-0.131-0.005-0.261-0.013-0.391h6.013zM19.391 56c-1.441 0-2.609-1.168-2.609-2.609s1.168-2.609 2.609-2.609c1.441 0 2.609 1.168 2.609 2.609v0c-0.002 1.44-1.169 2.608-2.609 2.609h-0zM34.391 56c-1.441 0-2.609-1.168-2.609-2.609s1.168-2.609 2.609-2.609c1.441 0 2.609 1.168 2.609 2.609v0c-0.002 1.44-1.169 2.608-2.609 2.609h-0zM49.391 56c-1.441 0-2.609-1.168-2.609-2.609s1.168-2.609 2.609-2.609c1.441 0 2.609 1.168 2.609 2.609v0c-0.002 1.44-1.169 2.608-2.609 2.609h-0zM58 49h-3.675c-1.214-1.364-2.974-2.218-4.934-2.218-2.072 0-3.921 0.955-5.13 2.449l-0.010 0.012-4.629 0.116c-1.218-1.574-3.108-2.577-5.232-2.577-2.24 0-4.219 1.116-5.412 2.822l-0.014 0.021-4.076 0.102c-1.201-1.786-3.214-2.945-5.498-2.945-2.397 0-4.496 1.277-5.653 3.189l-0.017 0.029h-7.721v-18.646l5-2v-11.708l-5-2v-3.646h15.117c0.001 0 0.001 0 0.002 0 0.878 0 1.623 0.566 1.892 1.353l0.004 0.014 4.544 13.633h15.442v-11h6v10.236l4.894 2.447c0.66 0.333 1.106 1.006 1.106 1.782 0 0.002 0 0.005 0 0.007v-0 6.528h-43v4h43.614l2.386 6.363z"></path>
</svg>
