<!-- Generated by IcoMoon.io -->
<svg version="1.1" xmlns="http://www.w3.org/2000/svg" width="64" height="64" viewBox="0 0 64 64">
<title>loop-circular</title>
<path d="M5 10.038v4h10.21l-6.124 6.124c-9.36 9.36-9.441 24.536-0.247 33.998l2.828-2.828c-3.511-3.632-5.675-8.586-5.675-14.045 0-5.583 2.263-10.638 5.922-14.297l5.97-5.97v9.902h4v-16.885z"></path>
<path d="M54.914 42.837c9.36-9.359 9.441-24.536 0.247-33.998l-2.828 2.828c3.511 3.632 5.675 8.586 5.675 14.045 0 5.583-2.263 10.638-5.922 14.296l-6.086 6.086v-9.979h-4v16.885h16.885v-4h-10.133z"></path>
</svg>
