<!-- Generated by IcoMoon.io -->
<svg version="1.1" xmlns="http://www.w3.org/2000/svg" width="64" height="64" viewBox="0 0 64 64">
<title>loop-1</title>
<path d="M58 27v3.141c0 10.001-8.136 18.137-18.137 18.137h-30.313l5.864-5.864-2.828-2.828-10.414 10.414 10.414 10.414 2.828-2.828-5.308-5.308h29.756c12.206 0 22.137-9.931 22.137-22.137v-7.141z"></path>
<path d="M6 35.859c0-10.001 8.136-18.137 18.137-18.137h30.313l-5.864 5.864 2.828 2.828 10.414-10.414-10.414-10.414-2.828 2.828 5.308 5.308h-29.756c-12.206 0-22.137 9.931-22.137 22.137v7.141l4-4z"></path>
<path d="M26 40v4h14v-4h-5v-18h-4v4h-4v4h4v10h-5z"></path>
</svg>
