<!-- Generated by IcoMoon.io -->
<svg version="1.1" xmlns="http://www.w3.org/2000/svg" width="64" height="64" viewBox="0 0 64 64">
<title>map-alt</title>
<path d="M59 2h-54c-1.656 0.002-2.998 1.344-3 3v54c0.002 1.656 1.344 2.998 3 3h54c1.656-0.002 2.998-1.344 3-3v-54c-0.002-1.656-1.344-2.998-3-3h-0zM58 58h-52v-52h52z"></path>
<path d="M33.156 45h19.844v4h-19.844v-4z"></path>
<path d="M21.511 47.969c0.532 0.811 1.436 1.339 2.464 1.339 0.002 0 0.004 0 0.005 0h-0c0.002 0 0.003 0 0.005 0 1.028 0 1.932-0.528 2.457-1.327l0.007-0.011 8.407-12.905c1.319-1.998 2.104-4.45 2.104-7.085 0-7.169-5.811-12.98-12.98-12.98s-12.98 5.811-12.98 12.98c0 2.635 0.785 5.087 2.134 7.133l-0.030-0.049zM17.63 21.63c1.625-1.625 3.87-2.63 6.35-2.63s4.725 1.005 6.35 2.63v0c1.618 1.63 2.619 3.876 2.619 6.355 0 1.82-0.539 3.513-1.465 4.93l0.021-0.035-7.524 11.551-7.524-11.551c-0.905-1.383-1.444-3.076-1.444-4.896 0-2.479 1-4.725 2.619-6.356l-0 0.001z"></path>
</svg>
