<!-- Generated by IcoMoon.io -->
<svg version="1.1" xmlns="http://www.w3.org/2000/svg" width="64" height="64" viewBox="0 0 64 64">
<title>media-record</title>
<path d="M2 2v60h60v-60zM58 58h-52v-52h52z"></path>
<path d="M31.5 47c8.008 0 14.5-6.492 14.5-14.5s-6.492-14.5-14.5-14.5c-8.008 0-14.5 6.492-14.5 14.5v0c0.009 8.004 6.496 14.491 14.499 14.5h0.001zM31.5 22c5.799 0 10.5 4.701 10.5 10.5s-4.701 10.5-10.5 10.5c-5.799 0-10.5-4.701-10.5-10.5v0c0.007-5.796 4.704-10.493 10.499-10.5h0.001z"></path>
</svg>
