<!-- Generated by IcoMoon.io -->
<svg version="1.1" xmlns="http://www.w3.org/2000/svg" width="64" height="64" viewBox="0 0 64 64">
<title>mobile-sms</title>
<path d="M7 14h31l0.001 13h3.999v-21c-0.003-2.208-1.792-3.997-4-4h-31c-2.208 0.003-3.997 1.792-4 4v52c0.003 2.208 1.792 3.997 4 4h12.084v-4h-12.083v-12h12.083v-4h-12.083zM7 6h31l0 4h-31z"></path>
<path d="M24 32v30h38v-30zM58 58h-30v-15.324l12.827 8.3c0.614 0.402 1.365 0.641 2.173 0.641s1.559-0.239 2.188-0.65l-0.015 0.009 12.827-8.3zM58 37.912l-15 9.706-15-9.706v-1.912h30z"></path>
</svg>
