<!-- Generated by IcoMoon.io -->
<svg version="1.1" xmlns="http://www.w3.org/2000/svg" width="64" height="64" viewBox="0 0 64 64">
<title>mobile-slash</title>
<path d="M46 6l0 4h-26.818l4 4h22.819l0.001 22.82 3.998 3.998v-34.818c-0.003-2.208-1.792-3.997-4-4h-34.818l4 4z"></path>
<path d="M29 50h4v4h-4v-4z"></path>
<path d="M4.828 2h-2.828v2.828l9 9v44.172c0.003 2.208 1.792 3.997 4 4h31c2.208-0.003 3.997-1.792 4-4v-5.172l9.172 9.172h2.828v-2.828zM39.172 42h-24.172v-24.172zM46.003 58l-0.003 0h-31v-12h28.172l2.831 2.831z"></path>
</svg>
