<!-- Generated by IcoMoon.io -->
<svg version="1.1" xmlns="http://www.w3.org/2000/svg" width="64" height="64" viewBox="0 0 64 64">
<title>mobile-developer-mode</title>
<path d="M30 50h4v4h-4v-4z"></path>
<path d="M49.5 14h2v-8c-0.003-2.208-1.792-3.997-4-4h-31c-2.208 0.003-3.997 1.792-4 4v8h37zM16.5 6h31l0 4h-31z"></path>
<path d="M12.5 42v16c0.003 2.208 1.792 3.997 4 4h31c2.208-0.003 3.997-1.792 4-4v-16zM47.5 58h-31v-12h31.002l0.001 12z"></path>
<path d="M22.164 35.586l-7.586-7.586 7.586-7.586-2.828-2.828-10.414 10.414 10.414 10.414 2.828-2.828z"></path>
<path d="M53.5 26.422l-8.836-8.836-2.828 2.828 7.586 7.586-7.586 7.586 2.828 2.828 10.414-10.414-1.578-1.578z"></path>
</svg>
