<!-- Generated by IcoMoon.io -->
<svg version="1.1" xmlns="http://www.w3.org/2000/svg" width="64" height="64" viewBox="0 0 64 64">
<title>money</title>
<path d="M54 8h-52v40h52zM50 44h-44v-32h44z"></path>
<path d="M58 18v34h-46v4h50v-38h-4z"></path>
<path d="M28 37.807c4.963 0 9-4.392 9-9.791s-4.037-9.791-9-9.791-9 4.392-9 9.791 4.037 9.791 9 9.791zM28 22.226c2.757 0 5 2.598 5 5.791s-2.243 5.791-5 5.791-5-2.598-5-5.791 2.243-5.791 5-5.791z"></path>
<path d="M10 17h4v22h-4v-22z"></path>
<path d="M42 17h4v22h-4v-22z"></path>
</svg>
