<!-- Generated by IcoMoon.io -->
<svg version="1.1" xmlns="http://www.w3.org/2000/svg" width="64" height="64" viewBox="0 0 64 64">
<title>money-bill-alt</title>
<path d="M2 10v44h60v-44zM6 27.553c3.076-1.262 5.703-3.030 7.901-5.227l-0 0c2.302-2.304 4.133-5.078 5.337-8.165l0.056-0.162h25.412c2.407 6.197 7.158 11.033 13.136 13.496l0.158 0.058v8.893c-6.136 2.521-10.887 7.356-13.239 13.392l-0.055 0.162h-25.412c-1.26-3.249-3.091-6.023-5.393-8.327l0 0c-2.198-2.196-4.825-3.965-7.743-5.169l-0.158-0.058zM58 23.164c-3.921-2.022-7.013-5.184-8.896-9.046l-0.052-0.118h8.947zM14.947 14c-1.934 3.979-5.027 7.142-8.836 9.111l-0.111 0.052v-9.164zM6 40.836c3.921 2.022 7.013 5.184 8.896 9.046l0.052 0.118h-8.947zM49.053 50c1.934-3.979 5.027-7.142 8.836-9.111l0.111-0.052v9.164z"></path>
<path d="M32 44.017c6.065 0 11-5.391 11-12.017s-4.935-12.017-11-12.017-11 5.391-11 12.017 4.935 12.017 11 12.017zM32 23.983c3.86 0 7 3.596 7 8.017s-3.14 8.017-7 8.017-7-3.596-7-8.017 3.14-8.017 7-8.017z"></path>
</svg>
