<!-- Generated by IcoMoon.io -->
<svg version="1.1" xmlns="http://www.w3.org/2000/svg" width="64" height="64" viewBox="0 0 64 64">
<title>money-bill-alt2</title>
<path d="M10 18h10v4h-10v-4z"></path>
<path d="M10 42h10v4h-10v-4z"></path>
<path d="M44 18h10v4h-10v-4z"></path>
<path d="M44 42h10v4h-10v-4z"></path>
<path d="M2 10v44h60v-44zM58 50h-52v-36h52z"></path>
<path d="M32 44.017c6.065 0 11-5.391 11-12.017s-4.935-12.017-11-12.017-11 5.391-11 12.017 4.935 12.017 11 12.017zM32 23.983c3.86 0 7 3.596 7 8.017s-3.14 8.017-7 8.017-7-3.596-7-8.017 3.14-8.017 7-8.017z"></path>
</svg>
