<!-- Generated by IcoMoon.io -->
<svg version="1.1" xmlns="http://www.w3.org/2000/svg" width="64" height="64" viewBox="0 0 64 64">
<title>motorbike</title>
<path d="M49.5 26c-0.002 0-0.004 0-0.007 0-1.093 0-2.152 0.14-3.162 0.404l0.087-0.019 1.709 3.728c0.416-0.072 0.896-0.113 1.385-0.113 4.701 0 8.511 3.811 8.511 8.511s-3.811 8.511-8.511 8.511c-4.701 0-8.511-3.811-8.511-8.511 0-2.791 1.344-5.269 3.42-6.821l0.022-0.016-1.691-3.69c-3.474 2.258-5.74 6.12-5.74 10.512 0 6.901 5.594 12.495 12.495 12.495s12.495-5.594 12.495-12.495c0-6.901-5.594-12.495-12.495-12.495-0.002 0-0.004 0-0.005 0h0z"></path>
<path d="M14.5 47c-4.694-0-8.5-3.806-8.5-8.5s3.806-8.5 8.5-8.5c3.802 0 7.021 2.496 8.108 5.94l0.016 0.060h4.124c-0.491-2.343-1.58-4.379-3.099-6.007l0.007 0.007h-8.656v-3.989c-0.166-0.007-0.332-0.011-0.5-0.011-6.904 0-12.5 5.596-12.5 12.5s5.596 12.5 12.5 12.5c6.375 0 11.635-4.772 12.403-10.939l0.006-0.061h-4.045c-0.742 4.002-4.203 6.994-8.364 7h-0.001z"></path>
<path d="M48.182 39.833l3.636-1.666-11.535-25.167h-12.283v4h9.717l10.465 22.833z"></path>
<path d="M38 30.574v-4.574l-23 0.011v3.989h18.642l-3.75 6h-17.892v4h20.108l5.892-9.426z"></path>
<path d="M6 19h13v4h-13v-4z"></path>
</svg>
