<!-- Generated by IcoMoon.io -->
<svg version="1.1" xmlns="http://www.w3.org/2000/svg" width="64" height="64" viewBox="0 0 64 64">
<title>mouse</title>
<path d="M55 2v4h-22c-1.656 0.002-2.998 1.344-3 3v5h-3.922c-6.115 0.007-11.071 4.963-11.078 11.078v19.994c0 9.334 7.594 16.929 16.929 16.929h0.143c9.334 0 16.929-7.594 16.929-16.929v-19.993c-0.007-6.115-4.963-11.071-11.077-11.078h-3.923v-4h22c1.656-0.002 2.998-1.344 3-3v-5zM26.078 18h3.922v11h-11v-3.922c0.005-3.907 3.171-7.074 7.078-7.078h0zM32.071 58h-0.143c-7.137-0.008-12.92-5.792-12.929-12.928v-12.072h26v12.071c-0.008 7.137-5.792 12.92-12.928 12.929h-0.001zM45 25.078v3.922h-11v-11h3.922c3.907 0.005 7.074 3.171 7.078 7.078v0z"></path>
</svg>
