<!-- Generated by IcoMoon.io -->
<svg version="1.1" xmlns="http://www.w3.org/2000/svg" width="64" height="64" viewBox="0 0 64 64">
<title>musical-note</title>
<path d="M20 11.668v28.332h-7c-6.075 0-11 4.925-11 11s4.925 11 11 11c6.075 0 11-4.925 11-11v0-22.168l34-8.053v11.221h-7c-6.075 0-11 4.925-11 11s4.925 11 11 11c6.075 0 11-4.925 11-11v0-41.279zM20 46v5c0 3.866-3.134 7-7 7s-7-3.134-7-7c0-3.866 3.134-7 7-7v0h7zM58 43c0 3.866-3.134 7-7 7s-7-3.134-7-7c0-3.866 3.134-7 7-7v0h7v7zM58 16.668l-34 8.053v-9.889l34-8.053v9.889z"></path>
</svg>
