<!-- Generated by IcoMoon.io -->
<svg version="1.1" xmlns="http://www.w3.org/2000/svg" width="64" height="64" viewBox="0 0 64 64">
<title>newspaper</title>
<path d="M11 13v39.5c0 1.381-1.119 2.5-2.5 2.5s-2.5-1.119-2.5-2.5v0-29.5h-4v29.5c0.004 3.588 2.912 6.496 6.5 6.5h0c0.168 0 0.335-0.008 0.5-0.021v0.021h46.5c3.588-0.004 6.496-2.912 6.5-6.5v-39.5zM58 52.5c-0.002 1.38-1.12 2.498-2.5 2.5h-41.001c0.317-0.737 0.501-1.594 0.501-2.494 0-0.002 0-0.004 0-0.006v0-35.5h43z"></path>
<path d="M37 21h-18v20h18zM33 37h-10v-12h10z"></path>
<path d="M41 21h13v4h-13v-4z"></path>
<path d="M41 29h13v4h-13v-4z"></path>
<path d="M41 37h13v4h-13v-4z"></path>
</svg>
