<!-- Generated by IcoMoon.io -->
<svg version="1.1" xmlns="http://www.w3.org/2000/svg" width="64" height="64" viewBox="0 0 64 64">
<title>notebook</title>
<path d="M52.289 32.847c0-4.149-3.363-7.512-7.512-7.512-2.074 0-3.952 0.841-5.311 2.2l-17.708 17.708-2.49 10.509-0.018 0.085c-0.025 0.123-0.039 0.264-0.039 0.409 0 1.197 0.971 2.168 2.168 2.168 0.145 0 0.287-0.014 0.423-0.041l-0.014 0.002 10.593-2.508 17.708-17.708c1.359-1.352 2.2-3.223 2.2-5.291 0-0.007 0-0.014 0-0.022v0.001zM47.261 35.33l-16.906 16.906-6.508 1.542 1.542-6.508 16.906-16.906c0.636-0.635 1.513-1.029 2.483-1.029 1.939 0 3.512 1.572 3.512 3.512 0 0.97-0.393 1.848-1.029 2.483v0z"></path>
<path d="M43.763 2c-4.708 0.007-8.92 2.122-11.744 5.453l-0.018 0.022c-2.842-3.353-7.055-5.469-11.762-5.475h-18.238v50h13.836l0.948-4h-10.784v-42h14.237c4.126 0.006 7.737 2.202 9.734 5.488l0.029 0.051v19.596l4-4v-15.596c2.026-3.336 5.637-5.533 9.762-5.539h14.238v42h-11l-4 4h19v-50z"></path>
</svg>
