<!-- Generated by IcoMoon.io -->
<svg version="1.1" xmlns="http://www.w3.org/2000/svg" width="64" height="64" viewBox="0 0 64 64">
<title>opacity</title>
<path d="M22.408 43.753c0.205 0.942 0.446 1.744 0.739 2.52l-0.041-0.122c0.325 0.014 0.652 0.023 0.98 0.023 0 0 0.001 0 0.001 0 1.445 0 2.858-0.139 4.225-0.403l-0.139 0.022-1.194-1.194 2.828-2.828 2.723 2.723c2.087-0.879 3.887-1.973 5.497-3.29l-0.039 0.031-1.454-1.454 2.828-2.828 1.492 1.492c1.378-1.599 2.548-3.433 3.433-5.422l0.056-0.141-2.509-2.509 2.828-2.829 1.047 1.047c0.294-1.352 0.462-2.905 0.462-4.497 0-0.003 0-0.006 0-0.008v0c0-0.411-0.012-0.818-0.034-1.223-0.694-0.258-1.542-0.498-2.412-0.675l-0.115-0.020 0.775-3.924q0.538 0.106 1.066 0.239c-2.486-9.474-11.123-16.484-21.366-16.484-12.179 0-22.087 9.908-22.087 22.087 0 10.327 7.125 19.020 16.717 21.426q-0.119-0.454-0.219-0.915zM6 24.087c0-9.973 8.114-18.087 18.087-18.087s18.087 8.114 18.087 18.087-8.114 18.087-18.087 18.087-18.087-8.114-18.087-18.087z"></path>
<path d="M35.647 22.375l1.939-0.489-0.978-3.878-1.939 0.489c-8.106 2.107-14.316 8.494-16.134 16.547l-0.028 0.148-0.426 1.954 3.908 0.852 0.426-1.954c1.53-6.704 6.606-11.924 13.106-13.639l0.127-0.028z"></path>
<path d="M45.453 18.484q-0.528-0.132-1.066-0.239l-0.775 3.924c8.359 1.7 14.561 8.991 14.561 17.73 0 0.005 0 0.010 0 0.014v-0.001c0 0.371-0.013 0.74-0.035 1.106l2.664 2.664-2.828 2.828-0.766-0.766c-0.774 2.224-1.885 4.146-3.291 5.809l0.022-0.027 1.068 1.068-2.828 2.828-1.134-1.134c-1.642 1.266-3.561 2.273-5.641 2.914l-0.128 0.034 0.175 0.175-2.828 2.828-2.247-2.247c-0.097 0.002-0.194 0.004-0.291 0.004-7.616 0-14.401-4.857-16.98-11.849-0.253-0.654-0.493-1.456-0.676-2.28l-0.022-0.118-3.91 0.845q0.099 0.46 0.219 0.915c2.57 9.563 11.161 16.487 21.37 16.488h0c12.179 0 22.087-9.908 22.087-22.087 0-10.154-6.969-18.996-16.721-21.429z"></path>
<path d="M29.809 41.771l-2.828 2.828 15.643 15.644 2.828-2.828-15.643-15.643z"></path>
<path d="M39.365 36.953l-2.828 2.828 15.643 15.643 2.828-2.828-15.643-15.643z"></path>
<path d="M44.664 27.544l-2.828 2.829 16.139 16.139 2.828-2.828-16.139-16.139z"></path>
</svg>
