<!-- Generated by IcoMoon.io -->
<svg version="1.1" xmlns="http://www.w3.org/2000/svg" width="64" height="64" viewBox="0 0 64 64">
<title>opentype</title>
<path d="M52.415 20.484c-1.398-3.519-3.674-6.5-6.58-8.631-2.116-1.567-4.648-2.701-7.398-3.217l-0.113-0.018c-1.093-0.208-2.349-0.327-3.634-0.327-1.255 0-2.483 0.113-3.675 0.331l0.125-0.019c-5.125 0.896-10.055 3.71-13.884 7.922-3.844 4.231-6.348 9.637-7.051 15.225-0.705 5.646 0.459 11.135 3.295 15.456 2.845 4.344 7.174 7.25 12.186 8.178 1.071 0.208 2.303 0.326 3.562 0.326 0.009 0 0.017 0 0.026 0h-0.001c1.267-0 2.507-0.115 3.711-0.333l-0.126 0.019c3.114-0.541 6.112-1.761 8.91-3.625 6.54-4.355 11.038-11.646 12.026-19.521 0.519-4.119 0.042-8.188-1.379-11.766zM14.174 32.25c0.976-7.758 6.037-14.735 12.556-18-0.839 0.937-1.628 1.964-2.335 3.049l-0.060 0.098c-2.585 3.979-4.486 9.058-5.335 14.283-0.855 5.258-0.605 10.383 0.705 14.434 0.398 1.236 0.868 2.299 1.433 3.301l-0.046-0.088c-5.058-3.325-7.843-9.759-6.919-17.075zM42.586 31.679c-1.070 6.578-3.885 12.639-7.529 16.214-1.4 1.375-2.866 2.297-4.25 2.674-0.413 0.126-0.887 0.199-1.379 0.199-0.482 0-0.948-0.070-1.388-0.2l0.035 0.009c-1.95-0.596-3.575-2.617-4.565-5.693-1.117-3.458-1.317-7.919-0.563-12.56 0.762-4.69 2.446-9.216 4.741-12.75 2.149-3.306 4.645-5.488 7.030-6.141 0.427-0.124 0.917-0.197 1.425-0.2h0.002c0.004 0 0.009 0 0.014 0 0.462 0 0.907 0.070 1.326 0.201l-0.032-0.008c1.016 0.31 1.941 1 2.75 2.060 2.555 3.336 3.466 9.54 2.383 16.196z"></path>
</svg>
