<!-- Generated by IcoMoon.io -->
<svg version="1.1" xmlns="http://www.w3.org/2000/svg" width="64" height="64" viewBox="0 0 64 64">
<title>parking</title>
<path d="M32 2c-12.104 0-21.951 9.847-21.951 21.951-0 0.017-0 0.038-0 0.058 0 4.864 1.595 9.355 4.29 12.98l-0.041-0.058 15.16 23.678c0.545 0.842 1.48 1.391 2.543 1.391s1.998-0.549 2.536-1.379l0.007-0.012 15.16-23.678c2.654-3.566 4.249-8.058 4.249-12.922 0-0.020 0-0.041-0-0.061v0.003c0-12.104-9.847-21.951-21.951-21.951zM46.445 34.608l-0.040 0.054-14.405 22.5-14.445-22.554c-2.189-2.924-3.506-6.613-3.506-10.609 0-0.017 0-0.034 0-0.051v0.003c0-9.898 8.053-17.951 17.951-17.951s17.951 8.053 17.951 17.951c0 0.014 0 0.032 0 0.049 0 3.996-1.316 7.684-3.539 10.655l0.033-0.047z"></path>
<path d="M35.039 14.342h-9.039v23.598h4v-7.256h5.039c4.395-0.005 7.956-3.566 7.961-7.96v-0.421c-0.005-4.395-3.566-7.956-7.96-7.961h-0.001zM39 22.723c-0.003 2.186-1.774 3.958-3.961 3.961h-5.039v-8.342h5.039c2.187 0.003 3.958 1.774 3.961 3.961v0z"></path>
</svg>
