<!-- Generated by IcoMoon.io -->
<svg version="1.1" xmlns="http://www.w3.org/2000/svg" width="64" height="64" viewBox="0 0 64 64">
<title>pen-alt</title>
<path d="M58.75 5.25c-2.011-2.007-4.786-3.247-7.852-3.247s-5.841 1.241-7.852 3.248l-1.191 1.191-2.605-2.596c-1.14-1.14-2.715-1.845-4.455-1.845s-3.315 0.705-4.455 1.845l-16.754 16.759 2.828 2.829 16.759-16.759c0.416-0.415 0.991-0.672 1.625-0.672s1.209 0.257 1.625 0.672v0l2.599 2.599-16.788 16.788c-8.472 8.493-15.066 18.863-19.103 30.433l-0.172 0.567c-0.107 0.301-0.169 0.648-0.169 1.009 0 0.862 0.351 1.642 0.918 2.204l0.011 0.011c0.563 0.567 1.343 0.918 2.205 0.918 0.361 0 0.708-0.062 1.030-0.175l-0.022 0.007c12.137-4.209 22.507-10.803 31.002-19.277l20.815-20.802c2.007-2.011 3.249-4.787 3.249-7.853s-1.241-5.842-3.249-7.853l0 0zM35.111 38.935c-7.656 7.637-16.918 13.668-27.234 17.543l-0.529 0.174c4.049-10.846 10.080-20.108 17.719-27.765l6.791-6.791 10.046 10.046zM55.919 18.125l-11.186 11.186-10.046-10.046 11.189-11.184c1.273-1.22 3.004-1.97 4.91-1.97 3.923 0 7.104 3.18 7.104 7.104 0 1.906-0.751 3.637-1.973 4.913l0.002-0.003z"></path>
</svg>
