<!-- Generated by IcoMoon.io -->
<svg version="1.1" xmlns="http://www.w3.org/2000/svg" width="64" height="64" viewBox="0 0 64 64">
<title>pen</title>
<path d="M58.953 5.25c-2.011-2.006-4.786-3.247-7.851-3.247s-5.84 1.241-7.851 3.247l-20.809 20.81c-8.473 8.492-15.067 18.863-19.103 30.433l-0.172 0.567c-0.107 0.301-0.169 0.648-0.169 1.009 0 0.862 0.351 1.642 0.918 2.204l0.011 0.011c0.563 0.567 1.343 0.918 2.205 0.918 0.361 0 0.708-0.062 1.030-0.175l-0.022 0.007c12.137-4.209 22.507-10.803 31.002-19.277l20.81-20.802c2.010-2.009 3.253-4.785 3.253-7.852s-1.243-5.842-3.253-7.852v0zM35.316 38.935c-7.656 7.637-16.918 13.668-27.234 17.543l-0.529 0.174c4.049-10.846 10.080-20.108 17.719-27.765l12.393-12.387 10.046 10.046zM56.125 18.125l-5.584 5.584-10.041-10.044 5.584-5.584c1.297-1.368 3.128-2.219 5.157-2.219 3.923 0 7.104 3.18 7.104 7.104 0 2.030-0.851 3.861-2.217 5.156l-0.003 0.003z"></path>
</svg>
