<!-- Generated by IcoMoon.io -->
<svg version="1.1" xmlns="http://www.w3.org/2000/svg" width="64" height="64" viewBox="0 0 64 64">
<title>percent</title>
<path d="M18 25c6.075 0 11-4.925 11-11s-4.925-11-11-11c-6.075 0-11 4.925-11 11v0c0.007 6.072 4.928 10.993 10.999 11h0.001zM18 7c3.866 0 7 3.134 7 7s-3.134 7-7 7c-3.866 0-7-3.134-7-7v0c0.005-3.864 3.136-6.995 7-7h0z"></path>
<path d="M45 39c-6.075 0-11 4.925-11 11s4.925 11 11 11c6.075 0 11-4.925 11-11v0c-0.007-6.072-4.928-10.993-10.999-11h-0.001zM45 57c-3.866 0-7-3.134-7-7s3.134-7 7-7c3.866 0 7 3.134 7 7v0c-0.005 3.864-3.136 6.995-7 7h-0z"></path>
<path d="M49.53 2l-42.070 60h4.885l42.070-60h-4.885z"></path>
</svg>
