<!-- Generated by IcoMoon.io -->
<svg version="1.1" xmlns="http://www.w3.org/2000/svg" width="64" height="64" viewBox="0 0 64 64">
<title>phone-lock</title>
<path d="M57.518 12.859l-0.086-0.053-10.824-5.333-11.683 15.577 5.375 7.167c-0.343 5.594-4.795 10.046-10.358 10.388l-0.031 0.002-7.167-5.375-15.577 11.683 5.333 10.824 0.054 0.086c0.563 0.895 1.545 1.482 2.664 1.482 0.003 0 0.007 0 0.010 0h2.793c22.632-0 40.98-18.347 40.98-40.98v-2.793c0-0.003 0-0.006 0-0.010 0-1.119-0.587-2.102-1.469-2.657l-0.013-0.008zM55 18.326c0 20.391-16.589 36.98-36.98 36.98h-2.26l-3.539-7.183 10.523-7.892 5.858 4.394h0.667c8.308-0.010 15.040-6.742 15.050-15.049v-0.668l-4.394-5.858 7.892-10.523 7.183 3.539z"></path>
<path d="M19.5 30.144c5.796-0.007 10.493-4.704 10.5-10.499v-7.36h-3.438v-3.094c-0.005-3.881-3.15-7.027-7.031-7.031h-0.501c-3.881 0.005-7.027 3.15-7.031 7.031v3.094h-3v7.359c0.007 5.796 4.704 10.493 10.499 10.5h0.001zM26 19.644c0 3.59-2.91 6.5-6.5 6.5s-6.5-2.91-6.5-6.5v0-3.359h13zM16 9.191c0.002-1.673 1.358-3.029 3.031-3.031h0.5c1.673 0.002 3.029 1.358 3.031 3.031v3.094h-6.563z"></path>
</svg>
