<!-- Generated by IcoMoon.io -->
<svg version="1.1" xmlns="http://www.w3.org/2000/svg" width="64" height="64" viewBox="0 0 64 64">
<title>phone-forward</title>
<path d="M31.089 41.606c-5.595-0.343-10.046-4.795-10.388-10.358l-0.002-0.031 5.375-7.167-11.683-15.577-10.824 5.333-0.086 0.053c-0.895 0.563-1.482 1.545-1.482 2.664 0 0.003 0 0.007 0 0.010v-0 2.793c0 22.632 18.347 40.98 40.98 40.98h2.793c0.003 0 0.006 0 0.010 0 1.119 0 2.102-0.586 2.657-1.469l0.008-0.013 0.054-0.086 5.333-10.824-15.577-11.683zM45.239 56.306h-2.26c-20.391 0-36.98-16.589-36.98-36.98v-2.26l7.183-3.539 7.892 10.523-4.394 5.858v0.667c0.010 8.308 6.742 15.040 15.049 15.050h0.668l5.858-4.394 10.523 7.892z"></path>
<path d="M39.306 32h5.782l15.167-14-15.167-14h-5.782v5h-8v17h8zM35.306 22v-9h8v-5h0.218l10.833 10-10.833 10h-0.218v-6z"></path>
</svg>
