<!-- Generated by IcoMoon.io -->
<svg version="1.1" xmlns="http://www.w3.org/2000/svg" width="64" height="64" viewBox="0 0 64 64">
<title>phone-check</title>
<path d="M56.518 11.553l-0.085-0.053-10.824-5.333-11.683 15.577 5.375 7.167c-0.343 5.594-4.795 10.046-10.358 10.388l-0.031 0.002-7.167-5.375-15.577 11.683 5.333 10.824 0.053 0.086c0.562 0.896 1.545 1.482 2.664 1.482 0.004 0 0.007 0 0.010 0h2.793c22.632-0 40.98-18.347 40.98-40.98v-2.793c0-0.003 0-0.007 0-0.010 0-1.119-0.587-2.102-1.469-2.656l-0.013-0.008zM54 17.020c0 20.391-16.589 36.98-36.98 36.98h-2.26l-3.539-7.183 10.523-7.892 5.858 4.394h0.667c8.308-0.010 15.040-6.742 15.050-15.049v-0.668l-4.394-5.858 7.892-10.523 7.183 3.539z"></path>
<path d="M28.414 8.414l-2.828-2.828-12.874 12.874-6.798-6.798-2.828 2.828 9.626 9.627 15.702-15.702z"></path>
</svg>
