<!-- Generated by IcoMoon.io -->
<svg version="1.1" xmlns="http://www.w3.org/2000/svg" width="64" height="64" viewBox="0 0 64 64">
<title>phone-missed</title>
<path d="M16 12.64l16.040 15.149 20.374-20.375-2.828-2.828-17.626 17.625-12.93-12.211h7.97v-4h-15v15h4v-8.36z"></path>
<path d="M61.049 44.451l-1.848-1.848c-6.961-6.961-16.578-11.267-27.201-11.267s-20.24 4.306-27.201 11.267l-1.848 1.848c-0.558 0.555-0.903 1.323-0.903 2.172 0 0.248 0.029 0.488 0.085 0.719l-0.004-0.021 0.023 0.098 3.669 10.796 18.235-2.605 1.192-8.347c1.79-1.584 4.158-2.551 6.752-2.551s4.962 0.967 6.763 2.561l-0.011-0.009 1.192 8.347 18.235 2.605 3.669-10.796 0.023-0.098c0.051-0.21 0.081-0.45 0.081-0.698 0-0.849-0.346-1.617-0.904-2.172l-0-0zM55.46 53.785l-11.98-1.712-0.961-6.729-0.471-0.471c-2.571-2.571-6.124-4.162-10.047-4.162s-7.476 1.59-10.047 4.162l-0.471 0.471-0.961 6.729-11.98 1.712-2.351-6.916 1.438-1.438c6.238-6.237 14.854-10.095 24.372-10.095s18.135 3.858 24.372 10.095l1.438 1.438z"></path>
</svg>
