<!-- Generated by IcoMoon.io -->
<svg version="1.1" xmlns="http://www.w3.org/2000/svg" width="64" height="64" viewBox="0 0 64 64">
<title>phone-settings</title>
<path d="M57.731 14.553l-0.086-0.053-10.824-5.333-11.683 15.577 5.375 7.167c-0.343 5.594-4.795 10.046-10.358 10.388l-0.031 0.002-7.167-5.375-15.577 11.683 5.333 10.824 0.054 0.086c0.562 0.895 1.545 1.482 2.664 1.482 0.004 0 0.007 0 0.011 0h2.793c22.632-0 40.98-18.347 40.98-40.98v0-2.793c0-0.003 0-0.006 0-0.010 0-1.119-0.587-2.102-1.469-2.657l-0.013-0.008zM55.213 20.020c0 20.391-16.589 36.98-36.98 36.98h-2.26l-3.539-7.183 10.523-7.892 5.858 4.394h0.667c8.308-0.010 15.040-6.742 15.050-15.049v-0.668l-4.394-5.858 7.892-10.523 7.183 3.539z"></path>
<path d="M37.512 6.051c-1.105-1.256-2.716-2.045-4.511-2.045-3.312 0-5.997 2.685-5.997 5.997s2.685 5.997 5.997 5.997c1.515 0 2.899-0.562 3.954-1.488l-0.007 0.006h0c1.258-1.105 2.048-2.718 2.048-4.515 0-1.517-0.563-2.902-1.491-3.958l0.006 0.007zM34.315 11.508c-0.35 0.307-0.811 0.494-1.316 0.494-1.104 0-1.999-0.895-1.999-1.999s0.895-1.999 1.999-1.999c0.598 0 1.136 0.263 1.502 0.68l0.002 0.002c0.307 0.35 0.494 0.812 0.494 1.317 0 0.599-0.263 1.136-0.679 1.503l-0.002 0.002z"></path>
<path d="M17.048 15.485c-1.258 1.105-2.048 2.718-2.048 4.515 0 3.174 2.464 5.772 5.583 5.986l0.019 0.001q0.204 0.014 0.407 0.014c0.002 0 0.005 0 0.008 0 1.512 0 2.892-0.563 3.942-1.491l-0.006 0.006h-0c1.263-1.106 2.057-2.721 2.057-4.522 0-3.314-2.686-6-6-6-1.521 0-2.909 0.566-3.967 1.498l0.007-0.006zM22.995 20.133c-0.036 0.549-0.29 1.033-0.676 1.37l-0.002 0.002h-0c-0.35 0.307-0.812 0.495-1.317 0.495-1.105 0-2-0.895-2-2s0.895-2 2-2c1.105 0 2 0.895 2 2 0 0.047-0.002 0.093-0.005 0.139l0-0.006z"></path>
<path d="M6.046 26.482c-1.258 1.105-2.049 2.718-2.049 4.515 0 3.173 2.464 5.772 5.583 5.986l0.019 0.001q0.204 0.014 0.407 0.014c0.002 0 0.005 0 0.008 0 1.512 0 2.892-0.563 3.942-1.491l-0.006 0.006h-0c1.263-1.106 2.057-2.721 2.057-4.522 0-3.314-2.686-6-6-6-1.521 0-2.909 0.566-3.967 1.498l0.007-0.006zM11.993 31.13c-0.036 0.549-0.29 1.033-0.676 1.37l-0.002 0.002h-0c-0.35 0.307-0.812 0.495-1.317 0.495-1.104 0-2-0.895-2-2s0.895-2 2-2c1.104 0 2 0.895 2 2 0 0.047-0.002 0.093-0.005 0.139l0-0.006z"></path>
</svg>
