<!-- Generated by IcoMoon.io -->
<svg version="1.1" xmlns="http://www.w3.org/2000/svg" width="64" height="64" viewBox="0 0 64 64">
<title>phone-volume</title>
<path d="M26.273 24.104l2.605-18.235-10.894-3.692c-0.21-0.051-0.451-0.081-0.698-0.081-0.849 0-1.617 0.345-2.172 0.903l-1.848 1.848c-6.961 6.961-11.267 16.578-11.267 27.201s4.306 20.24 11.267 27.201l1.848 1.848c0.554 0.557 1.321 0.903 2.169 0.903h0c0.248-0 0.49-0.029 0.722-0.084l-0.021 0.004 0.098-0.023 10.796-3.669-2.605-18.235-8.346-1.192c-1.584-1.79-2.551-4.158-2.551-6.752s0.967-4.962 2.561-6.763l-0.009 0.011zM15.538 22.001c-2.571 2.571-4.162 6.123-4.162 10.047s1.59 7.476 4.162 10.047l0.471 0.471 6.729 0.961 1.712 11.98-6.916 2.35-1.438-1.438c-6.237-6.237-10.095-14.854-10.095-24.373s3.858-18.135 10.095-24.372l1.438-1.438 6.916 2.35-1.712 11.98-6.729 0.961z"></path>
<path d="M38.578 17.614c0.017-0.183 0.026-0.395 0.026-0.609 0-3.65-2.791-6.649-6.355-6.978l-0.028-0.002-0.352 3.984c1.539 0.14 2.736 1.425 2.736 2.988 0 1.657-1.343 3-3 3-0.093 0-0.185-0.004-0.276-0.012l0.012 0.001-0.352 3.984q0.313 0.028 0.622 0.028c3.645-0.008 6.636-2.796 6.966-6.356l0.002-0.028z"></path>
<path d="M32.924 2.075l-0.352 3.984c5.632 0.516 10.008 5.216 10.008 10.938 0 6.065-4.916 10.981-10.981 10.981-0.338 0-0.673-0.015-1.004-0.045l0.043 0.003-0.352 3.984q0.671 0.059 1.33 0.059c8.269-0.007 14.97-6.711 14.97-14.981 0-7.809-5.975-14.223-13.603-14.919l-0.058-0.004z"></path>
</svg>
