<!-- Generated by IcoMoon.io -->
<svg version="1.1" xmlns="http://www.w3.org/2000/svg" width="64" height="64" viewBox="0 0 64 64">
<title>pin</title>
<path d="M59.725 17.525l-13.25-13.25c-1.405-1.405-3.346-2.273-5.49-2.273-4.289 0-7.767 3.477-7.767 7.766 0 1.758 0.584 3.38 1.569 4.681l-0.014-0.020-0.614 0.692-12.207 5.363-5.326-2.878c-0.412-0.226-0.903-0.36-1.425-0.36-0.859 0-1.633 0.36-2.181 0.938l-0.001 0.001-5.194 5.501c-0.51 0.535-0.825 1.261-0.825 2.060 0 0.829 0.338 1.58 0.884 2.121l12.71 12.71-18.595 18.595v2.828h2.828l18.595-18.595 12.652 12.652c0.542 0.545 1.292 0.882 2.121 0.882 0.788 0 1.506-0.305 2.040-0.804l-0.002 0.002 5.553-5.141c0.593-0.549 0.963-1.332 0.963-2.201 0-0.526-0.136-1.021-0.374-1.451l0.008 0.015-2.918-5.357 5.266-11.314 1.075-1.29c1.235 0.866 2.77 1.384 4.426 1.384 4.289 0 7.767-3.477 7.767-7.767 0-2.145-0.869-4.086-2.275-5.492v0zM56.897 25.678c-0.681 0.681-1.623 1.103-2.663 1.103s-1.981-0.422-2.663-1.103l-2.111-2.111-4.135 4.96-6.338 13.617 3.511 6.446-4.276 3.959-26.823-26.823 4-4.236 6.371 3.443 14.798-6.501 3.647-4.108-1.895-1.895c-0.681-0.681-1.103-1.623-1.103-2.663 0-2.080 1.686-3.766 3.766-3.766 1.040 0 1.981 0.421 2.663 1.103l13.25 13.25c0.681 0.681 1.103 1.623 1.103 2.663s-0.422 1.981-1.103 2.663v0z"></path>
</svg>
