<!-- Generated by IcoMoon.io -->
<svg version="1.1" xmlns="http://www.w3.org/2000/svg" width="64" height="64" viewBox="0 0 64 64">
<title>puzzle-piece</title>
<path d="M44.998 61.951q-0.070 0-0.141-0.003l-12.418-0.591-1.895-2.198 0.425-4.225c0.021-0.197 0.033-0.425 0.033-0.656 0-0.579-0.075-1.14-0.216-1.675l0.010 0.046c-0.755-2.816-3.263-4.708-6.242-4.708s-5.487 1.892-6.242 4.708c-0.131 0.489-0.206 1.050-0.206 1.629 0 0.231 0.012 0.459 0.035 0.684l-0.002-0.028 0.43 4.267-1.895 2.198-11.531 0.549c-0.043 0.002-0.093 0.003-0.143 0.003-1.657 0-3-1.343-3-3 0-0 0-0 0-0v0-39.903c0 0 0 0 0 0 0-1.657 1.343-3 3-3 0.050 0 0.1 0.001 0.15 0.004l-0.007-0 9.33 0.444-0.316-3.143c-0.032-0.308-0.050-0.666-0.050-1.027 0-0.947 0.125-1.865 0.359-2.738l-0.017 0.074c1.23-4.589 5.291-7.672 10.106-7.672s8.876 3.083 10.106 7.672c0.217 0.799 0.342 1.717 0.342 2.664 0 0.362-0.018 0.72-0.054 1.072l0.004-0.044-0.002 0.019-0.319 3.167 10.226-0.487c0.043-0.002 0.093-0.003 0.143-0.003 1.657 0 3 1.343 3 3 0 0 0 0 0 0v0 8.608l2.636-0.265c0.308-0.032 0.666-0.050 1.028-0.050 0.947 0 1.864 0.125 2.737 0.359l-0.074-0.017c4.589 1.23 7.672 5.291 7.672 10.106s-3.083 8.876-7.672 10.106c-0.799 0.217-1.717 0.342-2.664 0.342-0.362 0-0.719-0.018-1.072-0.054l0.044 0.004-0.019-0.002-2.617-0.263v11.029c0 0 0 0 0 0 0 1.657-1.343 3-3 3-0.001 0-0.002 0-0.002 0h0zM34.735 57.461l9.265 0.441v-12.192l2.2-1.99 4.807 0.484c0.196 0.021 0.424 0.033 0.655 0.033 0.579 0 1.141-0.075 1.675-0.216l-0.046 0.010c2.816-0.755 4.708-3.263 4.708-6.242s-1.892-5.487-4.708-6.242v-0c-0.489-0.131-1.050-0.206-1.629-0.206-0.231 0-0.459 0.012-0.684 0.035l0.028-0.002-4.807 0.484-2.2-1.99v-9.771l-11.495 0.547-2.085-2.198 0.55-5.465c0.021-0.197 0.033-0.425 0.033-0.656 0-0.579-0.075-1.14-0.216-1.675l0.010 0.046c-0.755-2.816-3.263-4.708-6.242-4.708s-5.487 1.892-6.242 4.708c-0.131 0.489-0.206 1.050-0.206 1.629 0 0.231 0.012 0.459 0.035 0.684l-0.002-0.028 0.546 5.422-2.085 2.198-10.6-0.505v37.805l8.378-0.399-0.221-2.199c-0.032-0.308-0.050-0.666-0.050-1.027 0-0.947 0.125-1.865 0.359-2.738l-0.017 0.074c1.23-4.589 5.291-7.672 10.106-7.672s8.876 3.083 10.106 7.672c0.217 0.799 0.342 1.717 0.342 2.664 0 0.362-0.018 0.72-0.054 1.072l0.004-0.044-0.002 0.019z"></path>
</svg>
