<!-- Generated by IcoMoon.io -->
<svg version="1.1" xmlns="http://www.w3.org/2000/svg" width="64" height="64" viewBox="0 0 64 64">
<title>qr-code</title>
<path d="M6 6h16v-4h-20v20h4v-16z"></path>
<path d="M22 22v-12h-12v12h12zM14 14h4v4h-4z"></path>
<path d="M41 2v4h17v16h4v-20h-21z"></path>
<path d="M54 22v-12h-12v12h12zM46 14h4v4h-4z"></path>
<path d="M6 42h-4v20h20v-4h-16v-16z"></path>
<path d="M14 42h-4v12h12v-12h-8zM18 50h-4v-4h4z"></path>
<path d="M58 58h-17v4h21v-20h-4v16z"></path>
<path d="M34 38h16v8h4v-12h-20v4z"></path>
<path d="M54 54v-4h-24v-16h-20v4h16v16h28z"></path>
<path d="M26 10h4v12h-4v-12z"></path>
<path d="M10 30h28v-20h-4v16h-24v4z"></path>
<path d="M42 26h12v4h-12v-4z"></path>
<path d="M42 42h4v4h-4v-4z"></path>
<path d="M34 42h4v4h-4v-4z"></path>
</svg>
