<!-- Generated by IcoMoon.io -->
<svg version="1.1" xmlns="http://www.w3.org/2000/svg" width="64" height="64" viewBox="0 0 64 64">
<title>question-mark</title>
<path d="M41.191 11.363c-2.866-2.86-6.822-4.628-11.191-4.628s-8.325 1.768-11.192 4.628l-2.88 2.88 2.828 2.828 2.881-2.881c2.142-2.137 5.098-3.458 8.363-3.458s6.221 1.321 8.363 3.459l-0-0c2.177 2.186 3.524 5.201 3.524 8.53 0 0.053-0 0.105-0.001 0.158l0-0.008c-0.046 3.092-1.282 5.934-3.48 8.004-2.322 2.187-9.644 8.551-9.718 8.615l-0.688 0.598v10.912h4v-9.089c1.903-1.658 7.172-6.262 9.148-8.124 2.992-2.818 4.674-6.673 4.737-10.856 0.001-0.060 0.001-0.13 0.001-0.201 0-4.437-1.794-8.455-4.696-11.368l0.001 0.001z"></path>
<path d="M28 56h4v4h-4v-4z"></path>
</svg>
