<!-- Generated by IcoMoon.io -->
<svg version="1.1" xmlns="http://www.w3.org/2000/svg" width="64" height="64" viewBox="0 0 64 64">
<title>railway</title>
<path d="M62 54h-7.129l-2.545-4h4.675v-4h-7.22l-2.545-4h4.766v-4h-7.311l-2.545-4h5.436v-26.654c-0.003-2.951-2.395-5.343-5.346-5.346h-21.308c-2.951 0.003-5.343 2.395-5.346 5.346v26.654h6.277l-2.545 4h-7.311v4h4.766l-2.545 4h-7.22v4h4.675l-2.545 4h-7.129v4h4.584l-2.545 4h4.741l2.545-4h41.35l2.545 4h4.741l-2.545-4h4.584zM19.579 7.346c0.001-0.743 0.603-1.345 1.346-1.346h21.308c0.743 0.001 1.345 0.603 1.346 1.346v7.654h-24zM19.579 30v-11h24v11zM37.402 34l2.545 4h-15.895l2.545-4zM21.507 42h20.986l2.545 4h-26.077zM13.871 54l2.545-4h31.168l2.545 4z"></path>
<path d="M22.579 22h4v4h-4v-4z"></path>
<path d="M36.686 22.053h3.947v3.947h-3.947v-3.947z"></path>
</svg>
