<!-- Generated by IcoMoon.io -->
<svg version="1.1" xmlns="http://www.w3.org/2000/svg" width="64" height="64" viewBox="0 0 64 64">
<title>recycle</title>
<path d="M8.594 48.043c-0.336-0.569-0.534-1.254-0.534-1.985 0-0.749 0.208-1.45 0.57-2.047l-0.010 0.018 6.361-10.801 1.439 6.345 3.901-0.885-2.985-13.159-13.159 2.985 0.885 3.901 6.644-1.507-6.532 11.091c-0.695 1.162-1.106 2.563-1.106 4.059 0 4.418 3.582 8 8 8 0 0 0 0 0 0h10.304l4-4h-14.304c-0.007 0-0.016 0-0.025 0-1.472 0-2.756-0.803-3.437-1.996l-0.010-0.019z"></path>
<path d="M35.476 10.131l6.718 11.409-6.132-0.957-0.617 3.952 13.332 2.080 2.080-13.332-3.952-0.617-1.109 7.109-6.874-11.674c-1.417-2.375-3.972-3.941-6.894-3.941s-5.477 1.566-6.873 3.904l-0.020 0.037-4.992 8.477 1.301 5.674 7.138-12.121c0.708-1.187 1.986-1.97 3.447-1.97s2.739 0.783 3.437 1.952l0.010 0.018z"></path>
<path d="M58.884 41.999l-5.983-10.16-5.144-0.852 7.68 13.042c0.348 0.581 0.553 1.281 0.553 2.030 0 2.209-1.791 4-4 4-0 0-0 0-0 0h-13.932l4.795-4.795-2.828-2.828-9.541 9.542 9.541 9.542 2.828-2.828-4.632-4.631h13.769c0 0 0 0 0 0 4.418 0 8-3.582 8-8 0-1.497-0.411-2.898-1.127-4.096l0.020 0.037z"></path>
</svg>
