<!-- Generated by IcoMoon.io -->
<svg version="1.1" xmlns="http://www.w3.org/2000/svg" width="64" height="64" viewBox="0 0 64 64">
<title>report-slash</title>
<path d="M30 44h4v4h-4v-4z"></path>
<path d="M44.426 2h-24.853l-4.367 4.721 2.831 2.831 3.285-3.552h21.355l15.322 16.566v18.868l-3.883 4.198 2.831 2.831 5.052-5.462v-22l-17.574-19z"></path>
<path d="M30 16v5.515l4 4v-9.515h-4z"></path>
<path d="M2 2v2.828l7.77 7.77-7.77 8.401v22l17.574 19h24.853l7.085-7.66 7.66 7.66h2.828v-2.828l-57.172-57.172zM42.678 58h-21.355l-15.322-16.566v-18.867l6.601-7.137 17.399 17.399v7.172h4v-3.172l14.681 14.681z"></path>
</svg>
