<!-- Generated by IcoMoon.io -->
<svg version="1.1" xmlns="http://www.w3.org/2000/svg" width="64" height="64" viewBox="0 0 64 64">
<title>rss-alt</title>
<path d="M55.389 38.714c-2.944-7.023-7.018-13.017-12.056-18.046l-0.001-0.001c-5.030-5.039-11.024-9.112-17.683-11.92l-0.364-0.136c-6.274-2.678-13.573-4.236-21.235-4.236-0.018 0-0.036 0-0.054 0h-1.997v57.625h57.625v-2c0-0.015 0-0.033 0-0.051 0-7.663-1.557-14.962-4.372-21.598l0.137 0.363zM6 58v-16.892c4.496 0.501 8.452 2.491 11.436 5.458l-0.001-0.001c2.966 2.983 4.956 6.94 5.449 11.348l0.008 0.087zM26.909 58c-0.518-5.603-2.959-10.554-6.647-14.265l0.001 0.001c-3.709-3.687-8.661-6.127-14.172-6.639l-0.091-0.007v-13.66c9.37 0.556 17.717 4.526 23.9 10.673l-0.002-0.002c6.145 6.181 10.116 14.528 10.666 23.796l0.005 0.101zM44.576 58c-0.246-4.941-1.342-9.562-3.145-13.811l0.1 0.265c-2.15-5.129-5.125-9.507-8.805-13.18l-0.001-0.001c-3.673-3.68-8.051-6.655-12.914-8.706l-0.266-0.099c-3.984-1.703-8.605-2.799-13.451-3.041l-0.095-0.004v-11.009c12.888 0.512 25.367 5.944 34.504 15.081s14.569 21.617 15.081 34.504z"></path>
</svg>
