<!-- Generated by IcoMoon.io -->
<svg version="1.1" xmlns="http://www.w3.org/2000/svg" width="64" height="64" viewBox="0 0 64 64">
<title>ruble-circle-slash</title>
<path d="M21.881 8.042c2.982-1.291 6.455-2.042 10.103-2.042 14.369 0 26.017 11.648 26.017 26.017 0 3.648-0.751 7.12-2.106 10.272l0.065-0.169q-0.346 0.819-0.746 1.608l2.954 2.954c2.412-4.212 3.834-9.259 3.834-14.638 0-0.015 0-0.030-0-0.045v0.002c0-16.569-13.431-30-30-30-0.013 0-0.028 0-0.043 0-5.379 0-10.426 1.422-14.785 3.911l0.147-0.077 2.954 2.954q0.789-0.399 1.608-0.746z"></path>
<path d="M44.626 33.141c1.478-1.794 2.374-4.116 2.374-6.647 0-5.796-4.698-10.494-10.494-10.494-0.002 0-0.004 0-0.007 0h-9.014l4 4h5.015c0.002 0 0.003 0 0.005 0 3.587 0 6.495 2.908 6.495 6.495 0 1.425-0.459 2.743-1.237 3.814l0.013-0.019z"></path>
<path d="M7.828 2h-2.828v2.828l5.874 5.874c-5.48 5.423-8.874 12.946-8.874 21.261 0 0.013 0 0.026 0 0.039v-0.002c0 16.569 13.431 30 30 30 0.011 0 0.024 0 0.037 0 8.315 0 15.838-3.394 21.258-8.871l0.003-0.003 5.874 5.874h2.828v-2.828zM33.172 33h-4.119v-4.119zM50.47 50.298c-0.029 0.029-0.056 0.058-0.085 0.087-4.707 4.719-11.216 7.638-18.407 7.638-14.359 0-26-11.641-26-26 0-7.191 2.919-13.7 7.637-18.407l0.001-0.001c0.029-0.029 0.058-0.056 0.087-0.085l11.351 11.351v8.119h-4.053v4h4.053v4h-4.053v4h4.053v4h4v-4h7.947v-4h-7.947v-4h7.447c0.218 0 0.434-0.009 0.65-0.022z"></path>
</svg>
