<!-- Generated by IcoMoon.io -->
<svg version="1.1" xmlns="http://www.w3.org/2000/svg" width="64" height="64" viewBox="0 0 64 64">
<title>ruble</title>
<path d="M36.469 38.512c0.004 0 0.008 0 0.013 0 7.304 0 13.225-5.921 13.225-13.225s-5.921-13.225-13.225-13.225c-0.005 0-0.009 0-0.014 0h-19.468v4h4.993v18.45h-4.993v4h4.993v5.488h-4.993v4h4.993v7h4v-7h12.007v-4h-12.007v-5.488zM25.993 16.063h10.476c0.003 0 0.007 0 0.011 0 5.095 0 9.225 4.13 9.225 9.225s-4.13 9.225-9.225 9.225c-0.004 0-0.008 0-0.011 0h-10.475z"></path>
</svg>
