<!-- Generated by IcoMoon.io -->
<svg version="1.1" xmlns="http://www.w3.org/2000/svg" width="64" height="64" viewBox="0 0 64 64">
<title>satelite</title>
<path d="M2 2v60h60v-60zM58 6v35.787l-9.308-9.308-9.692 9.692-14-14-19 19v-41.172zM6 52.828l19-19 24.172 24.172h-43.172zM54.828 58l-13-13 6.864-6.864 9.308 9.308v10.556z"></path>
<path d="M15 10h-5v5c2.761 0 5-2.239 5-5v0z"></path>
<path d="M24.575 10h-4.117c-1.451 5.084-5.374 9.006-10.351 10.432l-0.106 0.026v4.117c7.301-1.627 12.948-7.274 14.551-14.448l0.024-0.127z"></path>
</svg>
