<!-- Generated by IcoMoon.io -->
<svg version="1.1" xmlns="http://www.w3.org/2000/svg" width="64" height="64" viewBox="0 0 64 64">
<title>save</title>
<path d="M59.121 15.293l-12.414-12.414c-0.54-0.543-1.287-0.879-2.113-0.879-0.003 0-0.006 0-0.009 0h-37.585c-1.656 0.002-2.998 1.344-3 3v54c0.002 1.656 1.344 2.998 3 3h50c1.656-0.002 2.998-1.344 3-3v-41.586c0-0.002 0-0.005 0-0.008 0-0.826-0.336-1.573-0.879-2.113l-0-0zM40 6v12h-18v-12zM56 58h-48v-52h10v16h26v-16h0.172l11.828 11.828z"></path>
<path d="M31.5 28c-6.351 0-11.5 5.149-11.5 11.5s5.149 11.5 11.5 11.5c6.351 0 11.5-5.149 11.5-11.5v0c-0.007-6.348-5.152-11.493-11.499-11.5h-0.001zM31.5 47c-4.142 0-7.5-3.358-7.5-7.5s3.358-7.5 7.5-7.5c4.142 0 7.5 3.358 7.5 7.5v0c-0.005 4.14-3.36 7.495-7.5 7.5h-0z"></path>
</svg>
