<!-- Generated by IcoMoon.io -->
<svg version="1.1" xmlns="http://www.w3.org/2000/svg" width="64" height="64" viewBox="0 0 64 64">
<title>screen-lock-portrait</title>
<path d="M48 2h-32c-2.208 0.003-3.997 1.792-4 4v52c0.003 2.208 1.792 3.997 4 4h32c2.208-0.003 3.997-1.792 4-4v-52c-0.003-2.208-1.792-3.997-4-4h-0zM48 6l0 5h-32v-5zM48 15l0.002 34h-32.002v-34zM48 58h-32v-5h32.002l0 5z"></path>
<path d="M21.5 35.644c0 5.799 4.701 10.5 10.5 10.5s10.5-4.701 10.5-10.5v0-7.359h-3.438v-3.093c-0.005-3.881-3.15-7.027-7.031-7.031h-0.501c-3.881 0.005-7.027 3.15-7.031 7.031v3.094h-3zM38.5 35.644c0 3.59-2.91 6.5-6.5 6.5s-6.5-2.91-6.5-6.5v0-3.359h13zM28.5 25.191c0.002-1.673 1.358-3.029 3.031-3.031h0.5c1.673 0.002 3.029 1.358 3.031 3.031v3.094h-6.563z"></path>
</svg>
