<!-- Generated by IcoMoon.io -->
<svg version="1.1" xmlns="http://www.w3.org/2000/svg" width="64" height="64" viewBox="0 0 64 64">
<title>screen-portrait</title>
<path d="M49 2h-34c-2.208 0.003-3.997 1.792-4 4v52c0.003 2.208 1.792 3.997 4 4h34c2.208-0.003 3.997-1.792 4-4v-52c-0.003-2.208-1.792-3.997-4-4h-0zM49 58h-34l-0.002-52 0.002-0h34z"></path>
<path d="M32 14.757l5.657 5.657 2.828-2.828-8.485-8.485-8.485 8.485 2.828 2.828 5.657-5.657z"></path>
<path d="M40.485 46.414l-2.828-2.828-5.657 5.657-5.657-5.657-2.829 2.828 8.485 8.485 8.485-8.485z"></path>
</svg>
