<!-- Generated by IcoMoon.io -->
<svg version="1.1" xmlns="http://www.w3.org/2000/svg" width="64" height="64" viewBox="0 0 64 64">
<title>screen-horizontal</title>
<path d="M58 11h-52c-2.208 0.003-3.997 1.792-4 4v34c0.003 2.208 1.792 3.997 4 4h52c2.208-0.003 3.997-1.792 4-4v-34c-0.003-2.208-1.792-3.997-4-4h-0zM58 49h-52v-34h52z"></path>
<path d="M20.414 37.657l-5.657-5.657 5.657-5.657-2.828-2.828-8.485 8.485 8.485 8.485 2.828-2.828z"></path>
<path d="M46.414 40.485l8.485-8.485-8.485-8.485-2.828 2.828 5.657 5.657-5.657 5.657 2.828 2.828z"></path>
</svg>
