<!-- Generated by IcoMoon.io -->
<svg version="1.1" xmlns="http://www.w3.org/2000/svg" width="64" height="64" viewBox="0 0 64 64">
<title>screen-lock-rotation</title>
<path d="M46.5 30c5.796-0.007 10.493-4.704 10.5-10.499v-7.36h-3.438v-3.094c-0.005-3.881-3.15-7.027-7.031-7.031h-0.501c-3.881 0.005-7.027 3.15-7.031 7.031v3.094h-3v7.359c0.007 5.796 4.704 10.493 10.499 10.5h0.001zM53 19.5c0 3.59-2.91 6.5-6.5 6.5s-6.5-2.91-6.5-6.5v0-3.359h13zM43 9.047c0.002-1.673 1.358-3.029 3.031-3.031h0.5c1.673 0.002 3.029 1.358 3.031 3.031v3.094h-6.563z"></path>
<path d="M15.5 52l-2.478 2.754c-4.275-3.123-7.021-8.117-7.022-13.754v-0h-4c0 11.579 9.421 21 21 21z"></path>
<path d="M61.587 38.251c0-0.003 0-0.007 0-0.011 0-1.101-0.448-2.098-1.171-2.817l-4.62-4.62-3.392 2.261 5.184 5.187-19.564 19.565-32.005-32.005 19.565-19.564 6.418 6.417v-5.656l-3.589-3.589c-0.724-0.724-1.724-1.172-2.828-1.172s-2.105 0.448-2.828 1.172l-19.564 19.564c-0.724 0.724-1.172 1.724-1.172 2.828s0.448 2.105 1.172 2.828l32.005 32.005c0.724 0.723 1.724 1.17 2.828 1.17s2.104-0.447 2.828-1.17l19.564-19.564c0.724-0.72 1.172-1.716 1.172-2.818 0-0.004 0-0.008 0-0.011v0.001z"></path>
</svg>
