<!-- Generated by IcoMoon.io -->
<svg version="1.1" xmlns="http://www.w3.org/2000/svg" width="64" height="64" viewBox="0 0 64 64">
<title>screen-rotation</title>
<path d="M28.824 3.418c-0.724-0.724-1.724-1.172-2.828-1.172s-2.105 0.448-2.828 1.172l-19.564 19.564c-0.724 0.724-1.172 1.724-1.172 2.828s0.448 2.105 1.172 2.828l32.005 32.005c0.724 0.723 1.724 1.17 2.828 1.17s2.104-0.447 2.829-1.17l19.564-19.564c0.724-0.724 1.172-1.724 1.172-2.828s-0.448-2.105-1.172-2.828v0zM58 38.251l-19.564 19.565-32.005-32.005 19.564-19.564 32.007 32.003z"></path>
<path d="M13.434 54.754c-4.275-3.123-7.020-8.118-7.021-13.754v-0h-4c0 11.579 9.421 21 21 21v0l-7.5-10z"></path>
<path d="M50.979 9.246c4.275 3.123 7.020 8.118 7.021 13.754v0h4c0-11.579-9.421-21-21-21l7.5 10z"></path>
</svg>
