<!-- Generated by IcoMoon.io -->
<svg version="1.1" xmlns="http://www.w3.org/2000/svg" width="64" height="64" viewBox="0 0 64 64">
<title>script</title>
<path d="M51 47v-35c-0.006-5.52-4.48-9.994-9.999-10l-30.001 0.016c-0.166-0.010-0.332-0.016-0.5-0.016-4.692 0.006-8.495 3.808-8.5 8.499v9.501h13v34.688c0.005 4.037 3.276 7.308 7.312 7.313h32.23c4.117-0.005 7.453-3.341 7.458-7.458v-7.542zM6 16v-5.5c0-2.485 2.015-4.5 4.5-4.5s4.5 2.015 4.5 4.5v0 5.5zM22.313 58c-1.829-0.002-3.31-1.484-3.313-3.312v-44.188c0-0.002 0-0.005 0-0.008 0-1.665-0.482-3.218-1.314-4.527l0.020 0.034h23.294c3.312 0.004 5.996 2.688 6 6v35h-20v6.875c-0.003 2.277-1.848 4.122-4.125 4.125h-0zM58 54.542c-0.002 1.909-1.549 3.456-3.458 3.458h-24.669c0.708-1.176 1.127-2.597 1.127-4.115 0-0.004 0-0.007 0-0.011v0.001-2.875h27z"></path>
</svg>
