<!-- Generated by IcoMoon.io -->
<svg version="1.1" xmlns="http://www.w3.org/2000/svg" width="64" height="64" viewBox="0 0 64 64">
<title>scrubber</title>
<path d="M32 25c-3.866 0-7 3.134-7 7s3.134 7 7 7c3.866 0 7-3.134 7-7v0c-0.005-3.864-3.136-6.995-7-7h-0zM32 35c-1.657 0-3-1.343-3-3s1.343-3 3-3c1.657 0 3 1.343 3 3v0c0 1.657-1.343 3-3 3v0z"></path>
<path d="M53.213 10.787c-5.429-5.429-12.929-8.787-21.213-8.787-16.569 0-30 13.431-30 30 0 8.284 3.358 15.784 8.787 21.213v0c5.429 5.429 12.929 8.787 21.213 8.787 16.569 0 30-13.431 30-30 0-8.284-3.358-15.784-8.787-21.213v0zM32 58c-14.336 0-26-11.664-26-26s11.664-26 26-26 26 11.664 26 26-11.664 26-26 26z"></path>
</svg>
