<!-- Generated by IcoMoon.io -->
<svg version="1.1" xmlns="http://www.w3.org/2000/svg" width="64" height="64" viewBox="0 0 64 64">
<title>select-all</title>
<path d="M12 52h40v-40h-40zM16 16h32v32h-32z"></path>
<path d="M2 2h4v4h-4v-4z"></path>
<path d="M10 2h4v4h-4v-4z"></path>
<path d="M18 2h4v4h-4v-4z"></path>
<path d="M26 2h4v4h-4v-4z"></path>
<path d="M34 2h4v4h-4v-4z"></path>
<path d="M42 2h4v4h-4v-4z"></path>
<path d="M50 2h4v4h-4v-4z"></path>
<path d="M58 2h4v4h-4v-4z"></path>
<path d="M2 58h4v4h-4v-4z"></path>
<path d="M10 58h4v4h-4v-4z"></path>
<path d="M18 58h4v4h-4v-4z"></path>
<path d="M26 58h4v4h-4v-4z"></path>
<path d="M34 58h4v4h-4v-4z"></path>
<path d="M42 58h4v4h-4v-4z"></path>
<path d="M50 58h4v4h-4v-4z"></path>
<path d="M58 50h4v4h-4v-4z"></path>
<path d="M58 42h4v4h-4v-4z"></path>
<path d="M58 34h4v4h-4v-4z"></path>
<path d="M58 26h4v4h-4v-4z"></path>
<path d="M58 18h4v4h-4v-4z"></path>
<path d="M58 10h4v4h-4v-4z"></path>
<path d="M2 50h4v4h-4v-4z"></path>
<path d="M2 42h4v4h-4v-4z"></path>
<path d="M2 34h4v4h-4v-4z"></path>
<path d="M2 26h4v4h-4v-4z"></path>
<path d="M2 18h4v4h-4v-4z"></path>
<path d="M2 10h4v4h-4v-4z"></path>
<path d="M58 58h4v4h-4v-4z"></path>
</svg>
