<!-- Generated by IcoMoon.io -->
<svg version="1.1" xmlns="http://www.w3.org/2000/svg" width="64" height="64" viewBox="0 0 64 64">
<title>select</title>
<path d="M2 15h4v-9h9v-4h-13v13z"></path>
<path d="M49 2v4h9v9h4v-13h-13z"></path>
<path d="M6 43h-4v13h13v-4h-9v-9z"></path>
<path d="M20 2h24v4h-24v-4z"></path>
<path d="M2 20h4v18h-4v-18z"></path>
<path d="M25.842 22.937c-0.515 0.433-0.84 1.078-0.84 1.799 0 0.211 0.028 0.416 0.080 0.61l-0.004-0.016 9.686 36.67h3.98l9.047-13.919 14.209-5.683v-3.979l-33.667-15.803c-0.291-0.139-0.633-0.221-0.993-0.221-0.571 0-1.095 0.204-1.502 0.544l0.004-0.003zM56.539 40.274l-11.41 4.564-7.651 11.77-7.623-28.86z"></path>
<path d="M20 52v4h9.042l-1.057-4h-7.986z"></path>
<path d="M58 32.123l4 1.877v-14h-4v12.123z"></path>
</svg>
