<!-- Generated by IcoMoon.io -->
<svg version="1.1" xmlns="http://www.w3.org/2000/svg" width="64" height="64" viewBox="0 0 64 64">
<title>share-all</title>
<path d="M30.365 2.083h-5.295v11h-6.070c-6.852 0.008-12.756 4.060-15.453 9.898l-0.044 0.106c-0.948 1.858-1.503 4.052-1.503 6.375 0 0.014 0 0.027 0 0.041v-0.002 32.583h6.518l6.201-22.219c1.303-4.518 5.395-7.768 10.248-7.781h0.103v11h5.223l20.536-20.536zM29.070 38.649v-10.566h-4.101c-6.679 0.017-12.31 4.489-14.076 10.602l-0.026 0.104-4.866 17.438v-26.726c0-0.009-0-0.020-0-0.030 0-1.688 0.406-3.281 1.125-4.687l-0.027 0.058 0.037-0.077c2.090-4.562 6.613-7.675 11.865-7.68h10.070v-10.638l16.102 16.102z"></path>
<path d="M41.365 2h-5.426l20.547 20.547-20.453 20.453h5.26l20.536-20.536-20.464-20.464z"></path>
</svg>
