<!-- Generated by IcoMoon.io -->
<svg version="1.1" xmlns="http://www.w3.org/2000/svg" width="64" height="64" viewBox="0 0 64 64">
<title>shield-check</title>
<path d="M59.201 11.010c-0.169-0.017-16.995-1.782-24.902-8.531l-0.561-0.479h-3.475l-0.561 0.479c-7.894 6.737-24.734 8.514-24.902 8.531l-1.799 0.181v1.809c0 11.142 1.83 20.68 5.44 28.352 4.763 10.122 12.513 16.709 23.033 19.578l0.526 0.143 0.526-0.143c10.521-2.869 18.27-9.456 23.033-19.578 3.61-7.671 5.44-17.21 5.44-28.352v-1.809zM32 56.923c-19.929-5.757-24.678-25.683-24.984-42.159 4.703-0.658 17.313-2.901 24.7-8.764h0.567c7.388 5.863 19.997 8.106 24.7 8.764-0.306 16.476-5.055 36.402-24.984 42.159z"></path>
<path d="M23.414 28.586l-2.828 2.828 9.414 9.414 16.414-16.414-2.828-2.828-13.586 13.586-6.586-6.586z"></path>
</svg>
