<!-- Generated by IcoMoon.io -->
<svg version="1.1" xmlns="http://www.w3.org/2000/svg" width="64" height="64" viewBox="0 0 64 64">
<title>sign-language</title>
<path d="M55.706 30.229v-21.729c0-0.552-0.448-1-1-1v0c0 0 0 0 0 0-4.135 0-7.487 3.352-7.487 7.487v0 5.241l-1.080 1.080-8.741-8.741c-0.514-0.513-1.224-0.83-2.008-0.83-0.474 0-0.921 0.116-1.314 0.321l0.016-0.007-7.025-7.025c-0.633-0.633-1.508-1.025-2.475-1.025s-1.841 0.392-2.475 1.025v0c-0.633 0.633-1.025 1.508-1.025 2.475 0 0.784 0.258 1.507 0.693 2.091l-0.007-0.009v0.054l-2.49-2.49c-0.633-0.633-1.508-1.025-2.475-1.025-1.933 0-3.5 1.567-3.5 3.5 0 0.966 0.392 1.841 1.025 2.475l2.828 2.828c-0.633-0.632-1.507-1.022-2.472-1.022-1.933 0-3.5 1.567-3.5 3.5 0 0.965 0.391 1.839 1.022 2.472l3.535 3.535c-0.633-0.633-1.508-1.025-2.475-1.025s-1.841 0.392-2.475 1.025v0c-0.633 0.633-1.025 1.508-1.025 2.475s0.392 1.841 1.025 2.475l2.087 2.087c-2.078 0.77-3.532 2.734-3.535 5.037v0.254c0 0.001 0 0.003 0 0.004 0 0.503 0.070 0.99 0.2 1.452l-0.009-0.038c-2.587 0.411-4.542 2.625-4.546 5.295v0.254c0.004 2.671 1.958 4.885 4.515 5.292l0.031 0.004c-0.121 0.424-0.191 0.911-0.191 1.414 0 0.002 0 0.003 0 0.004v-0 0.254c0.003 2.957 2.4 5.354 5.357 5.357h1.786c-0.111 0.406-0.174 0.872-0.174 1.353 0 0.001 0 0.003 0 0.004v-0 0.122l-0 0.005 0 0.005v0.122c0.003 2.957 2.4 5.354 5.357 5.357h18.639l17.459-3.88v-26.007zM53.778 54.911l-13.898 3.089h-18.072c-0.818-0.001-1.482-0.663-1.484-1.481v-0.005c0.002-0.818 0.666-1.481 1.484-1.482h11.324v-4h-18.292c-0.001 0-0.003 0-0.004 0-0.82 0-1.484-0.664-1.484-1.484s0.665-1.484 1.484-1.484c0.002 0 0.003 0 0.005 0h18.291v-4h-22.647c-0.818-0.002-1.48-0.666-1.48-1.484s0.662-1.482 1.48-1.484h22.647v-4h-18.419c-0.749-0.001-1.356-0.608-1.357-1.357v-0.254c0.001-0.749 0.608-1.356 1.357-1.357h27.066v-6.094l-5.769-5.769c-0.852-0.854-1.379-2.033-1.379-3.335 0-0.992 0.306-1.912 0.828-2.672l-0.010 0.016 10.402 10.402 7.928 7.208z"></path>
</svg>
