<!-- Generated by IcoMoon.io -->
<svg version="1.1" xmlns="http://www.w3.org/2000/svg" width="64" height="64" viewBox="0 0 64 64">
<title>sim-slash</title>
<path d="M28.828 9h19.172v29.819l4 4v-33.819c-0.003-2.208-1.792-3.997-4-4h-19.172c-0.003 0-0.007 0-0.011 0-1.101 0-2.098 0.448-2.817 1.171l-5.325 5.325 2.828 2.828z"></path>
<path d="M44 27h-7.82l7.82 7.819v-7.819z"></path>
<path d="M4.815 2h-2.811v2.832l12.668 12.668-2.5 2.5c-0.724 0.72-1.172 1.716-1.172 2.818 0 0.004 0 0.008 0 0.011v-0.001 33.172c0.003 2.208 1.792 3.997 4 4h33c2.208-0.003 3.997-1.792 4-4v-1.175l7.175 7.174h2.825v-2.818zM40 42.826v5.174h-10v-15.173zM48 56h-33v-33.172l2.5-2.5 8.5 8.499v23.173h18v-5.174l4 4z"></path>
</svg>
