<!-- Generated by IcoMoon.io -->
<svg version="1.1" xmlns="http://www.w3.org/2000/svg" width="64" height="64" viewBox="0 0 64 64">
<title>sim</title>
<path d="M48 5h-19.172c-0.003 0-0.007 0-0.011 0-1.101 0-2.098 0.448-2.817 1.171l-13.829 13.829c-0.724 0.72-1.172 1.716-1.172 2.818 0 0.004 0 0.008 0 0.011v-0.001 33.172c0.003 2.208 1.792 3.997 4 4h33c2.208-0.003 3.997-1.792 4-4v-47c-0.003-2.208-1.792-3.997-4-4h-0zM48 56h-33v-33.172l13.828-13.828h19.172z"></path>
<path d="M26 52h18v-25h-18zM30 31h10v17h-10z"></path>
</svg>
