<!-- Generated by IcoMoon.io -->
<svg version="1.1" xmlns="http://www.w3.org/2000/svg" width="64" height="64" viewBox="0 0 64 64">
<title>smile</title>
<path d="M32 2c-16.569 0-30 13.431-30 30s13.431 30 30 30 30-13.431 30-30-13.431-30-30-30zM50.385 50.385c-4.685 4.672-11.151 7.56-18.291 7.56-14.308 0-25.906-11.599-25.906-25.906s11.599-25.906 25.906-25.906c14.308 0 25.906 11.599 25.906 25.906 0 3.64-0.751 7.105-2.106 10.248l0.065-0.168c-1.378 3.213-3.258 5.957-5.573 8.265l-0.001 0.001z"></path>
<path d="M19 25h5v5h-5v-5z"></path>
<path d="M40 25h5v5h-5v-5z"></path>
<path d="M42.286 38.4c-1.575 3.899-5.33 6.6-9.715 6.6-0.012 0-0.024 0-0.036-0h-1.072c-0.010 0-0.022 0-0.034 0-4.385 0-8.14-2.701-9.69-6.53l-0.025-0.070-0.16-0.4h-4.308l0.754 1.885c2.197 5.387 7.395 9.115 13.463 9.115h1.074c6.068 0 11.266-3.728 13.428-9.018l0.035-0.097 0.754-1.885h-4.308z"></path>
</svg>
