<!-- Generated by IcoMoon.io -->
<svg version="1.1" xmlns="http://www.w3.org/2000/svg" width="64" height="64" viewBox="0 0 64 64">
<title>smile-plus</title>
<path d="M54 10v-8h-4v8h-8v4h8v8h4v-8h8v-4h-8z"></path>
<path d="M14 32h5v5h-5v-5z"></path>
<path d="M31 32h5v5h-5v-5z"></path>
<path d="M25.43 48h-0.859c-0.008 0-0.017 0-0.026 0-3.33 0-6.183-2.045-7.371-4.947l-0.019-0.053h-4.309l0.583 1.457c1.801 4.456 6.091 7.543 11.103 7.543 0.014 0 0.027 0 0.041-0h0.857c0.012 0 0.025 0 0.039 0 5.012 0 9.302-3.087 11.074-7.463l0.029-0.080 0.583-1.457h-4.309c-1.207 2.955-4.060 5-7.39 5-0.009 0-0.018 0-0.027-0h0.001z"></path>
<path d="M25 16c-12.682 0-23 10.318-23 23s10.318 23 23 23 23-10.318 23-23-10.318-23-23-23zM25 58c-10.477 0-19-8.523-19-19s8.523-19 19-19 19 8.523 19 19-8.523 19-19 19z"></path>
</svg>
