<!-- Generated by IcoMoon.io -->
<svg version="1.1" xmlns="http://www.w3.org/2000/svg" width="64" height="64" viewBox="0 0 64 64">
<title>social-spotify</title>
<path d="M51.799 12.201c-5.071-5.091-12.087-8.241-19.839-8.241-15.464 0-28 12.536-28 28 0 7.752 3.15 14.768 8.24 19.838l0.001 0.001c5.071 5.091 12.087 8.241 19.839 8.241 15.464 0 28-12.536 28-28 0-7.752-3.15-14.768-8.24-19.838l-0.001-0.001zM32 56c-13.234 0-24-10.766-24-24s10.766-24 24-24 24 10.766 24 24-10.766 24-24 24z"></path>
<path d="M48.487 25.413c-8.905-5.287-22.998-5.784-31.476-3.21-0.932 0.287-1.598 1.14-1.598 2.15 0 1.24 1.005 2.245 2.245 2.245 0.234 0 0.46-0.036 0.673-0.103l-0.016 0.004c7.385-2.241 20.147-1.819 27.882 2.775h0.001c0.327 0.197 0.722 0.314 1.145 0.314 1.24 0 2.244-1.005 2.244-2.244 0-0.817-0.437-1.532-1.089-1.925l-0.010-0.006z"></path>
<path d="M42.51 40.557c-6.326-3.866-14.168-4.766-23.31-2.677-0.67 0.158-1.16 0.751-1.16 1.458 0 0.826 0.67 1.496 1.496 1.496 0.117 0 0.231-0.013 0.34-0.039l-0.010 0.002c8.354-1.909 15.448-1.129 21.083 2.313 0.222 0.138 0.492 0.22 0.781 0.22 0.827 0 1.497-0.67 1.497-1.497 0-0.538-0.284-1.009-0.709-1.273l-0.006-0.004z"></path>
<path d="M45.327 33.507c-7.408-4.553-18.244-5.834-26.96-3.189-0.775 0.24-1.329 0.951-1.329 1.791 0 1.033 0.838 1.871 1.871 1.871 0.195 0 0.382-0.030 0.558-0.085l-0.013 0.004c7.63-2.316 17.464-1.168 23.915 2.798 0.278 0.173 0.616 0.276 0.978 0.276 0.672 0 1.261-0.354 1.591-0.886l0.005-0.008v0c0.173-0.278 0.276-0.616 0.276-0.978 0-0.671-0.353-1.26-0.884-1.59l-0.008-0.005z"></path>
</svg>
