<!-- Generated by IcoMoon.io -->
<svg version="1.1" xmlns="http://www.w3.org/2000/svg" width="64" height="64" viewBox="0 0 64 64">
<title>speech-notes</title>
<path d="M58 4h-52c-2.208 0.003-3.997 1.792-4 4v36c0.003 2.208 1.792 3.997 4 4h8v14h3.828l14-14h26.172c2.208-0.003 3.997-1.792 4-4v-36c-0.003-2.208-1.792-3.997-4-4h-0zM58 44h-27.828l-12.172 12.172v-12.172h-12v-36h52z"></path>
<path d="M20 16h32v4h-32v-4z"></path>
<path d="M20 24h32v4h-32v-4z"></path>
<path d="M20 32h32v4h-32v-4z"></path>
<path d="M12 16h4v4h-4v-4z"></path>
<path d="M12 24h4v4h-4v-4z"></path>
<path d="M12 32h4v4h-4v-4z"></path>
</svg>
