<!-- Generated by IcoMoon.io -->
<svg version="1.1" xmlns="http://www.w3.org/2000/svg" width="64" height="64" viewBox="0 0 64 64">
<title>speech-notes-slash</title>
<path d="M58 4h-45.515l4 4h41.515v36h-5.515l4 4h1.515c2.208-0.003 3.997-1.792 4-4v-36c-0.003-2.208-1.792-3.997-4-4h-0z"></path>
<path d="M4.828 2h-2.828v2.828l27.172 27.172h-9.172v4h13.172l8 8h-11l-12.172 12.172v-12.172h-12v-29.35l-4-4v33.35c0.003 2.208 1.792 3.997 4 4h8v14h3.828l14-14h13.343l14 14h2.828v-2.828z"></path>
<path d="M52 16h-27.515l4 4h23.515v-4z"></path>
<path d="M52 24h-19.515l4 4h15.515v-4z"></path>
<path d="M52 36v-4h-11.515l4 4h7.515z"></path>
<path d="M12 24h4v4h-4v-4z"></path>
<path d="M12 32h4v4h-4v-4z"></path>
</svg>
