<!-- Generated by IcoMoon.io -->
<svg version="1.1" xmlns="http://www.w3.org/2000/svg" width="64" height="64" viewBox="0 0 64 64">
<title>spreadsheet</title>
<path d="M2 8v49h60v-49zM58 53h-52v-41h52z"></path>
<path d="M11 17h11v4h-11v-4z"></path>
<path d="M11 26h11v4h-11v-4z"></path>
<path d="M11 35h11v4h-11v-4z"></path>
<path d="M11 44h11v4h-11v-4z"></path>
<path d="M36 17h17v4h-17v-4z"></path>
<path d="M36 26h17v4h-17v-4z"></path>
<path d="M36 35h17v4h-17v-4z"></path>
<path d="M36 44h17v4h-17v-4z"></path>
<path d="M27 17h4v4h-4v-4z"></path>
<path d="M27 26h4v4h-4v-4z"></path>
<path d="M27 35h4v4h-4v-4z"></path>
<path d="M27 44h4v4h-4v-4z"></path>
</svg>
