<!-- Generated by IcoMoon.io -->
<svg version="1.1" xmlns="http://www.w3.org/2000/svg" width="64" height="64" viewBox="0 0 64 64">
<title>star-half</title>
<path d="M32 49.342l-14.964 7.549c-0.132 0.069-0.288 0.109-0.454 0.109-0.551 0-0.997-0.447-0.997-0.997 0-0.055 0.005-0.11 0.013-0.163l-0.001 0.006 2.571-16.668-11.877-11.973c-0.179-0.181-0.29-0.43-0.29-0.704 0-0.496 0.361-0.907 0.834-0.986l0.006-0.001 16.647-2.705 8.513-16.542v-4.266h-2.303l-8.842 17.183-14.655 2.382c-2.395 0.4-4.198 2.457-4.198 4.935 0 1.374 0.554 2.618 1.451 3.522l10.456 10.54-2.264 14.674c-0.038 0.23-0.059 0.496-0.059 0.767 0 2.76 2.237 4.997 4.997 4.997 0.823 0 1.599-0.199 2.283-0.551l-0.028 0.013 13.163-6.64z"></path>
</svg>
