<!-- Generated by IcoMoon.io -->
<svg version="1.1" xmlns="http://www.w3.org/2000/svg" width="64" height="64" viewBox="0 0 64 64">
<title>subway</title>
<path d="M48 23.346c-0.003-2.951-2.395-5.343-5.346-5.346h-21.308c-2.951 0.003-5.343 2.395-5.346 5.346v23.933l-12.197 14.721h5.195l9.943-12h26.12l9.943 12h5.195l-12.197-14.721zM20 23.346c0.001-0.743 0.603-1.345 1.346-1.346h21.308c0.743 0.001 1.345 0.603 1.346 1.346v7.654h-24zM44 46h-24v-11h24z"></path>
<path d="M23 38h4v4h-4v-4z"></path>
<path d="M37.107 38.053h3.947v3.947h-3.947v-3.947z"></path>
<path d="M53.213 10.787c-5.429-5.429-12.929-8.787-21.213-8.787-16.569 0-30 13.431-30 30 0 0 0 0 0 0v0 13h4v-13c0-14.336 11.664-26 26-26s26 11.664 26 26v13h4v-13c0-0.024 0-0.053 0-0.081 0-8.259-3.359-15.733-8.786-21.13l-0.001-0.001z"></path>
</svg>
