<!-- Generated by IcoMoon.io -->
<svg version="1.1" xmlns="http://www.w3.org/2000/svg" width="64" height="64" viewBox="0 0 64 64">
<title>sync-disabled</title>
<path d="M45 16.017l3.443 3.443c3.45 3.452 5.583 8.22 5.583 13.487 0 3.637-1.017 7.036-2.783 9.928l0.048-0.084 2.898 2.898c2.404-3.585 3.837-7.997 3.837-12.743 0-6.371-2.581-12.138-6.755-16.314l-3.62-3.62 10.351-0.011-0.004-4-16.998 0.018v16.982h4z"></path>
<path d="M29.003 13l-0.007-4c-3.432 0-6.688 0.752-9.613 2.1l0.143-0.059 3.070 3.070c1.907-0.703 4.11-1.11 6.407-1.111h0z"></path>
<path d="M4.828 2h-2.828v2.828l10.829 10.829c-0.033 0.033-0.067 0.064-0.1 0.097-4.173 4.173-6.755 9.939-6.755 16.307s2.581 12.134 6.755 16.307l3.631 3.631h-10.36v4h17v-17h-4v9.983l-3.442-3.443c-3.45-3.45-5.583-8.215-5.583-13.479s2.134-10.029 5.583-13.479v0c0.033-0.033 0.067-0.064 0.101-0.097l30.14 30.14c-3.011 2.111-6.75 3.374-10.785 3.374-0.006 0-0.012 0-0.018 0h0.001l0.007 4c0.006 0 0.014 0 0.022 0 5.137 0 9.879-1.692 13.699-4.55l-0.060 0.043 10.507 10.507h2.828v-2.828z"></path>
</svg>
