<!-- Generated by IcoMoon.io -->
<svg version="1.1" xmlns="http://www.w3.org/2000/svg" width="64" height="64" viewBox="0 0 64 64">
<title>target</title>
<path d="M45.263 25h4.4c-1.984-4.881-5.782-8.679-10.536-10.617l-0.128-0.046v4.401c2.68 1.442 4.821 3.583 6.224 6.183l0.040 0.080z"></path>
<path d="M39 45.263v4.4c4.881-1.984 8.679-5.782 10.617-10.536l0.046-0.128h-4.401c-1.442 2.68-3.583 4.821-6.183 6.224l-0.080 0.040z"></path>
<path d="M14.337 25h4.4c1.442-2.68 3.583-4.821 6.183-6.223l0.080-0.040v-4.401c-4.881 1.984-8.679 5.782-10.617 10.536l-0.046 0.128z"></path>
<path d="M18.737 39h-4.4c1.984 4.881 5.782 8.679 10.536 10.617l0.128 0.046v-4.401c-2.68-1.442-4.821-3.583-6.224-6.183l-0.040-0.080z"></path>
<path d="M30 2h4v22h-4v-22z"></path>
<path d="M30 40h4v22h-4v-22z"></path>
<path d="M40 30h22v4h-22v-4z"></path>
<path d="M2 30h22v4h-22v-4z"></path>
</svg>
