<!-- Generated by IcoMoon.io -->
<svg version="1.1" xmlns="http://www.w3.org/2000/svg" width="64" height="64" viewBox="0 0 64 64">
<title>taxi</title>
<path d="M10 38h4v-12h5v-4h-14v4h5v12z"></path>
<path d="M41.685 38l2.815-4.33 2.815 4.33h4.771l-5.2-8 5.2-8h-4.771l-2.815 4.33-2.815-4.33h-4.771l5.2 8-5.2 8h4.771z"></path>
<path d="M55 22h4v16h-4v-16z"></path>
<path d="M5 13h54v4h-54v-4z"></path>
<path d="M5 43h54v4h-54v-4z"></path>
<path d="M30.167 35l1 3h4.216l-5.333-16h-5.744l-4.93 16h4.186l0.924-3zM27.215 26.143l1.619 4.857h-3.115z"></path>
</svg>
