<!-- Generated by IcoMoon.io -->
<svg version="1.1" xmlns="http://www.w3.org/2000/svg" width="64" height="64" viewBox="0 0 64 64">
<title>text-strike</title>
<path d="M2 2v60h60v-60zM58 58h-52v-52h52z"></path>
<path d="M43.096 36h-10.971l4.758 3.219c0.665 0.453 1.116 1.178 1.194 2.012l0.001 0.011c0.009 0.079 0.013 0.17 0.013 0.263 0 0.72-0.295 1.372-0.771 1.84l-0 0c-0.485 0.477-1.484 1.28-2.737 1.28h-13v6.75h13c2.715 0 5.375-1.146 7.479-3.226 1.717-1.693 2.781-4.045 2.781-6.646 0-0.309-0.015-0.615-0.044-0.916l0.003 0.038c-0.163-1.749-0.777-3.328-1.724-4.654l0.020 0.029z"></path>
<path d="M38.261 32h15.739v-4h-21.65l-5.421-3.669c-1.525-1.031-1.216-2.594-1.085-3.049 0.159-0.55 0.706-1.83 2.375-1.905 0.809 0 14.785 0 14.785 0v-6.75s-14.898 0-14.975 0c-4.125 0.139-7.521 2.803-8.669 6.785-0.892 3.087-0.235 6.232 1.683 8.588h-11.043v4h28.261z"></path>
</svg>
