<!-- Generated by IcoMoon.io -->
<svg version="1.1" xmlns="http://www.w3.org/2000/svg" width="64" height="64" viewBox="0 0 64 64">
<title>timeline</title>
<path d="M56 21.747c3.478-0.92 6-4.038 6-7.746 0-4.418-3.582-8-8-8s-8 3.582-8 8c0 3.708 2.522 6.826 5.944 7.733l0.056 0.013v8.253h-18v-8.253c3.478-0.92 6-4.038 6-7.746 0-4.418-3.582-8-8-8s-8 3.582-8 8c0 3.708 2.522 6.826 5.944 7.733l0.056 0.013v8.253h-18v-8.253c3.478-0.92 6-4.038 6-7.746 0-4.418-3.582-8-8-8s-8 3.582-8 8c0 3.708 2.522 6.826 5.944 7.733l0.056 0.013v8.253h-6v4h17v8.253c-3.478 0.92-6 4.038-6 7.746 0 4.418 3.582 8 8 8s8-3.582 8-8c0-3.708-2.522-6.826-5.944-7.733l-0.056-0.013v-8.253h18v8.253c-3.478 0.92-6 4.038-6 7.746 0 4.418 3.582 8 8 8s8-3.582 8-8c0-3.708-2.522-6.826-5.944-7.733l-0.056-0.013v-8.253h17v-4h-6zM50 14c0-2.209 1.791-4 4-4s4 1.791 4 4c0 2.209-1.791 4-4 4v0c-2.208-0.003-3.997-1.792-4-4v-0zM28 14c0-2.209 1.791-4 4-4s4 1.791 4 4c0 2.209-1.791 4-4 4v0c-2.208-0.003-3.997-1.792-4-4v-0zM6 14c0-2.209 1.791-4 4-4s4 1.791 4 4c0 2.209-1.791 4-4 4v0c-2.208-0.003-3.997-1.792-4-4v-0zM25 50c0 2.209-1.791 4-4 4s-4-1.791-4-4c0-2.209 1.791-4 4-4v0c2.208 0.003 3.997 1.792 4 4v0zM47 50c0 2.209-1.791 4-4 4s-4-1.791-4-4c0-2.209 1.791-4 4-4v0c2.208 0.003 3.997 1.792 4 4v0z"></path>
</svg>
