<!-- Generated by IcoMoon.io -->
<svg version="1.1" xmlns="http://www.w3.org/2000/svg" width="64" height="64" viewBox="0 0 64 64">
<title>toggle-off</title>
<path d="M46 16h-28c-8.837 0-16 7.163-16 16s7.163 16 16 16v0h28c8.837 0 16-7.163 16-16s-7.163-16-16-16v0zM46 44h-28c-6.627 0-12-5.373-12-12s5.373-12 12-12v0h28c6.627 0 12 5.373 12 12s-5.373 12-12 12v0z"></path>
<path d="M18 24c-4.418 0-8 3.582-8 8s3.582 8 8 8c4.418 0 8-3.582 8-8v0c-0.005-4.416-3.584-7.995-8-8h-0zM18 36c-2.209 0-4-1.791-4-4s1.791-4 4-4c2.209 0 4 1.791 4 4v0c-0.003 2.208-1.792 3.997-4 4h-0z"></path>
</svg>
