<!-- Generated by IcoMoon.io -->
<svg version="1.1" xmlns="http://www.w3.org/2000/svg" width="64" height="64" viewBox="0 0 64 64">
<title>touch-app</title>
<path d="M56.803 34.87l-15.803-4.39v-1.023c4.782-2.436 8-7.323 8-12.962 0-8.008-6.492-14.5-14.5-14.5s-14.5 6.492-14.5 14.5c0 5.638 3.218 10.525 7.918 12.923l0.082 0.038v9.543h-3.052l-2.312-2.825c-2.088-2.538-5.23-4.145-8.747-4.145-2.68 0-5.142 0.933-7.079 2.491l0.022-0.017c-0.988 0.386-1.676 1.33-1.676 2.436 0 0.674 0.255 1.288 0.675 1.75l-0.002-0.002 21.056 23.313h32.114v-24.24c-0.003-1.37-0.921-2.525-2.176-2.885l-0.021-0.005zM24 16.5c0-0.003 0-0.006 0-0.009 0-5.799 4.701-10.5 10.5-10.5s10.5 4.701 10.5 10.5c0 3.335-1.554 6.306-3.978 8.23l-0.022 0.017v-8.238c0-3.59-2.91-6.5-6.5-6.5s-6.5 2.91-6.5 6.5v0 8.238c-2.445-1.937-4-4.906-4-8.237v-0zM55 58h-26.337l-18.77-20.781c1.126-0.745 2.509-1.189 3.995-1.189 2.273 0 4.303 1.038 5.643 2.665l0.010 0.013 3.512 4.293h8.948v-26.5c0-1.381 1.119-2.5 2.5-2.5s2.5 1.119 2.5 2.5v0 17.020l18 5z"></path>
</svg>
