<!-- Generated by IcoMoon.io -->
<svg version="1.1" xmlns="http://www.w3.org/2000/svg" width="64" height="64" viewBox="0 0 64 64">
<title>train</title>
<path d="M21 47.932c3.314 0 6-2.686 6-6s-2.686-6-6-6c-3.314 0-6 2.686-6 6v0c0.004 3.312 2.688 5.996 6 6h0zM21 39.932c1.105 0 2 0.895 2 2s-0.895 2-2 2c-1.105 0-2-0.895-2-2v0c0.001-1.104 0.896-1.999 2-2h0z"></path>
<path d="M43 47.932c3.314 0 6-2.686 6-6s-2.686-6-6-6c-3.314 0-6 2.686-6 6v0c0.004 3.312 2.688 5.996 6 6h0zM43 39.932c1.105 0 2 0.895 2 2s-0.895 2-2 2c-1.105 0-2-0.895-2-2v0c0.001-1.104 0.896-1.999 2-2h0z"></path>
<path d="M52 2h-40c-3.312 0.004-5.996 2.688-6 6v45.932h9.213l-6.199 8.068h5.044l6.199-8.068h23.486l6.199 8.068h5.044l-6.199-8.068h9.213v-45.932c-0.004-3.312-2.688-5.996-6-6h-0zM10 8c0.001-1.104 0.896-1.999 2-2h40c1.104 0.001 1.999 0.896 2 2v21.932h-44zM54 49.932h-44v-15.932h44z"></path>
<path d="M24 11h16v4h-16v-4z"></path>
</svg>
