<!-- Generated by IcoMoon.io -->
<svg version="1.1" xmlns="http://www.w3.org/2000/svg" width="64" height="64" viewBox="0 0 64 64">
<title>train-alt</title>
<path d="M8.609 49c3.65 0 6.609-2.959 6.609-6.609s-2.959-6.609-6.609-6.609c-3.65 0-6.609 2.959-6.609 6.609v0c0.004 3.648 2.961 6.605 6.609 6.609h0zM8.609 39.782c1.441 0 2.609 1.168 2.609 2.609s-1.168 2.609-2.609 2.609c-1.441 0-2.609-1.168-2.609-2.609 0 0 0-0 0-0v0c0.002-1.44 1.169-2.607 2.609-2.609h0z"></path>
<path d="M16.891 42.391c0 0 0 0 0 0 0 3.65 2.959 6.609 6.609 6.609s6.609-2.959 6.609-6.609c0-3.65-2.959-6.609-6.609-6.609v0c-3.648 0.004-6.605 2.961-6.609 6.609v0zM26.109 42.391c0 0 0 0 0 0 0 1.441-1.168 2.609-2.609 2.609s-2.609-1.168-2.609-2.609c0-1.441 1.168-2.609 2.609-2.609v0c1.44 0.002 2.607 1.169 2.609 2.609v0z"></path>
<path d="M55.506 31c0.932 1.461 1.625 2.72 2.082 3.608 0.26 0.493 0.412 1.077 0.412 1.696 0 2.041-1.655 3.696-3.696 3.696h-9.754c-0.986-2.487-3.37-4.213-6.158-4.213-3.649 0-6.607 2.958-6.607 6.607s2.958 6.607 6.607 6.607c3.078 0 5.665-2.105 6.398-4.954l0.010-0.046h9.503c4.25-0 7.696-3.446 7.696-7.696 0-1.287-0.316-2.501-0.875-3.567l0.020 0.042c-2.748-5.344-13.229-22.779-32.728-22.779h-26.417v4h16.796l6.882 13h-23.678v4h53.506zM38.391 45c-1.441 0-2.609-1.168-2.609-2.609s1.168-2.609 2.609-2.609c1.441 0 2.609 1.168 2.609 2.609v0c-0.002 1.44-1.169 2.607-2.609 2.609h-0zM23.322 14h5.095c11.417 0 19.416 6.922 24.24 13h-22.453z"></path>
<path d="M2 53h60v4h-60v-4z"></path>
</svg>
