<!-- Generated by IcoMoon.io -->
<svg version="1.1" xmlns="http://www.w3.org/2000/svg" width="64" height="64" viewBox="0 0 64 64">
<title>translate</title>
<path d="M28.775 44.602l1.804-3.831c-1.742-1.737-3.394-3.562-4.95-5.468l-0.102-0.129q1.984-2.678 3.699-5.5c2.974-4.796 5.463-10.331 7.181-16.194l0.12-0.48h6.474v-4h-18v-7h-4v7h-19v4h7.471c2.125 7.325 5.174 13.723 9.084 19.489l-0.153-0.239c0.851-1.051 1.712-2.179 2.57-3.375-2.97-4.567-5.462-9.829-7.209-15.421l-0.122-0.454h18.718c-3.716 12.191-10.569 21.151-15.83 26.64-6.125 6.389-11.494 9.608-11.547 9.639l0.202 0.346 0.816 1.375 1.018 1.721c0.234-0.138 5.809-3.466 12.299-10.21q1.922-2 3.68-4.116c1.873 2.243 3.761 4.267 5.754 6.184l0.025 0.024z"></path>
<path d="M46.285 25h-4.57l-0.715 1.565-14.828 32.435h4.398l4.572-10h17.715l4.572 10h4.398zM41 45h-4.030l7.030-15.375 7.030 15.375z"></path>
</svg>
