<!-- Generated by IcoMoon.io -->
<svg version="1.1" xmlns="http://www.w3.org/2000/svg" width="64" height="64" viewBox="0 0 64 64">
<title>transfer-within-a-station</title>
<path d="M50.586 33.385l2.828 2.828 9.314-9.314-9.314-9.314-2.828 2.828 4.586 4.586h-17.172v4h16.971l-4.385 4.385z"></path>
<path d="M49.414 40.615l-2.828-2.828-9.314 9.314 9.314 9.314 2.828-2.828-4.586-4.586h17.172v-4h-16.971l4.385-4.385z"></path>
<path d="M24.676 8.63c0.901 2.174-0.132 4.667-2.306 5.567s-4.667-0.132-5.567-2.306c-0.901-2.174 0.132-4.667 2.306-5.567s4.667 0.132 5.567 2.306z"></path>
<path d="M22.25 17.933l-7.573-2.58-9.703 3.528c-1.16 0.434-1.972 1.531-1.975 2.819v7.3h4v-6.599l6.101-2.219-11.274 34.818h4.202l6.26-19.476 0.984 0.321 4.726 8.665v10.49h4v-10.745c-0-0.527-0.136-1.022-0.374-1.452l0.008 0.015-4.695-8.608 3.619-11.089 2.409 4.335c0.523 0.927 1.5 1.543 2.622 1.543h6.412v-4h-5.823z"></path>
</svg>
