<!-- Generated by IcoMoon.io -->
<svg version="1.1" xmlns="http://www.w3.org/2000/svg" width="64" height="64" viewBox="0 0 64 64">
<title>truck</title>
<path d="M61.458 26.595l-6.222-8.889c-0.733-1.037-1.927-1.706-3.277-1.706h-9.959v-6c-0.003-2.208-1.792-3.997-4-4h-32c-2.208 0.003-3.997 1.792-4 4v41h6.635c0.737 4.005 4.201 7 8.365 7s7.628-2.995 8.357-6.948l0.008-0.052h13.271c0.737 4.005 4.201 7 8.365 7s7.628-2.995 8.357-6.948l0.008-0.052h6.635v-22.685c0-0.001 0-0.003 0-0.005 0-0.643-0.203-1.238-0.549-1.725l0.006 0.009zM6 10h32v22h-32l-0.002-22zM17 54c-2.485 0-4.5-2.015-4.5-4.5s2.015-4.5 4.5-4.5c2.485 0 4.5 2.015 4.5 4.5v0c-0.003 2.484-2.016 4.497-4.5 4.5h-0zM47 54c-2.485 0-4.5-2.015-4.5-4.5s2.015-4.5 4.5-4.5c2.485 0 4.5 2.015 4.5 4.5v0c-0.003 2.484-2.016 4.497-4.5 4.5h-0zM58 47h-2.876c-1.103-3.504-4.322-6-8.124-6s-7.022 2.496-8.108 5.94l-0.016 0.060h-13.751c-1.103-3.504-4.322-6-8.124-6s-7.021 2.496-8.108 5.94l-0.016 0.060h-2.876v-11h52zM58 32h-16v-12h9.959l6.041 8.63z"></path>
</svg>
