<!-- Generated by IcoMoon.io -->
<svg version="1.1" xmlns="http://www.w3.org/2000/svg" width="64" height="64" viewBox="0 0 64 64">
<title>tv-dvr</title>
<path d="M59 11.063h-21.172l9.063-9.063h-5.657l-9.063 9.063h-0.281l-9.063-9.063h-5.657l9.063 9.063h-21.234c-1.656 0.002-2.998 1.344-3 3v37c0.002 1.656 1.344 2.998 3 3h14v7.938h28v-7.938h12c1.656-0.002 2.998-1.344 3-3v-37c-0.002-1.656-1.344-2.998-3-3h-0zM43 58h-20v-3.938h20zM58 50.063h-52v-35h52z"></path>
<path d="M14 25h4v4h-4v-4z"></path>
<path d="M14 35h4v4h-4v-4z"></path>
<path d="M22 25h28v4h-28v-4z"></path>
<path d="M22 35h28v4h-28v-4z"></path>
</svg>
