<!-- Generated by IcoMoon.io -->
<svg version="1.1" xmlns="http://www.w3.org/2000/svg" width="64" height="64" viewBox="0 0 64 64">
<title>universal-access</title>
<path d="M35.527 15.239c0 2.077-1.684 3.761-3.761 3.761s-3.761-1.684-3.761-3.761c0-2.077 1.684-3.761 3.761-3.761s3.761 1.684 3.761 3.761z"></path>
<path d="M16 25h12v11.809l-3.803 14.191h4.141l3.582-13.369h0.159l3.582 13.369h4.141l-3.803-14.191v-11.809h12v-4h-32v4z"></path>
<path d="M32 2c-16.569 0-30 13.431-30 30s13.431 30 30 30 30-13.431 30-30-13.431-30-30-30zM32 58c-14.359 0-26-11.641-26-26s11.641-26 26-26 26 11.641 26 26-11.641 26-26 26z"></path>
</svg>
