<!-- Generated by IcoMoon.io -->
<svg version="1.1" xmlns="http://www.w3.org/2000/svg" width="64" height="64" viewBox="0 0 64 64">
<title>update</title>
<path d="M58 32.031c0 14.319-11.65 25.969-25.969 25.969s-25.969-11.65-25.969-25.969 11.65-25.969 25.969-25.969c7.363 0.005 14.010 3.069 18.737 7.991l0.008 0.009h-9.714v4h16v-16h-4v8.622c-5.406-5.327-12.832-8.617-21.027-8.617-16.549 0-29.965 13.416-29.965 29.965s13.416 29.965 29.965 29.965c16.549 0 29.965-13.416 29.965-29.965 0-0.001 0-0.001 0-0.002v0z"></path>
<path d="M34.063 14.056l-4 0.012 0.065 21.276 14.035 6.472 1.675-3.633-11.718-5.403-0.057-18.724z"></path>
</svg>
