<!-- Generated by IcoMoon.io -->
<svg version="1.1" xmlns="http://www.w3.org/2000/svg" width="64" height="64" viewBox="0 0 64 64">
<title>vector</title>
<path d="M49.649 38.817c3.762-4.083 5.918-9.52 6.293-15.817h6.059v-16h-16v16h5.932c-0.583 8.649-4.975 14.954-11.932 17.609v-4.609h-16v4.609c-6.957-2.654-11.349-8.96-11.932-17.609h5.932v-16h-16v16h6.059c0.374 6.297 2.53 11.734 6.293 15.817 1.807 1.959 3.957 3.568 6.36 4.74l0.126 0.056-6.113 2.038c-0.323-0.424-0.677-0.796-1.066-1.127l-0.010-0.008c-1.224-1.040-2.823-1.672-4.57-1.672-2.163 0-4.099 0.97-5.398 2.499l-0.008 0.010v-0c-1.040 1.224-1.672 2.823-1.672 4.57 0 3.905 3.162 7.072 7.066 7.079h0.001q0.3 0 0.603-0.025c3.646-0.314 6.486-3.351 6.486-7.051 0-0.186-0.007-0.37-0.021-0.552l0.002 0.024 7.863-2.621v5.225h16v-5.225l7.862 2.621c-0.012 0.157-0.019 0.339-0.019 0.523 0 0.209 0.009 0.416 0.026 0.621l-0.002-0.027c0.315 3.642 3.346 6.481 7.041 6.488h0.001q0.3 0 0.603-0.025c3.646-0.315 6.487-3.353 6.487-7.054 0-3.909-3.169-7.079-7.079-7.079-2.163 0-4.099 0.97-5.398 2.499l-0.008 0.010c-0.083 0.098-0.162 0.198-0.239 0.299l-6.114-2.038c2.529-1.227 4.68-2.837 6.473-4.781l0.013-0.015zM50 19v-8h8v8zM6 19v-8h8v8zM11.43 51.909c-0.568 0.67-1.411 1.093-2.353 1.093-1.7 0-3.079-1.378-3.079-3.079 0-0.76 0.276-1.456 0.732-1.993l-0.004 0.004v-0c0.513-0.607 1.25-1.010 2.083-1.080l0.011-0.001q0.132-0.011 0.262-0.011c1.698 0.003 3.073 1.38 3.073 3.079 0 0.76-0.275 1.455-0.731 1.992l0.004-0.004zM36 48h-8v-8h8zM52.57 47.934v-0c0.513-0.607 1.25-1.010 2.083-1.080l0.011-0.001q0.132-0.011 0.263-0.011c1.699 0.003 3.074 1.38 3.074 3.079 0 1.701-1.379 3.079-3.079 3.079s-3.079-1.379-3.079-3.079c0-0.76 0.275-1.455 0.731-1.992l-0.004 0.004z"></path>
</svg>
