<!-- Generated by IcoMoon.io -->
<svg version="1.1" xmlns="http://www.w3.org/2000/svg" width="64" height="64" viewBox="0 0 64 64">
<title>vertical-align-center</title>
<path d="M46 62h16v-24h-16zM50 42h8v16h-8z"></path>
<path d="M24 53h16v-15h-16zM28 42h8v7h-8z"></path>
<path d="M2 62h16v-24h-16zM6 42h8v16h-8z"></path>
<path d="M18 2h-16v24h16zM14 22h-8v-16h8z"></path>
<path d="M40 12h-16v14h16zM36 22h-8v-6h8z"></path>
<path d="M46 2v24h16v-24zM58 22h-8v-16h8z"></path>
<path d="M2 30h60v4h-60v-4z"></path>
</svg>
