<!-- Generated by IcoMoon.io -->
<svg version="1.1" xmlns="http://www.w3.org/2000/svg" width="64" height="64" viewBox="0 0 64 64">
<title>view-agenda</title>
<path d="M59 8h-54c-1.656 0.002-2.998 1.344-3 3v16c0.002 1.656 1.344 2.998 3 3h54c1.656-0.002 2.998-1.344 3-3v-16c-0.002-1.656-1.344-2.998-3-3h-0zM58 26h-52v-14h52z"></path>
<path d="M59 34h-54c-1.656 0.002-2.998 1.344-3 3v16c0.002 1.656 1.344 2.998 3 3h54c1.656-0.002 2.998-1.344 3-3v-16c-0.002-1.656-1.344-2.998-3-3h-0zM58 52h-52v-14h52z"></path>
</svg>
