<!-- Generated by IcoMoon.io -->
<svg version="1.1" xmlns="http://www.w3.org/2000/svg" width="64" height="64" viewBox="0 0 64 64">
<title>voicemail</title>
<path d="M47.8 19.002c-6.973 0.105-12.668 5.778-12.798 12.751-0.002 0.076-0.002 0.166-0.002 0.256 0 3.494 1.383 6.665 3.632 8.995l-0.004-0.004h-13.257c2.245-2.326 3.628-5.497 3.628-8.992 0-0.090-0.001-0.18-0.003-0.269l0 0.013c-0.13-6.973-5.825-12.646-12.798-12.751-0.084-0.002-0.182-0.003-0.281-0.003-7.174 0-12.989 5.816-12.989 12.989 0 7.117 5.724 12.898 12.82 12.988l0.009 0 1.242 0.024 31.242-0.024c7.075-0.128 12.762-5.893 12.762-12.987 0-7.174-5.816-12.989-12.989-12.989-0.075 0-0.15 0.001-0.225 0.002l0.011-0zM16 41c-4.971 0-9-4.029-9-9s4.029-9 9-9c4.971 0 9 4.029 9 9v0c-0.006 4.968-4.032 8.994-8.999 9h-0.001zM48 41c-4.971 0-9-4.029-9-9s4.029-9 9-9c4.971 0 9 4.029 9 9v0c-0.006 4.968-4.032 8.994-8.999 9h-0.001z"></path>
</svg>
