<!-- Generated by IcoMoon.io -->
<svg version="1.1" xmlns="http://www.w3.org/2000/svg" width="64" height="64" viewBox="0 0 64 64">
<title>watch</title>
<path d="M52 32c0-0.005 0-0.010 0-0.015 0-5.201-1.993-9.936-5.257-13.484l0.013 0.014-3.096-16.515h-23.32l-3.096 16.515c-3.251 3.539-5.244 8.28-5.244 13.486s1.993 9.946 5.257 13.5l-0.013-0.014 3.096 16.514h23.32l3.096-16.514c3.251-3.534 5.244-8.269 5.244-13.47 0-0.005 0-0.011 0-0.016v0.001zM40.34 6l1.624 8.664c-2.859-1.675-6.297-2.664-9.965-2.664s-7.105 0.989-10.059 2.715l0.095-0.051 1.625-8.664zM32 16c8.837 0 16 7.163 16 16s-7.163 16-16 16c-8.837 0-16-7.163-16-16v0c0.010-8.832 7.168-15.99 15.999-16h0.001zM23.66 58l-1.625-8.664c2.859 1.675 6.296 2.664 9.965 2.664s7.105-0.989 10.059-2.715l-0.095 0.051-1.624 8.664z"></path>
</svg>
