<!-- Generated by IcoMoon.io -->
<svg version="1.1" xmlns="http://www.w3.org/2000/svg" width="64" height="64" viewBox="0 0 64 64">
<title>window-restore</title>
<path d="M44 19.125h-38.969c-1.656 0.002-2.998 1.344-3 3v35.125c0.002 1.656 1.344 2.998 3 3h38.969c1.656-0.002 2.998-1.344 3-3v-35.125c-0.002-1.656-1.344-2.998-3-3h-0zM43 23.125v5.652h-36.969v-5.652zM6.031 56.25v-23.472h36.969v23.472z"></path>
<path d="M59 4h-40c-1.656 0.002-2.998 1.344-3 3v8.125h4v-7.125h38v34.393h-7v4h8c1.656-0.002 2.998-1.344 3-3v-36.393c-0.002-1.656-1.344-2.998-3-3h-0z"></path>
</svg>
