<!-- Generated by IcoMoon.io -->
<svg version="1.1" xmlns="http://www.w3.org/2000/svg" width="64" height="64" viewBox="0 0 64 64">
<title>x-square</title>
<path d="M59 2h-54c-1.656 0.002-2.998 1.344-3 3v54c0.002 1.656 1.344 2.998 3 3h54c1.656-0.002 2.998-1.344 3-3v-54c-0.002-1.656-1.344-2.998-3-3h-0zM58 58h-52v-52h52z"></path>
<path d="M17.598 43.574l2.828 2.828 11.574-11.574 11.586 11.586 2.828-2.828-11.586-11.586 11.574-11.574-2.828-2.828-11.574 11.574-11.586-11.586-2.828 2.828 11.586 11.586-11.574 11.574z"></path>
</svg>
